# FamiTracker text export 0.4.2

# Song information
TITLE           ""
AUTHOR          ""
COPYRIGHT       ""

# Song comment
COMMENT ""

# Global settings
MACHINE         0
FRAMERATE       0
EXPANSION       0
VIBRATO         1
SPLIT           32

# Macros
MACRO       0   0  -1  -1   0 : 15 13 12 11 10 10 9 9 8 7 7 6 6 5 5 5 4 4 3 3 3 2 2 2 1 1 1 1 1 0 0 0
MACRO       0   1  -1  -1   0 : 15 15 13 13 13 13 12 12 12 12 12 11 11 11 11 10 10 10 10 10 9 9 9 9 8 8 8 8 8 8 7 7 7 7 7 7 6 6 6 6 6 6 5 5 5 5 5 5 5 4 4 4 4 4 4 4 4 3 3 3 3 3 3 3 3 3 2 2 2 2 2 2 2 2 2 2 1 1 1 1 1 1 1 1 1 1 1 1 0 0 0 0
MACRO       0   2  -1  -1   0 : 15
MACRO       0   3  -1  -1   0 : 12 10 8 6 10 7 5 4 3 2 1 0 0
MACRO       0   4  -1  -1   0 : 15 11 6 2 0
MACRO       0   5  -1  -1   0 : 14 11 10 9 8 6 5 5 4 3 3 2 2 1 1 1 0
MACRO       0   6  -1  -1   0 : 15 14 13 12 11 10 9 9 8 8 7 7 6 6 6 5 5 5 4 4 4 4 3 3 3 3 3 2 2 2 2 2 2 1 1 1 1 1 1 1 1 1 1
MACRO       0   7  -1  -1   0 : 15 0 0
MACRO       0   8  -1  -1   0 : 15 14 13 12 12 11 11 10 10 9 9 8 8 7 7 7 6 6 6 5 5 12 11 10 9 9 8 7 7 6 6 5 5 4 4 3 3 9 8 7 6 6 5 4 4 3 3 2 7 6 5 5 4 4 3 2 5 4 3 2 1 3 2 1 0 0 0 0 0 0 0 0 0 0 0 0 0 0 0 0 0 0 0 0 0 0 0 0 0 0 0 0 0 0 0 0 0 0 0
MACRO       0   9  -1  -1   0 : 15 6 14 6 13 5 12 5 10 4 11 3 13 5 11 8 10 3 8 4 6 2 5 1 4 4 4 3 3 3 2 2 2 2 1 1 1 1 1 1 1 1 0 0 0 0
MACRO       0  10  -1  -1   0 : 15 11 8 6 4 4 3 3 2 2 1 1 0 0 0
MACRO       0  11  -1  -1   0 : 15 15 14 13 12 11 10 9 9 8 8 7 7 6 6 6 5 5 4 4 4 4 3 3 2 2 2 2 2 1 1 1 1 1 1 1 0 0 0 0 0 0 0 0 0 0 0
MACRO       0  12  -1  -1   0 : 14 15 15 15 15 15 14 13 12 10 8 7 6 5 4 3 2 2 1 1 0 0 0 0 0 0 0 0 0 0 0
MACRO       0  13  -1  -1   0 : 15
MACRO       0  14  -1  -1   0 : 6 11 14 15 15
MACRO       0  15  -1  -1   0 : 15
MACRO       0  16  -1  -1   0 : 15 5 0
MACRO       0  17  -1  -1   0 : 15 6 0
MACRO       1   0  -1  -1   0 : 12
MACRO       1   1   0  -1   0 : 24 24 19 19 16 16 14 14 12 12 7 7 4 4 2 2 0 0
MACRO       1   2  -1  -1   0 : -1 -2 -3 -4 -5 -6 -7 -8 -9 -10 -10 -10 -10 -10 -10 -10 -10 -10 -10 -10 -10 -10 -10 -10 -10 -10 -10 -10 -10 -10 -10 -10 -10 -10 -10 -10
MACRO       1   3  -1  -1   0 : 12 7 0
MACRO       1   4  -1  -1   0 : 12 0
MACRO       1   5   0  -1   0 : 24 24 24 19 19 19 16 16 16 14 14 14 12 12 12 7 7 7 4 4 4 2 2 2 0
MACRO       1   6   0  -1   0 : 24 24 19 19 15 15 14 14 12 12 7 7 3 3 2 2 0 0
MACRO       4   0  -1  -1   0 : 0
MACRO       4   1  -1  -1   0 : 2 0
MACRO       4   2  -1  -1   0 : 2
MACRO       4   3  -1  -1   0 : 1
MACRO       4   4  -1  -1   0 : 2 1 3
MACRO       4   5  -1  -1   0 : 2
MACRO       4   6  -1  -1   0 : 2 1
MACRO       4   7  -1  -1   0 : 3
MACRO       4   8  -1  -1   0 : 2

# DPCM samples

# Instruments
INST2A03   0     0  -1  -1  -1  -1 "mid tail "
INST2A03   1     1  -1  -1  -1  -1 "bass "
INST2A03   2     2  -1  -1  -1   2 "lead triangle"
INST2A03   3     3  -1  -1  -1   0 "2 framPlusEchov0"
INST2A03   4     0  -1  -1  -1   2 "mid tail d1"
INST2A03   5     4  -1  -1  -1  -1 "short tail"
INST2A03   6    15   1  -1  -1   4 "short maj chord"
INST2A03   7     2  -1  -1  -1   7 "lead squ"
INST2A03   8     7  -1  -1  -1  -1 "2 fram"
INST2A03   9     3  -1  -1  -1   2 "2 framPlusEchov2"
INST2A03  10     4  -1  -1  -1   3 "short tail V1"
INST2A03  11    10  -1  -1  -1  -1 "horn"
INST2A03  12     2  -1  -1  -1   3 "lead squV2"
INST2A03  13     0  -1  -1  -1   3 "mid tail V1"
INST2A03  14    11   3  -1  -1   0 "uglyBell"
INST2A03  15    12   4  -1  -1   4 "themeGameplay1"
INST2A03  16    13  -1  -1  -1   8 "emptyV2"
INST2A03  17    15   6  -1  -1   4 "short min chord"
INST2A03  18    14  -1  -1  -1   7 "lead squ no attack"
INST2A03  19    14  -1  -1  -1   0 "lead squ no attackV0"
INST2A03  20     6  -1  -1  -1   3 "lead victory"
INST2A03  21     4  -1  -1  -1   3 "short tail V1"
INST2A03  22    16  -1  -1  -1  -1 "brush"
INST2A03  23    17   4  -1  -1  -1 "2 fram+oct"

# Tracks

TRACK  64   2 190 "title"
COLUMNS : 1 2 1 1 2

ORDER 00 : 00 00 00 00 00
ORDER 01 : 01 01 01 01 00
ORDER 02 : 02 02 02 02 00
ORDER 03 : 03 03 03 01 00
ORDER 04 : 04 04 04 02 00
ORDER 05 : 05 05 05 01 00
ORDER 06 : 06 06 06 02 00
ORDER 07 : 07 07 07 01 00
ORDER 08 : 08 08 08 02 00
ORDER 09 : 09 09 09 09 00
ORDER 0A : 0A 0A 0A 09 00
ORDER 0B : 0B 0B 0B 09 00
ORDER 0C : 0C 0C 0C 0C 00
ORDER 0D : 0D 0D 0D 09 00
ORDER 0E : 0E 0E 0E 09 00
ORDER 0F : 0F 0F 0F 09 00
ORDER 10 : 10 10 10 10 00

PATTERN 00
ROW 00 : ... .. . ... : ... .. . ... ... : ... .. . ... : C-# 00 4 ... : ... .. . ... ...
ROW 01 : ... .. . ... : ... .. . ... ... : ... .. . ... : ... .. . ... : ... .. . ... ...
ROW 02 : ... .. . ... : ... .. . ... ... : ... .. . ... : ... .. . ... : ... .. . ... ...
ROW 03 : ... .. . ... : ... .. . ... ... : ... .. . ... : ... .. . ... : ... .. . ... ...
ROW 04 : ... .. . ... : ... .. . ... ... : ... .. . ... : A-# 00 6 ... : ... .. . ... ...
ROW 05 : ... .. . ... : ... .. . ... ... : ... .. . ... : ... .. . ... : ... .. . ... ...
ROW 06 : ... .. . ... : ... .. . ... ... : ... .. . ... : ... .. . ... : ... .. . ... ...
ROW 07 : ... .. . ... : ... .. . ... ... : ... .. . ... : ... .. . ... : ... .. . ... ...
ROW 08 : ... .. . ... : ... .. . ... ... : ... .. . ... : 7-# 00 8 ... : ... .. . ... ...
ROW 09 : ... .. . ... : ... .. . ... ... : ... .. . ... : ... .. . ... : ... .. . ... ...
ROW 0A : ... .. . ... : ... .. . ... ... : ... .. . ... : ... .. . ... : ... .. . ... ...
ROW 0B : ... .. . ... : ... .. . ... ... : ... .. . ... : ... .. . ... : ... .. . ... ...
ROW 0C : ... .. . ... : ... .. . ... ... : ... .. . ... : 5-# 00 A ... : ... .. . ... ...
ROW 0D : ... .. . ... : ... .. . ... ... : ... .. . ... : ... .. . ... : ... .. . ... ...
ROW 0E : ... .. . ... : ... .. . ... ... : ... .. . ... : ... .. . ... : ... .. . ... ...
ROW 0F : ... .. . ... : ... .. . ... ... : ... .. . ... : ... .. . D00 : ... .. . ... ...
ROW 10 : ... .. . ... : ... .. . ... ... : ... .. . ... : ... .. . ... : ... .. . ... ...
ROW 11 : ... .. . ... : ... .. . ... ... : ... .. . ... : ... .. . ... : ... .. . ... ...
ROW 12 : ... .. . ... : ... .. . ... ... : ... .. . ... : ... .. . ... : ... .. . ... ...
ROW 13 : ... .. . ... : ... .. . ... ... : ... .. . ... : ... .. . ... : ... .. . ... ...
ROW 14 : ... .. . ... : ... .. . ... ... : ... .. . ... : ... .. . ... : ... .. . ... ...
ROW 15 : ... .. . ... : ... .. . ... ... : ... .. . ... : ... .. . ... : ... .. . ... ...
ROW 16 : ... .. . ... : ... .. . ... ... : ... .. . ... : ... .. . ... : ... .. . ... ...
ROW 17 : ... .. . ... : ... .. . ... ... : ... .. . ... : ... .. . ... : ... .. . ... ...
ROW 18 : ... .. . ... : ... .. . ... ... : ... .. . ... : ... .. . ... : ... .. . ... ...
ROW 19 : ... .. . ... : ... .. . ... ... : ... .. . ... : ... .. . ... : ... .. . ... ...
ROW 1A : ... .. . ... : ... .. . ... ... : ... .. . ... : ... .. . ... : ... .. . ... ...
ROW 1B : ... .. . ... : ... .. . ... ... : ... .. . ... : ... .. . ... : ... .. . ... ...
ROW 1C : ... .. . ... : ... .. . ... ... : ... .. . ... : ... .. . ... : ... .. . ... ...
ROW 1D : ... .. . ... : ... .. . ... ... : ... .. . ... : ... .. . ... : ... .. . ... ...
ROW 1E : ... .. . ... : ... .. . ... ... : ... .. . ... : ... .. . ... : ... .. . ... ...
ROW 1F : ... .. . ... : ... .. . ... ... : ... .. . ... : ... .. . ... : ... .. . ... ...
ROW 20 : ... .. . ... : ... .. . ... ... : ... .. . ... : ... .. . ... : ... .. . ... ...
ROW 21 : ... .. . ... : ... .. . ... ... : ... .. . ... : ... .. . ... : ... .. . ... ...
ROW 22 : ... .. . ... : ... .. . ... ... : ... .. . ... : ... .. . ... : ... .. . ... ...
ROW 23 : ... .. . ... : ... .. . ... ... : ... .. . ... : ... .. . ... : ... .. . ... ...
ROW 24 : ... .. . ... : ... .. . ... ... : ... .. . ... : ... .. . ... : ... .. . ... ...
ROW 25 : ... .. . ... : ... .. . ... ... : ... .. . ... : ... .. . ... : ... .. . ... ...
ROW 26 : ... .. . ... : ... .. . ... ... : ... .. . ... : ... .. . ... : ... .. . ... ...
ROW 27 : ... .. . ... : ... .. . ... ... : ... .. . ... : ... .. . ... : ... .. . ... ...
ROW 28 : ... .. . ... : ... .. . ... ... : ... .. . ... : ... .. . ... : ... .. . ... ...
ROW 29 : ... .. . ... : ... .. . ... ... : ... .. . ... : ... .. . ... : ... .. . ... ...
ROW 2A : ... .. . ... : ... .. . ... ... : ... .. . ... : ... .. . ... : ... .. . ... ...
ROW 2B : ... .. . ... : ... .. . ... ... : ... .. . ... : ... .. . ... : ... .. . ... ...
ROW 2C : ... .. . ... : ... .. . ... ... : ... .. . ... : ... .. . ... : ... .. . ... ...
ROW 2D : ... .. . ... : ... .. . ... ... : ... .. . ... : ... .. . ... : ... .. . ... ...
ROW 2E : ... .. . ... : ... .. . ... ... : ... .. . ... : ... .. . ... : ... .. . ... ...
ROW 2F : ... .. . ... : ... .. . ... ... : ... .. . ... : ... .. . ... : ... .. . ... ...
ROW 30 : ... .. . ... : ... .. . ... ... : ... .. . ... : ... .. . ... : ... .. . ... ...
ROW 31 : ... .. . ... : ... .. . ... ... : ... .. . ... : ... .. . ... : ... .. . ... ...
ROW 32 : ... .. . ... : ... .. . ... ... : ... .. . ... : ... .. . ... : ... .. . ... ...
ROW 33 : ... .. . ... : ... .. . ... ... : ... .. . ... : ... .. . ... : ... .. . ... ...
ROW 34 : ... .. . ... : ... .. . ... ... : ... .. . ... : ... .. . ... : ... .. . ... ...
ROW 35 : ... .. . ... : ... .. . ... ... : ... .. . ... : ... .. . ... : ... .. . ... ...
ROW 36 : ... .. . ... : ... .. . ... ... : ... .. . ... : ... .. . ... : ... .. . ... ...
ROW 37 : ... .. . ... : ... .. . ... ... : ... .. . ... : ... .. . ... : ... .. . ... ...
ROW 38 : ... .. . ... : ... .. . ... ... : ... .. . ... : ... .. . ... : ... .. . ... ...
ROW 39 : ... .. . ... : ... .. . ... ... : ... .. . ... : ... .. . ... : ... .. . ... ...
ROW 3A : ... .. . ... : ... .. . ... ... : ... .. . ... : ... .. . ... : ... .. . ... ...
ROW 3B : ... .. . ... : ... .. . ... ... : ... .. . ... : ... .. . ... : ... .. . ... ...
ROW 3C : ... .. . ... : ... .. . ... ... : ... .. . ... : ... .. . ... : ... .. . ... ...
ROW 3D : ... .. . ... : ... .. . ... ... : ... .. . ... : ... .. . ... : ... .. . ... ...
ROW 3E : ... .. . ... : ... .. . ... ... : ... .. . ... : ... .. . ... : ... .. . ... ...
ROW 3F : ... .. . ... : ... .. . ... ... : ... .. . ... : ... .. . ... : ... .. . ... ...

PATTERN 01
ROW 00 : C-1 01 A ... : C-4 03 A ... ... : ... .. . ... : A-# 01 6 ... : ... .. . ... ...
ROW 01 : ... .. . ... : ... .. . ... ... : ... .. . ... : ... .. . ... : ... .. . ... ...
ROW 02 : ... .. . ... : ... .. . ... ... : ... .. . ... : ... .. . ... : ... .. . ... ...
ROW 03 : ... .. . ... : ... .. . ... ... : ... .. . ... : ... .. . ... : ... .. . ... ...
ROW 04 : ... .. . ... : G-3 03 . ... ... : ... .. . ... : ... .. 5 ... : ... .. . ... ...
ROW 05 : ... .. . ... : ... .. . ... ... : ... .. . ... : ... .. . ... : ... .. . ... ...
ROW 06 : ... .. . ... : ... .. . ... ... : ... .. . ... : ... .. . ... : ... .. . ... ...
ROW 07 : ... .. . ... : ... .. . ... ... : ... .. . ... : ... .. . ... : ... .. . ... ...
ROW 08 : ... .. . ... : E-3 03 . ... ... : ... .. . ... : ... .. 4 ... : ... .. . ... ...
ROW 09 : ... .. . ... : ... .. . ... ... : ... .. . ... : ... .. . ... : ... .. . ... ...
ROW 0A : ... .. . ... : ... .. . ... ... : ... .. . ... : ... .. . ... : ... .. . ... ...
ROW 0B : ... .. . ... : ... .. . ... ... : ... .. . ... : ... .. 2 ... : ... .. . ... ...
ROW 0C : ... .. . ... : D-3 03 . ... ... : ... .. . ... : ... .. . ... : ... .. . ... ...
ROW 0D : ... .. . ... : ... .. . ... ... : ... .. . ... : ... .. . ... : ... .. . ... ...
ROW 0E : ... .. . ... : ... .. . ... ... : ... .. . ... : ... .. 1 ... : ... .. . ... ...
ROW 0F : ... .. . ... : ... .. . ... ... : ... .. . ... : ... .. . ... : ... .. . ... ...
ROW 10 : ... .. . ... : C-4 03 . ... ... : F-4 02 . ... : --- .. . ... : ... .. . ... ...
ROW 11 : ... .. . ... : ... .. . ... ... : F#4 02 . ... : ... .. . ... : ... .. . ... ...
ROW 12 : ... .. . ... : ... .. . ... ... : G-4 02 . ... : ... .. . ... : ... .. . ... ...
ROW 13 : ... .. . ... : ... .. . ... ... : ... .. . ... : ... .. . ... : ... .. . ... ...
ROW 14 : ... .. . ... : G-3 03 . ... ... : ... .. . ... : ... .. . ... : ... .. . ... ...
ROW 15 : ... .. . ... : ... .. . ... ... : ... .. . ... : ... .. . ... : ... .. . ... ...
ROW 16 : ... .. . ... : ... .. . ... ... : ... .. . ... : ... .. . ... : ... .. . ... ...
ROW 17 : ... .. . ... : ... .. . ... ... : ... .. . ... : ... .. . ... : ... .. . ... ...
ROW 18 : ... .. . 20A : E-3 03 . ... ... : ... .. . ... : E-# 05 3 ... : ... .. . ... ...
ROW 19 : ... .. . ... : ... .. . ... ... : ... .. . ... : ... .. . ... : ... .. . ... ...
ROW 1A : ... .. . ... : ... .. . ... ... : ... .. . ... : E-# 05 4 ... : ... .. . ... ...
ROW 1B : ... .. . ... : ... .. . ... ... : ... .. . ... : ... .. . ... : ... .. . ... ...
ROW 1C : ... .. . ... : D-3 03 . ... ... : ... .. . ... : E-# 05 5 ... : ... .. . ... ...
ROW 1D : ... .. . ... : ... .. . ... ... : ... .. . ... : ... .. . ... : ... .. . ... ...
ROW 1E : ... .. . ... : ... .. . ... ... : ... .. . ... : E-# 05 6 ... : ... .. . ... ...
ROW 1F : ... .. . ... : ... .. . ... ... : --- .. . ... : ... .. . ... : ... .. . ... ...
ROW 20 : --- .. . 200 : C-4 03 . ... ... : C-5 02 . ... : 6-# 00 7 ... : ... .. . ... ...
ROW 21 : ... .. . ... : ... .. . ... ... : ... .. . ... : ... .. 5 ... : ... .. . ... ...
ROW 22 : ... .. . ... : ... .. . ... ... : ... .. . ... : ... .. 3 ... : ... .. . ... ...
ROW 23 : ... .. . ... : ... .. . ... ... : ... .. . ... : ... .. 1 ... : ... .. . ... ...
ROW 24 : ... .. . ... : G-3 03 . ... ... : ... .. . ... : --- .. . ... : ... .. . ... ...
ROW 25 : ... .. . ... : ... .. . ... ... : ... .. . ... : ... .. . ... : ... .. . ... ...
ROW 26 : ... .. . ... : ... .. . ... ... : ... .. . ... : ... .. . ... : ... .. . ... ...
ROW 27 : ... .. . ... : ... .. . ... ... : ... .. . ... : ... .. . ... : ... .. . ... ...
ROW 28 : C-1 01 . ... : E-3 03 . ... ... : ... .. . ... : 6-# 01 3 ... : ... .. . ... ...
ROW 29 : ... .. . ... : ... .. . ... ... : ... .. . ... : ... .. . ... : ... .. . ... ...
ROW 2A : ... .. . ... : ... .. . ... ... : ... .. . ... : ... .. . ... : ... .. . ... ...
ROW 2B : ... .. . ... : ... .. . ... ... : ... .. . ... : ... .. . ... : ... .. . ... ...
ROW 2C : ... .. . ... : D-3 03 . ... ... : ... .. . 204 : ... .. 2 ... : ... .. . ... ...
ROW 2D : ... .. . ... : ... .. . ... ... : ... .. . ... : ... .. . ... : ... .. . ... ...
ROW 2E : ... .. . ... : ... .. . ... ... : ... .. . ... : ... .. . ... : ... .. . ... ...
ROW 2F : ... .. . ... : ... .. . ... ... : --- .. . ... : ... .. . ... : ... .. . ... ...
ROW 30 : --- .. . ... : C-4 03 . ... ... : F#5 02 . 200 : ... .. 1 ... : ... .. . ... ...
ROW 31 : ... .. . ... : ... .. . ... ... : G-5 02 . ... : --- .. . ... : ... .. . ... ...
ROW 32 : ... .. . ... : ... .. . ... ... : ... .. . ... : ... .. . ... : ... .. . ... ...
ROW 33 : ... .. . ... : ... .. . ... ... : ... .. . ... : ... .. . ... : ... .. . ... ...
ROW 34 : ... .. . ... : G-3 03 . ... ... : ... .. . ... : ... .. . ... : ... .. . ... ...
ROW 35 : ... .. . ... : ... .. . ... ... : ... .. . ... : ... .. . ... : ... .. . ... ...
ROW 36 : ... .. . ... : ... .. . ... ... : ... .. . ... : ... .. . ... : ... .. . ... ...
ROW 37 : ... .. . ... : ... .. . ... ... : ... .. . ... : ... .. . ... : ... .. . ... ...
ROW 38 : C-1 01 . ... : E-3 03 . ... ... : ... .. . ... : E-# 05 5 ... : ... .. . ... ...
ROW 39 : ... .. . ... : ... .. . ... ... : ... .. . ... : ... .. . ... : ... .. . ... ...
ROW 3A : ... .. . ... : ... .. . ... ... : ... .. . ... : E-# 05 6 ... : ... .. . ... ...
ROW 3B : ... .. . ... : ... .. . ... ... : ... .. . ... : ... .. . ... : ... .. . ... ...
ROW 3C : --- .. . ... : D-3 03 . ... ... : ... .. . ... : E-# 05 7 ... : ... .. . ... ...
ROW 3D : ... .. . ... : ... .. . ... ... : ... .. . ... : ... .. . ... : ... .. . ... ...
ROW 3E : ... .. . ... : ... .. . ... ... : ... .. . ... : E-# 05 8 ... : ... .. . ... ...
ROW 3F : ... .. . ... : ... .. . ... ... : --- .. . ... : ... .. . ... : ... .. . ... ...

PATTERN 02
ROW 00 : C-1 01 A ... : D-4 03 9 ... ... : F#5 02 . ... : E-# 05 7 ... : ... .. . ... ...
ROW 01 : ... .. . ... : ... .. . ... ... : ... .. . ... : ... .. . ... : ... .. . ... ...
ROW 02 : ... .. . ... : ... .. . ... ... : ... .. . ... : ... .. . ... : ... .. . ... ...
ROW 03 : ... .. . ... : ... .. . ... ... : ... .. . ... : ... .. . ... : ... .. . ... ...
ROW 04 : --- .. . ... : A-3 03 . ... ... : ... .. . ... : E-# 05 4 ... : ... .. . ... ...
ROW 05 : ... .. . ... : ... .. . ... ... : ... .. . ... : ... .. . ... : ... .. . ... ...
ROW 06 : ... .. . ... : ... .. . ... ... : ... .. . ... : ... .. . ... : ... .. . ... ...
ROW 07 : ... .. . ... : ... .. . ... ... : ... .. . ... : ... .. . ... : ... .. . ... ...
ROW 08 : C-1 01 . ... : F#3 03 . ... ... : ... .. . ... : E-# 05 5 ... : ... .. . ... ...
ROW 09 : ... .. . ... : ... .. . ... ... : ... .. . ... : ... .. . ... : ... .. . ... ...
ROW 0A : ... .. . ... : ... .. . ... ... : ... .. . ... : ... .. . ... : ... .. . ... ...
ROW 0B : ... .. . ... : ... .. . ... ... : ... .. . ... : ... .. . ... : ... .. . ... ...
ROW 0C : ... .. . ... : E-3 03 . ... ... : ... .. . ... : E-# 05 4 ... : ... .. . ... ...
ROW 0D : ... .. . ... : ... .. . ... ... : ... .. . ... : ... .. . ... : ... .. . ... ...
ROW 0E : ... .. . ... : ... .. . ... ... : ... .. . ... : ... .. . ... : ... .. . ... ...
ROW 0F : ... .. . ... : ... .. . ... ... : ... .. . ... : ... .. . ... : ... .. . ... ...
ROW 10 : ... .. . ... : D-4 03 . ... ... : ... .. . ... : E-# 05 7 ... : ... .. . ... ...
ROW 11 : ... .. . ... : ... .. . ... ... : ... .. . ... : ... .. . ... : ... .. . ... ...
ROW 12 : ... .. . ... : ... .. . ... ... : ... .. . ... : ... .. . ... : ... .. . ... ...
ROW 13 : ... .. . ... : ... .. . ... ... : ... .. . ... : ... .. . ... : ... .. . ... ...
ROW 14 : ... .. . ... : A-3 03 . ... ... : ... .. . ... : E-# 05 4 ... : ... .. . ... ...
ROW 15 : ... .. . ... : ... .. . ... ... : ... .. . ... : ... .. . ... : ... .. . ... ...
ROW 16 : ... .. . ... : ... .. . ... ... : ... .. . ... : ... .. . ... : ... .. . ... ...
ROW 17 : ... .. . ... : ... .. . ... ... : ... .. . ... : ... .. . ... : ... .. . ... ...
ROW 18 : ... .. . ... : F#3 03 . ... ... : ... .. . ... : E-# 05 5 ... : ... .. . ... ...
ROW 19 : ... .. . ... : ... .. . ... ... : ... .. . ... : ... .. . ... : ... .. . ... ...
ROW 1A : ... .. . ... : ... .. . ... ... : ... .. . ... : ... .. . ... : ... .. . ... ...
ROW 1B : ... .. . ... : ... .. . ... ... : ... .. . ... : ... .. . ... : ... .. . ... ...
ROW 1C : ... .. . ... : E-3 03 . ... ... : ... .. . ... : E-# 05 4 ... : ... .. . ... ...
ROW 1D : ... .. . ... : ... .. . ... ... : ... .. . ... : ... .. . ... : ... .. . ... ...
ROW 1E : ... .. . ... : ... .. . ... ... : ... .. . ... : ... .. . ... : ... .. . ... ...
ROW 1F : ... .. . ... : ... .. . ... ... : ... .. . ... : ... .. . ... : ... .. . ... ...
ROW 20 : ... .. . 20A : D-2 03 . ... ... : ... .. . 483 : F-# 01 8 ... : ... .. . ... ...
ROW 21 : ... .. . ... : ... .. . ... ... : ... .. . ... : ... .. . ... : ... .. . ... ...
ROW 22 : ... .. . ... : ... .. . ... ... : ... .. . ... : ... .. . ... : ... .. . ... ...
ROW 23 : ... .. . ... : ... .. . ... ... : ... .. . ... : ... .. . ... : ... .. . ... ...
ROW 24 : ... .. . ... : F#2 03 . ... ... : ... .. . ... : ... .. 5 ... : ... .. . ... ...
ROW 25 : ... .. . ... : ... .. . ... ... : ... .. . ... : ... .. . ... : ... .. . ... ...
ROW 26 : ... .. . ... : ... .. . ... ... : ... .. . ... : ... .. . ... : ... .. . ... ...
ROW 27 : ... .. . ... : ... .. . ... ... : ... .. . ... : ... .. . ... : ... .. . ... ...
ROW 28 : --- .. . 200 : A-2 03 . ... ... : ... .. . ... : ... .. 2 ... : ... .. . ... ...
ROW 29 : ... .. . ... : ... .. . ... ... : ... .. . ... : ... .. . ... : ... .. . ... ...
ROW 2A : ... .. . ... : ... .. . ... ... : ... .. . ... : ... .. 1 ... : ... .. . ... ...
ROW 2B : ... .. . ... : ... .. . ... ... : ... .. . ... : ... .. . ... : ... .. . ... ...
ROW 2C : ... .. . ... : F#2 03 . ... ... : ... .. . ... : E-# 05 2 ... : ... .. . ... ...
ROW 2D : ... .. . ... : ... .. . ... ... : ... .. . ... : ... .. . ... : ... .. . ... ...
ROW 2E : ... .. . ... : ... .. . ... ... : ... .. . ... : ... .. . ... : ... .. . ... ...
ROW 2F : ... .. . ... : ... .. . ... ... : ... .. . ... : ... .. . ... : ... .. . ... ...
ROW 30 : ... .. . ... : A-2 03 . ... ... : --- .. . 400 : C-# 00 4 ... : ... .. . ... ...
ROW 31 : ... .. . ... : ... .. . ... ... : ... .. . ... : ... .. . ... : ... .. . ... ...
ROW 32 : ... .. . ... : ... .. . ... ... : ... .. . ... : ... .. . ... : ... .. . ... ...
ROW 33 : ... .. . ... : ... .. . ... ... : ... .. . ... : ... .. . ... : ... .. . ... ...
ROW 34 : ... .. . ... : D-3 03 . ... ... : ... .. . ... : A-# 00 4 ... : ... .. . ... ...
ROW 35 : ... .. . ... : ... .. . ... ... : ... .. . ... : ... .. . ... : ... .. . ... ...
ROW 36 : ... .. . ... : ... .. . ... ... : ... .. . ... : ... .. . ... : ... .. . ... ...
ROW 37 : ... .. . ... : ... .. . ... ... : ... .. . ... : ... .. . ... : ... .. . ... ...
ROW 38 : C-1 01 . ... : F#3 03 . ... ... : D-5 02 . ... : 8-# 00 4 ... : ... .. . ... ...
ROW 39 : ... .. . ... : ... .. . ... ... : ... .. . ... : ... .. . ... : ... .. . ... ...
ROW 3A : ... .. . ... : ... .. . ... ... : ... .. . ... : ... .. . ... : ... .. . ... ...
ROW 3B : --- .. . ... : ... .. . ... ... : ... .. . ... : ... .. . ... : ... .. . ... ...
ROW 3C : C-1 01 . ... : A-3 03 . ... ... : E-5 02 . ... : 7-# 00 4 ... : ... .. . ... ...
ROW 3D : ... .. . ... : ... .. . ... ... : ... .. . ... : ... .. . ... : ... .. . ... ...
ROW 3E : ... .. . ... : ... .. . ... ... : ... .. . ... : ... .. . ... : ... .. . ... ...
ROW 3F : --- .. . ... : ... .. . ... ... : --- .. . ... : ... .. . ... : ... .. . ... ...

PATTERN 03
ROW 00 : C-1 01 A ... : C-4 03 9 ... ... : F-5 02 . ... : A-# 01 5 ... : ... .. . ... ...
ROW 01 : ... .. . ... : ... .. . ... ... : ... .. . ... : ... .. . ... : ... .. . ... ...
ROW 02 : ... .. . ... : ... .. . ... ... : ... .. . ... : ... .. . ... : ... .. . ... ...
ROW 03 : ... .. . ... : ... .. . ... ... : ... .. . ... : ... .. . ... : ... .. . ... ...
ROW 04 : ... .. . ... : A-3 03 . ... ... : ... .. . ... : ... .. 4 ... : ... .. . ... ...
ROW 05 : ... .. . ... : ... .. . ... ... : ... .. . ... : ... .. . ... : ... .. . ... ...
ROW 06 : ... .. . ... : ... .. . ... ... : ... .. . ... : ... .. . ... : ... .. . ... ...
ROW 07 : ... .. . ... : ... .. . ... ... : ... .. . ... : ... .. . ... : ... .. . ... ...
ROW 08 : ... .. . ... : G-3 03 . ... ... : ... .. . ... : ... .. 3 ... : ... .. . ... ...
ROW 09 : ... .. . ... : ... .. . ... ... : ... .. . ... : ... .. . ... : ... .. . ... ...
ROW 0A : ... .. . ... : ... .. . ... ... : ... .. . ... : ... .. . ... : ... .. . ... ...
ROW 0B : ... .. . ... : ... .. . ... ... : ... .. . ... : ... .. 2 ... : ... .. . ... ...
ROW 0C : ... .. . ... : F-3 03 . ... ... : ... .. . ... : ... .. . ... : ... .. . ... ...
ROW 0D : ... .. . ... : ... .. . ... ... : ... .. . ... : ... .. . ... : ... .. . ... ...
ROW 0E : ... .. . ... : ... .. . ... ... : ... .. . ... : ... .. 1 ... : ... .. . ... ...
ROW 0F : ... .. . ... : ... .. . ... ... : ... .. . ... : ... .. . ... : ... .. . ... ...
ROW 10 : ... .. . ... : F-4 03 . ... ... : ... .. . 483 : --- .. . ... : ... .. . ... ...
ROW 11 : ... .. . ... : ... .. . ... ... : ... .. . ... : ... .. . ... : ... .. . ... ...
ROW 12 : ... .. . ... : ... .. . ... ... : ... .. . ... : ... .. . ... : ... .. . ... ...
ROW 13 : ... .. . ... : ... .. . ... ... : ... .. . ... : ... .. . ... : ... .. . ... ...
ROW 14 : ... .. . ... : C-4 03 . ... ... : ... .. . ... : ... .. . ... : ... .. . ... ...
ROW 15 : ... .. . ... : ... .. . ... ... : ... .. . ... : ... .. . ... : ... .. . ... ...
ROW 16 : ... .. . ... : ... .. . ... ... : ... .. . ... : ... .. . ... : ... .. . ... ...
ROW 17 : ... .. . ... : ... .. . ... ... : ... .. . ... : ... .. . ... : ... .. . ... ...
ROW 18 : ... .. . 20A : A-3 03 . ... ... : ... .. . ... : E-# 05 3 ... : ... .. . ... ...
ROW 19 : ... .. . ... : ... .. . ... ... : ... .. . ... : ... .. . ... : ... .. . ... ...
ROW 1A : ... .. . ... : ... .. . ... ... : ... .. . ... : E-# 05 4 ... : ... .. . ... ...
ROW 1B : ... .. . ... : ... .. . ... ... : ... .. . ... : ... .. . ... : ... .. . ... ...
ROW 1C : ... .. . ... : F-3 03 . ... ... : ... .. . ... : E-# 05 5 ... : ... .. . ... ...
ROW 1D : ... .. . ... : ... .. . ... ... : ... .. . ... : ... .. . ... : ... .. . ... ...
ROW 1E : ... .. . ... : ... .. . ... ... : ... .. . ... : E-# 05 6 ... : ... .. . ... ...
ROW 1F : ... .. . ... : ... .. . ... ... : --- .. . ... : ... .. . ... : ... .. . ... ...
ROW 20 : --- .. . 200 : C-4 03 . ... ... : G-5 02 . 400 : 6-# 00 7 ... : ... .. . ... ...
ROW 21 : ... .. . ... : ... .. . ... ... : ... .. . ... : ... .. 5 ... : ... .. . ... ...
ROW 22 : ... .. . ... : ... .. . ... ... : ... .. . ... : ... .. 3 ... : ... .. . ... ...
ROW 23 : ... .. . ... : ... .. . ... ... : ... .. . ... : ... .. 1 ... : ... .. . ... ...
ROW 24 : ... .. . ... : G#3 03 . ... ... : ... .. . ... : --- .. . ... : ... .. . ... ...
ROW 25 : ... .. . ... : ... .. . ... ... : ... .. . ... : ... .. . ... : ... .. . ... ...
ROW 26 : ... .. . ... : ... .. . ... ... : ... .. . ... : ... .. . ... : ... .. . ... ...
ROW 27 : ... .. . ... : ... .. . ... ... : ... .. . ... : ... .. . ... : ... .. . ... ...
ROW 28 : C-1 01 . ... : G-3 03 . ... ... : ... .. . ... : 6-# 01 3 ... : ... .. . ... ...
ROW 29 : ... .. . ... : ... .. . ... ... : ... .. . ... : ... .. . ... : ... .. . ... ...
ROW 2A : ... .. . ... : ... .. . ... ... : ... .. . ... : ... .. . ... : ... .. . ... ...
ROW 2B : ... .. . ... : ... .. . ... ... : ... .. . ... : ... .. . ... : ... .. . ... ...
ROW 2C : ... .. . ... : F-3 03 . ... ... : ... .. . ... : ... .. . ... : ... .. . ... ...
ROW 2D : ... .. . ... : ... .. . ... ... : ... .. . ... : ... .. . ... : ... .. . ... ...
ROW 2E : ... .. . ... : ... .. . ... ... : ... .. . ... : ... .. . ... : ... .. . ... ...
ROW 2F : ... .. . ... : ... .. . ... ... : ... .. . ... : ... .. . ... : ... .. . ... ...
ROW 30 : --- .. . ... : C-4 03 . ... ... : ... .. . 483 : ... .. 2 ... : ... .. . ... ...
ROW 31 : ... .. . ... : ... .. . ... ... : ... .. . ... : ... .. . ... : ... .. . ... ...
ROW 32 : ... .. . ... : ... .. . ... ... : ... .. . ... : ... .. . ... : ... .. . ... ...
ROW 33 : ... .. . ... : ... .. . ... ... : ... .. . ... : ... .. . ... : ... .. . ... ...
ROW 34 : ... .. . ... : G#3 03 . ... ... : ... .. . ... : ... .. 1 ... : ... .. . ... ...
ROW 35 : ... .. . ... : ... .. . ... ... : ... .. . ... : ... .. . ... : ... .. . ... ...
ROW 36 : ... .. . ... : ... .. . ... ... : ... .. . ... : ... .. . ... : ... .. . ... ...
ROW 37 : ... .. . ... : ... .. . ... ... : ... .. . ... : ... .. . ... : ... .. . ... ...
ROW 38 : C-1 01 . ... : G-3 03 . ... ... : ... .. . ... : E-# 05 3 ... : ... .. . ... ...
ROW 39 : ... .. . ... : ... .. . ... ... : ... .. . ... : ... .. . ... : ... .. . ... ...
ROW 3A : ... .. . ... : ... .. . ... ... : ... .. . ... : E-# 05 4 ... : ... .. . ... ...
ROW 3B : --- .. . ... : ... .. . ... ... : ... .. . ... : ... .. . ... : ... .. . ... ...
ROW 3C : C-1 01 . ... : F-3 03 . ... ... : F-5 02 . 400 : E-# 05 5 ... : ... .. . ... ...
ROW 3D : ... .. . ... : ... .. . ... ... : ... .. . ... : ... .. . ... : ... .. . ... ...
ROW 3E : ... .. . ... : ... .. . ... ... : ... .. . ... : E-# 05 6 ... : ... .. . ... ...
ROW 3F : --- .. . ... : ... .. . ... ... : --- .. . ... : ... .. . ... : ... .. . ... ...

PATTERN 04
ROW 00 : C-1 01 A ... : C-4 03 9 ... ... : E-5 02 . ... : E-# 05 7 ... : ... .. . ... ...
ROW 01 : ... .. . ... : ... .. . ... ... : ... .. . ... : ... .. . ... : ... .. . ... ...
ROW 02 : ... .. . ... : ... .. . ... ... : ... .. . ... : ... .. . ... : ... .. . ... ...
ROW 03 : ... .. . ... : ... .. . ... ... : ... .. . ... : ... .. . ... : ... .. . ... ...
ROW 04 : --- .. . ... : G-3 03 . ... ... : D-5 02 . ... : E-# 05 4 ... : ... .. . ... ...
ROW 05 : ... .. . ... : ... .. . ... ... : ... .. . ... : ... .. . ... : ... .. . ... ...
ROW 06 : ... .. . ... : ... .. . ... ... : ... .. . ... : ... .. . ... : ... .. . ... ...
ROW 07 : ... .. . ... : ... .. . ... ... : --- .. . ... : ... .. . ... : ... .. . ... ...
ROW 08 : C-1 01 . ... : E-3 03 . ... ... : C-5 02 . ... : E-# 05 5 ... : ... .. . ... ...
ROW 09 : ... .. . ... : ... .. . ... ... : ... .. . ... : ... .. . ... : ... .. . ... ...
ROW 0A : ... .. . ... : ... .. . ... ... : ... .. . ... : ... .. . ... : ... .. . ... ...
ROW 0B : ... .. . ... : ... .. . ... ... : ... .. . ... : ... .. . ... : ... .. . ... ...
ROW 0C : ... .. . ... : D-3 03 . ... ... : ... .. . ... : E-# 05 4 ... : ... .. . ... ...
ROW 0D : ... .. . ... : ... .. . ... ... : ... .. . ... : ... .. . ... : ... .. . ... ...
ROW 0E : ... .. . ... : ... .. . ... ... : ... .. . ... : ... .. . ... : ... .. . ... ...
ROW 0F : ... .. . ... : ... .. . ... ... : ... .. . ... : ... .. . ... : ... .. . ... ...
ROW 10 : ... .. . ... : C-4 03 . ... ... : ... .. . ... : E-# 05 7 ... : ... .. . ... ...
ROW 11 : ... .. . ... : ... .. . ... ... : ... .. . ... : ... .. . ... : ... .. . ... ...
ROW 12 : ... .. . ... : ... .. . ... ... : ... .. . ... : ... .. . ... : ... .. . ... ...
ROW 13 : ... .. . ... : ... .. . ... ... : ... .. . ... : ... .. . ... : ... .. . ... ...
ROW 14 : ... .. . ... : G-3 03 . ... ... : ... .. . ... : E-# 05 4 ... : ... .. . ... ...
ROW 15 : ... .. . ... : ... .. . ... ... : ... .. . ... : ... .. . ... : ... .. . ... ...
ROW 16 : ... .. . ... : ... .. . ... ... : ... .. . ... : ... .. . ... : ... .. . ... ...
ROW 17 : ... .. . ... : ... .. . ... ... : ... .. . ... : ... .. . ... : ... .. . ... ...
ROW 18 : ... .. . ... : E-3 03 . ... ... : ... .. . 483 : E-# 05 5 ... : ... .. . ... ...
ROW 19 : ... .. . ... : ... .. . ... ... : ... .. . ... : ... .. . ... : ... .. . ... ...
ROW 1A : ... .. . ... : ... .. . ... ... : ... .. . ... : ... .. . ... : ... .. . ... ...
ROW 1B : ... .. . ... : ... .. . ... ... : ... .. . ... : ... .. . ... : ... .. . ... ...
ROW 1C : ... .. . ... : D-3 03 . ... ... : ... .. . ... : E-# 05 4 ... : ... .. . ... ...
ROW 1D : ... .. . ... : ... .. . ... ... : ... .. . ... : ... .. . ... : ... .. . ... ...
ROW 1E : ... .. . ... : ... .. . ... ... : ... .. . ... : ... .. . ... : ... .. . ... ...
ROW 1F : ... .. . ... : ... .. . ... ... : ... .. . ... : ... .. . ... : ... .. . ... ...
ROW 20 : ... .. . 20A : C-2 03 . ... ... : ... .. . ... : F-# 01 7 ... : ... .. . ... ...
ROW 21 : ... .. . ... : ... .. . ... ... : ... .. . ... : ... .. . ... : ... .. . ... ...
ROW 22 : ... .. . ... : ... .. . ... ... : ... .. . ... : ... .. . ... : ... .. . ... ...
ROW 23 : ... .. . ... : ... .. . ... ... : ... .. . ... : ... .. . ... : ... .. . ... ...
ROW 24 : ... .. . ... : E-2 03 . ... ... : ... .. . ... : ... .. . ... : ... .. . ... ...
ROW 25 : ... .. . ... : ... .. . ... ... : ... .. . ... : ... .. . ... : ... .. . ... ...
ROW 26 : ... .. . ... : ... .. . ... ... : ... .. . ... : ... .. . ... : ... .. . ... ...
ROW 27 : ... .. . ... : ... .. . ... ... : ... .. . ... : ... .. . ... : ... .. . ... ...
ROW 28 : --- .. . 200 : G-2 03 . ... ... : --- .. . 400 : ... .. . ... : ... .. . ... ...
ROW 29 : ... .. . ... : ... .. . ... ... : ... .. . ... : ... .. . ... : ... .. . ... ...
ROW 2A : ... .. . ... : ... .. . ... ... : ... .. . ... : ... .. . ... : ... .. . ... ...
ROW 2B : ... .. . ... : ... .. . ... ... : ... .. . ... : ... .. . ... : ... .. . ... ...
ROW 2C : ... .. . ... : C-3 03 . ... ... : ... .. . ... : E-# 05 2 ... : ... .. . ... ...
ROW 2D : ... .. . ... : ... .. . ... ... : ... .. . ... : ... .. . ... : ... .. . ... ...
ROW 2E : ... .. . ... : ... .. . ... ... : ... .. . ... : ... .. . ... : ... .. . ... ...
ROW 2F : ... .. . ... : ... .. . ... ... : ... .. . ... : ... .. . ... : ... .. . ... ...
ROW 30 : G-1 01 . ... : G-2 03 . ... ... : ... .. . ... : C-# 00 4 ... : ... .. . ... ...
ROW 31 : ... .. . ... : ... .. . ... ... : ... .. . ... : ... .. . ... : ... .. . ... ...
ROW 32 : ... .. . ... : ... .. . ... ... : ... .. . ... : ... .. . ... : ... .. . ... ...
ROW 33 : ... .. . ... : ... .. . ... ... : ... .. . ... : ... .. . ... : ... .. . ... ...
ROW 34 : ... .. . ... : C-3 03 . ... ... : ... .. . ... : A-# 00 4 ... : ... .. . ... ...
ROW 35 : ... .. . ... : ... .. . ... ... : ... .. . ... : ... .. . ... : ... .. . ... ...
ROW 36 : ... .. . ... : ... .. . ... ... : ... .. . ... : ... .. . ... : ... .. . ... ...
ROW 37 : ... .. . ... : ... .. . ... ... : ... .. . ... : ... .. . ... : ... .. . ... ...
ROW 38 : ... .. . ... : E-3 03 . ... ... : ... .. . ... : 8-# 00 4 ... : ... .. . ... ...
ROW 39 : ... .. . ... : ... .. . ... ... : ... .. . ... : ... .. . ... : ... .. . ... ...
ROW 3A : ... .. . ... : ... .. . ... ... : ... .. . ... : ... .. . ... : ... .. . ... ...
ROW 3B : ... .. . ... : ... .. . ... ... : ... .. . ... : ... .. . ... : ... .. . ... ...
ROW 3C : ... .. . ... : G-3 03 . ... ... : ... .. . ... : 7-# 00 4 ... : ... .. . ... ...
ROW 3D : ... .. . ... : ... .. . ... ... : ... .. . ... : ... .. . ... : ... .. . ... ...
ROW 3E : ... .. . ... : ... .. . ... ... : ... .. . ... : ... .. . ... : ... .. . ... ...
ROW 3F : ... .. . ... : ... .. . ... ... : ... .. . ... : ... .. . ... : ... .. . ... ...

PATTERN 05
ROW 00 : C-1 01 A ... : C-4 03 9 ... ... : ... .. . ... : A-# 01 5 ... : ... .. . ... ...
ROW 01 : ... .. . ... : ... .. . ... ... : ... .. . ... : ... .. . ... : ... .. . ... ...
ROW 02 : ... .. . ... : ... .. . ... ... : ... .. . ... : ... .. . ... : ... .. . ... ...
ROW 03 : ... .. . ... : ... .. . ... ... : ... .. . ... : ... .. . ... : ... .. . ... ...
ROW 04 : ... .. . ... : G-3 03 . ... ... : ... .. . ... : ... .. 4 ... : ... .. . ... ...
ROW 05 : ... .. . ... : ... .. . ... ... : ... .. . ... : ... .. . ... : ... .. . ... ...
ROW 06 : ... .. . ... : ... .. . ... ... : ... .. . ... : ... .. . ... : ... .. . ... ...
ROW 07 : ... .. . ... : ... .. . ... ... : ... .. . ... : ... .. . ... : ... .. . ... ...
ROW 08 : ... .. . ... : E-3 03 . ... ... : ... .. . ... : ... .. 3 ... : ... .. . ... ...
ROW 09 : ... .. . ... : ... .. . ... ... : ... .. . ... : ... .. . ... : ... .. . ... ...
ROW 0A : ... .. . ... : ... .. . ... ... : ... .. . ... : ... .. . ... : ... .. . ... ...
ROW 0B : ... .. . ... : ... .. . ... ... : ... .. . ... : ... .. 2 ... : ... .. . ... ...
ROW 0C : ... .. . ... : D-3 03 . ... ... : ... .. . ... : ... .. . ... : ... .. . ... ...
ROW 0D : ... .. . ... : ... .. . ... ... : ... .. . ... : ... .. . ... : ... .. . ... ...
ROW 0E : ... .. . ... : ... .. . ... ... : ... .. . ... : ... .. 1 ... : ... .. . ... ...
ROW 0F : ... .. . ... : ... .. . ... ... : ... .. . ... : ... .. . ... : ... .. . ... ...
ROW 10 : ... .. . ... : C-4 03 . ... ... : F-4 02 . ... : --- .. . ... : ... .. . ... ...
ROW 11 : ... .. . ... : ... .. . ... ... : F#4 02 . ... : ... .. . ... : ... .. . ... ...
ROW 12 : ... .. . ... : ... .. . ... ... : G-4 02 . ... : ... .. . ... : ... .. . ... ...
ROW 13 : ... .. . ... : ... .. . ... ... : ... .. . ... : ... .. . ... : ... .. . ... ...
ROW 14 : ... .. . ... : G-3 03 . ... ... : ... .. . ... : ... .. . ... : ... .. . ... ...
ROW 15 : ... .. . ... : ... .. . ... ... : ... .. . ... : ... .. . ... : ... .. . ... ...
ROW 16 : ... .. . ... : ... .. . ... ... : ... .. . ... : ... .. . ... : ... .. . ... ...
ROW 17 : ... .. . ... : ... .. . ... ... : ... .. . ... : ... .. . ... : ... .. . ... ...
ROW 18 : ... .. . 20A : E-3 03 . ... ... : ... .. . ... : E-# 05 3 ... : ... .. . ... ...
ROW 19 : ... .. . ... : ... .. . ... ... : ... .. . ... : ... .. . ... : ... .. . ... ...
ROW 1A : ... .. . ... : ... .. . ... ... : A-4 02 . ... : E-# 05 4 ... : ... .. . ... ...
ROW 1B : ... .. . ... : ... .. . ... ... : ... .. . ... : ... .. . ... : ... .. . ... ...
ROW 1C : ... .. . ... : D-3 03 . ... ... : G-4 02 . ... : E-# 05 5 ... : ... .. . ... ...
ROW 1D : ... .. . ... : ... .. . ... ... : ... .. . ... : ... .. . ... : ... .. . ... ...
ROW 1E : ... .. . ... : ... .. . ... ... : F#4 02 . ... : E-# 05 6 ... : ... .. . ... ...
ROW 1F : ... .. . ... : ... .. . ... ... : ... .. . ... : ... .. . ... : ... .. . ... ...
ROW 20 : --- .. . 200 : C-4 03 . ... ... : C-5 02 . ... : 6-# 00 7 ... : ... .. . ... ...
ROW 21 : ... .. . ... : ... .. . ... ... : ... .. . ... : ... .. 5 ... : ... .. . ... ...
ROW 22 : ... .. . ... : ... .. . ... ... : ... .. . ... : ... .. 3 ... : ... .. . ... ...
ROW 23 : ... .. . ... : ... .. . ... ... : ... .. . ... : ... .. 1 ... : ... .. . ... ...
ROW 24 : ... .. . ... : G-3 03 . ... ... : ... .. . ... : --- .. . ... : ... .. . ... ...
ROW 25 : ... .. . ... : ... .. . ... ... : ... .. . ... : ... .. . ... : ... .. . ... ...
ROW 26 : ... .. . ... : ... .. . ... ... : ... .. . ... : ... .. . ... : ... .. . ... ...
ROW 27 : ... .. . ... : ... .. . ... ... : ... .. . ... : ... .. . ... : ... .. . ... ...
ROW 28 : C-1 01 . ... : E-3 03 . ... ... : ... .. . ... : 6-# 01 3 ... : ... .. . ... ...
ROW 29 : ... .. . ... : ... .. . ... ... : ... .. . ... : ... .. . ... : ... .. . ... ...
ROW 2A : ... .. . ... : ... .. . ... ... : ... .. . ... : ... .. . ... : ... .. . ... ...
ROW 2B : ... .. . ... : ... .. . ... ... : ... .. . ... : ... .. . ... : ... .. . ... ...
ROW 2C : ... .. . ... : D-3 03 . ... ... : ... .. . 204 : ... .. 2 ... : ... .. . ... ...
ROW 2D : ... .. . ... : ... .. . ... ... : ... .. . ... : ... .. . ... : ... .. . ... ...
ROW 2E : ... .. . ... : ... .. . ... ... : ... .. . ... : ... .. . ... : ... .. . ... ...
ROW 2F : ... .. . ... : ... .. . ... ... : --- .. . ... : ... .. . ... : ... .. . ... ...
ROW 30 : --- .. . ... : C-4 03 . ... ... : F#5 02 . 200 : ... .. 1 ... : ... .. . ... ...
ROW 31 : ... .. . ... : ... .. . ... ... : G-5 02 . ... : --- .. . ... : ... .. . ... ...
ROW 32 : ... .. . ... : ... .. . ... ... : ... .. . ... : ... .. . ... : ... .. . ... ...
ROW 33 : ... .. . ... : ... .. . ... ... : ... .. . ... : ... .. . ... : ... .. . ... ...
ROW 34 : ... .. . ... : G-3 03 . ... ... : ... .. . ... : ... .. . ... : ... .. . ... ...
ROW 35 : ... .. . ... : ... .. . ... ... : ... .. . ... : ... .. . ... : ... .. . ... ...
ROW 36 : ... .. . ... : ... .. . ... ... : ... .. . ... : ... .. . ... : ... .. . ... ...
ROW 37 : ... .. . ... : ... .. . ... ... : ... .. . ... : ... .. . ... : ... .. . ... ...
ROW 38 : C-1 01 . ... : E-3 03 . ... ... : ... .. . ... : E-# 05 3 ... : ... .. . ... ...
ROW 39 : ... .. . ... : ... .. . ... ... : ... .. . ... : ... .. . ... : ... .. . ... ...
ROW 3A : ... .. . ... : ... .. . ... ... : ... .. . ... : E-# 05 4 ... : ... .. . ... ...
ROW 3B : --- .. . ... : ... .. . ... ... : ... .. . ... : ... .. . ... : ... .. . ... ...
ROW 3C : C-1 01 C ... : D-3 03 . ... ... : ... .. . ... : E-# 05 5 ... : ... .. . ... ...
ROW 3D : ... .. . ... : ... .. . ... ... : ... .. . ... : ... .. . ... : ... .. . ... ...
ROW 3E : ... .. . ... : ... .. . ... ... : ... .. . ... : E-# 05 6 ... : ... .. . ... ...
ROW 3F : --- .. . ... : ... .. . ... ... : --- .. . ... : ... .. . ... : ... .. . ... ...

PATTERN 06
ROW 00 : C-1 01 A ... : D-4 03 9 ... ... : A-5 02 . ... : E-# 05 7 ... : ... .. . ... ...
ROW 01 : ... .. . ... : ... .. . ... ... : ... .. . ... : ... .. . ... : ... .. . ... ...
ROW 02 : ... .. . ... : ... .. . ... ... : ... .. . ... : ... .. . ... : ... .. . ... ...
ROW 03 : ... .. . ... : ... .. . ... ... : ... .. . ... : ... .. . ... : ... .. . ... ...
ROW 04 : --- .. . ... : C-4 03 . ... ... : ... .. . ... : E-# 05 4 ... : ... .. . ... ...
ROW 05 : ... .. . ... : ... .. . ... ... : ... .. . ... : ... .. . ... : ... .. . ... ...
ROW 06 : ... .. . ... : ... .. . ... ... : ... .. . ... : ... .. . ... : ... .. . ... ...
ROW 07 : ... .. . ... : ... .. . ... ... : ... .. . ... : ... .. . ... : ... .. . ... ...
ROW 08 : C-1 01 A ... : F#3 03 . ... ... : ... .. . ... : E-# 05 5 ... : ... .. . ... ...
ROW 09 : ... .. . ... : ... .. . ... ... : ... .. . ... : ... .. . ... : ... .. . ... ...
ROW 0A : ... .. . ... : ... .. . ... ... : ... .. . ... : ... .. . ... : ... .. . ... ...
ROW 0B : ... .. . ... : ... .. . ... ... : ... .. . ... : ... .. . ... : ... .. . ... ...
ROW 0C : ... .. . ... : D-3 03 . ... ... : ... .. . ... : E-# 05 4 ... : ... .. . ... ...
ROW 0D : ... .. . ... : ... .. . ... ... : ... .. . ... : ... .. . ... : ... .. . ... ...
ROW 0E : ... .. . ... : ... .. . ... ... : ... .. . ... : ... .. . ... : ... .. . ... ...
ROW 0F : ... .. . ... : ... .. . ... ... : ... .. . ... : ... .. . ... : ... .. . ... ...
ROW 10 : ... .. . ... : D-4 03 . ... ... : ... .. . 483 : E-# 05 7 ... : ... .. . ... ...
ROW 11 : ... .. . ... : ... .. . ... ... : ... .. . ... : ... .. . ... : ... .. . ... ...
ROW 12 : ... .. . ... : ... .. . ... ... : ... .. . ... : ... .. . ... : ... .. . ... ...
ROW 13 : ... .. . ... : ... .. . ... ... : ... .. . ... : ... .. . ... : ... .. . ... ...
ROW 14 : ... .. . ... : C-4 03 . ... ... : ... .. . ... : E-# 05 4 ... : ... .. . ... ...
ROW 15 : ... .. . ... : ... .. . ... ... : ... .. . ... : ... .. . ... : ... .. . ... ...
ROW 16 : ... .. . ... : ... .. . ... ... : ... .. . ... : ... .. . ... : ... .. . ... ...
ROW 17 : --- .. . ... : ... .. . ... ... : --- .. . 400 : ... .. . ... : ... .. . ... ...
ROW 18 : C-1 01 . ... : F#3 03 . ... ... : G-5 02 . ... : E-# 05 5 ... : ... .. . ... ...
ROW 19 : ... .. . ... : ... .. . ... ... : ... .. . ... : ... .. . ... : ... .. . ... ...
ROW 1A : ... .. . ... : ... .. . ... ... : ... .. . ... : ... .. . ... : ... .. . ... ...
ROW 1B : ... .. . ... : ... .. . ... ... : ... .. . ... : ... .. . ... : ... .. . ... ...
ROW 1C : ... .. . ... : D-3 03 . ... ... : F#5 02 . ... : E-# 05 4 ... : ... .. . ... ...
ROW 1D : ... .. . ... : ... .. . ... ... : ... .. . ... : ... .. . ... : ... .. . ... ...
ROW 1E : ... .. . ... : ... .. . ... ... : ... .. . ... : ... .. . ... : ... .. . ... ...
ROW 1F : --- .. . ... : ... .. . ... ... : --- .. . ... : ... .. . ... : ... .. . ... ...
ROW 20 : B-0 01 . ... : D-4 03 . ... ... : G-5 02 . ... : F-# 01 8 ... : ... .. . ... ...
ROW 21 : ... .. . ... : ... .. . ... ... : ... .. . ... : ... .. . ... : ... .. . ... ...
ROW 22 : ... .. . ... : ... .. . ... ... : ... .. . ... : ... .. . ... : ... .. . ... ...
ROW 23 : ... .. . ... : ... .. . ... ... : ... .. . ... : ... .. . ... : ... .. . ... ...
ROW 24 : ... .. . ... : A-3 03 . ... ... : ... .. . ... : ... .. 5 ... : ... .. . ... ...
ROW 25 : ... .. . ... : ... .. . ... ... : ... .. . ... : ... .. . ... : ... .. . ... ...
ROW 26 : ... .. . ... : ... .. . ... ... : ... .. . ... : ... .. . ... : ... .. . ... ...
ROW 27 : ... .. . ... : ... .. . ... ... : ... .. . ... : ... .. . ... : ... .. . ... ...
ROW 28 : ... .. . ... : G-3 03 . ... ... : ... .. . ... : ... .. 2 ... : ... .. . ... ...
ROW 29 : ... .. . ... : ... .. . ... ... : ... .. . ... : ... .. . ... : ... .. . ... ...
ROW 2A : ... .. . ... : ... .. . ... ... : ... .. . ... : ... .. 1 ... : ... .. . ... ...
ROW 2B : ... .. . ... : ... .. . ... ... : ... .. . ... : ... .. . ... : ... .. . ... ...
ROW 2C : ... .. . ... : D-3 03 . ... ... : ... .. . ... : E-# 05 2 ... : ... .. . ... ...
ROW 2D : ... .. . ... : ... .. . ... ... : ... .. . ... : ... .. . ... : ... .. . ... ...
ROW 2E : ... .. . ... : ... .. . ... ... : ... .. . ... : ... .. . ... : ... .. . ... ...
ROW 2F : ... .. . ... : ... .. . ... ... : ... .. . ... : ... .. . ... : ... .. . ... ...
ROW 30 : ... .. . ... : G-4 03 . ... ... : --- .. . ... : C-# 00 4 ... : ... .. . ... ...
ROW 31 : ... .. . ... : ... .. . ... ... : ... .. . ... : ... .. . ... : ... .. . ... ...
ROW 32 : ... .. . ... : ... .. . ... ... : ... .. . ... : ... .. . ... : ... .. . ... ...
ROW 33 : ... .. . ... : ... .. . ... ... : ... .. . ... : ... .. . ... : ... .. . ... ...
ROW 34 : ... .. . ... : D-4 03 . ... ... : ... .. . ... : A-# 00 4 ... : ... .. . ... ...
ROW 35 : ... .. . ... : ... .. . ... ... : ... .. . ... : ... .. . ... : ... .. . ... ...
ROW 36 : ... .. . ... : ... .. . ... ... : ... .. . ... : ... .. . ... : ... .. . ... ...
ROW 37 : ... .. . ... : ... .. . ... ... : ... .. . ... : ... .. . ... : ... .. . ... ...
ROW 38 : ... .. . ... : B-3 03 . ... ... : D-5 02 . ... : 8-# 00 4 ... : ... .. . ... ...
ROW 39 : ... .. . ... : ... .. . ... ... : ... .. . ... : ... .. . ... : ... .. . ... ...
ROW 3A : ... .. . ... : ... .. . ... ... : ... .. . ... : ... .. . ... : ... .. . ... ...
ROW 3B : --- .. . ... : ... .. . ... ... : ... .. . ... : ... .. . ... : ... .. . ... ...
ROW 3C : B-0 01 . ... : G-3 03 . ... ... : E-5 02 . ... : 7-# 00 4 ... : ... .. . ... ...
ROW 3D : ... .. . ... : ... .. . ... ... : ... .. . ... : ... .. . ... : ... .. . ... ...
ROW 3E : ... .. . ... : ... .. . ... ... : ... .. . ... : ... .. . ... : ... .. . ... ...
ROW 3F : --- .. . ... : ... .. . ... ... : --- .. . ... : ... .. . ... : ... .. . ... ...

PATTERN 07
ROW 00 : A-0 01 A ... : C-4 03 9 ... ... : F-5 02 . ... : A-# 01 5 ... : ... .. . ... ...
ROW 01 : ... .. . ... : ... .. . ... ... : ... .. . ... : ... .. . ... : ... .. . ... ...
ROW 02 : ... .. . ... : ... .. . ... ... : ... .. . ... : ... .. . ... : ... .. . ... ...
ROW 03 : ... .. . ... : ... .. . ... ... : ... .. . ... : ... .. . ... : ... .. . ... ...
ROW 04 : ... .. . ... : A-3 03 . ... ... : ... .. . ... : ... .. 4 ... : ... .. . ... ...
ROW 05 : ... .. . ... : ... .. . ... ... : ... .. . ... : ... .. . ... : ... .. . ... ...
ROW 06 : ... .. . ... : ... .. . ... ... : ... .. . ... : ... .. . ... : ... .. . ... ...
ROW 07 : ... .. . ... : ... .. . ... ... : ... .. . ... : ... .. . ... : ... .. . ... ...
ROW 08 : ... .. . ... : G-3 03 . ... ... : ... .. . ... : ... .. 3 ... : ... .. . ... ...
ROW 09 : ... .. . ... : ... .. . ... ... : ... .. . ... : ... .. . ... : ... .. . ... ...
ROW 0A : ... .. . ... : ... .. . ... ... : ... .. . ... : ... .. . ... : ... .. . ... ...
ROW 0B : ... .. . ... : ... .. . ... ... : ... .. . ... : ... .. 2 ... : ... .. . ... ...
ROW 0C : ... .. . ... : F-3 03 . ... ... : ... .. . ... : ... .. . ... : ... .. . ... ...
ROW 0D : ... .. . ... : ... .. . ... ... : ... .. . ... : ... .. . ... : ... .. . ... ...
ROW 0E : ... .. . ... : ... .. . ... ... : ... .. . ... : ... .. 1 ... : ... .. . ... ...
ROW 0F : ... .. . ... : ... .. . ... ... : ... .. . ... : ... .. . ... : ... .. . ... ...
ROW 10 : A-1 01 A ... : C-4 03 . ... ... : ... .. . 483 : --- .. . ... : ... .. . ... ...
ROW 11 : ... .. . ... : ... .. . ... ... : ... .. . ... : ... .. . ... : ... .. . ... ...
ROW 12 : ... .. . ... : ... .. . ... ... : ... .. . ... : ... .. . ... : ... .. . ... ...
ROW 13 : ... .. . ... : ... .. . ... ... : ... .. . ... : ... .. . ... : ... .. . ... ...
ROW 14 : ... .. . ... : A-3 03 . ... ... : ... .. . ... : ... .. . ... : ... .. . ... ...
ROW 15 : ... .. . ... : ... .. . ... ... : ... .. . ... : ... .. . ... : ... .. . ... ...
ROW 16 : ... .. . ... : ... .. . ... ... : ... .. . ... : ... .. . ... : ... .. . ... ...
ROW 17 : ... .. . ... : ... .. . ... ... : --- .. . ... : ... .. . ... : ... .. . ... ...
ROW 18 : ... .. . ... : G-3 03 . ... ... : E-5 02 . 400 : E-# 05 3 ... : ... .. . ... ...
ROW 19 : ... .. . ... : ... .. . ... ... : ... .. . ... : ... .. . ... : ... .. . ... ...
ROW 1A : ... .. . ... : ... .. . ... ... : ... .. . ... : E-# 05 4 ... : ... .. . ... ...
ROW 1B : ... .. . ... : ... .. . ... ... : ... .. . ... : ... .. . ... : ... .. . ... ...
ROW 1C : ... .. . ... : F-3 03 . ... ... : D-5 02 . ... : E-# 05 5 ... : ... .. . ... ...
ROW 1D : ... .. . ... : ... .. . ... ... : ... .. . ... : ... .. . ... : ... .. . ... ...
ROW 1E : ... .. . ... : ... .. . ... ... : ... .. . ... : E-# 05 6 ... : ... .. . ... ...
ROW 1F : ... .. . ... : ... .. . ... ... : --- .. . ... : ... .. . ... : ... .. . ... ...
ROW 20 : F-1 01 A ... : A-4 03 . ... ... : C-5 02 . ... : 6-# 00 7 ... : ... .. . ... ...
ROW 21 : ... .. . ... : ... .. . ... ... : ... .. . ... : ... .. 5 ... : ... .. . ... ...
ROW 22 : ... .. . ... : ... .. . ... ... : ... .. . ... : ... .. 3 ... : ... .. . ... ...
ROW 23 : ... .. . ... : ... .. . ... ... : ... .. . ... : ... .. 1 ... : ... .. . ... ...
ROW 24 : ... .. . ... : G-4 03 . ... ... : ... .. . ... : --- .. . ... : ... .. . ... ...
ROW 25 : ... .. . ... : ... .. . ... ... : ... .. . ... : ... .. . ... : ... .. . ... ...
ROW 26 : ... .. . ... : ... .. . ... ... : ... .. . ... : ... .. . ... : ... .. . ... ...
ROW 27 : ... .. . ... : ... .. . ... ... : ... .. . ... : ... .. . ... : ... .. . ... ...
ROW 28 : ... .. . ... : F-4 03 . ... ... : ... .. . ... : E-# 05 3 ... : ... .. . ... ...
ROW 29 : ... .. . ... : ... .. . ... ... : ... .. . ... : ... .. . ... : ... .. . ... ...
ROW 2A : ... .. . ... : ... .. . ... ... : ... .. . ... : E-# 05 4 ... : ... .. . ... ...
ROW 2B : ... .. . ... : ... .. . ... ... : ... .. . ... : ... .. . ... : ... .. . ... ...
ROW 2C : ... .. . ... : C-4 03 . ... ... : ... .. . 205 : E-# 05 5 ... : ... .. . ... ...
ROW 2D : ... .. . ... : ... .. . ... ... : ... .. . ... : ... .. . ... : ... .. . ... ...
ROW 2E : ... .. . ... : ... .. . ... ... : ... .. . ... : E-# 05 6 ... : ... .. . ... ...
ROW 2F : ... .. . ... : ... .. . ... ... : ... .. . ... : ... .. . ... : ... .. . ... ...
ROW 30 : C-2 01 A ... : C-5 03 . ... ... : A-4 02 . 200 : F-# 01 8 ... : ... .. . ... ...
ROW 31 : ... .. . ... : ... .. . ... ... : ... .. . ... : ... .. . ... : ... .. . ... ...
ROW 32 : ... .. . ... : ... .. . ... ... : ... .. . ... : ... .. . ... : ... .. . ... ...
ROW 33 : ... .. . ... : ... .. . ... ... : ... .. . ... : ... .. . ... : ... .. . ... ...
ROW 34 : ... .. . ... : A-4 03 . ... ... : ... .. . ... : ... .. 5 ... : ... .. . ... ...
ROW 35 : ... .. . ... : ... .. . ... ... : ... .. . ... : ... .. . ... : ... .. . ... ...
ROW 36 : ... .. . ... : ... .. . ... ... : ... .. . ... : ... .. . ... : ... .. . ... ...
ROW 37 : ... .. . ... : ... .. . ... ... : ... .. . ... : ... .. . ... : ... .. . ... ...
ROW 38 : ... .. . ... : G-4 03 . ... ... : D-5 02 . ... : ... .. 2 ... : ... .. . ... ...
ROW 39 : ... .. . ... : ... .. . ... ... : ... .. . ... : ... .. . ... : ... .. . ... ...
ROW 3A : ... .. . ... : ... .. . ... ... : ... .. . ... : ... .. 1 ... : ... .. . ... ...
ROW 3B : ... .. . ... : ... .. . ... ... : ... .. . ... : ... .. . ... : ... .. . ... ...
ROW 3C : ... .. . ... : F-4 03 . ... ... : ... .. . ... : ... .. . ... : ... .. . ... ...
ROW 3D : ... .. . ... : ... .. . ... ... : ... .. . ... : ... .. . ... : ... .. . ... ...
ROW 3E : ... .. . ... : ... .. . ... ... : ... .. . ... : ... .. . ... : ... .. . ... ...
ROW 3F : ... .. . ... : ... .. . ... ... : ... .. . ... : ... .. . ... : ... .. . ... ...

PATTERN 08
ROW 00 : A#1 01 A ... : D-5 03 9 ... ... : D-5 02 . ... : E-# 05 7 ... : ... .. . ... ...
ROW 01 : ... .. . ... : ... .. . ... ... : ... .. . ... : ... .. . ... : ... .. . ... ...
ROW 02 : ... .. . ... : ... .. . ... ... : ... .. . ... : ... .. . ... : ... .. . ... ...
ROW 03 : ... .. . ... : ... .. . ... ... : ... .. . ... : ... .. . ... : ... .. . ... ...
ROW 04 : --- .. . ... : C-5 03 . ... ... : ... .. . ... : E-# 05 4 ... : ... .. . ... ...
ROW 05 : ... .. . ... : ... .. . ... ... : ... .. . ... : ... .. . ... : ... .. . ... ...
ROW 06 : ... .. . ... : ... .. . ... ... : ... .. . ... : ... .. . ... : ... .. . ... ...
ROW 07 : ... .. . ... : ... .. . ... ... : ... .. . ... : ... .. . ... : ... .. . ... ...
ROW 08 : A#1 01 A ... : A#4 03 . ... ... : ... .. . ... : E-# 05 5 ... : ... .. . ... ...
ROW 09 : ... .. . ... : ... .. . ... ... : ... .. . ... : ... .. . ... : ... .. . ... ...
ROW 0A : ... .. . ... : ... .. . ... ... : ... .. . ... : ... .. . ... : ... .. . ... ...
ROW 0B : ... .. . ... : ... .. . ... ... : ... .. . ... : ... .. . ... : ... .. . ... ...
ROW 0C : ... .. . ... : F-4 03 . ... ... : ... .. . ... : E-# 05 4 ... : ... .. . ... ...
ROW 0D : ... .. . ... : ... .. . ... ... : ... .. . ... : ... .. . ... : ... .. . ... ...
ROW 0E : ... .. . ... : ... .. . ... ... : ... .. . ... : ... .. . ... : ... .. . ... ...
ROW 0F : ... .. . ... : ... .. . ... ... : ... .. . ... : ... .. . ... : ... .. . ... ...
ROW 10 : ... .. . ... : D-5 03 . ... ... : ... .. . ... : E-# 05 7 ... : ... .. . ... ...
ROW 11 : ... .. . ... : ... .. . ... ... : ... .. . ... : ... .. . ... : ... .. . ... ...
ROW 12 : ... .. . ... : ... .. . ... ... : ... .. . ... : ... .. . ... : ... .. . ... ...
ROW 13 : ... .. . ... : ... .. . ... ... : ... .. . ... : ... .. . ... : ... .. . ... ...
ROW 14 : ... .. . ... : C-5 03 . ... ... : ... .. . ... : E-# 05 4 ... : ... .. . ... ...
ROW 15 : ... .. . ... : ... .. . ... ... : ... .. . ... : ... .. . ... : ... .. . ... ...
ROW 16 : ... .. . ... : ... .. . ... ... : ... .. . ... : ... .. . ... : ... .. . ... ...
ROW 17 : ... .. . ... : ... .. . ... ... : ... .. . ... : ... .. . ... : ... .. . ... ...
ROW 18 : F-1 01 A ... : A#4 03 . ... ... : ... .. . ... : E-# 05 5 ... : ... .. . ... ...
ROW 19 : ... .. . ... : ... .. . ... ... : ... .. . ... : ... .. . ... : ... .. . ... ...
ROW 1A : ... .. . ... : ... .. . ... ... : ... .. . ... : ... .. . ... : ... .. . ... ...
ROW 1B : ... .. . ... : ... .. . ... ... : ... .. . ... : ... .. . ... : ... .. . ... ...
ROW 1C : ... .. . ... : F-4 03 . ... ... : ... .. . ... : E-# 05 4 ... : ... .. . ... ...
ROW 1D : ... .. . ... : ... .. . ... ... : ... .. . ... : ... .. . ... : ... .. . ... ...
ROW 1E : ... .. . ... : ... .. . ... ... : ... .. . ... : ... .. . ... : ... .. . ... ...
ROW 1F : ... .. . ... : ... .. . ... ... : ... .. . ... : ... .. . ... : ... .. . ... ...
ROW 20 : D-1 01 A ... : A#4 03 . ... ... : ... .. . 483 : F-# 01 8 ... : ... .. . ... ...
ROW 21 : ... .. . ... : ... .. . ... ... : ... .. . ... : ... .. . ... : ... .. . ... ...
ROW 22 : ... .. . ... : ... .. . ... ... : ... .. . ... : ... .. . ... : ... .. . ... ...
ROW 23 : ... .. . ... : ... .. . ... ... : ... .. . ... : ... .. . ... : ... .. . ... ...
ROW 24 : ... .. . ... : F-4 03 . ... ... : ... .. . ... : ... .. 5 ... : ... .. . ... ...
ROW 25 : ... .. . ... : ... .. . ... ... : ... .. . ... : ... .. . ... : ... .. . ... ...
ROW 26 : ... .. . ... : ... .. . ... ... : ... .. . ... : ... .. . ... : ... .. . ... ...
ROW 27 : ... .. . ... : ... .. . ... ... : ... .. . ... : ... .. . ... : ... .. . ... ...
ROW 28 : ... .. . ... : D-4 03 . ... ... : ... .. . ... : ... .. 2 ... : ... .. . ... ...
ROW 29 : ... .. . ... : ... .. . ... ... : ... .. . ... : ... .. . ... : ... .. . ... ...
ROW 2A : ... .. . ... : ... .. . ... ... : ... .. . ... : ... .. 1 ... : ... .. . ... ...
ROW 2B : ... .. . ... : ... .. . ... ... : ... .. . ... : ... .. . ... : ... .. . ... ...
ROW 2C : ... .. . ... : F-4 03 . ... ... : ... .. . ... : E-# 05 2 ... : ... .. . ... ...
ROW 2D : ... .. . ... : ... .. . ... ... : ... .. . ... : ... .. . ... : ... .. . ... ...
ROW 2E : ... .. . ... : ... .. . ... ... : ... .. . ... : ... .. . ... : ... .. . ... ...
ROW 2F : --- .. . ... : ... .. . ... ... : ... .. . ... : ... .. . ... : ... .. . ... ...
ROW 30 : A#0 01 . ... : D-4 03 . ... ... : --- .. . 400 : C-# 00 4 ... : ... .. . ... ...
ROW 31 : ... .. . ... : ... .. . ... ... : ... .. . ... : ... .. . ... : ... .. . ... ...
ROW 32 : ... .. . ... : ... .. . ... ... : ... .. . ... : ... .. . ... : ... .. . ... ...
ROW 33 : ... .. . ... : ... .. . ... ... : ... .. . ... : ... .. . ... : ... .. . ... ...
ROW 34 : ... .. . ... : A#3 03 . ... ... : ... .. . ... : A-# 00 4 ... : ... .. . ... ...
ROW 35 : ... .. . ... : ... .. . ... ... : ... .. . ... : ... .. . ... : ... .. . ... ...
ROW 36 : ... .. . ... : ... .. . ... ... : ... .. . ... : ... .. . ... : ... .. . ... ...
ROW 37 : ... .. . ... : ... .. . ... ... : ... .. . ... : ... .. . ... : ... .. . ... ...
ROW 38 : ... .. . ... : D-4 03 . ... ... : ... .. . ... : 8-# 00 5 ... : ... .. . ... ...
ROW 39 : ... .. . ... : ... .. . ... ... : ... .. . ... : ... .. . ... : ... .. . ... ...
ROW 3A : ... .. . ... : ... .. . ... ... : ... .. . ... : ... .. . ... : ... .. . ... ...
ROW 3B : ... .. . ... : ... .. . ... ... : ... .. . ... : --- .. . ... : ... .. . ... ...
ROW 3C : ... .. . ... : F-4 03 . ... ... : ... .. . ... : 7-# 00 5 ... : ... .. . ... ...
ROW 3D : ... .. . ... : ... .. . ... ... : ... .. . ... : ... .. . ... : ... .. . ... ...
ROW 3E : ... .. . ... : ... .. . ... ... : ... .. . ... : ... .. . ... : ... .. . ... ...
ROW 3F : ... .. . ... : ... .. . ... ... : ... .. . ... : --- .. . ... : ... .. . ... ...

PATTERN 09
ROW 00 : D#3 06 8 ... : G-4 03 9 ... ... : D#2 01 . ... : E-# 0A A ... : ... .. . ... ...
ROW 01 : ... .. . ... : ... .. . ... ... : ... .. . ... : ... .. . ... : ... .. . ... ...
ROW 02 : ... .. . ... : ... .. . ... ... : ... .. . ... : ... .. . ... : ... .. . ... ...
ROW 03 : ... .. . ... : ... .. . ... ... : ... .. . ... : ... .. . ... : ... .. . ... ...
ROW 04 : ... .. . ... : F-4 03 . ... ... : --- .. . ... : E-# 0A 4 ... : ... .. . ... ...
ROW 05 : ... .. . ... : ... .. . ... ... : ... .. . ... : ... .. . ... : ... .. . ... ...
ROW 06 : ... .. . ... : ... .. . ... ... : ... .. . ... : ... .. . ... : ... .. . ... ...
ROW 07 : ... .. . ... : ... .. . ... ... : ... .. . ... : ... .. . ... : ... .. . ... ...
ROW 08 : ... .. . ... : D#4 03 . ... ... : D#2 01 . ... : E-# 0A 7 ... : ... .. . ... ...
ROW 09 : ... .. 2 ... : ... .. . ... ... : ... .. . ... : ... .. . ... : ... .. . ... ...
ROW 0A : ... .. . ... : ... .. . ... ... : ... .. . ... : ... .. . ... : ... .. . ... ...
ROW 0B : ... .. . ... : ... .. . ... ... : ... .. . ... : ... .. . ... : ... .. . ... ...
ROW 0C : ... .. . ... : A#3 03 . ... ... : --- .. . ... : E-# 0A 4 ... : ... .. . ... ...
ROW 0D : ... .. . ... : ... .. . ... ... : ... .. . ... : ... .. . ... : ... .. . ... ...
ROW 0E : ... .. . ... : ... .. . ... ... : ... .. . ... : ... .. . ... : ... .. . ... ...
ROW 0F : ... .. . ... : ... .. . ... ... : ... .. . ... : ... .. . ... : ... .. . ... ...
ROW 10 : G#2 07 A ... : G-4 09 . ... ... : ... .. . ... : E-# 0A 7 ... : ... .. . ... ...
ROW 11 : A-2 07 . ... : ... .. . ... ... : ... .. . ... : ... .. . ... : ... .. . ... ...
ROW 12 : A#2 07 . ... : ... .. . ... ... : ... .. . ... : ... .. . ... : ... .. . ... ...
ROW 13 : ... .. . ... : ... .. . ... ... : ... .. . ... : ... .. . ... : ... .. . ... ...
ROW 14 : ... .. . ... : F-4 09 . ... ... : ... .. . ... : E-# 0A 4 ... : ... .. . ... ...
ROW 15 : ... .. . ... : ... .. . ... ... : ... .. . ... : ... .. . ... : ... .. . ... ...
ROW 16 : ... .. . ... : ... .. . ... ... : ... .. . ... : ... .. . ... : ... .. . ... ...
ROW 17 : ... .. . ... : ... .. . ... ... : ... .. . ... : ... .. . ... : ... .. . ... ...
ROW 18 : ... .. . ... : D#4 09 . ... ... : ... .. . ... : E-# 0A 5 ... : ... .. . ... ...
ROW 19 : ... .. . ... : ... .. . ... ... : ... .. . ... : ... .. . ... : ... .. . ... ...
ROW 1A : ... .. . ... : ... .. . ... ... : ... .. . ... : E-# 0A 6 ... : ... .. . ... ...
ROW 1B : ... .. . ... : ... .. . ... ... : ... .. . ... : ... .. . ... : ... .. . ... ...
ROW 1C : ... .. . ... : A#3 09 . ... ... : ... .. . ... : E-# 0A 7 ... : ... .. . ... ...
ROW 1D : ... .. . ... : ... .. . ... ... : ... .. . ... : ... .. . ... : ... .. . ... ...
ROW 1E : ... .. . ... : ... .. . ... ... : ... .. . ... : E-# 0A 8 ... : ... .. . ... ...
ROW 1F : ... .. . ... : ... .. . ... ... : ... .. . ... : ... .. . ... : ... .. . ... ...
ROW 20 : D#3 07 . ... : G-4 03 . ... ... : ... .. . ... : 6-# 05 A ... : ... .. . ... ...
ROW 21 : ... .. . ... : ... .. . ... ... : ... .. . ... : ... .. 8 ... : ... .. . ... ...
ROW 22 : ... .. . ... : ... .. . ... ... : ... .. . ... : ... .. 6 ... : ... .. . ... ...
ROW 23 : ... .. . ... : ... .. . ... ... : ... .. . ... : ... .. 3 ... : ... .. . ... ...
ROW 24 : ... .. . ... : F-4 03 . ... ... : ... .. . ... : --- .. . ... : ... .. . ... ...
ROW 25 : ... .. . ... : ... .. . ... ... : ... .. . ... : ... .. . ... : ... .. . ... ...
ROW 26 : ... .. . ... : ... .. . ... ... : ... .. . ... : ... .. . ... : ... .. . ... ...
ROW 27 : ... .. . ... : ... .. . ... ... : ... .. . ... : ... .. . ... : ... .. . ... ...
ROW 28 : ... .. . ... : D#4 03 . ... ... : D#2 01 . ... : F-# 05 A ... : ... .. . ... ...
ROW 29 : ... .. . ... : ... .. . ... ... : ... .. . ... : ... .. . ... : ... .. . ... ...
ROW 2A : ... .. . ... : ... .. . ... ... : ... .. . ... : ... .. . ... : ... .. . ... ...
ROW 2B : ... .. . ... : ... .. . ... ... : ... .. . ... : ... .. . ... : ... .. . ... ...
ROW 2C : ... .. . 209 : A#3 03 . ... ... : ... .. . ... : ... .. 8 ... : ... .. . ... ...
ROW 2D : ... .. . ... : ... .. . ... ... : ... .. . ... : ... .. . ... : ... .. . ... ...
ROW 2E : ... .. . ... : ... .. . ... ... : ... .. . ... : ... .. . ... : ... .. . ... ...
ROW 2F : --- .. . ... : ... .. . ... ... : ... .. . ... : ... .. . ... : ... .. . ... ...
ROW 30 : A-3 07 . 200 : G-4 09 . ... ... : --- .. . ... : E-# 0A 7 ... : ... .. . ... ...
ROW 31 : A#3 07 . ... : ... .. . ... ... : ... .. . ... : ... .. . ... : ... .. . ... ...
ROW 32 : ... .. . ... : ... .. . ... ... : ... .. . ... : ... .. . ... : ... .. . ... ...
ROW 33 : ... .. . ... : ... .. . ... ... : ... .. . ... : ... .. . ... : ... .. . ... ...
ROW 34 : ... .. . ... : F-4 09 . ... ... : ... .. . ... : E-# 0A 4 ... : ... .. . ... ...
ROW 35 : ... .. . ... : ... .. . ... ... : ... .. . ... : ... .. . ... : ... .. . ... ...
ROW 36 : ... .. . ... : ... .. . ... ... : ... .. . ... : ... .. . ... : ... .. . ... ...
ROW 37 : ... .. . ... : ... .. . ... ... : ... .. . ... : ... .. . ... : ... .. . ... ...
ROW 38 : ... .. . ... : D#4 09 . ... ... : D#2 01 . ... : E-# 0A 7 ... : ... .. . ... ...
ROW 39 : ... .. . ... : ... .. . ... ... : ... .. . ... : ... .. . ... : ... .. . ... ...
ROW 3A : ... .. . ... : ... .. . ... ... : ... .. . ... : ... .. . ... : ... .. . ... ...
ROW 3B : ... .. . ... : ... .. . ... ... : --- .. . ... : ... .. . ... : ... .. . ... ...
ROW 3C : ... .. . ... : A#3 09 . ... ... : D#2 01 . ... : E-# 0A 4 ... : ... .. . ... ...
ROW 3D : ... .. . ... : ... .. . ... ... : ... .. . ... : ... .. . ... : ... .. . ... ...
ROW 3E : ... .. . ... : ... .. . ... ... : ... .. . ... : ... .. . ... : ... .. . ... ...
ROW 3F : --- .. . ... : ... .. . ... ... : --- .. . ... : ... .. . ... : ... .. . ... ...

PATTERN 0A
ROW 00 : A-3 07 A ... : A-4 03 9 ... ... : D#2 01 . ... : E-# 0A A ... : ... .. . ... ...
ROW 01 : ... .. . ... : ... .. . ... ... : ... .. . ... : ... .. . ... : ... .. . ... ...
ROW 02 : ... .. . ... : ... .. . ... ... : ... .. . ... : ... .. . ... : ... .. . ... ...
ROW 03 : ... .. . ... : ... .. . ... ... : ... .. . ... : ... .. . ... : ... .. . ... ...
ROW 04 : ... .. . ... : G-4 03 . ... ... : --- .. . ... : E-# 0A 4 ... : ... .. . ... ...
ROW 05 : ... .. . ... : ... .. . ... ... : ... .. . ... : ... .. . ... : ... .. . ... ...
ROW 06 : ... .. . ... : ... .. . ... ... : ... .. . ... : ... .. . ... : ... .. . ... ...
ROW 07 : ... .. . ... : ... .. . ... ... : ... .. . ... : ... .. . ... : ... .. . ... ...
ROW 08 : ... .. . ... : F-4 03 . ... ... : D#2 01 . ... : E-# 0A 7 ... : ... .. . ... ...
ROW 09 : ... .. . ... : ... .. . ... ... : ... .. . ... : ... .. . ... : ... .. . ... ...
ROW 0A : ... .. . ... : ... .. . ... ... : ... .. . ... : ... .. . ... : ... .. . ... ...
ROW 0B : ... .. . ... : ... .. . ... ... : ... .. . ... : ... .. . ... : ... .. . ... ...
ROW 0C : ... .. . ... : C-4 03 . ... ... : --- .. . ... : E-# 0A 4 ... : ... .. . ... ...
ROW 0D : ... .. . ... : ... .. . ... ... : ... .. . ... : ... .. . ... : ... .. . ... ...
ROW 0E : ... .. . ... : ... .. . ... ... : ... .. . ... : ... .. . ... : ... .. . ... ...
ROW 0F : ... .. . ... : ... .. . ... ... : ... .. . ... : ... .. . ... : ... .. . ... ...
ROW 10 : ... .. . 486 : A-4 09 . ... ... : ... .. . ... : E-# 0A 7 ... : ... .. . ... ...
ROW 11 : ... .. . ... : ... .. . ... ... : ... .. . ... : ... .. . ... : ... .. . ... ...
ROW 12 : ... .. . ... : ... .. . ... ... : ... .. . ... : ... .. . ... : ... .. . ... ...
ROW 13 : ... .. . ... : ... .. . ... ... : ... .. . ... : ... .. . ... : ... .. . ... ...
ROW 14 : ... .. . ... : G-4 09 . ... ... : ... .. . ... : E-# 0A 4 ... : ... .. . ... ...
ROW 15 : ... .. . ... : ... .. . ... ... : ... .. . ... : ... .. . ... : ... .. . ... ...
ROW 16 : ... .. . ... : ... .. . ... ... : ... .. . ... : ... .. . ... : ... .. . ... ...
ROW 17 : --- .. . ... : ... .. . ... ... : ... .. . ... : ... .. . ... : ... .. . ... ...
ROW 18 : F-3 07 . 400 : F-4 09 . ... ... : ... .. . ... : E-# 0A 5 ... : ... .. . ... ...
ROW 19 : ... .. . ... : ... .. . ... ... : ... .. . ... : ... .. . ... : ... .. . ... ...
ROW 1A : ... .. . ... : ... .. . ... ... : ... .. . ... : E-# 0A 6 ... : ... .. . ... ...
ROW 1B : ... .. . ... : ... .. . ... ... : ... .. . ... : ... .. . ... : ... .. . ... ...
ROW 1C : ... .. . ... : C-4 09 . ... ... : ... .. . ... : E-# 0A 7 ... : ... .. . ... ...
ROW 1D : ... .. . ... : ... .. . ... ... : ... .. . ... : ... .. . ... : ... .. . ... ...
ROW 1E : ... .. . ... : ... .. . ... ... : ... .. . ... : E-# 0A 8 ... : ... .. . ... ...
ROW 1F : --- .. . ... : ... .. . ... ... : ... .. . ... : ... .. . ... : ... .. . ... ...
ROW 20 : D#3 07 . 400 : A-4 03 . ... ... : ... .. . ... : 6-# 05 A ... : ... .. . ... ...
ROW 21 : E-3 07 . ... : ... .. . ... ... : ... .. . ... : ... .. 8 ... : ... .. . ... ...
ROW 22 : F-3 07 . ... : ... .. . ... ... : ... .. . ... : ... .. 6 ... : ... .. . ... ...
ROW 23 : ... .. . ... : ... .. . ... ... : ... .. . ... : ... .. 3 ... : ... .. . ... ...
ROW 24 : ... .. . ... : G-4 03 . ... ... : ... .. . ... : --- .. . ... : ... .. . ... ...
ROW 25 : ... .. . ... : ... .. . ... ... : ... .. . ... : ... .. . ... : ... .. . ... ...
ROW 26 : ... .. . ... : ... .. . ... ... : ... .. . ... : ... .. . ... : ... .. . ... ...
ROW 27 : ... .. . ... : ... .. . ... ... : ... .. . ... : ... .. . ... : ... .. . ... ...
ROW 28 : ... .. . ... : F-4 03 . ... ... : ... .. . ... : F-# 05 A ... : ... .. . ... ...
ROW 29 : ... .. . ... : ... .. . ... ... : ... .. . ... : ... .. . ... : ... .. . ... ...
ROW 2A : ... .. . ... : ... .. . ... ... : ... .. . ... : ... .. . ... : ... .. . ... ...
ROW 2B : ... .. . ... : ... .. . ... ... : ... .. . ... : ... .. . ... : ... .. . ... ...
ROW 2C : ... .. . ... : C-4 03 . ... ... : --- 10 . ... : ... .. 8 ... : ... .. . ... ...
ROW 2D : ... .. . ... : ... .. . ... ... : ... .. . ... : ... .. . ... : ... .. . ... ...
ROW 2E : ... .. . ... : ... .. . ... ... : ... .. . ... : ... .. . ... : ... .. . ... ...
ROW 2F : ... .. . ... : ... .. . ... ... : ... .. . ... : ... .. . ... : ... .. . ... ...
ROW 30 : ... .. . ... : A-4 09 . ... ... : A#1 01 . ... : E-# 0A 7 ... : ... .. . ... ...
ROW 31 : ... .. . ... : ... .. . ... ... : ... .. . ... : ... .. . ... : ... .. . ... ...
ROW 32 : ... .. . ... : ... .. . ... ... : ... .. . ... : ... .. . ... : ... .. . ... ...
ROW 33 : ... .. . ... : ... .. . ... ... : ... .. . ... : ... .. . ... : ... .. . ... ...
ROW 34 : ... .. . ... : G-4 09 . ... ... : ... .. . ... : E-# 0A 4 ... : ... .. . ... ...
ROW 35 : ... .. . ... : ... .. . ... ... : ... .. . ... : ... .. . ... : ... .. . ... ...
ROW 36 : ... .. . ... : ... .. . ... ... : ... .. . ... : ... .. . ... : ... .. . ... ...
ROW 37 : ... .. . ... : ... .. . ... ... : ... .. . ... : ... .. . ... : ... .. . ... ...
ROW 38 : ... .. . ... : F-4 09 . ... ... : ... .. . ... : E-# 0A 7 ... : ... .. . ... ...
ROW 39 : ... .. . ... : ... .. . ... ... : ... .. . ... : ... .. . ... : ... .. . ... ...
ROW 3A : ... .. . ... : ... .. . ... ... : ... .. . ... : ... .. . ... : ... .. . ... ...
ROW 3B : ... .. . ... : ... .. . ... ... : ... .. . ... : ... .. . ... : ... .. . ... ...
ROW 3C : ... .. . ... : C-4 09 . ... ... : --- 10 . ... : E-# 0A 4 ... : ... .. . ... ...
ROW 3D : ... .. . ... : ... .. . ... ... : ... .. . ... : ... .. . ... : ... .. . ... ...
ROW 3E : ... .. . ... : ... .. . ... ... : ... .. . ... : ... .. . ... : ... .. . ... ...
ROW 3F : --- .. . ... : ... .. . ... ... : ... .. . ... : ... .. . ... : ... .. . ... ...

PATTERN 0B
ROW 00 : D#3 06 7 ... : G-4 03 9 ... ... : D#2 01 . ... : E-# 0A A ... : ... .. . ... ...
ROW 01 : ... .. . ... : ... .. . ... ... : ... .. . ... : ... .. . ... : ... .. . ... ...
ROW 02 : ... .. . ... : ... .. . ... ... : ... .. . ... : ... .. . ... : ... .. . ... ...
ROW 03 : ... .. . ... : ... .. . ... ... : ... .. . ... : ... .. . ... : ... .. . ... ...
ROW 04 : ... .. . ... : F-4 03 . ... ... : --- .. . ... : E-# 0A 4 ... : ... .. . ... ...
ROW 05 : ... .. . ... : ... .. . ... ... : ... .. . ... : ... .. . ... : ... .. . ... ...
ROW 06 : ... .. . ... : ... .. . ... ... : ... .. . ... : ... .. . ... : ... .. . ... ...
ROW 07 : ... .. . ... : ... .. . ... ... : ... .. . ... : ... .. . ... : ... .. . ... ...
ROW 08 : ... .. . ... : D#4 03 . ... ... : D#2 01 . ... : E-# 0A 7 ... : ... .. . ... ...
ROW 09 : ... .. 2 ... : ... .. . ... ... : ... .. . ... : ... .. . ... : ... .. . ... ...
ROW 0A : ... .. . ... : ... .. . ... ... : ... .. . ... : ... .. . ... : ... .. . ... ...
ROW 0B : ... .. . ... : ... .. . ... ... : ... .. . ... : ... .. . ... : ... .. . ... ...
ROW 0C : ... .. . ... : A#3 03 . ... ... : --- .. . ... : E-# 0A 4 ... : ... .. . ... ...
ROW 0D : ... .. . ... : ... .. . ... ... : ... .. . ... : ... .. . ... : ... .. . ... ...
ROW 0E : ... .. . ... : ... .. . ... ... : ... .. . ... : ... .. . ... : ... .. . ... ...
ROW 0F : ... .. . ... : ... .. . ... ... : ... .. . ... : ... .. . ... : ... .. . ... ...
ROW 10 : G#2 07 A ... : G-4 09 . ... ... : ... .. . ... : E-# 0A 7 ... : ... .. . ... ...
ROW 11 : A-2 07 . ... : ... .. . ... ... : ... .. . ... : ... .. . ... : ... .. . ... ...
ROW 12 : A#2 07 . ... : ... .. . ... ... : ... .. . ... : ... .. . ... : ... .. . ... ...
ROW 13 : ... .. . ... : ... .. . ... ... : ... .. . ... : ... .. . ... : ... .. . ... ...
ROW 14 : ... .. . ... : F-4 09 . ... ... : ... .. . ... : E-# 0A 4 ... : ... .. . ... ...
ROW 15 : ... .. . ... : ... .. . ... ... : ... .. . ... : ... .. . ... : ... .. . ... ...
ROW 16 : ... .. . ... : ... .. . ... ... : ... .. . ... : ... .. . ... : ... .. . ... ...
ROW 17 : ... .. . ... : ... .. . ... ... : ... .. . ... : ... .. . ... : ... .. . ... ...
ROW 18 : ... .. . ... : D#4 09 . ... ... : ... .. . ... : E-# 0A 5 ... : ... .. . ... ...
ROW 19 : ... .. . ... : ... .. . ... ... : ... .. . ... : ... .. . ... : ... .. . ... ...
ROW 1A : C-3 07 . ... : ... .. . ... ... : ... .. . ... : E-# 0A 6 ... : ... .. . ... ...
ROW 1B : ... .. . ... : ... .. . ... ... : ... .. . ... : ... .. . ... : ... .. . ... ...
ROW 1C : A#2 07 . ... : A#3 09 . ... ... : ... .. . ... : E-# 0A 7 ... : ... .. . ... ...
ROW 1D : ... .. . ... : ... .. . ... ... : ... .. . ... : ... .. . ... : ... .. . ... ...
ROW 1E : A-2 07 . ... : ... .. . ... ... : ... .. . ... : E-# 0A 8 ... : ... .. . ... ...
ROW 1F : ... .. . ... : ... .. . ... ... : ... .. . ... : ... .. . ... : ... .. . ... ...
ROW 20 : D#3 07 . ... : G-4 03 . ... ... : ... .. . ... : 6-# 05 A ... : ... .. . ... ...
ROW 21 : ... .. . ... : ... .. . ... ... : ... .. . ... : ... .. 8 ... : ... .. . ... ...
ROW 22 : ... .. . ... : ... .. . ... ... : ... .. . ... : ... .. 6 ... : ... .. . ... ...
ROW 23 : ... .. . ... : ... .. . ... ... : ... .. . ... : ... .. 3 ... : ... .. . ... ...
ROW 24 : ... .. . ... : F-4 03 . ... ... : ... .. . ... : --- .. . ... : ... .. . ... ...
ROW 25 : ... .. . ... : ... .. . ... ... : ... .. . ... : ... .. . ... : ... .. . ... ...
ROW 26 : ... .. . ... : ... .. . ... ... : ... .. . ... : ... .. . ... : ... .. . ... ...
ROW 27 : ... .. . ... : ... .. . ... ... : ... .. . ... : ... .. . ... : ... .. . ... ...
ROW 28 : ... .. . ... : D#4 03 . ... ... : D#2 01 . ... : F-# 05 A ... : ... .. . ... ...
ROW 29 : ... .. . ... : ... .. . ... ... : ... .. . ... : ... .. . ... : ... .. . ... ...
ROW 2A : ... .. . ... : ... .. . ... ... : ... .. . ... : ... .. . ... : ... .. . ... ...
ROW 2B : ... .. . ... : ... .. . ... ... : ... .. . ... : ... .. . ... : ... .. . ... ...
ROW 2C : ... .. . 204 : A#3 03 . ... ... : ... .. . ... : ... .. 8 ... : ... .. . ... ...
ROW 2D : ... .. . ... : ... .. . ... ... : ... .. . ... : ... .. . ... : ... .. . ... ...
ROW 2E : ... .. . ... : ... .. . ... ... : ... .. . ... : ... .. . ... : ... .. . ... ...
ROW 2F : --- .. . ... : ... .. . ... ... : ... .. . ... : ... .. . ... : ... .. . ... ...
ROW 30 : F#3 07 . 200 : G-4 09 . ... ... : --- .. . ... : E-# 0A 7 ... : ... .. . ... ...
ROW 31 : G-3 07 . ... : ... .. . ... ... : ... .. . ... : ... .. . ... : ... .. . ... ...
ROW 32 : ... .. . ... : ... .. . ... ... : ... .. . ... : ... .. . ... : ... .. . ... ...
ROW 33 : ... .. . ... : ... .. . ... ... : ... .. . ... : ... .. . ... : ... .. . ... ...
ROW 34 : ... .. . ... : F-4 09 . ... ... : ... .. . ... : E-# 0A 4 ... : ... .. . ... ...
ROW 35 : ... .. . ... : ... .. . ... ... : ... .. . ... : ... .. . ... : ... .. . ... ...
ROW 36 : ... .. . ... : ... .. . ... ... : ... .. . ... : ... .. . ... : ... .. . ... ...
ROW 37 : ... .. . ... : ... .. . ... ... : ... .. . ... : ... .. . ... : ... .. . ... ...
ROW 38 : ... .. . ... : D#4 09 . ... ... : D#2 01 . ... : E-# 0A 7 ... : ... .. . ... ...
ROW 39 : ... .. . ... : ... .. . ... ... : ... .. . ... : ... .. . ... : ... .. . ... ...
ROW 3A : ... .. . ... : ... .. . ... ... : ... .. . ... : ... .. . ... : ... .. . ... ...
ROW 3B : ... .. . ... : ... .. . ... ... : --- .. . ... : ... .. . ... : ... .. . ... ...
ROW 3C : ... .. . ... : A#3 09 . ... ... : D#2 01 . ... : E-# 0A 4 ... : ... .. . ... ...
ROW 3D : ... .. . ... : ... .. . ... ... : ... .. . ... : ... .. . ... : ... .. . ... ...
ROW 3E : ... .. . ... : ... .. . ... ... : ... .. . ... : ... .. . ... : ... .. . ... ...
ROW 3F : --- .. . ... : ... .. . ... ... : --- .. . ... : ... .. . ... : ... .. . ... ...

PATTERN 0C
ROW 00 : F-3 07 A ... : C-4 03 9 ... ... : D#2 01 . ... : E-# 0A 7 ... : ... .. . ... ...
ROW 01 : ... .. . ... : ... .. . ... ... : ... .. . ... : ... .. . ... : ... .. . ... ...
ROW 02 : ... .. . ... : ... .. . ... ... : ... .. . ... : ... .. . ... : ... .. . ... ...
ROW 03 : ... .. . ... : ... .. . ... ... : ... .. . ... : ... .. . ... : ... .. . ... ...
ROW 04 : C-3 07 . ... : A-3 03 . ... ... : --- .. . ... : E-# 0A 4 ... : ... .. . ... ...
ROW 05 : ... .. . ... : ... .. . ... ... : ... .. . ... : ... .. . ... : ... .. . ... ...
ROW 06 : ... .. . ... : ... .. . ... ... : ... .. . ... : ... .. . ... : ... .. . ... ...
ROW 07 : --- .. . ... : ... .. . ... ... : ... .. . ... : ... .. . ... : ... .. . ... ...
ROW 08 : C-3 07 . ... : G-3 03 . ... ... : D#2 01 . ... : E-# 0A 7 ... : ... .. . ... ...
ROW 09 : ... .. . ... : ... .. . ... ... : ... .. . ... : ... .. . ... : ... .. . ... ...
ROW 0A : ... .. . ... : ... .. . ... ... : ... .. . ... : ... .. . ... : ... .. . ... ...
ROW 0B : ... .. . ... : ... .. . ... ... : ... .. . ... : ... .. . ... : ... .. . ... ...
ROW 0C : ... .. . ... : C-3 03 . ... ... : --- .. . ... : E-# 0A 4 ... : ... .. . ... ...
ROW 0D : ... .. . ... : ... .. . ... ... : ... .. . ... : ... .. . ... : ... .. . ... ...
ROW 0E : ... .. . ... : ... .. . ... ... : ... .. . ... : ... .. . ... : ... .. . ... ...
ROW 0F : ... .. . ... : ... .. . ... ... : ... .. . ... : ... .. . ... : ... .. . ... ...
ROW 10 : ... .. . ... : A-4 09 . ... ... : ... .. . ... : E-# 0A 7 ... : ... .. . ... ...
ROW 11 : ... .. . ... : ... .. . ... ... : ... .. . ... : ... .. . ... : ... .. . ... ...
ROW 12 : ... .. . ... : ... .. . ... ... : ... .. . ... : ... .. . ... : ... .. . ... ...
ROW 13 : ... .. . ... : ... .. . ... ... : ... .. . ... : ... .. . ... : ... .. . ... ...
ROW 14 : ... .. . ... : G-4 09 . ... ... : ... .. . ... : E-# 0A 4 ... : ... .. . ... ...
ROW 15 : ... .. . ... : ... .. . ... ... : ... .. . ... : ... .. . ... : ... .. . ... ...
ROW 16 : ... .. . ... : ... .. . ... ... : ... .. . ... : ... .. . ... : ... .. . ... ...
ROW 17 : ... .. . ... : ... .. . ... ... : ... .. . ... : ... .. . ... : ... .. . ... ...
ROW 18 : ... .. . ... : F-4 09 . ... ... : ... .. . ... : E-# 0A 5 ... : ... .. . ... ...
ROW 19 : ... .. . ... : ... .. . ... ... : ... .. . ... : ... .. . ... : ... .. . ... ...
ROW 1A : ... .. . ... : ... .. . ... ... : ... .. . ... : E-# 0A 6 ... : ... .. . ... ...
ROW 1B : ... .. . ... : ... .. . ... ... : ... .. . ... : ... .. . ... : ... .. . ... ...
ROW 1C : ... .. . ... : C-4 09 . ... ... : ... .. . ... : E-# 0A 7 ... : ... .. . ... ...
ROW 1D : ... .. . ... : ... .. . ... ... : ... .. . ... : ... .. . ... : ... .. . ... ...
ROW 1E : ... .. . ... : ... .. . ... ... : ... .. . ... : E-# 0A 8 ... : ... .. . ... ...
ROW 1F : ... .. . ... : ... .. . ... ... : ... .. . ... : ... .. . ... : ... .. . ... ...
ROW 20 : ... .. . 486 : A-3 03 . ... ... : ... .. . ... : 6-# 05 A ... : ... .. . ... ...
ROW 21 : ... .. . ... : ... .. . ... ... : ... .. . ... : ... .. 8 ... : ... .. . ... ...
ROW 22 : ... .. . ... : ... .. . ... ... : ... .. . ... : ... .. 6 ... : ... .. . ... ...
ROW 23 : ... .. . ... : ... .. . ... ... : ... .. . ... : ... .. 3 ... : ... .. . ... ...
ROW 24 : ... .. . ... : C-4 03 . ... ... : ... .. . ... : --- .. . ... : ... .. . ... ...
ROW 25 : ... .. . ... : ... .. . ... ... : ... .. . ... : ... .. . ... : ... .. . ... ...
ROW 26 : ... .. . ... : ... .. . ... ... : ... .. . ... : ... .. . ... : ... .. . ... ...
ROW 27 : ... .. . ... : ... .. . ... ... : ... .. . ... : ... .. . ... : ... .. . ... ...
ROW 28 : ... .. . ... : F-4 03 . ... ... : A#1 01 . ... : E-# 0A 5 ... : ... .. . ... ...
ROW 29 : ... .. . ... : ... .. . ... ... : ... .. . ... : ... .. . ... : ... .. . ... ...
ROW 2A : ... .. . ... : ... .. . ... ... : ... .. . ... : E-# 0A 6 ... : ... .. . ... ...
ROW 2B : ... .. . ... : ... .. . ... ... : ... .. . ... : ... .. . ... : ... .. . ... ...
ROW 2C : ... .. . ... : C-4 03 . ... ... : ... .. . ... : E-# 0A 7 ... : ... .. . ... ...
ROW 2D : ... .. . ... : ... .. . ... ... : ... .. . ... : ... .. . ... : ... .. . ... ...
ROW 2E : ... .. . ... : ... .. . ... ... : ... .. . ... : E-# 0A 8 ... : ... .. . ... ...
ROW 2F : --- .. . 400 : ... .. . ... ... : ... .. . ... : ... .. . ... : ... .. . ... ...
ROW 30 : A-4 09 4 ... : F-4 09 . ... ... : --- .. . ... : 6-# 05 A ... : ... .. . ... ...
ROW 31 : ... .. . ... : ... .. . ... ... : ... .. . ... : ... .. 8 ... : ... .. . ... ...
ROW 32 : ... .. . ... : ... .. . ... ... : ... .. . ... : ... .. 6 ... : ... .. . ... ...
ROW 33 : ... .. . ... : ... .. . ... ... : ... .. . ... : ... .. 3 ... : ... .. . ... ...
ROW 34 : A#4 09 5 ... : G-4 09 . ... ... : ... .. . ... : E-# 0A 4 ... : ... .. . ... ...
ROW 35 : ... .. . ... : ... .. . ... ... : ... .. . ... : ... .. . ... : ... .. . ... ...
ROW 36 : ... .. . ... : ... .. . ... ... : ... .. . ... : ... .. . ... : ... .. . ... ...
ROW 37 : ... .. . ... : ... .. . ... ... : ... .. . ... : ... .. . ... : ... .. . ... ...
ROW 38 : C-5 09 6 ... : A-4 09 . ... ... : A#1 01 . ... : F-# 0A A ... : ... .. . ... ...
ROW 39 : ... .. . ... : ... .. . ... ... : ... .. . ... : ... .. . ... : ... .. . ... ...
ROW 3A : ... .. . ... : ... .. . ... ... : ... .. . ... : ... .. . ... : ... .. . ... ...
ROW 3B : ... .. . ... : ... .. . ... ... : ... .. . ... : ... .. . ... : ... .. . ... ...
ROW 3C : F-5 09 7 ... : C-5 09 . ... ... : ... .. . ... : ... .. 8 ... : ... .. . ... ...
ROW 3D : ... .. . ... : ... .. . ... ... : ... .. . ... : ... .. . ... : ... .. . ... ...
ROW 3E : ... .. . ... : ... .. . ... ... : ... .. . ... : ... .. . ... : ... .. . ... ...
ROW 3F : --- .. . ... : ... .. . ... ... : ... .. . ... : ... .. . ... : ... .. . ... ...

PATTERN 0D
ROW 00 : D#3 06 7 ... : G-4 03 9 ... ... : D#2 01 . ... : E-# 0A 7 ... : ... .. . ... ...
ROW 01 : ... .. . ... : ... .. . ... ... : ... .. . ... : ... .. . ... : ... .. . ... ...
ROW 02 : ... .. . ... : ... .. . ... ... : ... .. . ... : ... .. . ... : ... .. . ... ...
ROW 03 : ... .. . ... : ... .. . ... ... : ... .. . ... : ... .. . ... : ... .. . ... ...
ROW 04 : ... .. . ... : F-4 03 . ... ... : --- .. . ... : E-# 0A 4 ... : ... .. . ... ...
ROW 05 : ... .. . ... : ... .. . ... ... : ... .. . ... : ... .. . ... : ... .. . ... ...
ROW 06 : ... .. . ... : ... .. . ... ... : ... .. . ... : ... .. . ... : ... .. . ... ...
ROW 07 : ... .. . ... : ... .. . ... ... : ... .. . ... : ... .. . ... : ... .. . ... ...
ROW 08 : ... .. . ... : D#4 03 . ... ... : D#2 01 . ... : E-# 0A 7 ... : ... .. . ... ...
ROW 09 : ... .. 2 ... : ... .. . ... ... : ... .. . ... : ... .. . ... : ... .. . ... ...
ROW 0A : ... .. . ... : ... .. . ... ... : ... .. . ... : ... .. . ... : ... .. . ... ...
ROW 0B : ... .. . ... : ... .. . ... ... : ... .. . ... : ... .. . ... : ... .. . ... ...
ROW 0C : ... .. . ... : A#3 03 . ... ... : --- .. . ... : E-# 0A 4 ... : ... .. . ... ...
ROW 0D : ... .. . ... : ... .. . ... ... : ... .. . ... : ... .. . ... : ... .. . ... ...
ROW 0E : ... .. . ... : ... .. . ... ... : ... .. . ... : ... .. . ... : ... .. . ... ...
ROW 0F : ... .. . ... : ... .. . ... ... : ... .. . ... : ... .. . ... : ... .. . ... ...
ROW 10 : G#2 07 A ... : G-4 09 . ... ... : ... .. . ... : E-# 0A 7 ... : ... .. . ... ...
ROW 11 : A-2 07 . ... : ... .. . ... ... : ... .. . ... : ... .. . ... : ... .. . ... ...
ROW 12 : A#2 07 . ... : ... .. . ... ... : ... .. . ... : ... .. . ... : ... .. . ... ...
ROW 13 : ... .. . ... : ... .. . ... ... : ... .. . ... : ... .. . ... : ... .. . ... ...
ROW 14 : ... .. . ... : F-4 09 . ... ... : ... .. . ... : E-# 0A 4 ... : ... .. . ... ...
ROW 15 : ... .. . ... : ... .. . ... ... : ... .. . ... : ... .. . ... : ... .. . ... ...
ROW 16 : ... .. . ... : ... .. . ... ... : ... .. . ... : ... .. . ... : ... .. . ... ...
ROW 17 : ... .. . ... : ... .. . ... ... : ... .. . ... : ... .. . ... : ... .. . ... ...
ROW 18 : ... .. . ... : D#4 09 . ... ... : ... .. . ... : E-# 0A 5 ... : ... .. . ... ...
ROW 19 : ... .. . ... : ... .. . ... ... : ... .. . ... : ... .. . ... : ... .. . ... ...
ROW 1A : C-3 07 . ... : ... .. . ... ... : ... .. . ... : E-# 0A 6 ... : ... .. . ... ...
ROW 1B : ... .. . ... : ... .. . ... ... : ... .. . ... : ... .. . ... : ... .. . ... ...
ROW 1C : A#2 07 . ... : A#3 09 . ... ... : ... .. . ... : E-# 0A 7 ... : ... .. . ... ...
ROW 1D : ... .. . ... : ... .. . ... ... : ... .. . ... : ... .. . ... : ... .. . ... ...
ROW 1E : A-2 07 . ... : ... .. . ... ... : ... .. . ... : E-# 0A 8 ... : ... .. . ... ...
ROW 1F : ... .. . ... : ... .. . ... ... : ... .. . ... : ... .. . ... : ... .. . ... ...
ROW 20 : D#3 07 . ... : G-4 03 . ... ... : ... .. . ... : 6-# 0A A ... : ... .. . ... ...
ROW 21 : ... .. . ... : ... .. . ... ... : ... .. . ... : ... .. 8 ... : ... .. . ... ...
ROW 22 : ... .. . ... : ... .. . ... ... : ... .. . ... : ... .. 6 ... : ... .. . ... ...
ROW 23 : ... .. . ... : ... .. . ... ... : ... .. . ... : ... .. 3 ... : ... .. . ... ...
ROW 24 : ... .. . ... : F-4 03 . ... ... : ... .. . ... : --- .. . ... : ... .. . ... ...
ROW 25 : ... .. . ... : ... .. . ... ... : ... .. . ... : ... .. . ... : ... .. . ... ...
ROW 26 : ... .. . ... : ... .. . ... ... : ... .. . ... : ... .. . ... : ... .. . ... ...
ROW 27 : ... .. . ... : ... .. . ... ... : ... .. . ... : ... .. . ... : ... .. . ... ...
ROW 28 : ... .. . ... : D#4 03 . ... ... : D#2 01 . ... : F-# 0A A ... : ... .. . ... ...
ROW 29 : ... .. . ... : ... .. . ... ... : ... .. . ... : ... .. . ... : ... .. . ... ...
ROW 2A : ... .. . ... : ... .. . ... ... : ... .. . ... : ... .. . ... : ... .. . ... ...
ROW 2B : ... .. . ... : ... .. . ... ... : ... .. . ... : ... .. . ... : ... .. . ... ...
ROW 2C : ... .. . 204 : A#3 03 . ... ... : ... .. . ... : ... .. 8 ... : ... .. . ... ...
ROW 2D : ... .. . ... : ... .. . ... ... : ... .. . ... : ... .. . ... : ... .. . ... ...
ROW 2E : ... .. . ... : ... .. . ... ... : ... .. . ... : ... .. . ... : ... .. . ... ...
ROW 2F : --- .. . ... : ... .. . ... ... : ... .. . ... : ... .. . ... : ... .. . ... ...
ROW 30 : A-3 07 . 200 : G-4 09 . ... ... : --- .. . ... : E-# 0A 7 ... : ... .. . ... ...
ROW 31 : A#3 07 . ... : ... .. . ... ... : ... .. . ... : ... .. . ... : ... .. . ... ...
ROW 32 : ... .. . ... : ... .. . ... ... : ... .. . ... : ... .. . ... : ... .. . ... ...
ROW 33 : ... .. . ... : ... .. . ... ... : ... .. . ... : ... .. . ... : ... .. . ... ...
ROW 34 : ... .. . ... : F-4 09 . ... ... : ... .. . ... : E-# 0A 4 ... : ... .. . ... ...
ROW 35 : ... .. . ... : ... .. . ... ... : ... .. . ... : ... .. . ... : ... .. . ... ...
ROW 36 : ... .. . ... : ... .. . ... ... : ... .. . ... : ... .. . ... : ... .. . ... ...
ROW 37 : ... .. . ... : ... .. . ... ... : ... .. . ... : ... .. . ... : ... .. . ... ...
ROW 38 : ... .. . ... : D#4 09 . ... ... : D#2 01 . ... : E-# 0A 7 ... : ... .. . ... ...
ROW 39 : ... .. . ... : ... .. . ... ... : ... .. . ... : ... .. . ... : ... .. . ... ...
ROW 3A : ... .. . ... : ... .. . ... ... : ... .. . ... : ... .. . ... : ... .. . ... ...
ROW 3B : ... .. . ... : ... .. . ... ... : --- .. . ... : ... .. . ... : ... .. . ... ...
ROW 3C : ... .. . ... : A#3 09 . ... ... : D#2 01 . ... : E-# 0A 4 ... : ... .. . ... ...
ROW 3D : ... .. . ... : ... .. . ... ... : ... .. . ... : ... .. . ... : ... .. . ... ...
ROW 3E : ... .. . ... : ... .. . ... ... : ... .. . ... : ... .. . ... : ... .. . ... ...
ROW 3F : --- .. . ... : ... .. . ... ... : --- .. . ... : ... .. . ... : ... .. . ... ...

PATTERN 0E
ROW 00 : A-3 07 . ... : A-4 03 9 ... ... : F-2 01 . ... : E-# 0A 7 ... : ... .. . ... ...
ROW 01 : ... .. . ... : ... .. . ... ... : ... .. . ... : ... .. . ... : ... .. . ... ...
ROW 02 : ... .. . ... : ... .. . ... ... : ... .. . ... : ... .. . ... : ... .. . ... ...
ROW 03 : ... .. . ... : ... .. . ... ... : ... .. . ... : ... .. . ... : ... .. . ... ...
ROW 04 : A#3 07 . ... : G-4 03 . ... ... : ... .. . ... : E-# 0A 4 ... : ... .. . ... ...
ROW 05 : ... .. . ... : ... .. . ... ... : ... .. . ... : ... .. . ... : ... .. . ... ...
ROW 06 : ... .. . ... : ... .. . ... ... : ... .. . ... : ... .. . ... : ... .. . ... ...
ROW 07 : --- .. . ... : ... .. . ... ... : ... .. . ... : ... .. . ... : ... .. . ... ...
ROW 08 : C-4 07 . ... : F-4 03 . ... ... : ... .. . ... : E-# 0A 7 ... : ... .. . ... ...
ROW 09 : ... .. . ... : ... .. . ... ... : ... .. . ... : ... .. . ... : ... .. . ... ...
ROW 0A : ... .. . ... : ... .. . ... ... : ... .. . ... : ... .. . ... : ... .. . ... ...
ROW 0B : ... .. . ... : ... .. . ... ... : ... .. . ... : ... .. . ... : ... .. . ... ...
ROW 0C : ... .. . ... : C-4 03 . ... ... : ... .. . ... : E-# 0A 4 ... : ... .. . ... ...
ROW 0D : ... .. . ... : ... .. . ... ... : ... .. . ... : ... .. . ... : ... .. . ... ...
ROW 0E : ... .. . ... : ... .. . ... ... : ... .. . ... : ... .. . ... : ... .. . ... ...
ROW 0F : ... .. . ... : ... .. . ... ... : ... .. . ... : ... .. . ... : ... .. . ... ...
ROW 10 : ... .. . 486 : A-4 09 . ... ... : F-3 01 . 320 : E-# 0A 7 ... : ... .. . ... ...
ROW 11 : ... .. . ... : ... .. . ... ... : ... .. . ... : ... .. . ... : ... .. . ... ...
ROW 12 : ... .. . ... : ... .. . ... ... : ... .. . ... : ... .. . ... : ... .. . ... ...
ROW 13 : ... .. . ... : ... .. . ... ... : ... .. . ... : ... .. . ... : ... .. . ... ...
ROW 14 : ... .. . ... : G-4 09 . ... ... : ... .. . ... : E-# 0A 4 ... : ... .. . ... ...
ROW 15 : ... .. . ... : ... .. . ... ... : ... .. . ... : ... .. . ... : ... .. . ... ...
ROW 16 : ... .. . ... : ... .. . ... ... : ... .. . ... : ... .. . ... : ... .. . ... ...
ROW 17 : --- .. . 400 : ... .. . ... ... : ... .. . ... : ... .. . ... : ... .. . ... ...
ROW 18 : A#3 07 . ... : F-4 09 . ... ... : ... .. . ... : E-# 0A 5 ... : ... .. . ... ...
ROW 19 : ... .. . ... : ... .. . ... ... : ... .. . ... : ... .. . ... : ... .. . ... ...
ROW 1A : ... .. . ... : ... .. . ... ... : ... .. . ... : E-# 0A 6 ... : ... .. . ... ...
ROW 1B : ... .. . ... : ... .. . ... ... : ... .. . ... : ... .. . ... : ... .. . ... ...
ROW 1C : A-3 07 . ... : C-4 09 . ... ... : ... .. . ... : E-# 0A 7 ... : ... .. . ... ...
ROW 1D : ... .. . ... : ... .. . ... ... : ... .. . ... : ... .. . ... : ... .. . ... ...
ROW 1E : ... .. . ... : ... .. . ... ... : ... .. . ... : E-# 0A 8 ... : ... .. . ... ...
ROW 1F : --- .. . ... : ... .. . ... ... : ... .. . ... : ... .. . ... : ... .. . ... ...
ROW 20 : A#3 07 . ... : A#4 03 . ... ... : D-3 01 . 300 : 6-# 05 A ... : ... .. . ... ...
ROW 21 : ... .. . ... : ... .. . ... ... : ... .. . ... : ... .. 8 ... : ... .. . ... ...
ROW 22 : ... .. . ... : ... .. . ... ... : ... .. . ... : ... .. 6 ... : ... .. . ... ...
ROW 23 : ... .. . ... : ... .. . ... ... : ... .. . ... : ... .. 3 ... : ... .. . ... ...
ROW 24 : ... .. . ... : F-4 03 . ... ... : ... .. . ... : --- .. . ... : ... .. . ... ...
ROW 25 : ... .. . ... : ... .. . ... ... : ... .. . ... : ... .. . ... : ... .. . ... ...
ROW 26 : ... .. . ... : ... .. . ... ... : ... .. . ... : ... .. . ... : ... .. . ... ...
ROW 27 : ... .. . ... : ... .. . ... ... : ... .. . ... : ... .. . ... : ... .. . ... ...
ROW 28 : ... .. . ... : D-4 03 . ... ... : ... .. . ... : E-# 0A 5 ... : ... .. . ... ...
ROW 29 : ... .. . ... : ... .. . ... ... : ... .. . ... : ... .. . ... : ... .. . ... ...
ROW 2A : ... .. . ... : ... .. . ... ... : ... .. . ... : E-# 0A 6 ... : ... .. . ... ...
ROW 2B : ... .. . ... : ... .. . ... ... : ... .. . ... : ... .. . ... : ... .. . ... ...
ROW 2C : ... .. . ... : C-4 03 . ... ... : ... .. . ... : E-# 0A 7 ... : ... .. . ... ...
ROW 2D : ... .. . ... : ... .. . ... ... : ... .. . ... : ... .. . ... : ... .. . ... ...
ROW 2E : ... .. . ... : ... .. . ... ... : ... .. . ... : E-# 0A 8 ... : ... .. . ... ...
ROW 2F : ... .. . ... : ... .. . ... ... : ... .. . ... : ... .. . ... : ... .. . ... ...
ROW 30 : ... .. . 486 : A#3 03 . ... ... : A#1 01 . ... : 6-# 05 A ... : ... .. . ... ...
ROW 31 : ... .. . ... : ... .. . ... ... : ... .. . ... : ... .. 8 ... : ... .. . ... ...
ROW 32 : ... .. . ... : ... .. . ... ... : ... .. . ... : ... .. 6 ... : ... .. . ... ...
ROW 33 : ... .. . ... : ... .. . ... ... : ... .. . ... : ... .. 3 ... : ... .. . ... ...
ROW 34 : ... .. . ... : F-3 03 . ... ... : ... .. . ... : E-# 0A 4 ... : ... .. . ... ...
ROW 35 : ... .. . ... : ... .. . ... ... : ... .. . ... : ... .. . ... : ... .. . ... ...
ROW 36 : ... .. . ... : ... .. . ... ... : ... .. . ... : ... .. . ... : ... .. . ... ...
ROW 37 : --- .. . 400 : ... .. . ... ... : ... .. . ... : ... .. . ... : ... .. . ... ...
ROW 38 : F-3 07 . ... : A#3 03 . ... ... : ... .. . ... : F-# 0A A ... : ... .. . ... ...
ROW 39 : ... .. . ... : ... .. . ... ... : ... .. . ... : ... .. . ... : ... .. . ... ...
ROW 3A : ... .. . ... : ... .. . ... ... : ... .. . ... : ... .. . ... : ... .. . ... ...
ROW 3B : ... .. . ... : ... .. . ... ... : ... .. . ... : ... .. . ... : ... .. . ... ...
ROW 3C : G-3 07 . ... : A#3 09 . ... ... : ... .. . ... : ... .. 8 ... : ... .. . ... ...
ROW 3D : ... .. . ... : ... .. . ... ... : ... .. . ... : ... .. . ... : ... .. . ... ...
ROW 3E : ... .. . ... : ... .. . ... ... : ... .. . ... : ... .. . ... : ... .. . ... ...
ROW 3F : --- .. . ... : ... .. . ... ... : --- .. . ... : ... .. . ... : ... .. . ... ...

PATTERN 0F
ROW 00 : G#3 07 . ... : D#4 03 9 ... ... : C-2 01 . ... : E-# 0A 7 ... : ... .. . ... ...
ROW 01 : ... .. . ... : ... .. . ... ... : ... .. . ... : ... .. . ... : ... .. . ... ...
ROW 02 : ... .. . ... : ... .. . ... ... : ... .. . ... : ... .. . ... : ... .. . ... ...
ROW 03 : ... .. . ... : ... .. . ... ... : ... .. . ... : ... .. . ... : ... .. . ... ...
ROW 04 : ... .. . ... : C-4 03 . ... ... : ... .. . ... : E-# 0A 4 ... : ... .. . ... ...
ROW 05 : ... .. . ... : ... .. . ... ... : ... .. . ... : ... .. . ... : ... .. . ... ...
ROW 06 : ... .. . ... : ... .. . ... ... : ... .. . ... : ... .. . ... : ... .. . ... ...
ROW 07 : ... .. . ... : ... .. . ... ... : ... .. . ... : ... .. . ... : ... .. . ... ...
ROW 08 : ... .. . ... : G#3 03 . ... ... : ... .. . ... : E-# 0A 7 ... : ... .. . ... ...
ROW 09 : ... .. . ... : ... .. . ... ... : ... .. . ... : ... .. . ... : ... .. . ... ...
ROW 0A : ... .. . ... : ... .. . ... ... : ... .. . ... : ... .. . ... : ... .. . ... ...
ROW 0B : ... .. . ... : ... .. . ... ... : ... .. . ... : ... .. . ... : ... .. . ... ...
ROW 0C : ... .. . ... : D#3 03 . ... ... : ... .. . ... : E-# 0A 4 ... : ... .. . ... ...
ROW 0D : ... .. . ... : ... .. . ... ... : ... .. . ... : ... .. . ... : ... .. . ... ...
ROW 0E : ... .. . ... : ... .. . ... ... : ... .. . ... : ... .. . ... : ... .. . ... ...
ROW 0F : ... .. . ... : ... .. . ... ... : ... .. . ... : ... .. . ... : ... .. . ... ...
ROW 10 : ... .. . 486 : C-4 09 . ... ... : ... .. . ... : E-# 0A 7 ... : D#5 00 . ... ...
ROW 11 : ... .. . ... : ... .. . ... ... : ... .. . ... : ... .. . ... : D#5 00 . ... ...
ROW 12 : ... .. . ... : ... .. . ... ... : ... .. . ... : ... .. . ... : ... .. . ... ...
ROW 13 : ... .. . ... : ... .. . ... ... : ... .. . ... : ... .. . ... : ... .. . ... ...
ROW 14 : ... .. . ... : G#3 09 . ... ... : ... .. . ... : E-# 0A 4 ... : ... .. . ... ...
ROW 15 : ... .. . ... : ... .. . ... ... : ... .. . ... : ... .. . ... : ... .. . ... ...
ROW 16 : ... .. . ... : ... .. . ... ... : ... .. . ... : ... .. . ... : ... .. . ... ...
ROW 17 : --- .. . 400 : ... .. . ... ... : ... .. . ... : ... .. . ... : ... .. . ... ...
ROW 18 : A#3 07 . ... : D#3 09 . ... ... : ... .. . ... : E-# 0A 5 ... : ... .. . ... ...
ROW 19 : ... .. . ... : ... .. . ... ... : ... .. . ... : ... .. . ... : ... .. . ... ...
ROW 1A : ... .. . ... : ... .. . ... ... : ... .. . ... : E-# 0A 6 ... : ... .. . ... ...
ROW 1B : ... .. . ... : ... .. . ... ... : ... .. . ... : ... .. . ... : ... .. . ... ...
ROW 1C : G#3 07 . ... : C-3 09 . ... ... : ... .. . ... : E-# 0A 7 ... : ... .. . ... ...
ROW 1D : ... .. . ... : ... .. . ... ... : ... .. . ... : ... .. . ... : ... .. . ... ...
ROW 1E : ... .. . ... : ... .. . ... ... : ... .. . ... : E-# 0A 8 ... : ... .. . ... ...
ROW 1F : --- .. . ... : ... .. . ... ... : ... .. . ... : ... .. . ... : ... .. . ... ...
ROW 20 : G-3 07 . ... : D#4 03 9 ... ... : D#2 01 . 300 : 6-# 0A A ... : ... .. . ... ...
ROW 21 : ... .. . ... : ... .. . ... ... : ... .. . ... : ... .. 8 ... : ... .. . ... ...
ROW 22 : ... .. . ... : ... .. . ... ... : ... .. . ... : ... .. 6 ... : ... .. . ... ...
ROW 23 : ... .. . ... : ... .. . ... ... : ... .. . ... : ... .. 3 ... : ... .. . ... ...
ROW 24 : ... .. . ... : A#3 03 . ... ... : ... .. . ... : --- .. . ... : ... .. . ... ...
ROW 25 : ... .. . ... : ... .. . ... ... : ... .. . ... : ... .. . ... : ... .. . ... ...
ROW 26 : ... .. . ... : ... .. . ... ... : ... .. . ... : ... .. . ... : ... .. . ... ...
ROW 27 : ... .. . ... : ... .. . ... ... : ... .. . ... : ... .. . ... : ... .. . ... ...
ROW 28 : ... .. . ... : G-3 03 . ... ... : ... .. . ... : F-# 0A A ... : ... .. . ... ...
ROW 29 : ... .. . ... : ... .. . ... ... : ... .. . ... : ... .. . ... : ... .. . ... ...
ROW 2A : ... .. . ... : ... .. . ... ... : ... .. . ... : ... .. . ... : ... .. . ... ...
ROW 2B : ... .. . ... : ... .. . ... ... : ... .. . ... : ... .. . ... : ... .. . ... ...
ROW 2C : ... .. . ... : D#3 03 . ... ... : ... .. . ... : ... .. 8 ... : ... .. . ... ...
ROW 2D : ... .. . ... : ... .. . ... ... : ... .. . ... : ... .. . ... : ... .. . ... ...
ROW 2E : ... .. . ... : ... .. . ... ... : ... .. . ... : ... .. . ... : ... .. . ... ...
ROW 2F : ... .. . ... : ... .. . ... ... : ... .. . ... : ... .. . ... : ... .. . ... ...
ROW 30 : D#3 07 . 317 : A#3 09 . ... ... : A#2 01 . 300 : E-# 0A 7 ... : ... .. . ... ...
ROW 31 : ... .. . ... : ... .. . ... ... : ... .. . ... : ... .. . ... : ... .. . ... ...
ROW 32 : ... .. . ... : ... .. . ... ... : ... .. . ... : ... .. . ... : ... .. . ... ...
ROW 33 : ... .. . ... : ... .. . ... ... : ... .. . ... : ... .. . ... : ... .. . ... ...
ROW 34 : ... .. . ... : G-3 09 . ... ... : ... .. . ... : E-# 0A 4 ... : ... .. . ... ...
ROW 35 : ... .. . ... : ... .. . ... ... : ... .. . ... : ... .. . ... : ... .. . ... ...
ROW 36 : ... .. . ... : ... .. . ... ... : ... .. . ... : ... .. . ... : ... .. . ... ...
ROW 37 : ... .. . ... : ... .. . ... ... : ... .. . ... : ... .. . ... : ... .. . ... ...
ROW 38 : ... .. . ... : D#3 09 . ... ... : ... .. . ... : E-# 0A 7 ... : ... .. . ... ...
ROW 39 : ... .. . ... : ... .. . ... ... : ... .. . ... : ... .. . ... : ... .. . ... ...
ROW 3A : ... .. . ... : ... .. . ... ... : ... .. . ... : ... .. . ... : ... .. . ... ...
ROW 3B : ... .. . ... : ... .. . ... ... : ... .. . ... : ... .. . ... : ... .. . ... ...
ROW 3C : ... .. . ... : A#2 09 . ... ... : ... .. . ... : E-# 0A 4 ... : ... .. . ... ...
ROW 3D : ... .. . ... : ... .. . ... ... : ... .. . ... : ... .. . ... : ... .. . ... ...
ROW 3E : ... .. . ... : ... .. . ... ... : ... .. . ... : ... .. . ... : ... .. . ... ...
ROW 3F : ... .. . ... : ... .. . ... ... : --- .. . ... : ... .. . ... : ... .. . ... ...

PATTERN 10
ROW 00 : G-3 07 . ... : C-4 03 9 ... ... : D-3 01 . ... : E-# 0A 7 ... : ... .. . ... ...
ROW 01 : ... .. . ... : ... .. . ... ... : ... .. . ... : ... .. . ... : ... .. . ... ...
ROW 02 : ... .. . ... : ... .. . ... ... : ... .. . ... : ... .. . ... : ... .. . ... ...
ROW 03 : ... .. . ... : ... .. . ... ... : ... .. . ... : ... .. . ... : ... .. . ... ...
ROW 04 : ... .. . ... : A-3 03 . ... ... : ... .. . ... : E-# 0A 4 ... : ... .. . ... ...
ROW 05 : ... .. . ... : ... .. . ... ... : ... .. . ... : ... .. . ... : ... .. . ... ...
ROW 06 : ... .. . ... : ... .. . ... ... : ... .. . ... : ... .. . ... : ... .. . ... ...
ROW 07 : ... .. . ... : ... .. . ... ... : ... .. . ... : ... .. . ... : ... .. . ... ...
ROW 08 : ... .. . ... : G-3 03 . ... ... : ... .. . ... : E-# 0A 7 ... : ... .. . ... ...
ROW 09 : ... .. . ... : ... .. . ... ... : ... .. . ... : ... .. . ... : ... .. . ... ...
ROW 0A : ... .. . ... : ... .. . ... ... : ... .. . ... : ... .. . ... : ... .. . ... ...
ROW 0B : ... .. . ... : ... .. . ... ... : ... .. . ... : ... .. . ... : ... .. . ... ...
ROW 0C : ... .. . ... : D-3 03 . ... ... : ... .. . ... : E-# 0A 4 ... : ... .. . ... ...
ROW 0D : ... .. . ... : ... .. . ... ... : ... .. . ... : ... .. . ... : ... .. . ... ...
ROW 0E : ... .. . ... : ... .. . ... ... : ... .. . ... : ... .. . ... : ... .. . ... ...
ROW 0F : ... .. . ... : ... .. . ... ... : ... .. . ... : ... .. . ... : ... .. . ... ...
ROW 10 : ... .. . ... : C-4 03 9 ... ... : ... .. . ... : E-# 0A 7 ... : ... .. . ... ...
ROW 11 : ... .. . ... : ... .. . ... ... : ... .. . ... : ... .. . ... : ... .. . ... ...
ROW 12 : ... .. . ... : ... .. . ... ... : ... .. . ... : ... .. . ... : ... .. . ... ...
ROW 13 : ... .. . ... : ... .. . ... ... : ... .. . ... : ... .. . ... : ... .. . ... ...
ROW 14 : ... .. . ... : A-3 03 . ... ... : ... .. . ... : E-# 0A 4 ... : ... .. . ... ...
ROW 15 : ... .. . ... : ... .. . ... ... : ... .. . ... : ... .. . ... : ... .. . ... ...
ROW 16 : ... .. . ... : ... .. . ... ... : ... .. . ... : ... .. . ... : ... .. . ... ...
ROW 17 : ... .. . ... : ... .. . ... ... : --- .. . ... : ... .. . ... : ... .. . ... ...
ROW 18 : ... .. . ... : G-3 03 . ... ... : A-2 09 . ... : E-# 0A 5 ... : ... .. . ... ...
ROW 19 : ... .. . ... : ... .. . ... ... : ... .. . ... : ... .. . ... : ... .. . ... ...
ROW 1A : ... .. . ... : ... .. . ... ... : ... .. . ... : E-# 0A 6 ... : ... .. . ... ...
ROW 1B : ... .. . ... : ... .. . ... ... : --- .. . ... : ... .. . ... : ... .. . ... ...
ROW 1C : ... .. . ... : D-3 03 . ... ... : G-2 09 . ... : E-# 0A 7 ... : ... .. . ... ...
ROW 1D : ... .. . ... : ... .. . ... ... : ... .. . ... : ... .. . ... : ... .. . ... ...
ROW 1E : ... .. . ... : ... .. . ... ... : ... .. . ... : E-# 0A 8 ... : ... .. . ... ...
ROW 1F : ... .. . ... : ... .. . ... ... : --- .. . ... : ... .. . ... : ... .. . ... ...
ROW 20 : ... .. . 486 : C-4 03 9 ... ... : D-2 01 . ... : 6-# 0A A ... : ... .. . ... ...
ROW 21 : ... .. . ... : ... .. . ... ... : ... .. . ... : ... .. 8 ... : ... .. . ... ...
ROW 22 : ... .. . ... : ... .. . ... ... : ... .. . ... : ... .. 6 ... : ... .. . ... ...
ROW 23 : ... .. . ... : ... .. . ... ... : ... .. . ... : ... .. 3 ... : ... .. . ... ...
ROW 24 : ... .. . ... : A-3 03 . ... ... : ... .. . ... : --- .. . ... : ... .. . ... ...
ROW 25 : ... .. . ... : ... .. . ... ... : ... .. . ... : ... .. . ... : ... .. . ... ...
ROW 26 : ... .. . ... : ... .. . ... ... : ... .. . ... : ... .. . ... : ... .. . ... ...
ROW 27 : ... .. . ... : ... .. . ... ... : ... .. . ... : ... .. . ... : ... .. . ... ...
ROW 28 : ... .. . ... : G-3 03 . ... ... : ... .. . ... : F-# 0A A ... : ... .. . ... ...
ROW 29 : ... .. . ... : ... .. . ... ... : ... .. . ... : ... .. . ... : ... .. . ... ...
ROW 2A : ... .. . ... : ... .. . ... ... : ... .. . ... : ... .. . ... : ... .. . ... ...
ROW 2B : ... .. . ... : ... .. . ... ... : ... .. . ... : ... .. . ... : ... .. . ... ...
ROW 2C : ... .. . ... : D-3 03 . ... ... : ... .. . ... : ... .. 8 ... : ... .. . ... ...
ROW 2D : ... .. . ... : ... .. . ... ... : ... .. . ... : ... .. . ... : ... .. . ... ...
ROW 2E : ... .. . ... : ... .. . ... ... : ... .. . ... : ... .. . ... : ... .. . ... ...
ROW 2F : ... .. . ... : ... .. . ... ... : --- .. . ... : ... .. . ... : ... .. . ... ...
ROW 30 : --- .. . 400 : D-4 03 . ... ... : G-2 01 . ... : C-# 00 2 ... : ... .. . ... ...
ROW 31 : ... .. . ... : ... .. . ... ... : ... .. . ... : ... .. . ... : ... .. . ... ...
ROW 32 : ... .. . ... : ... .. . ... ... : ... .. . ... : ... .. . ... : ... .. . ... ...
ROW 33 : --- .. . ... : ... .. . ... ... : ... .. . ... : ... .. . ... : ... .. . ... ...
ROW 34 : A-0 01 . 300 : B-3 03 . ... ... : ... .. . ... : A-# 00 3 ... : ... .. . ... ...
ROW 35 : ... .. . ... : ... .. . ... ... : ... .. . ... : ... .. . ... : ... .. . ... ...
ROW 36 : ... .. . ... : ... .. . ... ... : ... .. . ... : ... .. . ... : ... .. . ... ...
ROW 37 : --- .. . ... : ... .. . ... ... : ... .. . ... : ... .. . ... : ... .. . ... ...
ROW 38 : A#0 01 . ... : G-3 03 . ... ... : ... .. . ... : 7-# 00 4 ... : ... .. . ... ...
ROW 39 : ... .. . ... : ... .. . ... ... : ... .. . ... : ... .. . ... : ... .. . ... ...
ROW 3A : ... .. . ... : ... .. . ... ... : ... .. . ... : ... .. . ... : ... .. . ... ...
ROW 3B : --- .. . ... : ... .. . ... ... : ... .. . ... : ... .. . ... : ... .. . ... ...
ROW 3C : B-0 01 . ... : F-3 03 . ... ... : ... .. . ... : 5-# 00 7 ... : ... .. . ... ...
ROW 3D : ... .. . ... : ... .. . ... ... : ... .. . ... : ... .. . ... : ... .. . ... ...
ROW 3E : ... .. . ... : ... .. . ... ... : ... .. . ... : ... .. . ... : ... .. . ... ...
ROW 3F : --- .. . D00 : ... .. . ... ... : --- .. . ... : ... .. . B01 : ... .. . ... ...

TRACK  48   3 150 "gameplay"
COLUMNS : 3 2 2 1 1

ORDER 00 : 00 00 00 00 00
ORDER 01 : 01 01 01 00 00
ORDER 02 : 02 02 00 00 00
ORDER 03 : 01 03 01 00 00
ORDER 04 : 00 04 00 00 00
ORDER 05 : 01 05 01 00 00
ORDER 06 : 06 06 00 00 00
ORDER 07 : 01 07 01 00 00
ORDER 08 : 00 08 00 00 00
ORDER 09 : 01 09 01 00 00
ORDER 0A : 0A 0A 00 00 00
ORDER 0B : 0B 0B 01 00 00
ORDER 0C : 0C 0C 00 00 00
ORDER 0D : 0D 0D 01 00 00
ORDER 0E : 0E 0E 02 00 00
ORDER 0F : 0F 0F 03 00 00
ORDER 10 : 10 10 04 00 00
ORDER 11 : 1B 1B 03 00 00
ORDER 12 : 1C 0E 02 00 00
ORDER 13 : 1D 0F 03 00 00
ORDER 14 : 1E 10 04 00 00
ORDER 15 : 11 11 05 00 00
ORDER 16 : 12 12 06 00 00
ORDER 17 : 13 13 07 00 00
ORDER 18 : 14 14 06 00 00
ORDER 19 : 15 15 07 00 00
ORDER 1A : 16 16 06 00 00
ORDER 1B : 17 17 07 00 00
ORDER 1C : 18 18 06 00 00
ORDER 1D : 15 19 07 00 00
ORDER 1E : 16 1A 06 00 00
ORDER 1F : 17 1E 07 00 00
ORDER 20 : 18 20 08 00 00
ORDER 21 : 19 21 09 00 00
ORDER 22 : 1A 22 11 00 00
ORDER 23 : 20 23 13 00 00
ORDER 24 : 21 24 14 00 00
ORDER 25 : 22 25 15 00 00
ORDER 26 : 23 26 16 00 00
ORDER 27 : 24 27 17 00 00
ORDER 28 : 25 28 18 00 00
ORDER 29 : 26 29 19 00 00
ORDER 2A : 00 00 00 00 00
ORDER 2B : 01 00 01 00 00

PATTERN 00
ROW 00 : F-1 0B F ... ... ... : ... .. . ... ... : C-4 0B . 260 ... : C-# 16 4 ... : ... .. . ...
ROW 01 : ... .. . ... ... ... : ... .. . ... ... : F-2 0B . 200 ... : ... .. . ... : ... .. . ...
ROW 02 : ... .. . ... ... ... : ... .. . ... ... : ... .. . ... ... : ... .. . ... : ... .. . ...
ROW 03 : ... .. . ... ... ... : ... .. . ... ... : ... .. . ... ... : ... .. . ... : ... .. . ...
ROW 04 : ... .. . ... ... ... : ... .. . ... ... : ... .. . ... ... : C-# 16 2 ... : ... .. . ...
ROW 05 : ... .. . ... ... ... : ... .. . ... ... : ... .. . ... ... : ... .. . ... : ... .. . ...
ROW 06 : ... .. . ... ... ... : ... .. . ... ... : ... .. . ... ... : ... .. . ... : ... .. . ...
ROW 07 : ... .. . ... ... ... : ... .. . ... ... : ... .. . ... ... : ... .. . ... : ... .. . ...
ROW 08 : F-1 0B 8 ... ... ... : ... .. . ... ... : ... .. . ... ... : C-# 16 4 ... : ... .. . ...
ROW 09 : ... .. . ... ... ... : ... .. . ... ... : ... .. . ... ... : ... .. . ... : ... .. . ...
ROW 0A : ... .. . ... ... ... : ... .. . ... ... : ... .. . ... ... : ... .. . ... : ... .. . ...
ROW 0B : ... .. . ... ... ... : ... .. . ... ... : ... .. . ... ... : ... .. . ... : ... .. . ...
ROW 0C : ... .. . ... ... ... : ... .. . ... ... : ... .. . ... ... : ... .. . ... : ... .. . ...
ROW 0D : ... .. . ... ... ... : ... .. . ... ... : ... .. . ... ... : ... .. . ... : ... .. . ...
ROW 0E : ... .. . ... ... ... : ... .. . ... ... : ... .. . ... ... : ... .. . ... : ... .. . ...
ROW 0F : ... .. . ... ... ... : ... .. . ... ... : ... .. . ... ... : ... .. . ... : ... .. . ...
ROW 10 : F-1 0B 1 ... ... ... : ... .. . ... ... : ... .. . ... ... : C-# 16 2 ... : ... .. . ...
ROW 11 : ... .. . ... ... ... : ... .. . ... ... : ... .. . ... ... : ... .. . ... : ... .. . ...
ROW 12 : ... .. . ... ... ... : ... .. . ... ... : ... .. . ... ... : ... .. . ... : ... .. . ...
ROW 13 : ... .. . ... ... ... : ... .. . ... ... : ... .. . ... ... : ... .. . ... : ... .. . ...
ROW 14 : ... .. . ... ... ... : ... .. . ... ... : ... .. . ... ... : ... .. . ... : ... .. . ...
ROW 15 : ... .. . ... ... ... : ... .. . ... ... : ... .. . ... ... : ... .. . ... : ... .. . ...
ROW 16 : ... .. . ... ... ... : ... .. . ... ... : ... .. . ... ... : ... .. . ... : ... .. . ...
ROW 17 : ... .. . ... ... ... : ... .. . ... ... : ... .. . ... ... : ... .. . ... : ... .. . ...
ROW 18 : F-1 0B F ... ... ... : ... .. . ... ... : C-4 0B . 260 ... : C-# 16 4 ... : ... .. . ...
ROW 19 : ... .. . ... ... ... : ... .. . ... ... : F-2 0B . 200 ... : ... .. . ... : ... .. . ...
ROW 1A : ... .. . ... ... ... : ... .. . ... ... : ... .. . ... ... : ... .. . ... : ... .. . ...
ROW 1B : ... .. . ... ... ... : ... .. . ... ... : ... .. . ... ... : ... .. . ... : ... .. . ...
ROW 1C : ... .. . ... ... ... : ... .. . ... ... : ... .. . ... ... : C-# 16 2 ... : ... .. . ...
ROW 1D : ... .. . ... ... ... : ... .. . ... ... : ... .. . ... ... : ... .. . ... : ... .. . ...
ROW 1E : ... .. . ... ... ... : ... .. . ... ... : ... .. . ... ... : ... .. . ... : ... .. . ...
ROW 1F : ... .. . ... ... ... : ... .. . ... ... : ... .. . ... ... : ... .. . ... : ... .. . ...
ROW 20 : F-1 0B 8 ... ... ... : ... .. . ... ... : ... .. . ... ... : C-# 16 4 ... : ... .. . ...
ROW 21 : ... .. . ... ... ... : ... .. . ... ... : ... .. . ... ... : ... .. . ... : ... .. . ...
ROW 22 : ... .. . ... ... ... : ... .. . ... ... : ... .. . ... ... : ... .. . ... : ... .. . ...
ROW 23 : ... .. . ... ... ... : ... .. . ... ... : ... .. . ... ... : ... .. . ... : ... .. . ...
ROW 24 : ... .. . ... ... ... : ... .. . ... ... : ... .. . ... ... : ... .. . ... : ... .. . ...
ROW 25 : ... .. . ... ... ... : ... .. . ... ... : ... .. . ... ... : ... .. . ... : ... .. . ...
ROW 26 : ... .. . ... ... ... : ... .. . ... ... : ... .. . ... ... : ... .. . ... : ... .. . ...
ROW 27 : ... .. . ... ... ... : ... .. . ... ... : ... .. . ... ... : ... .. . ... : ... .. . ...
ROW 28 : F-1 0B 1 ... ... ... : ... .. . ... ... : ... .. . ... ... : C-# 16 2 ... : ... .. . ...
ROW 29 : ... .. . ... ... ... : ... .. . ... ... : ... .. . ... ... : ... .. . ... : ... .. . ...
ROW 2A : ... .. . ... ... ... : ... .. . ... ... : ... .. . ... ... : ... .. . ... : ... .. . ...
ROW 2B : ... .. . ... ... ... : ... .. . ... ... : --- .. . ... ... : ... .. . ... : ... .. . ...
ROW 2C : C-1 0B F ... ... ... : ... .. . ... ... : C-4 0B . 260 ... : C-# 16 2 ... : ... .. . ...
ROW 2D : ... .. . ... ... ... : ... .. . ... ... : C-2 0B . 200 ... : ... .. . ... : ... .. . ...
ROW 2E : ... .. . ... ... ... : ... .. . ... ... : ... .. . ... ... : C-# 16 3 ... : ... .. . ...
ROW 2F : --- .. . ... ... ... : ... .. . ... ... : --- .. . ... ... : ... .. . ... : ... .. . ...

PATTERN 01
ROW 00 : F-1 0B . ... ... ... : ... .. . ... ... : C-4 0B . 260 ... : F-# 0A 4 ... : ... .. . ...
ROW 01 : ... .. . ... ... ... : ... .. . ... ... : F-2 0B . 200 ... : ... .. . ... : ... .. . ...
ROW 02 : ... .. . ... ... ... : ... .. . ... ... : ... .. . ... ... : F-# 0A 1 ... : ... .. . ...
ROW 03 : --- .. . ... ... ... : ... .. . ... ... : ... .. . ... ... : ... .. . ... : ... .. . ...
ROW 04 : C-1 0B 8 ... ... ... : ... .. . ... ... : ... .. . ... ... : F-# 0A 4 ... : ... .. . ...
ROW 05 : ... .. . ... ... ... : ... .. . ... ... : ... .. . ... ... : ... .. . ... : ... .. . ...
ROW 06 : ... .. . ... ... ... : ... .. . ... ... : ... .. . ... ... : F-# 0A 1 ... : ... .. . ...
ROW 07 : --- .. . ... ... ... : ... .. . ... ... : ... .. . ... ... : ... .. . ... : ... .. . ...
ROW 08 : F-1 0B . ... ... ... : ... .. . ... ... : ... .. . ... ... : F-# 0D 4 ... : ... .. . ...
ROW 09 : ... .. . ... ... ... : ... .. . ... ... : ... .. . ... ... : ... .. . ... : ... .. . ...
ROW 0A : ... .. . ... ... ... : ... .. . ... ... : ... .. . ... ... : ... .. . ... : ... .. . ...
ROW 0B : --- .. . ... ... ... : ... .. . ... ... : ... .. . ... ... : ... .. . ... : ... .. . ...
ROW 0C : C-1 0B 1 ... ... ... : ... .. . ... ... : ... .. . ... ... : ... .. . ... : ... .. . ...
ROW 0D : ... .. . ... ... ... : ... .. . ... ... : ... .. . ... ... : ... .. . ... : ... .. . ...
ROW 0E : ... .. . ... ... ... : ... .. . ... ... : ... .. . ... ... : ... .. . ... : ... .. . ...
ROW 0F : --- .. . ... ... ... : ... .. . ... ... : ... .. . ... ... : ... .. . ... : ... .. . ...
ROW 10 : F-1 0B . ... ... ... : ... .. . ... ... : ... .. . ... ... : F-# 0A . ... : ... .. . ...
ROW 11 : ... .. . ... ... ... : ... .. . ... ... : ... .. . ... ... : ... .. . ... : ... .. . ...
ROW 12 : ... .. . ... ... ... : ... .. . ... ... : ... .. . ... ... : ... .. . ... : ... .. . ...
ROW 13 : ... .. . ... ... ... : ... .. . ... ... : ... .. . ... ... : ... .. . ... : ... .. . ...
ROW 14 : --- .. . ... ... ... : ... .. . ... ... : ... .. . ... ... : ... .. . ... : ... .. . ...
ROW 15 : ... .. . ... ... ... : ... .. . ... ... : ... .. . ... ... : ... .. . ... : ... .. . ...
ROW 16 : ... .. . ... ... ... : ... .. . ... ... : ... .. . ... ... : ... .. . ... : ... .. . ...
ROW 17 : --- .. . ... ... ... : ... .. . ... ... : --- .. . ... ... : ... .. . ... : ... .. . ...
ROW 18 : F-1 0B F ... ... ... : ... .. . ... ... : C-4 0B . 260 ... : F-# 0A 4 ... : ... .. . ...
ROW 19 : ... .. . ... ... ... : ... .. . ... ... : F-2 0B . 200 ... : ... .. . ... : ... .. . ...
ROW 1A : ... .. . ... ... ... : ... .. . ... ... : ... .. . ... ... : F-# 0A 1 ... : ... .. . ...
ROW 1B : ... .. . ... ... ... : ... .. . ... ... : ... .. . ... ... : ... .. . ... : ... .. . ...
ROW 1C : ... .. . ... ... ... : ... .. . ... ... : ... .. . ... ... : F-# 0A 4 ... : ... .. . ...
ROW 1D : ... .. . ... ... ... : ... .. . ... ... : ... .. . ... ... : ... .. . ... : ... .. . ...
ROW 1E : ... .. . ... ... ... : ... .. . ... ... : ... .. . ... ... : F-# 0A 1 ... : ... .. . ...
ROW 1F : ... .. . ... ... ... : ... .. . ... ... : ... .. . ... ... : ... .. . ... : ... .. . ...
ROW 20 : F-1 0B 8 ... ... ... : ... .. . ... ... : ... .. . ... ... : F-# 0D 4 ... : ... .. . ...
ROW 21 : ... .. . ... ... ... : ... .. . ... ... : ... .. . ... ... : ... .. . ... : ... .. . ...
ROW 22 : ... .. . ... ... ... : ... .. . ... ... : ... .. . ... ... : ... .. . ... : ... .. . ...
ROW 23 : ... .. . ... ... ... : ... .. . ... ... : ... .. . ... ... : ... .. . ... : ... .. . ...
ROW 24 : C-1 0B F ... ... ... : ... .. . ... ... : C-4 0B . 260 ... : ... .. . ... : ... .. . ...
ROW 25 : ... .. . ... ... ... : ... .. . ... ... : C-2 0B . 200 ... : ... .. . ... : ... .. . ...
ROW 26 : ... .. . ... ... ... : ... .. . ... ... : ... .. . ... ... : ... .. . ... : ... .. . ...
ROW 27 : ... .. . ... ... ... : ... .. . ... ... : ... .. . ... ... : ... .. . ... : ... .. . ...
ROW 28 : ... .. . ... ... ... : ... .. . ... ... : ... .. . ... ... : F-# 0A . ... : ... .. . ...
ROW 29 : ... .. . ... ... ... : ... .. . ... ... : ... .. . ... ... : ... .. . ... : ... .. . ...
ROW 2A : ... .. . ... ... ... : ... .. . ... ... : ... .. . ... ... : ... .. . ... : ... .. . ...
ROW 2B : ... .. . ... ... ... : ... .. . ... ... : ... .. . ... ... : ... .. . ... : ... .. . ...
ROW 2C : C-1 0B F ... ... ... : ... .. . ... ... : C-4 0B . 260 ... : F-# 0A . ... : ... .. . ...
ROW 2D : ... .. . ... ... ... : ... .. . ... ... : C-2 0B . 200 ... : ... .. . ... : ... .. . ...
ROW 2E : ... .. . ... ... ... : G#3 05 2 ... ... : ... .. . ... ... : F-# 0A . ... : ... .. . ...
ROW 2F : ... .. . ... ... ... : A-3 05 6 ... ... : --- .. . ... ... : ... .. . ... : ... .. . ...

PATTERN 02
ROW 00 : A#3 05 6 ... ... ... : F#4 05 6 ... ... : C-4 0B . 260 ... : F-# 0A 4 ... : ... .. . ...
ROW 01 : ... .. . ... ... ... : ... .. . ... ... : F#2 07 . 200 ... : ... .. . ... : ... .. . ...
ROW 02 : A#3 05 2 ... ... ... : F#4 05 2 ... ... : ... .. . ... ... : F-# 0A 1 ... : ... .. . ...
ROW 03 : ... .. . ... ... ... : ... .. . ... ... : ... .. . ... ... : ... .. . ... : ... .. . ...
ROW 04 : F#3 05 6 ... ... ... : C#4 05 6 ... ... : ... .. . ... ... : F-# 0A 4 ... : ... .. . ...
ROW 05 : ... .. . ... ... ... : ... .. . ... ... : ... .. . ... ... : ... .. . ... : ... .. . ...
ROW 06 : F#3 05 2 ... ... ... : C#4 05 2 ... ... : ... .. . ... ... : F-# 0A 1 ... : ... .. . ...
ROW 07 : ... .. . ... ... ... : ... .. . ... ... : ... .. . ... ... : ... .. . ... : ... .. . ...
ROW 08 : C#3 05 6 ... ... ... : A#3 05 6 ... ... : F#3 07 . 345 ... : F-# 0D 4 ... : ... .. . ...
ROW 09 : ... .. . ... ... ... : ... .. . ... ... : ... .. . ... ... : ... .. . ... : ... .. . ...
ROW 0A : C#3 05 2 ... ... ... : A#3 05 2 ... ... : ... .. . ... ... : ... .. . ... : ... .. . ...
ROW 0B : ... .. . ... ... ... : ... .. . ... ... : ... .. . ... ... : ... .. . ... : ... .. . ...
ROW 0C : F#3 05 6 ... ... ... : C#4 05 6 ... ... : --- .. . ... ... : ... .. . ... : ... .. . ...
ROW 0D : ... .. . ... ... ... : ... .. . ... ... : ... .. . ... ... : ... .. . ... : ... .. . ...
ROW 0E : F#3 05 2 ... ... ... : C#4 05 2 ... ... : ... .. . ... ... : ... .. . ... : ... .. . ...
ROW 0F : ... .. . ... ... ... : ... .. . ... ... : ... .. . ... ... : ... .. . ... : ... .. . ...
ROW 10 : C#3 05 6 ... ... ... : A#3 05 6 ... ... : ... .. . ... ... : F-# 0A . ... : ... .. . ...
ROW 11 : ... .. . ... ... ... : ... .. . ... ... : ... .. . ... ... : ... .. . ... : ... .. . ...
ROW 12 : C#3 05 2 ... ... ... : A#3 05 2 ... ... : ... .. . ... ... : ... .. . ... : ... .. . ...
ROW 13 : ... .. . ... ... ... : ... .. . ... ... : --- .. . ... ... : ... .. . ... : ... .. . ...
ROW 14 : A#2 05 6 ... ... ... : F#3 05 6 ... ... : C-4 0B . 260 ... : ... .. . ... : ... .. . ...
ROW 15 : ... .. . ... ... ... : ... .. . ... ... : C#2 0B . 200 ... : ... .. . ... : ... .. . ...
ROW 16 : A#2 05 2 ... ... ... : F#3 05 2 ... ... : ... .. . ... ... : ... .. . ... : ... .. . ...
ROW 17 : ... .. . ... ... ... : ... .. . ... ... : --- .. . ... ... : ... .. . ... : ... .. . ...
ROW 18 : C#3 05 6 ... ... ... : A#3 05 6 ... ... : C-4 0B . 260 ... : F-# 0A 4 ... : D#4 0F . ...
ROW 19 : ... .. . ... ... ... : ... .. . ... ... : F#2 07 . 200 ... : ... .. . ... : ... .. . ...
ROW 1A : C#3 05 2 ... ... ... : A#3 05 2 ... ... : ... .. . ... ... : F-# 0A 1 ... : ... .. . ...
ROW 1B : ... .. . ... ... ... : ... .. . ... ... : ... .. . ... ... : ... .. . ... : ... .. . ...
ROW 1C : A#2 05 6 ... ... ... : F#3 05 6 ... ... : ... .. . ... ... : F-# 0A 4 ... : ... .. . ...
ROW 1D : ... .. . ... ... ... : ... .. . ... ... : ... .. . ... ... : ... .. . ... : ... .. . ...
ROW 1E : A#2 05 2 ... ... ... : F#3 05 2 ... ... : ... .. . ... ... : F-# 0A 1 ... : ... .. . ...
ROW 1F : ... .. . ... ... ... : ... .. . ... ... : ... .. . ... ... : ... .. . ... : ... .. . ...
ROW 20 : F#2 05 6 ... ... ... : C#3 05 6 ... ... : ... .. . ... ... : F-# 0D 4 ... : ... .. . ...
ROW 21 : ... .. . ... ... ... : ... .. . ... ... : ... .. . ... ... : ... .. . ... : ... .. . ...
ROW 22 : F#2 05 2 ... ... ... : C#3 05 2 ... ... : ... .. . ... ... : ... .. . ... : ... .. . ...
ROW 23 : ... .. . ... ... ... : ... .. . ... ... : ... .. . ... ... : ... .. . ... : ... .. . ...
ROW 24 : ... .. . ... ... ... : ... .. . ... ... : C-4 0B . 260 ... : ... .. . ... : ... .. . ...
ROW 25 : ... .. . ... ... ... : ... .. . ... ... : F#2 07 . 200 ... : ... .. . ... : ... .. . ...
ROW 26 : ... .. . ... ... ... : ... .. . ... ... : ... .. . ... ... : ... .. . ... : ... .. . ...
ROW 27 : ... .. . ... ... ... : ... .. . ... ... : ... .. . ... ... : ... .. . ... : ... .. . ...
ROW 28 : F#2 05 3 ... ... ... : ... .. . ... ... : ... .. . ... ... : F-# 0A . ... : ... .. . ...
ROW 29 : ... .. . ... ... ... : ... .. . ... ... : ... .. . ... ... : ... .. . ... : ... .. . ...
ROW 2A : F#2 05 1 ... ... ... : ... .. . ... ... : ... .. . ... ... : ... .. . ... : ... .. . ...
ROW 2B : ... .. . ... ... ... : ... .. . ... ... : ... .. . ... ... : ... .. . ... : ... .. . ...
ROW 2C : D-4 00 1 ... ... ... : C-1 0B F ... ... : ... .. . ... ... : F-# 0A . ... : ... .. . ...
ROW 2D : D#4 00 2 ... ... ... : ... .. . ... ... : ... .. . ... ... : ... .. . ... : ... .. . ...
ROW 2E : E-4 00 3 ... ... ... : ... .. . ... ... : ... .. . ... ... : F-# 0A . ... : ... .. . ...
ROW 2F : F-4 00 4 ... ... ... : --- .. . ... ... : ... .. . ... ... : ... .. . ... : ... .. . ...

PATTERN 03
ROW 00 : F-1 0B . ... ... ... : F#2 06 4 ... ... : C-4 0B . 260 ... : F-# 0A 4 ... : ... .. . ...
ROW 01 : ... .. . ... ... ... : ... .. . ... ... : F-2 00 . 200 ... : ... .. . ... : ... .. . ...
ROW 02 : ... .. . ... ... ... : ... .. . ... ... : ... .. . ... ... : F-# 0A 1 ... : ... .. . ...
ROW 03 : --- .. . ... ... ... : ... .. . ... ... : ... .. . ... ... : ... .. . ... : ... .. . ...
ROW 04 : C-1 0B 8 ... ... ... : ... .. 3 ... ... : ... .. . ... ... : F-# 0A 4 ... : ... .. . ...
ROW 05 : ... .. . ... ... ... : ... .. . ... ... : ... .. . ... ... : ... .. . ... : ... .. . ...
ROW 06 : ... .. . ... ... ... : ... .. . ... ... : ... .. . ... ... : F-# 0A 1 ... : ... .. . ...
ROW 07 : --- .. . ... ... ... : ... .. . ... ... : ... .. . ... ... : ... .. . ... : ... .. . ...
ROW 08 : F-1 0B . ... ... ... : ... .. 1 ... ... : ... .. . ... ... : F-# 0D 4 ... : ... .. . ...
ROW 09 : ... .. . ... ... ... : ... .. . ... ... : ... .. . ... ... : ... .. . ... : ... .. . ...
ROW 0A : ... .. . ... ... ... : ... .. . ... ... : ... .. . ... ... : ... .. . ... : ... .. . ...
ROW 0B : --- .. . ... ... ... : ... .. . ... ... : ... .. . ... ... : ... .. . ... : ... .. . ...
ROW 0C : C-1 0B 1 ... ... ... : F#1 06 3 ... ... : ... .. . ... ... : ... .. . ... : ... .. . ...
ROW 0D : ... .. . ... ... ... : ... .. . ... ... : ... .. . ... ... : ... .. . ... : ... .. . ...
ROW 0E : ... .. . ... ... ... : ... .. . ... ... : ... .. . ... ... : ... .. . ... : ... .. . ...
ROW 0F : --- .. . ... ... ... : ... .. . ... ... : ... .. . ... ... : ... .. . ... : ... .. . ...
ROW 10 : F-1 0B . ... ... ... : ... .. 2 ... ... : --- .. . ... ... : F-# 0A . ... : ... .. . ...
ROW 11 : ... .. . ... ... ... : ... .. . ... ... : ... .. . ... ... : ... .. . ... : ... .. . ...
ROW 12 : ... .. . ... ... ... : ... .. . ... ... : ... .. . ... ... : ... .. . ... : ... .. . ...
ROW 13 : --- .. . ... ... ... : ... .. . ... ... : --- .. . ... ... : ... .. . ... : ... .. . ...
ROW 14 : ... .. . ... ... ... : ... .. 1 ... ... : C-4 0B . 260 ... : ... .. . ... : ... .. . ...
ROW 15 : ... .. . ... ... ... : ... .. . ... ... : C-2 0B . 200 ... : ... .. . ... : ... .. . ...
ROW 16 : ... .. . ... ... ... : --- .. . ... ... : ... .. . ... ... : ... .. . ... : ... .. . ...
ROW 17 : --- .. . ... ... ... : ... .. . ... ... : --- .. . ... ... : ... .. . ... : ... .. . ...
ROW 18 : F-1 0B F ... ... ... : F#5 00 6 ... ... : C-4 0B . 260 ... : F-# 0A 4 ... : ... .. . ...
ROW 19 : ... .. . ... ... ... : ... .. . ... ... : F-2 00 . 200 ... : ... .. . ... : ... .. . ...
ROW 1A : ... .. . ... ... ... : ... .. . 210 ... : ... .. . ... ... : F-# 0A 1 ... : ... .. . ...
ROW 1B : ... .. . ... ... ... : ... .. . ... ... : ... .. . ... ... : ... .. . ... : ... .. . ...
ROW 1C : ... .. . ... ... ... : --- .. . 200 ... : ... .. . ... ... : F-# 0A 4 ... : ... .. . ...
ROW 1D : ... .. . ... ... ... : ... .. . ... ... : ... .. . ... ... : ... .. . ... : ... .. . ...
ROW 1E : ... .. . ... ... ... : ... .. . ... ... : ... .. . ... ... : F-# 0A 1 ... : ... .. . ...
ROW 1F : ... .. . ... ... ... : ... .. . ... ... : ... .. . ... ... : ... .. . ... : ... .. . ...
ROW 20 : F-1 0B 8 ... ... ... : F#5 00 2 ... ... : ... .. . ... ... : F-# 0D 4 ... : ... .. . ...
ROW 21 : ... .. . ... ... ... : ... .. . ... ... : ... .. . ... ... : ... .. . ... : ... .. . ...
ROW 22 : ... .. . ... ... ... : ... .. . 210 ... : ... .. . ... ... : ... .. . ... : ... .. . ...
ROW 23 : ... .. . ... ... ... : ... .. . ... ... : ... .. . ... ... : ... .. . ... : ... .. . ...
ROW 24 : C-1 0B F ... ... ... : --- .. . 200 ... : C-4 0B . 260 ... : ... .. . ... : ... .. . ...
ROW 25 : ... .. . ... ... ... : ... .. . ... ... : C-2 0B . 200 ... : ... .. . ... : ... .. . ...
ROW 26 : ... .. . ... ... ... : ... .. . ... ... : ... .. . ... ... : ... .. . ... : ... .. . ...
ROW 27 : ... .. . ... ... ... : ... .. . ... ... : ... .. . ... ... : ... .. . ... : ... .. . ...
ROW 28 : ... .. . ... ... ... : F#5 00 1 ... ... : ... .. . ... ... : F-# 0A . ... : ... .. . ...
ROW 29 : ... .. . ... ... ... : ... .. . ... ... : ... .. . ... ... : ... .. . ... : ... .. . ...
ROW 2A : ... .. . ... ... ... : ... .. . 210 ... : ... .. . ... ... : ... .. . ... : ... .. . ...
ROW 2B : ... .. . ... ... ... : ... .. . ... ... : ... .. . ... ... : ... .. . ... : ... .. . ...
ROW 2C : C-1 0B F ... ... ... : --- .. . 200 ... : C-4 0B . 260 ... : F-# 0A . ... : ... .. . ...
ROW 2D : ... .. . ... ... ... : ... .. . ... ... : C-2 0B . 200 ... : ... .. . ... : ... .. . ...
ROW 2E : ... .. . ... ... ... : ... .. . ... ... : ... .. . ... ... : F-# 0A . ... : ... .. . ...
ROW 2F : --- .. . ... ... ... : ... .. . ... ... : --- .. . ... ... : ... .. . ... : ... .. . ...

PATTERN 04
ROW 00 : F-1 0B F ... ... ... : ... .. . ... ... : C-4 0B . 260 ... : F-# 0A 4 ... : ... .. . ...
ROW 01 : ... .. . ... ... ... : ... .. . ... ... : D#2 00 . 200 ... : ... .. . ... : ... .. . ...
ROW 02 : ... .. . ... ... ... : ... .. . ... ... : ... .. . ... ... : F-# 0A 1 ... : ... .. . ...
ROW 03 : ... .. . ... ... ... : ... .. . ... ... : ... .. . ... ... : ... .. . ... : ... .. . ...
ROW 04 : ... .. . ... ... ... : ... .. . ... ... : ... .. . ... ... : F-# 0A 4 ... : ... .. . ...
ROW 05 : ... .. . ... ... ... : ... .. . ... ... : ... .. . ... ... : ... .. . ... : ... .. . ...
ROW 06 : ... .. . ... ... ... : ... .. . ... ... : ... .. . ... ... : F-# 0A 1 ... : ... .. . ...
ROW 07 : ... .. . ... ... ... : ... .. . ... ... : ... .. . ... ... : ... .. . ... : ... .. . ...
ROW 08 : F-1 0B 8 ... ... ... : ... .. . ... ... : ... .. . ... ... : F-# 0D 4 ... : ... .. . ...
ROW 09 : ... .. . ... ... ... : ... .. . ... ... : ... .. . ... ... : ... .. . ... : ... .. . ...
ROW 0A : ... .. . ... ... ... : ... .. . ... ... : ... .. . ... ... : ... .. . ... : ... .. . ...
ROW 0B : ... .. . ... ... ... : ... .. . ... ... : ... .. . ... ... : ... .. . ... : ... .. . ...
ROW 0C : ... .. . ... ... ... : ... .. . ... ... : ... .. . ... ... : ... .. . ... : ... .. . ...
ROW 0D : ... .. . ... ... ... : ... .. . ... ... : ... .. . ... ... : ... .. . ... : ... .. . ...
ROW 0E : ... .. . ... ... ... : ... .. . ... ... : ... .. . ... ... : ... .. . ... : ... .. . ...
ROW 0F : ... .. . ... ... ... : ... .. . ... ... : ... .. . ... ... : ... .. . ... : ... .. . ...
ROW 10 : F-1 0B 1 ... ... ... : ... .. . ... ... : ... .. . ... ... : F-# 0A . ... : ... .. . ...
ROW 11 : ... .. . ... ... ... : ... .. . ... ... : ... .. . ... ... : ... .. . ... : ... .. . ...
ROW 12 : ... .. . ... ... ... : ... .. . ... ... : ... .. . ... ... : ... .. . ... : ... .. . ...
ROW 13 : ... .. . ... ... ... : ... .. . ... ... : --- .. . ... ... : ... .. . ... : ... .. . ...
ROW 14 : ... .. . ... ... ... : ... .. . ... ... : C-4 0B . 260 ... : ... .. . ... : ... .. . ...
ROW 15 : ... .. . ... ... ... : ... .. . ... ... : A#2 0B . 200 ... : ... .. . ... : ... .. . ...
ROW 16 : ... .. . ... ... ... : ... .. . ... ... : ... .. . ... ... : ... .. . ... : ... .. . ...
ROW 17 : --- .. . ... ... ... : ... .. . ... ... : --- .. . ... ... : ... .. . ... : ... .. . ...
ROW 18 : F-1 0B F ... ... ... : ... .. . ... ... : C-4 0B . 260 ... : F-# 0A 4 ... : ... .. . ...
ROW 19 : ... .. . ... ... ... : ... .. . ... ... : D#3 00 . 200 ... : ... .. . ... : ... .. . ...
ROW 1A : ... .. . ... ... ... : ... .. . ... ... : ... .. . ... ... : F-# 0A 1 ... : ... .. . ...
ROW 1B : ... .. . ... ... ... : ... .. . ... ... : ... .. . ... ... : ... .. . ... : ... .. . ...
ROW 1C : ... .. . ... ... ... : ... .. . ... ... : ... .. . ... ... : F-# 0A 4 ... : ... .. . ...
ROW 1D : ... .. . ... ... ... : ... .. . ... ... : ... .. . ... ... : ... .. . ... : ... .. . ...
ROW 1E : ... .. . ... ... ... : ... .. . ... ... : ... .. . ... ... : F-# 0A 1 ... : ... .. . ...
ROW 1F : ... .. . ... ... ... : ... .. . ... ... : ... .. . ... ... : ... .. . ... : ... .. . ...
ROW 20 : F-1 0B 8 ... ... ... : ... .. . ... ... : ... .. . 205 ... : F-# 0D 4 ... : ... .. . ...
ROW 21 : ... .. . ... ... ... : ... .. . ... ... : ... .. . ... ... : ... .. . ... : ... .. . ...
ROW 22 : ... .. . ... ... ... : ... .. . ... ... : ... .. . ... ... : ... .. . ... : ... .. . ...
ROW 23 : ... .. . ... ... ... : ... .. . ... ... : ... .. . ... ... : ... .. . ... : ... .. . ...
ROW 24 : ... .. . ... ... ... : ... .. . ... ... : A#2 00 . 200 ... : ... .. . ... : ... .. . ...
ROW 25 : ... .. . ... ... ... : ... .. . ... ... : ... .. . ... ... : ... .. . ... : ... .. . ...
ROW 26 : ... .. . ... ... ... : ... .. . ... ... : ... .. . ... ... : ... .. . ... : ... .. . ...
ROW 27 : ... .. . ... ... ... : ... .. . ... ... : ... .. . ... ... : ... .. . ... : ... .. . ...
ROW 28 : F-1 0B 1 ... ... ... : ... .. . ... ... : ... .. . ... ... : F-# 0A . ... : ... .. . ...
ROW 29 : ... .. . ... ... ... : ... .. . ... ... : ... .. . ... ... : ... .. . ... : ... .. . ...
ROW 2A : ... .. . ... ... ... : ... .. . ... ... : ... .. . ... ... : ... .. . ... : ... .. . ...
ROW 2B : ... .. . ... ... ... : ... .. . ... ... : ... .. . ... ... : ... .. . ... : ... .. . ...
ROW 2C : C-1 0B F ... ... ... : ... .. . ... ... : C-4 0B . 260 ... : F-# 0A . ... : ... .. . ...
ROW 2D : ... .. . ... ... ... : ... .. . ... ... : A#1 0B . 200 ... : ... .. . ... : ... .. . ...
ROW 2E : ... .. . ... ... ... : ... .. . ... ... : ... .. . ... ... : F-# 0A . ... : ... .. . ...
ROW 2F : --- .. . ... ... ... : ... .. . ... ... : --- .. . ... ... : ... .. . ... : ... .. . ...

PATTERN 05
ROW 00 : F-1 0B . ... ... ... : ... .. . ... ... : C-4 0B . 260 ... : F-# 0A 4 ... : ... .. . ...
ROW 01 : ... .. . ... ... ... : ... .. . ... ... : D#2 00 . 200 ... : ... .. . ... : ... .. . ...
ROW 02 : ... .. . ... ... ... : ... .. . ... ... : ... .. . ... ... : F-# 0A 1 ... : ... .. . ...
ROW 03 : --- .. . ... ... ... : ... .. . ... ... : ... .. . ... ... : ... .. . ... : ... .. . ...
ROW 04 : C-1 0B 8 ... ... ... : ... .. . ... ... : ... .. . ... ... : F-# 0A 4 ... : ... .. . ...
ROW 05 : ... .. . ... ... ... : ... .. . ... ... : ... .. . ... ... : ... .. . ... : ... .. . ...
ROW 06 : ... .. . ... ... ... : ... .. . ... ... : ... .. . ... ... : F-# 0A 1 ... : ... .. . ...
ROW 07 : --- .. . ... ... ... : ... .. . ... ... : ... .. . ... ... : ... .. . ... : ... .. . ...
ROW 08 : F-1 0B . ... ... ... : ... .. . ... ... : ... .. . ... ... : F-# 0D 4 ... : ... .. . ...
ROW 09 : ... .. . ... ... ... : ... .. . ... ... : ... .. . ... ... : ... .. . ... : ... .. . ...
ROW 0A : ... .. . ... ... ... : ... .. . ... ... : ... .. . ... ... : ... .. . ... : ... .. . ...
ROW 0B : --- 0B . ... ... ... : ... .. . ... ... : ... .. . ... ... : ... .. . ... : ... .. . ...
ROW 0C : C-1 0B 1 ... ... ... : ... .. . ... ... : ... .. . ... ... : ... .. . ... : ... .. . ...
ROW 0D : ... .. . ... ... ... : ... .. . ... ... : ... .. . ... ... : ... .. . ... : ... .. . ...
ROW 0E : ... .. . ... ... ... : ... .. . ... ... : ... .. . ... ... : ... .. . ... : ... .. . ...
ROW 0F : --- .. . ... ... ... : ... .. . ... ... : ... .. . ... ... : ... .. . ... : ... .. . ...
ROW 10 : F-1 0B . ... ... ... : ... .. . ... ... : ... .. . ... ... : F-# 0A . ... : ... .. . ...
ROW 11 : ... .. . ... ... ... : ... .. . ... ... : ... .. . ... ... : ... .. . ... : ... .. . ...
ROW 12 : ... .. . ... ... ... : ... .. . ... ... : ... .. . ... ... : ... .. . ... : ... .. . ...
ROW 13 : --- .. . ... ... ... : ... .. . ... ... : --- .. . ... ... : ... .. . ... : ... .. . ...
ROW 14 : ... .. . ... ... ... : ... .. . ... ... : C-4 0B . 260 ... : ... .. . ... : ... .. . ...
ROW 15 : ... .. . ... ... ... : ... .. . ... ... : A#1 0B . 200 ... : ... .. . ... : ... .. . ...
ROW 16 : ... .. . ... ... ... : ... .. . ... ... : ... .. . ... ... : ... .. . ... : ... .. . ...
ROW 17 : ... .. . ... ... ... : ... .. . ... ... : --- .. . ... ... : ... .. . ... : ... .. . ...
ROW 18 : F-1 0B F ... ... ... : ... .. . ... ... : C-4 0B . 260 ... : F-# 0A 4 ... : ... .. . ...
ROW 19 : ... .. . ... ... ... : ... .. . ... ... : C#2 00 . 200 ... : ... .. . ... : ... .. . ...
ROW 1A : ... .. . ... ... ... : ... .. . ... ... : ... .. . ... ... : F-# 0A 1 ... : ... .. . ...
ROW 1B : ... .. . ... ... ... : ... .. . ... ... : ... .. . ... ... : ... .. . ... : ... .. . ...
ROW 1C : ... .. . ... ... ... : ... .. . ... ... : ... .. . ... ... : F-# 0A 4 ... : ... .. . ...
ROW 1D : ... .. . ... ... ... : ... .. . ... ... : ... .. . ... ... : ... .. . ... : ... .. . ...
ROW 1E : ... .. . ... ... ... : ... .. . ... ... : ... .. . ... ... : F-# 0A 1 ... : ... .. . ...
ROW 1F : ... .. . ... ... ... : ... .. . ... ... : ... .. . ... ... : ... .. . ... : ... .. . ...
ROW 20 : F-1 0B 8 ... ... ... : ... .. . ... ... : ... .. . ... ... : F-# 0D 4 ... : ... .. . ...
ROW 21 : ... .. . ... ... ... : ... .. . ... ... : ... .. . ... ... : ... .. . ... : ... .. . ...
ROW 22 : ... .. . ... ... ... : ... .. . ... ... : ... .. . ... ... : ... .. . ... : ... .. . ...
ROW 23 : ... .. . ... ... ... : ... .. . ... ... : ... .. . ... ... : ... .. . ... : ... .. . ...
ROW 24 : C-1 0B F ... ... ... : ... .. . ... ... : C-4 0B . 260 ... : ... .. . ... : ... .. . ...
ROW 25 : ... .. . ... ... ... : ... .. . ... ... : C-2 00 . 200 ... : ... .. . ... : ... .. . ...
ROW 26 : ... .. . ... ... ... : ... .. . ... ... : ... .. . ... ... : ... .. . ... : ... .. . ...
ROW 27 : ... .. . ... ... ... : ... .. . ... ... : ... .. . ... ... : ... .. . ... : ... .. . ...
ROW 28 : ... .. . ... ... ... : ... .. . ... ... : ... .. . ... ... : F-# 0A . ... : ... .. . ...
ROW 29 : ... .. . ... ... ... : ... .. . ... ... : ... .. . ... ... : ... .. . ... : ... .. . ...
ROW 2A : ... .. . ... ... ... : ... .. . ... ... : ... .. . ... ... : ... .. . ... : ... .. . ...
ROW 2B : ... .. . ... ... ... : ... .. . ... ... : ... .. . ... ... : ... .. . ... : ... .. . ...
ROW 2C : C-1 0B F ... ... ... : ... .. . ... ... : ... .. . ... ... : F-# 0A . ... : ... .. . ...
ROW 2D : ... .. . ... ... ... : ... .. . ... ... : ... .. . ... ... : ... .. . ... : ... .. . ...
ROW 2E : ... .. . ... ... ... : E-3 05 3 ... ... : ... .. . ... ... : F-# 0A . ... : ... .. . ...
ROW 2F : --- .. . ... ... ... : F-3 05 6 ... ... : --- .. . ... ... : ... .. . ... : ... .. . ...

PATTERN 06
ROW 00 : A#3 05 6 ... ... ... : F#3 05 6 ... ... : C-4 0B . 260 ... : F-# 0A 4 ... : ... .. . ...
ROW 01 : ... .. . ... ... ... : ... .. . ... ... : F#2 0B . 200 ... : ... .. . ... : ... .. . ...
ROW 02 : A#3 05 2 ... ... ... : F#3 05 2 ... ... : ... .. . ... ... : F-# 0A 1 ... : ... .. . ...
ROW 03 : ... .. . ... ... ... : ... .. . ... ... : --- .. . ... ... : ... .. . ... : ... .. . ...
ROW 04 : F#3 05 6 ... ... ... : D#3 05 6 ... ... : C-4 0B . 260 ... : F-# 0A 4 ... : ... .. . ...
ROW 05 : ... .. . ... ... ... : ... .. . ... ... : F-2 0B . 200 ... : ... .. . ... : ... .. . ...
ROW 06 : F#3 05 2 ... ... ... : D#3 05 2 ... ... : ... .. . ... ... : F-# 0A 1 ... : ... .. . ...
ROW 07 : ... .. . ... ... ... : ... .. . ... ... : ... .. . ... ... : ... .. . ... : ... .. . ...
ROW 08 : F-3 05 6 ... ... ... : A#2 05 6 ... ... : ... .. . ... ... : F-# 0D 4 ... : ... .. . ...
ROW 09 : ... .. . ... ... ... : ... .. . ... ... : ... .. . ... ... : ... .. . ... : ... .. . ...
ROW 0A : F-3 05 2 ... ... ... : A#2 05 2 ... ... : ... .. . ... ... : ... .. . ... : ... .. . ...
ROW 0B : ... .. . ... ... ... : ... .. . ... ... : ... .. . ... ... : ... .. . ... : ... .. . ...
ROW 0C : F#3 05 6 ... ... ... : D#3 05 6 ... ... : C-4 0B . 260 ... : ... .. . ... : ... .. . ...
ROW 0D : ... .. . ... ... ... : ... .. . ... ... : F-2 0B . 200 ... : ... .. . ... : ... .. . ...
ROW 0E : F#3 05 2 ... ... ... : D#3 05 2 ... ... : ... .. . ... ... : ... .. . ... : ... .. . ...
ROW 0F : ... .. . ... ... ... : ... .. . ... ... : ... .. . ... ... : ... .. . ... : ... .. . ...
ROW 10 : F-3 05 6 ... ... ... : A#2 05 6 ... ... : ... .. . ... ... : F-# 0A . ... : ... .. . ...
ROW 11 : ... .. . ... ... ... : ... .. . ... ... : ... .. . ... ... : ... .. . ... : ... .. . ...
ROW 12 : F-3 05 2 ... ... ... : A#2 05 2 ... ... : ... .. . ... ... : ... .. . ... : ... .. . ...
ROW 13 : ... .. . ... ... ... : ... .. . ... ... : ... .. . ... ... : ... .. . ... : ... .. . ...
ROW 14 : D#3 05 6 ... ... ... : F#2 05 6 ... ... : C-4 0B . 260 ... : ... .. . ... : ... .. . ...
ROW 15 : ... .. . ... ... ... : ... .. . ... ... : C-2 0B . 200 ... : ... .. . ... : ... .. . ...
ROW 16 : D#3 05 2 ... ... ... : F#2 05 2 ... ... : ... .. . ... ... : ... .. . ... : ... .. . ...
ROW 17 : ... .. . ... ... ... : ... .. . ... ... : ... .. . ... ... : ... .. . ... : ... .. . ...
ROW 18 : A#2 05 6 ... ... ... : D#2 05 6 ... ... : C-4 0B . 260 ... : F-# 0A 4 ... : ... .. . ...
ROW 19 : ... .. . ... ... ... : ... .. . ... ... : D#2 00 . 200 ... : ... .. . ... : ... .. . ...
ROW 1A : A#2 05 2 ... ... ... : D#2 05 2 ... ... : ... .. . ... ... : F-# 0A 1 ... : ... .. . ...
ROW 1B : ... .. . ... ... ... : ... .. . ... ... : ... .. . ... ... : ... .. . ... : ... .. . ...
ROW 1C : D#3 05 6 ... ... ... : F#2 05 6 ... ... : ... .. . ... ... : F-# 0A 4 ... : ... .. . ...
ROW 1D : ... .. . ... ... ... : ... .. . ... ... : ... .. . ... ... : ... .. . ... : ... .. . ...
ROW 1E : D#3 05 2 ... ... ... : F#2 05 2 ... ... : ... .. . ... ... : F-# 0A 1 ... : ... .. . ...
ROW 1F : ... .. . ... ... ... : ... .. . ... ... : ... .. . ... ... : ... .. . ... : ... .. . ...
ROW 20 : A#2 05 6 ... ... ... : D#2 05 6 ... ... : C-4 0B . 260 ... : F-# 0D 4 ... : ... .. . ...
ROW 21 : ... .. . ... ... ... : ... .. . ... ... : F-2 0B . 200 ... : ... .. . ... : ... .. . ...
ROW 22 : A#2 05 2 ... ... ... : D#2 05 2 ... ... : ... .. . ... ... : ... .. . ... : ... .. . ...
ROW 23 : ... .. . ... ... ... : ... .. . ... ... : ... .. . ... ... : ... .. . ... : ... .. . ...
ROW 24 : ... .. . ... ... ... : ... .. . ... ... : ... .. . ... ... : ... .. . ... : ... .. . ...
ROW 25 : ... .. . ... ... ... : ... .. . ... ... : ... .. . ... ... : ... .. . ... : ... .. . ...
ROW 26 : ... .. . ... ... ... : ... .. . ... ... : ... .. . ... ... : ... .. . ... : ... .. . ...
ROW 27 : ... .. . ... ... ... : ... .. . ... ... : --- .. . ... ... : ... .. . ... : ... .. . ...
ROW 28 : A#2 05 3 ... ... ... : F-1 0B 1 ... ... : ... .. . ... ... : F-# 0A . ... : ... .. . ...
ROW 29 : ... .. . ... ... ... : ... .. . ... ... : ... .. . ... ... : ... .. . ... : ... .. . ...
ROW 2A : A#2 05 1 ... ... ... : ... .. . ... ... : ... .. . ... ... : ... .. . ... : ... .. . ...
ROW 2B : ... .. . ... ... ... : ... .. . ... ... : ... .. . ... ... : ... .. . ... : ... .. . ...
ROW 2C : ... .. . ... ... ... : C-1 0B F ... ... : ... .. . ... ... : F-# 0A . ... : ... .. . ...
ROW 2D : ... .. . ... ... ... : ... .. . ... ... : ... .. . ... ... : ... .. . ... : ... .. . ...
ROW 2E : ... .. . ... ... ... : ... .. . ... ... : ... .. . ... ... : F-# 0A . ... : ... .. . ...
ROW 2F : --- .. . ... ... ... : --- .. . ... ... : ... .. . ... ... : ... .. . ... : ... .. . ...

PATTERN 07
ROW 00 : F-1 0B . ... ... ... : D#3 11 4 ... ... : ... .. . ... ... : F-# 0A 4 ... : ... .. . ...
ROW 01 : ... .. . ... ... ... : ... .. . ... ... : ... .. . ... ... : ... .. . ... : ... .. . ...
ROW 02 : ... .. . ... ... ... : ... .. . ... ... : ... .. . ... ... : F-# 0A 1 ... : ... .. . ...
ROW 03 : --- .. . ... ... ... : ... .. . ... ... : ... .. . ... ... : ... .. . ... : ... .. . ...
ROW 04 : C-1 0B 8 ... ... ... : ... .. 2 ... ... : ... .. . ... ... : F-# 0A 4 ... : ... .. . ...
ROW 05 : ... .. . ... ... ... : ... .. . ... ... : ... .. . ... ... : ... .. . ... : ... .. . ...
ROW 06 : ... .. . ... ... ... : ... .. . ... ... : ... .. . ... ... : F-# 0A 1 ... : ... .. . ...
ROW 07 : --- .. . ... ... ... : ... .. . ... ... : ... .. . ... ... : ... .. . ... : ... .. . ...
ROW 08 : F-1 0B . ... ... ... : ... .. 1 ... ... : ... .. . ... ... : F-# 0D 4 ... : ... .. . ...
ROW 09 : ... .. . ... ... ... : ... .. . ... ... : ... .. . ... ... : ... .. . ... : ... .. . ...
ROW 0A : ... .. . ... ... ... : ... .. . ... ... : ... .. . ... ... : ... .. . ... : ... .. . ...
ROW 0B : --- .. . ... ... ... : ... .. . ... ... : ... .. . ... ... : ... .. . ... : ... .. . ...
ROW 0C : C-1 0B 1 ... ... ... : D#2 11 3 ... ... : ... .. . ... ... : ... .. . ... : ... .. . ...
ROW 0D : ... .. . ... ... ... : ... .. . ... ... : ... .. . ... ... : ... .. . ... : ... .. . ...
ROW 0E : ... .. . ... ... ... : ... .. . ... ... : ... .. . ... ... : ... .. . ... : ... .. . ...
ROW 0F : --- .. . ... ... ... : ... .. . ... ... : ... .. . ... ... : ... .. . ... : ... .. . ...
ROW 10 : F-1 0B . ... ... ... : ... .. 2 ... ... : ... .. . ... ... : F-# 0A . ... : ... .. . ...
ROW 11 : ... .. . ... ... ... : ... .. . ... ... : ... .. . ... ... : ... .. . ... : ... .. . ...
ROW 12 : ... .. . ... ... ... : ... .. . ... ... : ... .. . ... ... : ... .. . ... : ... .. . ...
ROW 13 : --- .. . ... ... ... : ... .. . ... ... : ... .. . ... ... : ... .. . ... : ... .. . ...
ROW 14 : ... .. . ... ... ... : ... .. 1 ... ... : ... .. . ... ... : ... .. . ... : ... .. . ...
ROW 15 : ... .. . ... ... ... : ... .. . ... ... : ... .. . ... ... : ... .. . ... : ... .. . ...
ROW 16 : ... .. . ... ... ... : --- .. . ... ... : ... .. . ... ... : ... .. . ... : ... .. . ...
ROW 17 : --- .. . ... ... ... : ... .. . ... ... : ... .. . ... ... : ... .. . ... : ... .. . ...
ROW 18 : F-1 0B F ... ... ... : D#5 00 6 ... ... : ... .. . ... ... : F-# 0A 4 ... : ... .. . ...
ROW 19 : ... .. . ... ... ... : ... .. . ... ... : ... .. . ... ... : ... .. . ... : ... .. . ...
ROW 1A : ... .. . ... ... ... : ... .. . 210 ... : ... .. . ... ... : F-# 0A 1 ... : ... .. . ...
ROW 1B : ... .. . ... ... ... : ... .. . ... ... : ... .. . ... ... : ... .. . ... : ... .. . ...
ROW 1C : ... .. . ... ... ... : --- .. . 200 ... : ... .. . ... ... : F-# 0A 4 ... : ... .. . ...
ROW 1D : ... .. . ... ... ... : ... .. . ... ... : ... .. . ... ... : ... .. . ... : ... .. . ...
ROW 1E : ... .. . ... ... ... : ... .. . ... ... : ... .. . ... ... : F-# 0A 1 ... : ... .. . ...
ROW 1F : ... .. . ... ... ... : ... .. . ... ... : ... .. . ... ... : ... .. . ... : ... .. . ...
ROW 20 : F-1 0B 8 ... ... ... : D#5 00 2 ... ... : ... .. . ... ... : F-# 0D 4 ... : ... .. . ...
ROW 21 : ... .. . ... ... ... : ... .. . ... ... : ... .. . ... ... : ... .. . ... : ... .. . ...
ROW 22 : ... .. . ... ... ... : ... .. . 210 ... : ... .. . ... ... : ... .. . ... : ... .. . ...
ROW 23 : ... .. . ... ... ... : ... .. . ... ... : ... .. . ... ... : ... .. . ... : ... .. . ...
ROW 24 : C-1 0B F ... ... ... : --- .. . 200 ... : ... .. . ... ... : ... .. . ... : ... .. . ...
ROW 25 : ... .. . ... ... ... : ... .. . ... ... : ... .. . ... ... : ... .. . ... : ... .. . ...
ROW 26 : ... .. . ... ... ... : ... .. . ... ... : ... .. . ... ... : ... .. . ... : ... .. . ...
ROW 27 : ... .. . ... ... ... : ... .. . ... ... : ... .. . ... ... : ... .. . ... : ... .. . ...
ROW 28 : ... .. . ... ... ... : D#5 00 1 ... ... : ... .. . ... ... : F-# 0A . ... : ... .. . ...
ROW 29 : ... .. . ... ... ... : ... .. . ... ... : ... .. . ... ... : ... .. . ... : ... .. . ...
ROW 2A : ... .. . ... ... ... : ... .. . 210 ... : ... .. . ... ... : ... .. . ... : ... .. . ...
ROW 2B : ... .. . ... ... ... : ... .. . ... ... : ... .. . ... ... : ... .. . ... : ... .. . ...
ROW 2C : C-1 0B F ... ... ... : --- .. . 200 ... : ... .. . ... ... : F-# 0A . ... : ... .. . ...
ROW 2D : ... .. . ... ... ... : ... .. . ... ... : ... .. . ... ... : ... .. . ... : ... .. . ...
ROW 2E : ... .. . ... ... ... : ... .. . ... ... : ... .. . ... ... : F-# 0A . ... : ... .. . ...
ROW 2F : --- .. . ... ... ... : ... .. . ... ... : ... .. . ... ... : ... .. . ... : ... .. . ...

PATTERN 08
ROW 00 : F-1 0B F ... ... ... : ... .. . ... ... : C-4 0B . 260 ... : F-# 0A 4 ... : ... .. . ...
ROW 01 : ... .. . ... ... ... : ... .. . ... ... : F#2 0B . 200 ... : ... .. . ... : ... .. . ...
ROW 02 : ... .. . ... ... ... : ... .. . ... ... : ... .. . ... ... : F-# 0A 1 ... : ... .. . ...
ROW 03 : ... .. . ... ... ... : ... .. . ... ... : --- .. . ... ... : ... .. . ... : ... .. . ...
ROW 04 : ... .. . ... ... ... : ... .. . ... ... : C-4 0B . 260 ... : F-# 0A 4 ... : ... .. . ...
ROW 05 : ... .. . ... ... ... : ... .. . ... ... : F-2 0B . 200 ... : ... .. . ... : ... .. . ...
ROW 06 : ... .. . ... ... ... : ... .. . ... ... : ... .. . ... ... : F-# 0A 1 ... : ... .. . ...
ROW 07 : ... .. . ... ... ... : ... .. . ... ... : ... .. . ... ... : ... .. . ... : ... .. . ...
ROW 08 : F-1 0B 8 ... ... ... : ... .. . ... ... : ... .. . ... ... : F-# 0D 4 ... : ... .. . ...
ROW 09 : ... .. . ... ... ... : ... .. . ... ... : ... .. . ... ... : ... .. . ... : ... .. . ...
ROW 0A : ... .. . ... ... ... : ... .. . ... ... : ... .. . ... ... : ... .. . ... : ... .. . ...
ROW 0B : ... .. . ... ... ... : ... .. . ... ... : ... .. . ... ... : ... .. . ... : ... .. . ...
ROW 0C : ... .. . ... ... ... : ... .. . ... ... : C-4 0B . 260 ... : ... .. . ... : ... .. . ...
ROW 0D : ... .. . ... ... ... : ... .. . ... ... : F-2 0B . 200 ... : ... .. . ... : ... .. . ...
ROW 0E : ... .. . ... ... ... : ... .. . ... ... : ... .. . ... ... : ... .. . ... : ... .. . ...
ROW 0F : ... .. . ... ... ... : ... .. . ... ... : ... .. . ... ... : ... .. . ... : ... .. . ...
ROW 10 : F-1 0B 1 ... ... ... : ... .. . ... ... : ... .. . ... ... : F-# 0A . ... : ... .. . ...
ROW 11 : ... .. . ... ... ... : ... .. . ... ... : ... .. . ... ... : ... .. . ... : ... .. . ...
ROW 12 : ... .. . ... ... ... : ... .. . ... ... : ... .. . ... ... : ... .. . ... : ... .. . ...
ROW 13 : ... .. . ... ... ... : ... .. . ... ... : ... .. . ... ... : ... .. . ... : ... .. . ...
ROW 14 : ... .. . ... ... ... : ... .. . ... ... : C-4 0B . 260 ... : ... .. . ... : ... .. . ...
ROW 15 : ... .. . ... ... ... : ... .. . ... ... : C-2 0B . 200 ... : ... .. . ... : ... .. . ...
ROW 16 : ... .. . ... ... ... : ... .. . ... ... : ... .. . ... ... : ... .. . ... : ... .. . ...
ROW 17 : ... .. . ... ... ... : ... .. . ... ... : ... .. . ... ... : ... .. . ... : ... .. . ...
ROW 18 : F-1 0B F ... ... ... : ... .. . ... ... : C-4 0B . 260 ... : F-# 0A 4 ... : ... .. . ...
ROW 19 : ... .. . ... ... ... : ... .. . ... ... : D#2 00 . 200 ... : ... .. . ... : ... .. . ...
ROW 1A : ... .. . ... ... ... : ... .. . ... ... : ... .. . ... ... : F-# 0A 1 ... : ... .. . ...
ROW 1B : ... .. . ... ... ... : ... .. . ... ... : ... .. . ... ... : ... .. . ... : ... .. . ...
ROW 1C : ... .. . ... ... ... : ... .. . ... ... : ... .. . ... ... : F-# 0A 4 ... : ... .. . ...
ROW 1D : ... .. . ... ... ... : ... .. . ... ... : ... .. . ... ... : ... .. . ... : ... .. . ...
ROW 1E : ... .. . ... ... ... : ... .. . ... ... : ... .. . ... ... : F-# 0A 1 ... : ... .. . ...
ROW 1F : ... .. . ... ... ... : ... .. . ... ... : ... .. . ... ... : ... .. . ... : ... .. . ...
ROW 20 : F-1 0B 8 ... ... ... : ... .. . ... ... : C-4 0B . 260 ... : F-# 0D 4 ... : ... .. . ...
ROW 21 : ... .. . ... ... ... : ... .. . ... ... : F-2 0B . 200 ... : ... .. . ... : ... .. . ...
ROW 22 : ... .. . ... ... ... : ... .. . ... ... : ... .. . ... ... : ... .. . ... : ... .. . ...
ROW 23 : ... .. . ... ... ... : ... .. . ... ... : ... .. . ... ... : ... .. . ... : ... .. . ...
ROW 24 : ... .. . ... ... ... : ... .. . ... ... : ... .. . ... ... : ... .. . ... : ... .. . ...
ROW 25 : ... .. . ... ... ... : ... .. . ... ... : ... .. . ... ... : ... .. . ... : ... .. . ...
ROW 26 : ... .. . ... ... ... : ... .. . ... ... : ... .. . ... ... : ... .. . ... : ... .. . ...
ROW 27 : ... .. . ... ... ... : ... .. . ... ... : ... .. . ... ... : ... .. . ... : ... .. . ...
ROW 28 : F-1 0B 1 ... ... ... : ... .. . ... ... : C-4 0B . 260 ... : F-# 0A . ... : ... .. . ...
ROW 29 : ... .. . ... ... ... : ... .. . ... ... : G#2 0B . 200 ... : ... .. . ... : ... .. . ...
ROW 2A : ... .. . ... ... ... : ... .. . ... ... : ... .. . ... ... : ... .. . ... : ... .. . ...
ROW 2B : ... .. . ... ... ... : ... .. . ... ... : ... .. . ... ... : ... .. . ... : ... .. . ...
ROW 2C : C-1 0B F ... ... ... : ... .. . ... ... : C-4 0B . 260 ... : F-# 0A . ... : ... .. . ...
ROW 2D : ... .. . ... ... ... : ... .. . ... ... : A#2 0B . 200 ... : ... .. . ... : ... .. . ...
ROW 2E : ... .. . ... ... ... : ... .. . ... ... : ... .. . ... ... : F-# 0A . ... : ... .. . ...
ROW 2F : --- .. . ... ... ... : ... .. . ... ... : --- .. . ... ... : ... .. . ... : ... .. . ...

PATTERN 09
ROW 00 : F-1 0B . ... ... ... : ... .. . ... ... : C-4 0B . 260 ... : F-# 0A 4 ... : ... .. . ...
ROW 01 : ... .. . ... ... ... : ... .. . ... ... : A#2 0B . 200 ... : ... .. . ... : ... .. . ...
ROW 02 : ... .. . ... ... ... : ... .. . ... ... : ... .. . ... ... : F-# 0A 1 ... : ... .. . ...
ROW 03 : --- .. . ... ... ... : ... .. . ... ... : ... .. . ... ... : ... .. . ... : ... .. . ...
ROW 04 : C-1 0B 8 ... ... ... : ... .. . ... ... : C-4 0B . 260 ... : F-# 0A 4 ... : ... .. . ...
ROW 05 : ... .. . ... ... ... : ... .. . ... ... : B-2 0B . 200 ... : ... .. . ... : ... .. . ...
ROW 06 : ... .. . ... ... ... : ... .. . ... ... : C-4 0B . 260 ... : F-# 0A 1 ... : ... .. . ...
ROW 07 : --- .. . ... ... ... : ... .. . ... ... : A#2 0B . 200 ... : ... .. . ... : ... .. . ...
ROW 08 : F-1 0B . ... ... ... : ... .. . ... ... : C-4 0B . 260 ... : F-# 0D 4 ... : ... .. . ...
ROW 09 : ... .. . ... ... ... : ... .. . ... ... : G#2 0B . 200 ... : ... .. . ... : ... .. . ...
ROW 0A : ... .. . ... ... ... : ... .. . ... ... : ... .. . ... ... : ... .. . ... : ... .. . ...
ROW 0B : --- .. . ... ... ... : ... .. . ... ... : --- .. . ... ... : ... .. . ... : ... .. . ...
ROW 0C : C-1 0B 1 ... ... ... : ... .. . ... ... : C-4 0B . 260 ... : ... .. . ... : ... .. . ...
ROW 0D : ... .. . ... ... ... : ... .. . ... ... : F-2 0B . 200 ... : ... .. . ... : ... .. . ...
ROW 0E : ... .. . ... ... ... : ... .. . ... ... : ... .. . ... ... : ... .. . ... : ... .. . ...
ROW 0F : --- .. . ... ... ... : ... .. . ... ... : ... .. . ... ... : ... .. . ... : ... .. . ...
ROW 10 : F-1 0B . ... ... ... : ... .. . ... ... : C-4 0B . 260 ... : F-# 0A . ... : ... .. . ...
ROW 11 : ... .. . ... ... ... : ... .. . ... ... : D#2 0B . 200 ... : ... .. . ... : ... .. . ...
ROW 12 : ... .. . ... ... ... : ... .. . ... ... : ... .. . ... ... : ... .. . ... : ... .. . ...
ROW 13 : ... .. . ... ... ... : ... .. . ... ... : ... .. . ... ... : ... .. . ... : ... .. . ...
ROW 14 : --- .. . ... ... ... : ... .. . ... ... : C-4 0B . 260 ... : ... .. . ... : ... .. . ...
ROW 15 : ... .. . ... ... ... : ... .. . ... ... : F-2 0B . 200 ... : ... .. . ... : ... .. . ...
ROW 16 : ... .. . ... ... ... : ... .. . ... ... : ... .. . ... ... : ... .. . ... : ... .. . ...
ROW 17 : --- .. . ... ... ... : ... .. . ... ... : --- .. . ... ... : ... .. . ... : ... .. . ...
ROW 18 : F-1 0B F ... ... ... : F-5 07 1 ... ... : C-4 0B . 260 ... : F-# 0A 4 ... : ... .. . ...
ROW 19 : ... .. . ... ... ... : ... .. . ... ... : B-1 0B . 200 ... : ... .. . ... : ... .. . ...
ROW 1A : ... .. . ... ... ... : ... .. . ... ... : ... .. . ... ... : F-# 0A 1 ... : ... .. . ...
ROW 1B : ... .. . ... ... ... : ... .. . ... ... : ... .. . ... ... : ... .. . ... : ... .. . ...
ROW 1C : ... .. . ... ... ... : ... .. . ... ... : C-4 0B . 260 ... : F-# 0A 4 ... : ... .. . ...
ROW 1D : ... .. . ... ... ... : ... .. . ... ... : C-2 0B . 200 ... : ... .. . ... : ... .. . ...
ROW 1E : ... .. . ... ... ... : ... .. . ... ... : ... .. . ... ... : F-# 0A 1 ... : ... .. . ...
ROW 1F : ... .. . ... ... ... : ... .. . ... ... : ... .. . ... ... : ... .. . ... : ... .. . ...
ROW 20 : F-1 0B 8 ... ... ... : ... .. 2 ... ... : C-4 0B . 260 ... : F-# 0D 4 ... : ... .. . ...
ROW 21 : ... .. . ... ... ... : ... .. . ... ... : F-2 0B . 200 ... : ... .. . ... : ... .. . ...
ROW 22 : ... .. . ... ... ... : ... .. . ... ... : ... .. . ... ... : ... .. . ... : ... .. . ...
ROW 23 : ... .. . ... ... ... : ... .. . ... ... : --- .. . ... ... : ... .. . ... : ... .. . ...
ROW 24 : C-1 0B F ... ... ... : ... .. . ... ... : C-4 0B . 260 ... : ... .. . ... : ... .. . ...
ROW 25 : ... .. . ... ... ... : ... .. . ... ... : F-1 0B . 200 ... : ... .. . ... : ... .. . ...
ROW 26 : ... .. . ... ... ... : ... .. . ... ... : ... .. . ... ... : ... .. . ... : ... .. . ...
ROW 27 : ... .. . ... ... ... : ... .. . ... ... : ... .. . ... ... : ... .. . ... : ... .. . ...
ROW 28 : ... .. . ... ... ... : ... .. 4 ... ... : C-4 0B . 260 ... : F-# 0A . ... : ... .. . ...
ROW 29 : ... .. . ... ... ... : ... .. . ... ... : G#1 0B . 200 ... : ... .. . ... : ... .. . ...
ROW 2A : ... .. . ... ... ... : ... .. . ... ... : ... .. . ... ... : ... .. . ... : ... .. . ...
ROW 2B : ... .. . ... ... ... : ... .. . ... ... : ... .. . ... ... : ... .. . ... : ... .. . ...
ROW 2C : C-1 0B F ... ... ... : ... .. . ... ... : C-4 0B . 260 ... : F-# 0A . ... : ... .. . ...
ROW 2D : ... .. . ... ... ... : ... .. . ... ... : A-1 0B . 200 ... : ... .. . ... : ... .. . ...
ROW 2E : ... .. . ... ... ... : ... .. . ... ... : ... .. . ... ... : F-# 0A . ... : ... .. . ...
ROW 2F : --- .. . ... ... ... : ... .. . ... ... : ... .. . ... ... : ... .. . ... : ... .. . ...

PATTERN 0A
ROW 00 : G#3 0F 5 ... ... ... : F-2 0F 5 ... ... : C-4 0B . 260 ... : F-# 0A 4 ... : ... .. . ...
ROW 01 : ... .. . ... ... ... : ... .. . ... ... : F-2 0B . 200 ... : ... .. . ... : ... .. . ...
ROW 02 : ... .. . ... ... ... : ... .. . ... ... : ... .. . ... ... : F-# 0A 1 ... : ... .. . ...
ROW 03 : ... .. . ... ... ... : ... .. . ... ... : ... .. . ... ... : ... .. . ... : ... .. . ...
ROW 04 : ... .. . ... ... ... : ... .. . ... ... : ... .. . ... ... : F-# 0A 4 ... : ... .. . ...
ROW 05 : ... .. . ... ... ... : ... .. . ... ... : ... .. . ... ... : ... .. . ... : ... .. . ...
ROW 06 : ... .. . ... ... ... : ... .. . ... ... : ... .. . ... ... : F-# 0A 1 ... : ... .. . ...
ROW 07 : ... .. . ... ... ... : ... .. . ... ... : ... .. . ... ... : ... .. . ... : ... .. . ...
ROW 08 : G#3 0F 1 ... ... ... : F-2 0F 1 ... ... : ... .. . ... ... : F-# 0D 4 ... : ... .. . ...
ROW 09 : ... .. . ... ... ... : ... .. . ... ... : ... .. . ... ... : ... .. . ... : ... .. . ...
ROW 0A : ... .. . ... ... ... : ... .. . ... ... : ... .. . ... ... : ... .. . ... : ... .. . ...
ROW 0B : ... .. . ... ... ... : ... .. . ... ... : ... .. . ... ... : ... .. . ... : ... .. . ...
ROW 0C : C-4 0F 5 ... ... ... : G#2 0F 5 ... ... : ... .. . ... ... : ... .. . ... : ... .. . ...
ROW 0D : ... .. . ... ... ... : ... .. . ... ... : ... .. . ... ... : ... .. . ... : ... .. . ...
ROW 0E : ... .. . ... ... ... : ... .. . ... ... : ... .. . ... ... : ... .. . ... : ... .. . ...
ROW 0F : ... .. . ... ... ... : ... .. . ... ... : ... .. . ... ... : ... .. . ... : ... .. . ...
ROW 10 : ... .. . ... ... ... : ... .. . ... ... : ... .. . ... ... : F-# 0A . ... : ... .. . ...
ROW 11 : ... .. . ... ... ... : ... .. . ... ... : ... .. . ... ... : ... .. . ... : ... .. . ...
ROW 12 : ... .. . ... ... ... : ... .. . ... ... : ... .. . ... ... : ... .. . ... : ... .. . ...
ROW 13 : ... .. . ... ... ... : ... .. . ... ... : ... .. . ... ... : ... .. . ... : ... .. . ...
ROW 14 : C-4 0F 1 ... ... ... : G#2 0F 1 ... ... : ... .. . ... ... : ... .. . ... : ... .. . ...
ROW 15 : ... .. . ... ... ... : ... .. . ... ... : ... .. . ... ... : ... .. . ... : ... .. . ...
ROW 16 : ... .. . ... ... ... : ... .. . ... ... : ... .. . ... ... : ... .. . ... : ... .. . ...
ROW 17 : ... .. . ... ... ... : ... .. . ... ... : ... .. . ... ... : ... .. . ... : ... .. . ...
ROW 18 : D-4 0F 5 ... ... ... : G-2 0F 5 ... ... : C-4 0B . 260 ... : F-# 0A 4 ... : ... .. . ...
ROW 19 : ... .. . ... ... ... : ... .. . ... ... : F-2 0B . 200 ... : ... .. . ... : ... .. . ...
ROW 1A : ... .. . ... ... ... : ... .. . ... ... : ... .. . ... ... : F-# 0A 1 ... : ... .. . ...
ROW 1B : ... .. . ... ... ... : ... .. . ... ... : ... .. . ... ... : ... .. . ... : ... .. . ...
ROW 1C : ... .. . ... ... ... : ... .. . ... ... : ... .. . ... ... : F-# 0A 4 ... : ... .. . ...
ROW 1D : ... .. . ... ... ... : ... .. . ... ... : ... .. . ... ... : ... .. . ... : ... .. . ...
ROW 1E : ... .. . ... ... ... : ... .. . ... ... : ... .. . ... ... : F-# 0A 1 ... : ... .. . ...
ROW 1F : ... .. . ... ... ... : ... .. . ... ... : ... .. . ... ... : ... .. . ... : ... .. . ...
ROW 20 : D-4 0F 2 ... ... ... : G-2 0F 2 ... ... : ... .. . ... ... : F-# 0D 4 ... : ... .. . ...
ROW 21 : ... .. . ... ... ... : ... .. . ... ... : ... .. . ... ... : ... .. . ... : ... .. . ...
ROW 22 : ... .. . ... ... ... : ... .. . ... ... : ... .. . ... ... : ... .. . ... : ... .. . ...
ROW 23 : ... .. . ... ... ... : ... .. . ... ... : ... .. . ... ... : ... .. . ... : ... .. . ...
ROW 24 : ... .. . ... ... ... : ... .. . ... ... : ... .. . ... ... : ... .. . ... : ... .. . ...
ROW 25 : ... .. . ... ... ... : ... .. . ... ... : ... .. . ... ... : ... .. . ... : ... .. . ...
ROW 26 : ... .. . ... ... ... : ... .. . ... ... : ... .. . ... ... : ... .. . ... : ... .. . ...
ROW 27 : ... .. . ... ... ... : ... .. . ... ... : ... .. . ... ... : ... .. . ... : ... .. . ...
ROW 28 : D-4 0F 1 ... ... ... : G-2 0F 1 ... ... : ... .. . ... ... : F-# 0A . ... : ... .. . ...
ROW 29 : ... .. . ... ... ... : ... .. . ... ... : ... .. . ... ... : ... .. . ... : ... .. . ...
ROW 2A : ... .. . ... ... ... : ... .. . ... ... : ... .. . ... ... : ... .. . ... : ... .. . ...
ROW 2B : ... .. . ... ... ... : --- .. . ... ... : --- .. . ... ... : ... .. . ... : ... .. . ...
ROW 2C : ... .. . ... ... ... : C-1 0B F ... ... : C-4 0B . 260 ... : F-# 0A . ... : ... .. . ...
ROW 2D : ... .. . ... ... ... : ... .. . ... ... : C-2 0B . 200 ... : ... .. . ... : ... .. . ...
ROW 2E : ... .. . ... ... ... : ... .. . ... ... : ... .. . ... ... : F-# 0A . ... : ... .. . ...
ROW 2F : ... .. . ... ... ... : ... .. . ... ... : --- .. . ... ... : ... .. . ... : ... .. . ...

PATTERN 0B
ROW 00 : B-2 13 2 ... ... ... : F-1 0B . ... ... : C-4 0B . 260 ... : F-# 0A 4 ... : ... .. . ...
ROW 01 : ... .. . ... ... ... : ... .. . ... ... : F-2 0B . 200 ... : ... .. . ... : ... .. . ...
ROW 02 : ... .. . ... ... ... : ... .. . ... ... : ... .. . ... ... : F-# 0A 1 ... : ... .. . ...
ROW 03 : ... .. . ... ... ... : --- .. . ... ... : ... .. . ... ... : ... .. . ... : ... .. . ...
ROW 04 : ... .. . ... ... ... : C-1 0B 8 ... ... : ... .. . ... ... : F-# 0A 4 ... : ... .. . ...
ROW 05 : ... .. . ... ... ... : ... .. . ... ... : ... .. . ... ... : ... .. . ... : ... .. . ...
ROW 06 : ... .. . ... ... ... : ... .. . ... ... : ... .. . ... ... : F-# 0A 1 ... : ... .. . ...
ROW 07 : --- .. . ... ... ... : --- .. . ... ... : ... .. . ... ... : ... .. . ... : ... .. . ...
ROW 08 : B-2 13 . ... ... ... : F-1 0B . ... ... : ... .. . ... ... : F-# 0D 4 ... : ... .. . ...
ROW 09 : ... .. . ... ... ... : ... .. . ... ... : ... .. . ... ... : ... .. . ... : ... .. . ...
ROW 0A : --- .. . ... ... ... : ... .. . ... ... : ... .. . ... ... : ... .. . ... : ... .. . ...
ROW 0B : ... .. . ... ... ... : --- .. . ... ... : ... .. . ... ... : ... .. . ... : ... .. . ...
ROW 0C : D-2 13 . ... ... ... : C-1 0B 1 ... ... : ... .. . ... ... : ... .. . ... : ... .. . ...
ROW 0D : ... .. . ... ... ... : ... .. . ... ... : ... .. . ... ... : ... .. . ... : ... .. . ...
ROW 0E : ... .. . ... ... ... : ... .. . ... ... : ... .. . ... ... : ... .. . ... : ... .. . ...
ROW 0F : ... .. . ... ... ... : --- .. . ... ... : ... .. . ... ... : ... .. . ... : ... .. . ...
ROW 10 : ... .. . ... ... ... : F-1 0B . ... ... : ... .. . ... ... : F-# 0A . ... : ... .. . ...
ROW 11 : ... .. . ... ... ... : ... .. . ... ... : ... .. . ... ... : ... .. . ... : ... .. . ...
ROW 12 : ... .. . ... ... ... : ... .. . ... ... : ... .. . ... ... : ... .. . ... : ... .. . ...
ROW 13 : --- .. . ... ... ... : ... .. . ... ... : ... .. . ... ... : ... .. . ... : ... .. . ...
ROW 14 : D-2 13 . ... ... ... : --- .. . ... ... : ... .. . ... ... : ... .. . ... : ... .. . ...
ROW 15 : ... .. . ... ... ... : ... .. . ... ... : ... .. . ... ... : ... .. . ... : ... .. . ...
ROW 16 : --- .. . ... ... ... : ... .. . ... ... : ... .. . ... ... : ... .. . ... : ... .. . ...
ROW 17 : ... .. . ... ... ... : --- .. . ... ... : --- .. . ... ... : ... .. . ... : ... .. . ...
ROW 18 : G-2 13 . ... ... ... : F-1 0B F ... ... : C-4 0B . 260 ... : F-# 0A 4 ... : ... .. . ...
ROW 19 : ... .. . ... ... ... : ... .. . ... ... : F-2 0B . 200 ... : ... .. . ... : ... .. . ...
ROW 1A : G#2 13 . ... ... ... : ... .. . ... ... : ... .. . ... ... : F-# 0A 1 ... : ... .. . ...
ROW 1B : ... .. . ... ... ... : ... .. . ... ... : ... .. . ... ... : ... .. . ... : ... .. . ...
ROW 1C : G-2 13 . ... ... ... : ... .. . ... ... : ... .. . ... ... : F-# 0A 4 ... : ... .. . ...
ROW 1D : ... .. . ... ... ... : ... .. . ... ... : ... .. . ... ... : ... .. . ... : ... .. . ...
ROW 1E : ... .. . ... ... ... : ... .. . ... ... : ... .. . ... ... : F-# 0A 1 ... : ... .. . ...
ROW 1F : ... .. . ... ... ... : ... .. . ... ... : ... .. . ... ... : ... .. . ... : ... .. . ...
ROW 20 : D-2 13 . ... ... ... : F-1 0B 8 ... ... : ... .. . ... ... : F-# 0D 4 ... : ... .. . ...
ROW 21 : ... .. . ... ... ... : ... .. . ... ... : ... .. . ... ... : ... .. . ... : ... .. . ...
ROW 22 : ... .. . ... ... ... : ... .. . ... ... : ... .. . ... ... : ... .. . ... : ... .. . ...
ROW 23 : ... .. . ... ... ... : ... .. . ... ... : ... .. . ... ... : ... .. . ... : ... .. . ...
ROW 24 : ... .. . ... ... ... : C-1 0B F ... ... : C-4 0B . 260 ... : ... .. . ... : ... .. . ...
ROW 25 : ... .. . ... ... ... : ... .. . ... ... : C-2 0B . 200 ... : ... .. . ... : ... .. . ...
ROW 26 : ... .. . ... ... ... : ... .. . ... ... : ... .. . ... ... : ... .. . ... : ... .. . ...
ROW 27 : --- .. . ... ... ... : ... .. . ... ... : ... .. . ... ... : ... .. . ... : ... .. . ...
ROW 28 : D-2 13 . ... ... ... : ... .. . ... ... : ... .. . ... ... : F-# 0A . ... : ... .. . ...
ROW 29 : ... .. . ... ... ... : ... .. . ... ... : ... .. . ... ... : ... .. . ... : ... .. . ...
ROW 2A : --- .. . ... ... ... : ... .. . ... ... : ... .. . ... ... : ... .. . ... : ... .. . ...
ROW 2B : ... .. . ... ... ... : ... .. . ... ... : ... .. . ... ... : ... .. . ... : ... .. . ...
ROW 2C : ... .. . ... ... ... : C-1 0B F ... ... : C-4 0B . 260 ... : F-# 0A . ... : ... .. . ...
ROW 2D : ... .. . ... ... ... : ... .. . ... ... : C-2 0B . 200 ... : ... .. . ... : ... .. . ...
ROW 2E : C#4 13 . ... ... ... : ... .. . ... ... : ... .. . ... ... : F-# 0A . ... : ... .. . ...
ROW 2F : D-4 13 . ... ... ... : --- .. . ... ... : --- .. . ... ... : ... .. . ... : ... .. . ...

PATTERN 0C
ROW 00 : D#4 0F 5 ... ... ... : G#2 0F 5 ... ... : C-4 0B . 260 ... : F-# 0A 4 ... : ... .. . ...
ROW 01 : ... .. . ... ... ... : ... .. . ... ... : F-2 0B . 200 ... : ... .. . ... : ... .. . ...
ROW 02 : ... .. . ... ... ... : ... .. . ... ... : ... .. . ... ... : F-# 0A 1 ... : ... .. . ...
ROW 03 : ... .. . ... ... ... : ... .. . ... ... : ... .. . ... ... : ... .. . ... : ... .. . ...
ROW 04 : D-4 0F . ... ... ... : B-2 0F . ... ... : ... .. . ... ... : F-# 0A 4 ... : ... .. . ...
ROW 05 : ... .. . ... ... ... : ... .. . ... ... : ... .. . ... ... : ... .. . ... : ... .. . ...
ROW 06 : ... .. . ... ... ... : ... .. . ... ... : ... .. . ... ... : F-# 0A 1 ... : ... .. . ...
ROW 07 : ... .. . ... ... ... : ... .. . ... ... : ... .. . ... ... : ... .. . ... : ... .. . ...
ROW 08 : D#4 0F . ... ... ... : G#2 0F . ... ... : ... .. . ... ... : F-# 0D 4 ... : ... .. . ...
ROW 09 : ... .. . ... ... ... : ... .. . ... ... : ... .. . ... ... : ... .. . ... : ... .. . ...
ROW 0A : ... .. . ... ... ... : ... .. . ... ... : ... .. . ... ... : ... .. . ... : ... .. . ...
ROW 0B : ... .. . ... ... ... : ... .. . ... ... : ... .. . ... ... : ... .. . ... : ... .. . ...
ROW 0C : D-4 0F . ... ... ... : G-2 0F . ... ... : ... .. . ... ... : ... .. . ... : ... .. . ...
ROW 0D : D#4 0F . ... ... ... : G#2 0F . ... ... : ... .. . ... ... : ... .. . ... : ... .. . ...
ROW 0E : D-4 0F . ... ... ... : G-2 0F . ... ... : ... .. . ... ... : ... .. . ... : ... .. . ...
ROW 0F : ... .. . ... ... ... : ... .. . ... ... : ... .. . ... ... : ... .. . ... : ... .. . ...
ROW 10 : C-4 0F . ... ... ... : F-2 0F . ... ... : ... .. . ... ... : F-# 0A . ... : ... .. . ...
ROW 11 : ... .. . ... ... ... : ... .. . ... ... : ... .. . ... ... : ... .. . ... : ... .. . ...
ROW 12 : ... .. . ... ... ... : ... .. . ... ... : ... .. . ... ... : ... .. . ... : ... .. . ...
ROW 13 : ... .. . ... ... ... : ... .. . ... ... : ... .. . ... ... : ... .. . ... : ... .. . ...
ROW 14 : G#3 0F . ... ... ... : C-2 0F . ... ... : ... .. . ... ... : ... .. . ... : ... .. . ...
ROW 15 : ... .. . ... ... ... : ... .. . ... ... : ... .. . ... ... : ... .. . ... : ... .. . ...
ROW 16 : ... .. . ... ... ... : ... .. . ... ... : ... .. . ... ... : ... .. . ... : ... .. . ...
ROW 17 : ... .. . ... ... ... : ... .. . ... ... : ... .. . ... ... : ... .. . ... : ... .. . ...
ROW 18 : D-4 0F . ... ... ... : G-2 0F . ... ... : C-4 0B . 260 ... : F-# 0A 4 ... : ... .. . ...
ROW 19 : ... .. . ... ... ... : ... .. . ... ... : F-2 0B . 200 ... : ... .. . ... : ... .. . ...
ROW 1A : ... .. . ... ... ... : ... .. . ... ... : ... .. . ... ... : F-# 0A 1 ... : ... .. . ...
ROW 1B : ... .. . ... ... ... : ... .. . ... ... : ... .. . ... ... : ... .. . ... : ... .. . ...
ROW 1C : ... .. . ... ... ... : ... .. . ... ... : ... .. . ... ... : F-# 0A 4 ... : ... .. . ...
ROW 1D : ... .. . ... ... ... : ... .. . ... ... : ... .. . ... ... : ... .. . ... : ... .. . ...
ROW 1E : ... .. . ... ... ... : ... .. . ... ... : ... .. . ... ... : F-# 0A 1 ... : ... .. . ...
ROW 1F : ... .. . ... ... ... : ... .. . ... ... : ... .. . ... ... : ... .. . ... : ... .. . ...
ROW 20 : D-4 0F 2 ... ... ... : G-2 0F 2 ... ... : ... .. . ... ... : F-# 0D 4 ... : ... .. . ...
ROW 21 : ... .. . ... ... ... : ... .. . ... ... : ... .. . ... ... : ... .. . ... : ... .. . ...
ROW 22 : ... .. . ... ... ... : ... .. . ... ... : ... .. . ... ... : ... .. . ... : ... .. . ...
ROW 23 : ... .. . ... ... ... : ... .. . ... ... : ... .. . ... ... : ... .. . ... : ... .. . ...
ROW 24 : ... .. . ... ... ... : ... .. . ... ... : ... .. . ... ... : ... .. . ... : ... .. . ...
ROW 25 : ... .. . ... ... ... : ... .. . ... ... : ... .. . ... ... : ... .. . ... : ... .. . ...
ROW 26 : ... .. . ... ... ... : ... .. . ... ... : ... .. . ... ... : ... .. . ... : ... .. . ...
ROW 27 : --- .. . ... ... ... : --- .. . ... ... : ... .. . ... ... : ... .. . ... : ... .. . ...
ROW 28 : D-4 0F 1 ... ... ... : G-2 0F 1 ... ... : ... .. . ... ... : F-# 0A . ... : ... .. . ...
ROW 29 : ... .. . ... ... ... : ... .. . ... ... : ... .. . ... ... : ... .. . ... : ... .. . ...
ROW 2A : ... .. . ... ... ... : ... .. . ... ... : ... .. . ... ... : ... .. . ... : ... .. . ...
ROW 2B : ... .. . ... ... ... : ... .. . ... ... : --- .. . ... ... : ... .. . ... : ... .. . ...
ROW 2C : ... .. . ... ... ... : ... .. . ... ... : C-4 0B . 260 ... : F-# 0A . ... : ... .. . ...
ROW 2D : ... .. . ... ... ... : ... .. . ... ... : C-2 0B . 200 ... : ... .. . ... : ... .. . ...
ROW 2E : ... .. . ... ... ... : ... .. . ... ... : ... .. . ... ... : F-# 0A . ... : ... .. . ...
ROW 2F : --- .. . ... ... ... : --- .. . ... ... : --- .. . ... ... : ... .. . ... : ... .. . ...

PATTERN 0D
ROW 00 : ... .. . ... ... ... : F-1 0B . ... ... : C-4 0B . 260 ... : F-# 0A 4 ... : ... .. . ...
ROW 01 : ... .. . ... ... ... : ... .. . ... ... : F-2 0B . 200 ... : ... .. . ... : ... .. . ...
ROW 02 : ... .. . ... ... ... : ... .. . ... ... : ... .. . ... ... : F-# 0A 1 ... : ... .. . ...
ROW 03 : ... .. . ... ... ... : --- .. . ... ... : ... .. . ... ... : ... .. . ... : ... .. . ...
ROW 04 : G-2 13 2 ... ... ... : C-1 0B 8 ... ... : ... .. . ... ... : F-# 0A 4 ... : ... .. . ...
ROW 05 : ... .. . ... ... ... : ... .. . ... ... : ... .. . ... ... : ... .. . ... : ... .. . ...
ROW 06 : ... .. . ... ... ... : ... .. . ... ... : ... .. . ... ... : F-# 0A 1 ... : ... .. . ...
ROW 07 : ... .. . ... ... ... : --- .. . ... ... : ... .. . ... ... : ... .. . ... : ... .. . ...
ROW 08 : G#2 13 . ... ... ... : F-1 0B . ... ... : ... .. . ... ... : F-# 0D 4 ... : ... .. . ...
ROW 09 : ... .. . ... ... ... : ... .. . ... ... : ... .. . ... ... : ... .. . ... : ... .. . ...
ROW 0A : ... .. . ... ... ... : ... .. . ... ... : ... .. . ... ... : ... .. . ... : ... .. . ...
ROW 0B : ... .. . ... ... ... : --- .. . ... ... : ... .. . ... ... : ... .. . ... : ... .. . ...
ROW 0C : F-2 13 . ... ... ... : C-1 0B 1 ... ... : ... .. . ... ... : ... .. . ... : ... .. . ...
ROW 0D : ... .. . ... ... ... : ... .. . ... ... : ... .. . ... ... : ... .. . ... : ... .. . ...
ROW 0E : ... .. . ... ... ... : ... .. . ... ... : ... .. . ... ... : ... .. . ... : ... .. . ...
ROW 0F : ... .. . ... ... ... : --- .. . ... ... : ... .. . ... ... : ... .. . ... : ... .. . ...
ROW 10 : C-3 13 . ... ... ... : F-1 0B . ... ... : ... .. . ... ... : F-# 0A . ... : ... .. . ...
ROW 11 : ... .. . ... ... ... : ... .. . ... ... : ... .. . ... ... : ... .. . ... : ... .. . ...
ROW 12 : ... .. . ... ... ... : ... .. . ... ... : ... .. . ... ... : ... .. . ... : ... .. . ...
ROW 13 : ... .. . ... ... ... : ... .. . ... ... : ... .. . ... ... : ... .. . ... : ... .. . ...
ROW 14 : G#2 13 . ... ... ... : --- .. . ... ... : ... .. . ... ... : ... .. . ... : ... .. . ...
ROW 15 : B-2 13 . ... ... ... : ... .. . ... ... : ... .. . ... ... : ... .. . ... : ... .. . ...
ROW 16 : G#2 13 . ... ... ... : ... .. . ... ... : ... .. . ... ... : ... .. . ... : ... .. . ...
ROW 17 : ... .. . ... ... ... : --- .. . ... ... : --- .. . ... ... : ... .. . ... : ... .. . ...
ROW 18 : G-2 13 . ... ... ... : F-1 0B F ... ... : C-4 0B . 260 ... : F-# 0A 4 ... : ... .. . ...
ROW 19 : ... .. . ... ... ... : ... .. . ... ... : F-2 0B . 200 ... : ... .. . ... : ... .. . ...
ROW 1A : ... .. . ... ... ... : ... .. . ... ... : ... .. . ... ... : F-# 0A 1 ... : ... .. . ...
ROW 1B : ... .. . ... ... ... : ... .. . ... ... : ... .. . ... ... : ... .. . ... : ... .. . ...
ROW 1C : ... .. . ... ... ... : ... .. . ... ... : ... .. . ... ... : F-# 0A 4 ... : ... .. . ...
ROW 1D : ... .. . ... ... ... : ... .. . ... ... : ... .. . ... ... : ... .. . ... : ... .. . ...
ROW 1E : ... .. . ... ... ... : ... .. . ... ... : ... .. . ... ... : F-# 0A 1 ... : ... .. . ...
ROW 1F : --- .. . ... ... ... : ... .. . ... ... : ... .. . ... ... : ... .. . ... : ... .. . ...
ROW 20 : G-2 13 1 ... ... ... : C-1 0B F ... ... : ... .. . ... ... : F-# 0D 4 ... : ... .. . ...
ROW 21 : ... .. 2 ... ... ... : ... .. . ... ... : ... .. . ... ... : ... .. . ... : ... .. . ...
ROW 22 : ... .. . ... ... ... : ... .. . ... ... : ... .. . ... ... : ... .. . ... : ... .. . ...
ROW 23 : ... .. . ... ... ... : ... .. . ... ... : ... .. . ... ... : ... .. . ... : ... .. . ...
ROW 24 : --- .. . ... ... ... : ... .. . ... ... : C-4 0B . 260 ... : ... .. . ... : ... .. . ...
ROW 25 : ... .. . ... ... ... : ... .. . ... ... : C-2 0B . 200 ... : ... .. . ... : ... .. . ...
ROW 26 : ... .. . ... ... ... : ... .. . ... ... : ... .. . ... ... : ... .. . ... : ... .. . ...
ROW 27 : ... .. . ... ... ... : ... .. . ... ... : ... .. . ... ... : ... .. . ... : ... .. . ...
ROW 28 : ... .. . ... ... ... : C-1 0B F ... ... : ... .. . ... ... : F-# 0A . ... : ... .. . ...
ROW 29 : ... .. . ... ... ... : ... .. . ... ... : ... .. . ... ... : ... .. . ... : ... .. . ...
ROW 2A : ... .. . ... ... ... : ... .. . ... ... : ... .. . ... ... : ... .. . ... : ... .. . ...
ROW 2B : ... .. . ... ... ... : ... .. . ... ... : ... .. . ... ... : ... .. . ... : ... .. . ...
ROW 2C : ... .. . ... ... ... : ... .. . ... ... : C-4 0B . 260 ... : F-# 0A . ... : ... .. . ...
ROW 2D : ... .. . ... ... ... : ... .. . ... ... : C-2 0B . 200 ... : ... .. . ... : ... .. . ...
ROW 2E : ... .. . ... ... ... : ... .. . ... ... : ... .. . ... ... : F-# 0A . ... : ... .. . ...
ROW 2F : ... .. . ... ... ... : --- .. . ... ... : --- .. . ... ... : ... .. . ... : ... .. . ...

PATTERN 0E
ROW 00 : F-4 0F 8 ... ... ... : A#3 12 2 ... ... : C-4 0B . 260 ... : ... .. . ... : ... .. . ...
ROW 01 : ... .. . ... ... ... : ... .. . ... ... : F-2 00 . 200 ... : ... .. . ... : ... .. . ...
ROW 02 : ... .. . ... ... ... : ... .. . ... ... : ... .. . ... ... : ... .. . ... : ... .. . ...
ROW 03 : ... .. . ... ... ... : ... .. . ... ... : ... .. . ... ... : ... .. . ... : ... .. . ...
ROW 04 : ... .. . ... ... ... : G#3 12 . ... ... : ... .. . ... ... : ... .. . ... : ... .. . ...
ROW 05 : ... .. . ... ... ... : ... .. . ... ... : ... .. . ... ... : ... .. . ... : ... .. . ...
ROW 06 : ... .. . ... ... ... : ... .. . ... ... : ... .. . ... ... : ... .. . ... : ... .. . ...
ROW 07 : ... .. . ... ... ... : ... .. . ... ... : ... .. . ... ... : ... .. . ... : ... .. . ...
ROW 08 : F-4 0F 3 ... ... ... : F-3 12 . ... ... : ... .. . ... ... : ... .. . ... : ... .. . ...
ROW 09 : ... .. . ... ... ... : ... .. . ... ... : ... .. . ... ... : ... .. . ... : ... .. . ...
ROW 0A : ... .. . ... ... ... : ... .. . ... ... : ... .. . ... ... : ... .. . ... : ... .. . ...
ROW 0B : ... .. . ... ... ... : ... .. . ... ... : ... .. . ... ... : ... .. . ... : ... .. . ...
ROW 0C : ... .. . ... ... ... : C#3 12 . ... ... : ... .. . ... ... : ... .. . ... : ... .. . ...
ROW 0D : ... .. . ... ... ... : ... .. . ... ... : ... .. . ... ... : ... .. . ... : ... .. . ...
ROW 0E : ... .. . ... ... ... : ... .. . ... ... : ... .. . ... ... : ... .. . ... : ... .. . ...
ROW 0F : ... .. . ... ... ... : ... .. . ... ... : ... .. . ... ... : ... .. . ... : ... .. . ...
ROW 10 : F-4 0F 1 ... ... ... : A#2 12 . ... ... : --- .. . ... ... : ... .. . ... : ... .. . ...
ROW 11 : ... .. . ... ... ... : ... .. . ... ... : ... .. . ... ... : ... .. . ... : ... .. . ...
ROW 12 : ... .. . ... ... ... : ... .. . ... ... : ... .. . ... ... : ... .. . ... : ... .. . ...
ROW 13 : ... .. . ... ... ... : ... .. . ... ... : --- .. . ... ... : ... .. . ... : ... .. . ...
ROW 14 : ... .. . ... ... ... : C#3 12 . ... ... : C-4 0B . 260 ... : ... .. . ... : ... .. . ...
ROW 15 : ... .. . ... ... ... : ... .. . ... ... : C-2 0B . 200 ... : ... .. . ... : ... .. . ...
ROW 16 : ... .. . ... ... ... : ... .. . ... ... : ... .. . ... ... : ... .. . ... : ... .. . ...
ROW 17 : ... .. . ... ... ... : ... .. . ... ... : --- .. . ... ... : ... .. . ... : ... .. . ...
ROW 18 : --- .. . ... ... ... : D#3 12 . ... ... : C-4 0B . 260 ... : ... .. . ... : ... .. . ...
ROW 19 : ... .. . ... ... ... : ... .. . ... ... : F-2 00 . 200 ... : ... .. . ... : ... .. . ...
ROW 1A : ... .. . ... ... ... : ... .. . ... ... : ... .. . ... ... : ... .. . ... : ... .. . ...
ROW 1B : ... .. . ... ... ... : ... .. . ... ... : ... .. . ... ... : ... .. . ... : ... .. . ...
ROW 1C : ... .. . ... ... ... : A#2 12 . ... ... : ... .. . ... ... : ... .. . ... : ... .. . ...
ROW 1D : ... .. . ... ... ... : ... .. . ... ... : ... .. . ... ... : ... .. . ... : ... .. . ...
ROW 1E : ... .. . ... ... ... : ... .. . ... ... : ... .. . ... ... : ... .. . ... : ... .. . ...
ROW 1F : ... .. . ... ... ... : ... .. . ... ... : ... .. . ... ... : ... .. . ... : ... .. . ...
ROW 20 : D#4 0F 8 ... ... ... : C#3 12 . ... ... : ... .. . ... ... : ... .. . ... : ... .. . ...
ROW 21 : ... .. . ... ... ... : ... .. . ... ... : ... .. . ... ... : ... .. . ... : ... .. . ...
ROW 22 : ... .. . ... ... ... : ... .. . ... ... : ... .. . ... ... : ... .. . ... : ... .. . ...
ROW 23 : ... .. . ... ... ... : ... .. . ... ... : ... .. . ... ... : ... .. . ... : ... .. . ...
ROW 24 : ... .. . ... ... ... : D#3 12 . ... ... : C-4 0B . 260 ... : ... .. . ... : ... .. . ...
ROW 25 : ... .. . ... ... ... : ... .. . ... ... : C-2 0B . 200 ... : ... .. . ... : ... .. . ...
ROW 26 : ... .. . ... ... ... : ... .. . ... ... : ... .. . ... ... : ... .. . ... : ... .. . ...
ROW 27 : ... .. . ... ... ... : ... .. . ... ... : ... .. . ... ... : ... .. . ... : ... .. . ...
ROW 28 : D#4 0F 3 ... ... ... : F#3 12 . ... ... : ... .. . ... ... : ... .. . ... : ... .. . ...
ROW 29 : ... .. . ... ... ... : ... .. . ... ... : ... .. . ... ... : ... .. . ... : ... .. . ...
ROW 2A : ... .. . ... ... ... : ... .. . ... ... : ... .. . ... ... : ... .. . ... : ... .. . ...
ROW 2B : ... .. . ... ... ... : ... .. . ... ... : ... .. . ... ... : ... .. . ... : ... .. . ...
ROW 2C : C#4 0F 8 ... ... ... : G#3 12 . ... ... : C-4 0B . 260 ... : ... .. . ... : ... .. . ...
ROW 2D : ... .. . ... ... ... : ... .. . ... ... : C-2 0B . 200 ... : ... .. . ... : ... .. . ...
ROW 2E : ... .. . ... ... ... : ... .. . ... ... : ... .. . ... ... : ... .. . ... : ... .. . ...
ROW 2F : ... .. . ... ... ... : ... .. . ... ... : --- .. . ... ... : ... .. . ... : ... .. . ...

PATTERN 0F
ROW 00 : C-4 0F 8 ... ... ... : A-3 12 2 ... ... : C-4 0B . 260 ... : F-# 0A 4 ... : ... .. . ...
ROW 01 : ... .. . ... ... ... : ... .. . ... ... : F#2 07 . 200 ... : ... .. . ... : ... .. . ...
ROW 02 : ... .. . ... ... ... : ... .. . ... ... : ... .. . ... ... : F-# 0A 1 ... : ... .. . ...
ROW 03 : ... .. . ... ... ... : ... .. . ... ... : ... .. . ... ... : ... .. . ... : ... .. . ...
ROW 04 : D#4 0F . ... ... ... : F#3 12 . ... ... : ... .. . ... ... : F-# 0A 4 ... : ... .. . ...
ROW 05 : ... .. . ... ... ... : ... .. . ... ... : ... .. . ... ... : ... .. . ... : ... .. . ...
ROW 06 : ... .. . ... ... ... : ... .. . ... ... : ... .. . ... ... : F-# 0A 1 ... : ... .. . ...
ROW 07 : ... .. . ... ... ... : ... .. . ... ... : ... .. . ... ... : ... .. . ... : ... .. . ...
ROW 08 : C-4 0F . ... ... ... : F-3 12 . ... ... : F#3 07 . 345 ... : F-# 0D 4 ... : ... .. . ...
ROW 09 : D#4 0F . ... ... ... : ... .. . ... ... : ... .. . ... ... : ... .. . ... : ... .. . ...
ROW 0A : C-4 0F . ... ... ... : ... .. . ... ... : ... .. . ... ... : ... .. . ... : ... .. . ...
ROW 0B : ... .. . ... ... ... : ... .. . ... ... : ... .. . ... ... : ... .. . ... : ... .. . ...
ROW 0C : ... .. . ... ... ... : C-3 12 . ... ... : --- .. . ... ... : ... .. . ... : ... .. . ...
ROW 0D : ... .. . ... ... ... : ... .. . ... ... : ... .. . ... ... : ... .. . ... : ... .. . ...
ROW 0E : ... .. . ... ... ... : ... .. . ... ... : ... .. . ... ... : ... .. . ... : ... .. . ...
ROW 0F : ... .. . ... ... ... : ... .. . ... ... : ... .. . ... ... : ... .. . ... : ... .. . ...
ROW 10 : C-4 0F 4 ... ... ... : A#2 12 . ... ... : ... .. . ... ... : F-# 0A . ... : ... .. . ...
ROW 11 : D#4 0F . ... ... ... : ... .. . ... ... : ... .. . ... ... : ... .. . ... : ... .. . ...
ROW 12 : C-4 0F . ... ... ... : ... .. . ... ... : ... .. . ... ... : ... .. . ... : ... .. . ...
ROW 13 : ... .. . ... ... ... : ... .. . ... ... : --- .. . ... ... : ... .. . ... : ... .. . ...
ROW 14 : ... .. . ... ... ... : C-3 12 . ... ... : C-4 0B . 260 ... : ... .. . ... : ... .. . ...
ROW 15 : ... .. . ... ... ... : ... .. . ... ... : C#2 0B . 200 ... : ... .. . ... : ... .. . ...
ROW 16 : ... .. . ... ... ... : A#2 12 . ... ... : ... .. . ... ... : ... .. . ... : ... .. . ...
ROW 17 : ... .. . ... ... ... : ... .. . ... ... : --- .. . ... ... : ... .. . ... : ... .. . ...
ROW 18 : C-4 0F 1 ... ... ... : A-2 12 . ... ... : C-4 0B . 260 ... : F-# 0A 4 ... : ... .. . ...
ROW 19 : D#4 0F . ... ... ... : ... .. . ... ... : F#2 07 . 200 ... : ... .. . ... : ... .. . ...
ROW 1A : C-4 0F . ... ... ... : ... .. . ... ... : ... .. . ... ... : F-# 0A 1 ... : ... .. . ...
ROW 1B : ... .. . ... ... ... : ... .. . ... ... : ... .. . ... ... : ... .. . ... : ... .. . ...
ROW 1C : ... .. . ... ... ... : A#2 12 . ... ... : ... .. . ... ... : F-# 0A 4 ... : ... .. . ...
ROW 1D : ... .. . ... ... ... : ... .. . ... ... : ... .. . ... ... : ... .. . ... : ... .. . ...
ROW 1E : ... .. . ... ... ... : ... .. . ... ... : ... .. . ... ... : F-# 0A 1 ... : ... .. . ...
ROW 1F : ... .. . ... ... ... : ... .. . ... ... : ... .. . ... ... : ... .. . ... : ... .. . ...
ROW 20 : ... .. . ... ... ... : C-3 12 . ... ... : ... .. . ... ... : F-# 0D 4 ... : ... .. . ...
ROW 21 : ... .. . ... ... ... : ... .. . ... ... : ... .. . ... ... : ... .. . ... : ... .. . ...
ROW 22 : ... .. . ... ... ... : ... .. . ... ... : ... .. . ... ... : ... .. . ... : ... .. . ...
ROW 23 : ... .. . ... ... ... : ... .. . ... ... : ... .. . ... ... : ... .. . ... : ... .. . ...
ROW 24 : A-3 0F 8 ... ... ... : D#3 12 . ... ... : C-4 0B . 260 ... : ... .. . ... : ... .. . ...
ROW 25 : ... .. . ... ... ... : ... .. . ... ... : F#2 07 . 200 ... : ... .. . ... : ... .. . ...
ROW 26 : ... .. . ... ... ... : ... .. . ... ... : ... .. . ... ... : ... .. . ... : ... .. . ...
ROW 27 : ... .. . ... ... ... : ... .. . ... ... : ... .. . ... ... : ... .. . ... : ... .. . ...
ROW 28 : ... .. . ... ... ... : F-3 12 . ... ... : ... .. . ... ... : F-# 0A . ... : ... .. . ...
ROW 29 : ... .. . ... ... ... : ... .. . ... ... : ... .. . ... ... : ... .. . ... : ... .. . ...
ROW 2A : ... .. . ... ... ... : ... .. . ... ... : ... .. . ... ... : ... .. . ... : ... .. . ...
ROW 2B : ... .. . ... ... ... : ... .. . ... ... : ... .. . ... ... : ... .. . ... : ... .. . ...
ROW 2C : A-3 0F 4 ... ... ... : F#3 12 . ... ... : ... .. . ... ... : F-# 0A . ... : ... .. . ...
ROW 2D : ... .. . ... ... ... : ... .. . ... ... : ... .. . ... ... : ... .. . ... : ... .. . ...
ROW 2E : ... .. . ... ... ... : ... .. . ... ... : ... .. . ... ... : F-# 0A . ... : ... .. . ...
ROW 2F : ... .. . ... ... ... : --- .. . ... ... : ... .. . ... ... : ... .. . ... : ... .. . ...

PATTERN 10
ROW 00 : A#3 0F 8 ... ... ... : F#3 12 2 ... ... : C-4 0B . 260 ... : F-# 0A 4 ... : ... .. . ...
ROW 01 : ... .. . ... ... ... : ... .. . ... ... : F-2 00 . 200 ... : ... .. . ... : ... .. . ...
ROW 02 : ... .. . ... ... ... : ... .. . ... ... : ... .. . ... ... : F-# 0A 1 ... : ... .. . ...
ROW 03 : ... .. . ... ... ... : ... .. . ... ... : ... .. . ... ... : ... .. . ... : ... .. . ...
ROW 04 : ... .. . ... ... ... : F-3 12 . ... ... : ... .. . ... ... : F-# 0A 4 ... : ... .. . ...
ROW 05 : ... .. . ... ... ... : ... .. . ... ... : ... .. . ... ... : ... .. . ... : ... .. . ...
ROW 06 : ... .. . ... ... ... : ... .. . ... ... : ... .. . ... ... : F-# 0A 1 ... : ... .. . ...
ROW 07 : ... .. . ... ... ... : ... .. . ... ... : ... .. . ... ... : ... .. . ... : ... .. . ...
ROW 08 : A#3 0F 4 ... ... ... : D#3 12 . ... ... : ... .. . ... ... : F-# 0D 4 ... : ... .. . ...
ROW 09 : ... .. . ... ... ... : ... .. . ... ... : ... .. . ... ... : ... .. . ... : ... .. . ...
ROW 0A : ... .. . ... ... ... : ... .. . ... ... : ... .. . ... ... : ... .. . ... : ... .. . ...
ROW 0B : ... .. . ... ... ... : ... .. . ... ... : ... .. . ... ... : ... .. . ... : ... .. . ...
ROW 0C : A-3 0F 8 ... ... ... : A#2 12 . ... ... : ... .. . ... ... : ... .. . ... : ... .. . ...
ROW 0D : ... .. . ... ... ... : ... .. . ... ... : ... .. . ... ... : ... .. . ... : ... .. . ...
ROW 0E : ... .. . ... ... ... : ... .. . ... ... : ... .. . ... ... : ... .. . ... : ... .. . ...
ROW 0F : ... .. . ... ... ... : ... .. . ... ... : ... .. . ... ... : ... .. . ... : ... .. . ...
ROW 10 : A#3 0F . ... ... ... : D#3 12 . ... ... : --- .. . ... ... : F-# 0A . ... : ... .. . ...
ROW 11 : ... .. . ... ... ... : ... .. . ... ... : ... .. . ... ... : ... .. . ... : ... .. . ...
ROW 12 : ... .. . ... ... ... : ... .. . ... ... : ... .. . ... ... : ... .. . ... : ... .. . ...
ROW 13 : ... .. . ... ... ... : ... .. . ... ... : --- .. . ... ... : ... .. . ... : ... .. . ...
ROW 14 : C-4 0F . ... ... ... : F-3 12 . ... ... : C-4 0B . 260 ... : ... .. . ... : ... .. . ...
ROW 15 : ... .. . ... ... ... : ... .. . ... ... : C-2 0B . 200 ... : ... .. . ... : ... .. . ...
ROW 16 : ... .. . ... ... ... : ... .. . ... ... : ... .. . ... ... : ... .. . ... : ... .. . ...
ROW 17 : ... .. . ... ... ... : ... .. . ... ... : --- .. . ... ... : ... .. . ... : ... .. . ...
ROW 18 : D#4 0F . ... ... ... : F#3 12 . ... ... : C-4 0B . 260 ... : F-# 0A 4 ... : ... .. . ...
ROW 19 : ... .. . ... ... ... : ... .. . ... ... : F-2 00 . 200 ... : ... .. . ... : ... .. . ...
ROW 1A : ... .. . ... ... ... : ... .. . ... ... : ... .. . ... ... : F-# 0A 1 ... : ... .. . ...
ROW 1B : ... .. . ... ... ... : ... .. . ... ... : ... .. . ... ... : ... .. . ... : ... .. . ...
ROW 1C : ... .. . ... ... ... : F-3 12 . ... ... : ... .. . ... ... : F-# 0A 4 ... : ... .. . ...
ROW 1D : ... .. . ... ... ... : ... .. . ... ... : ... .. . ... ... : ... .. . ... : ... .. . ...
ROW 1E : ... .. . ... ... ... : ... .. . ... ... : ... .. . ... ... : F-# 0A 1 ... : ... .. . ...
ROW 1F : ... .. . ... ... ... : ... .. . ... ... : ... .. . ... ... : ... .. . ... : ... .. . ...
ROW 20 : C#4 0F . ... ... ... : A#3 12 . ... ... : ... .. . ... ... : F-# 0D 4 ... : ... .. . ...
ROW 21 : ... .. . ... ... ... : ... .. . ... ... : ... .. . ... ... : ... .. . ... : ... .. . ...
ROW 22 : ... .. . ... ... ... : ... .. . ... ... : ... .. . ... ... : ... .. . ... : ... .. . ...
ROW 23 : ... .. . ... ... ... : ... .. . ... ... : ... .. . ... ... : ... .. . ... : ... .. . ...
ROW 24 : ... .. . ... ... ... : F#3 12 . ... ... : C-4 0B . 260 ... : ... .. . ... : ... .. . ...
ROW 25 : ... .. . ... ... ... : ... .. . ... ... : C-2 0B . 200 ... : ... .. . ... : ... .. . ...
ROW 26 : ... .. . ... ... ... : ... .. . ... ... : ... .. . ... ... : ... .. . ... : ... .. . ...
ROW 27 : ... .. . ... ... ... : ... .. . ... ... : ... .. . ... ... : ... .. . ... : ... .. . ...
ROW 28 : A#3 0F . ... ... ... : F-3 12 . ... ... : ... .. . ... ... : F-# 0A . ... : ... .. . ...
ROW 29 : ... .. . ... ... ... : ... .. . ... ... : ... .. . ... ... : ... .. . ... : ... .. . ...
ROW 2A : ... .. . ... ... ... : ... .. . ... ... : ... .. . ... ... : ... .. . ... : ... .. . ...
ROW 2B : ... .. . ... ... ... : ... .. . ... ... : ... .. . ... ... : ... .. . ... : ... .. . ...
ROW 2C : ... .. . ... ... ... : D#3 12 . ... ... : C-4 0B . 260 ... : F-# 0A . ... : ... .. . ...
ROW 2D : ... .. . ... ... ... : ... .. . ... ... : C-2 0B . 200 ... : ... .. . ... : ... .. . ...
ROW 2E : ... .. . ... ... ... : ... .. . ... ... : ... .. . ... ... : F-# 0A . ... : ... .. . ...
ROW 2F : ... .. . ... ... ... : ... .. . ... ... : --- .. . ... ... : ... .. . ... : ... .. . ...

PATTERN 11
ROW 00 : ... .. . ... ... ... : C-4 12 2 ... ... : C-4 0B . 260 ... : ... .. . ... : ... .. . ...
ROW 01 : ... .. . ... ... ... : ... .. . ... ... : A#1 01 . 200 ... : ... .. . ... : ... .. . ...
ROW 02 : ... .. . ... ... ... : ... .. . ... ... : ... .. . ... ... : ... .. . ... : ... .. . ...
ROW 03 : ... .. . ... ... ... : ... .. . ... ... : ... .. . ... ... : ... .. . ... : ... .. . ...
ROW 04 : ... .. . ... ... ... : A#3 12 . ... ... : ... .. . ... ... : ... .. . ... : ... .. . ...
ROW 05 : ... .. . ... ... ... : ... .. . ... ... : ... .. . ... ... : ... .. . ... : ... .. . ...
ROW 06 : ... .. . ... ... ... : C-4 12 . ... ... : ... .. . ... ... : ... .. . ... : ... .. . ...
ROW 07 : ... .. . ... ... ... : A#3 12 . ... ... : ... .. . ... ... : ... .. . ... : ... .. . ...
ROW 08 : ... .. . ... ... ... : F#3 12 . ... ... : A#2 01 . 370 ... : ... .. . ... : ... .. . ...
ROW 09 : ... .. . ... ... ... : ... .. . ... ... : ... .. . ... ... : ... .. . ... : ... .. . ...
ROW 0A : ... .. . ... ... ... : ... .. . ... ... : ... .. . ... ... : ... .. . ... : ... .. . ...
ROW 0B : ... .. . ... ... ... : ... .. . ... ... : --- .. . ... ... : ... .. . ... : ... .. . ...
ROW 0C : ... .. . ... ... ... : F-3 12 . ... ... : A#4 17 . ... ... : ... .. . ... : ... .. . ...
ROW 0D : ... .. . ... ... ... : ... .. . ... ... : ... .. . ... ... : ... .. . ... : ... .. . ...
ROW 0E : ... .. . ... ... ... : ... .. . ... ... : ... .. . ... ... : ... .. . ... : ... .. . ...
ROW 0F : ... .. . ... ... ... : ... .. . ... ... : ... .. . ... ... : ... .. . ... : ... .. . ...
ROW 10 : ... .. . ... ... ... : D#3 12 . ... ... : C#5 17 . ... ... : ... .. . ... : ... .. . ...
ROW 11 : ... .. . ... ... ... : ... .. . ... ... : ... .. . ... ... : ... .. . ... : ... .. . ...
ROW 12 : ... .. . ... ... ... : ... .. . ... ... : ... .. . ... ... : ... .. . ... : ... .. . ...
ROW 13 : ... .. . ... ... ... : ... .. . ... ... : ... .. . ... ... : ... .. . ... : ... .. . ...
ROW 14 : ... .. . ... ... ... : A#2 12 . ... ... : F-5 17 . ... ... : ... .. . ... : ... .. . ...
ROW 15 : ... .. . ... ... ... : ... .. . ... ... : ... .. . ... ... : ... .. . ... : ... .. . ...
ROW 16 : ... .. . ... ... ... : ... .. . ... ... : ... .. . ... ... : ... .. . ... : ... .. . ...
ROW 17 : ... .. . ... ... ... : ... .. . ... ... : --- .. . ... ... : ... .. . ... : ... .. . ...
ROW 18 : ... .. . ... ... ... : D#3 0C . ... ... : C-4 0B . 260 ... : ... .. . ... : ... .. . ...
ROW 19 : ... .. . ... ... ... : ... .. . ... ... : C#2 01 . 200 ... : ... .. . ... : ... .. . ...
ROW 1A : D#3 0C 2 ... ... ... : ... .. . ... ... : ... .. . ... ... : ... .. . ... : ... .. . ...
ROW 1B : ... .. . ... ... ... : --- .. . ... ... : ... .. . ... ... : ... .. . ... : ... .. . ...
ROW 1C : ... .. . ... ... ... : F-3 0C . ... ... : ... .. . ... ... : ... .. . ... : ... .. . ...
ROW 1D : --- .. . ... ... ... : ... .. . ... ... : ... .. . ... ... : ... .. . ... : ... .. . ...
ROW 1E : F-3 0C . ... ... ... : ... .. . ... ... : ... .. . ... ... : ... .. . ... : ... .. . ...
ROW 1F : ... .. . ... ... ... : --- .. . ... ... : ... .. . ... ... : ... .. . ... : ... .. . ...
ROW 20 : ... .. . ... ... ... : G#3 0C . ... ... : A#2 01 . 370 ... : ... .. . ... : ... .. . ...
ROW 21 : --- .. . ... ... ... : ... .. . ... ... : ... .. . ... ... : ... .. . ... : ... .. . ...
ROW 22 : G#3 0C . ... ... ... : ... .. . ... ... : ... .. . ... ... : ... .. . ... : ... .. . ...
ROW 23 : ... .. . ... ... ... : --- .. . ... ... : --- .. . ... ... : ... .. . ... : ... .. . ...
ROW 24 : ... .. . ... ... ... : A#3 0C 4 ... ... : F-4 17 . ... ... : ... .. . ... : ... .. . ...
ROW 25 : --- .. . ... ... ... : ... .. . ... ... : ... .. . ... ... : ... .. . ... : ... .. . ...
ROW 26 : A#3 0C 2 ... ... ... : ... .. . ... ... : ... .. . ... ... : ... .. . ... : ... .. . ...
ROW 27 : ... .. . ... ... ... : --- .. . ... ... : ... .. . ... ... : ... .. . ... : ... .. . ...
ROW 28 : ... .. . ... ... ... : B-3 0C . ... ... : A#4 17 . ... ... : ... .. . ... : ... .. . ...
ROW 29 : --- .. . ... ... ... : ... .. . ... ... : ... .. . ... ... : ... .. . ... : ... .. . ...
ROW 2A : B-3 0C . ... ... ... : ... .. . ... ... : ... .. . ... ... : ... .. . ... : ... .. . ...
ROW 2B : ... .. . ... ... ... : --- .. . ... ... : ... .. . ... ... : ... .. . ... : ... .. . ...
ROW 2C : ... .. . ... ... ... : F-4 0C . ... ... : C#5 17 . ... ... : ... .. . ... : ... .. . ...
ROW 2D : --- .. . ... ... ... : ... .. . ... ... : ... .. . ... ... : ... .. . ... : ... .. . ...
ROW 2E : F-4 0C . ... ... ... : ... .. . ... ... : ... .. . ... ... : ... .. . ... : ... .. . ...
ROW 2F : --- .. . ... ... ... : --- .. . ... ... : ... .. . ... ... : ... .. . ... : ... .. . ...

PATTERN 12
ROW 00 : ... .. . ... ... ... : ... .. . ... ... : C-4 0B . 260 ... : F-# 0A 4 ... : ... .. . ...
ROW 01 : ... .. . ... ... ... : ... .. . ... ... : D#2 00 . 200 ... : ... .. . ... : ... .. . ...
ROW 02 : ... .. . ... ... ... : ... .. . ... ... : ... .. . ... ... : F-# 0A 1 ... : ... .. . ...
ROW 03 : ... .. . ... ... ... : ... .. . ... ... : ... .. . ... ... : ... .. . ... : ... .. . ...
ROW 04 : ... .. . ... ... ... : ... .. . ... ... : ... .. . ... ... : F-# 0A 4 ... : ... .. . ...
ROW 05 : ... .. . ... ... ... : ... .. . ... ... : ... .. . ... ... : ... .. . ... : ... .. . ...
ROW 06 : ... .. . ... ... ... : ... .. . ... ... : ... .. . ... ... : F-# 0A 1 ... : ... .. . ...
ROW 07 : ... .. . ... ... ... : ... .. . ... ... : ... .. . ... ... : ... .. . ... : ... .. . ...
ROW 08 : ... .. . ... ... ... : ... .. . ... ... : ... .. . ... ... : F-# 0D 4 ... : ... .. . ...
ROW 09 : ... .. . ... ... ... : ... .. . ... ... : ... .. . ... ... : ... .. . ... : ... .. . ...
ROW 0A : ... .. . ... ... ... : ... .. . ... ... : ... .. . ... ... : ... .. . ... : ... .. . ...
ROW 0B : ... .. . ... ... ... : ... .. . ... ... : ... .. . ... ... : ... .. . ... : ... .. . ...
ROW 0C : ... .. . ... ... ... : ... .. . ... ... : ... .. . ... ... : ... .. . ... : ... .. . ...
ROW 0D : ... .. . ... ... ... : ... .. . ... ... : ... .. . ... ... : ... .. . ... : ... .. . ...
ROW 0E : ... .. . ... ... ... : ... .. . ... ... : ... .. . ... ... : ... .. . ... : ... .. . ...
ROW 0F : ... .. . ... ... ... : ... .. . ... ... : ... .. . ... ... : ... .. . ... : ... .. . ...
ROW 10 : ... .. . ... ... ... : ... .. . ... ... : ... .. . ... ... : F-# 0A . ... : ... .. . ...
ROW 11 : ... .. . ... ... ... : ... .. . ... ... : ... .. . ... ... : ... .. . ... : ... .. . ...
ROW 12 : ... .. . ... ... ... : ... .. . ... ... : ... .. . ... ... : ... .. . ... : ... .. . ...
ROW 13 : ... .. . ... ... ... : ... .. . ... ... : --- .. . ... ... : ... .. . ... : ... .. . ...
ROW 14 : ... .. . ... ... ... : ... .. . ... ... : C-4 0B . 260 ... : ... .. . ... : ... .. . ...
ROW 15 : ... .. . ... ... ... : ... .. . ... ... : A#2 0B . 200 ... : ... .. . ... : ... .. . ...
ROW 16 : ... .. . ... ... ... : ... .. . ... ... : ... .. . ... ... : ... .. . ... : ... .. . ...
ROW 17 : ... .. . ... ... ... : ... .. . ... ... : --- .. . ... ... : ... .. . ... : ... .. . ...
ROW 18 : ... .. . ... ... ... : ... .. . ... ... : C-4 0B . 260 ... : F-# 0A 4 ... : ... .. . ...
ROW 19 : ... .. . ... ... ... : ... .. . ... ... : D#3 00 . 200 ... : ... .. . ... : ... .. . ...
ROW 1A : ... .. . ... ... ... : ... .. . ... ... : ... .. . ... ... : F-# 0A 1 ... : ... .. . ...
ROW 1B : ... .. . ... ... ... : ... .. . ... ... : ... .. . ... ... : ... .. . ... : ... .. . ...
ROW 1C : ... .. . ... ... ... : ... .. . ... ... : ... .. . ... ... : F-# 0A 4 ... : ... .. . ...
ROW 1D : ... .. . ... ... ... : ... .. . ... ... : ... .. . ... ... : ... .. . ... : ... .. . ...
ROW 1E : ... .. . ... ... ... : ... .. . ... ... : ... .. . ... ... : F-# 0A 1 ... : ... .. . ...
ROW 1F : ... .. . ... ... ... : ... .. . ... ... : ... .. . ... ... : ... .. . ... : ... .. . ...
ROW 20 : ... .. . ... ... ... : ... .. . ... ... : ... .. . 205 ... : F-# 0D 4 ... : ... .. . ...
ROW 21 : ... .. . ... ... ... : ... .. . ... ... : ... .. . ... ... : ... .. . ... : ... .. . ...
ROW 22 : ... .. . ... ... ... : ... .. . ... ... : ... .. . ... ... : ... .. . ... : ... .. . ...
ROW 23 : ... .. . ... ... ... : ... .. . ... ... : ... .. . ... ... : ... .. . ... : ... .. . ...
ROW 24 : ... .. . ... ... ... : ... .. . ... ... : A#2 00 . 200 ... : ... .. . ... : ... .. . ...
ROW 25 : ... .. . ... ... ... : ... .. . ... ... : ... .. . ... ... : ... .. . ... : ... .. . ...
ROW 26 : ... .. . ... ... ... : ... .. . ... ... : ... .. . ... ... : ... .. . ... : ... .. . ...
ROW 27 : ... .. . ... ... ... : ... .. . ... ... : ... .. . ... ... : ... .. . ... : ... .. . ...
ROW 28 : ... .. . ... ... ... : ... .. . ... ... : ... .. . ... ... : F-# 0A . ... : ... .. . ...
ROW 29 : ... .. . ... ... ... : ... .. . ... ... : ... .. . ... ... : ... .. . ... : ... .. . ...
ROW 2A : ... .. . ... ... ... : ... .. . ... ... : ... .. . ... ... : ... .. . ... : ... .. . ...
ROW 2B : ... .. . ... ... ... : ... .. . ... ... : ... .. . ... ... : ... .. . ... : ... .. . ...
ROW 2C : ... .. . ... ... ... : ... .. . ... ... : C-4 0B . 260 ... : F-# 0A . ... : ... .. . ...
ROW 2D : ... .. . ... ... ... : ... .. . ... ... : A#1 0B . 200 ... : ... .. . ... : ... .. . ...
ROW 2E : ... .. . ... ... ... : ... .. . ... ... : ... .. . ... ... : F-# 0A . ... : ... .. . ...
ROW 2F : ... .. . ... ... ... : ... .. . ... ... : --- .. . ... ... : ... .. . ... : ... .. . ...

PATTERN 13
ROW 00 : ... .. . ... ... ... : ... .. . ... ... : C-4 0B . 260 ... : ... .. . ... : ... .. . ...
ROW 01 : ... .. . ... ... ... : ... .. . ... ... : A-1 01 . 200 ... : ... .. . ... : ... .. . ...
ROW 02 : ... .. . ... ... ... : ... .. . ... ... : ... .. . ... ... : ... .. . ... : ... .. . ...
ROW 03 : ... .. . ... ... ... : ... .. . ... ... : ... .. . ... ... : ... .. . ... : ... .. . ...
ROW 04 : ... .. . ... ... ... : ... .. . ... ... : ... .. . ... ... : ... .. . ... : ... .. . ...
ROW 05 : ... .. . ... ... ... : ... .. . ... ... : ... .. . ... ... : ... .. . ... : ... .. . ...
ROW 06 : ... .. . ... ... ... : ... .. . ... ... : ... .. . ... ... : ... .. . ... : ... .. . ...
ROW 07 : ... .. . ... ... ... : ... .. . ... ... : ... .. . ... ... : ... .. . ... : ... .. . ...
ROW 08 : ... .. . ... ... ... : ... .. . ... ... : F-2 01 . 370 ... : ... .. . ... : ... .. . ...
ROW 09 : ... .. . ... ... ... : ... .. . ... ... : ... .. . ... ... : ... .. . ... : ... .. . ...
ROW 0A : ... .. . ... ... ... : ... .. . ... ... : ... .. . ... ... : ... .. . ... : ... .. . ...
ROW 0B : ... .. . ... ... ... : ... .. . ... ... : --- .. . ... ... : ... .. . ... : ... .. . ...
ROW 0C : ... .. . ... ... ... : ... .. . ... ... : F-4 17 . ... ... : ... .. . ... : ... .. . ...
ROW 0D : ... .. . ... ... ... : ... .. . ... ... : ... .. . ... ... : ... .. . ... : ... .. . ...
ROW 0E : ... .. . ... ... ... : ... .. . ... ... : ... .. . ... ... : ... .. . ... : ... .. . ...
ROW 0F : ... .. . ... ... ... : ... .. . ... ... : ... .. . ... ... : ... .. . ... : ... .. . ...
ROW 10 : ... .. . ... ... ... : ... .. . ... ... : A-4 17 . ... ... : ... .. . ... : ... .. . ...
ROW 11 : ... .. . ... ... ... : ... .. . ... ... : ... .. . ... ... : ... .. . ... : ... .. . ...
ROW 12 : ... .. . ... ... ... : ... .. . ... ... : ... .. . ... ... : ... .. . ... : ... .. . ...
ROW 13 : ... .. . ... ... ... : ... .. . ... ... : ... .. . ... ... : ... .. . ... : ... .. . ...
ROW 14 : ... .. . ... ... ... : ... .. . ... ... : C-5 17 . ... ... : ... .. . ... : ... .. . ...
ROW 15 : ... .. . ... ... ... : ... .. . ... ... : ... .. . ... ... : ... .. . ... : ... .. . ...
ROW 16 : ... .. . ... ... ... : ... .. . ... ... : ... .. . ... ... : ... .. . ... : ... .. . ...
ROW 17 : ... .. . ... ... ... : ... .. . ... ... : ... .. . ... ... : ... .. . ... : ... .. . ...
ROW 18 : ... .. . ... ... ... : ... .. . ... ... : C-4 0B . 260 ... : ... .. . ... : ... .. . ...
ROW 19 : ... .. . ... ... ... : ... .. . ... ... : F-2 01 . 200 ... : ... .. . ... : ... .. . ...
ROW 1A : ... .. . ... ... ... : ... .. . ... ... : ... .. . ... ... : ... .. . ... : ... .. . ...
ROW 1B : ... .. . ... ... ... : ... .. . ... ... : ... .. . ... ... : ... .. . ... : ... .. . ...
ROW 1C : ... .. . ... ... ... : ... .. . ... ... : ... .. . ... ... : ... .. . ... : ... .. . ...
ROW 1D : ... .. . ... ... ... : ... .. . ... ... : ... .. . ... ... : ... .. . ... : ... .. . ...
ROW 1E : ... .. . ... ... ... : ... .. . ... ... : ... .. . ... ... : ... .. . ... : ... .. . ...
ROW 1F : ... .. . ... ... ... : ... .. . ... ... : ... .. . ... ... : ... .. . ... : ... .. . ...
ROW 20 : ... .. . ... ... ... : ... .. . ... ... : ... .. . 203 ... : ... .. . ... : ... .. . ...
ROW 21 : ... .. . ... ... ... : ... .. . ... ... : ... .. . ... ... : ... .. . ... : ... .. . ...
ROW 22 : ... .. . ... ... ... : ... .. . ... ... : ... .. . ... ... : ... .. . ... : ... .. . ...
ROW 23 : ... .. . ... ... ... : ... .. . ... ... : ... .. . ... ... : ... .. . ... : ... .. . ...
ROW 24 : ... .. . ... ... ... : ... .. . ... ... : C-4 0B . 260 ... : ... .. . ... : ... .. . ...
ROW 25 : ... .. . ... ... ... : ... .. . ... ... : F-1 01 . 200 ... : ... .. . ... : ... .. . ...
ROW 26 : ... .. . ... ... ... : ... .. . ... ... : ... .. . ... ... : ... .. . ... : ... .. . ...
ROW 27 : ... .. . ... ... ... : ... .. . ... ... : ... .. . ... ... : ... .. . ... : ... .. . ...
ROW 28 : ... .. . ... ... ... : ... .. . ... ... : --- .. . ... ... : ... .. . ... : ... .. . ...
ROW 29 : ... .. . ... ... ... : ... .. . ... ... : ... .. . ... ... : ... .. . ... : ... .. . ...
ROW 2A : ... .. . ... ... ... : ... .. . ... ... : ... .. . ... ... : ... .. . ... : ... .. . ...
ROW 2B : ... .. . ... ... ... : ... .. . ... ... : ... .. . ... ... : ... .. . ... : ... .. . ...
ROW 2C : ... .. . ... ... ... : ... .. . ... ... : C-4 0B . 260 ... : ... .. . ... : ... .. . ...
ROW 2D : ... .. . ... ... ... : ... .. . ... ... : F-1 01 . 200 ... : ... .. . ... : ... .. . ...
ROW 2E : ... .. . ... ... ... : ... .. . ... ... : ... .. . ... ... : ... .. . ... : ... .. . ...
ROW 2F : ... .. . ... ... ... : ... .. . ... ... : ... .. . ... ... : ... .. . ... : ... .. . ...

PATTERN 14
ROW 00 : ... .. . ... ... ... : ... .. . ... ... : C-4 0B . 260 ... : ... .. . ... : ... .. . ...
ROW 01 : ... .. . ... ... ... : ... .. . ... ... : G#1 01 . 200 ... : ... .. . ... : ... .. . ...
ROW 02 : ... .. . ... ... ... : ... .. . ... ... : ... .. . ... ... : ... .. . ... : ... .. . ...
ROW 03 : ... .. . ... ... ... : ... .. . ... ... : ... .. . ... ... : ... .. . ... : ... .. . ...
ROW 04 : ... .. . ... ... ... : ... .. . ... ... : ... .. . ... ... : ... .. . ... : ... .. . ...
ROW 05 : ... .. . ... ... ... : ... .. . ... ... : ... .. . ... ... : ... .. . ... : ... .. . ...
ROW 06 : ... .. . ... ... ... : ... .. . ... ... : ... .. . ... ... : ... .. . ... : ... .. . ...
ROW 07 : ... .. . ... ... ... : ... .. . ... ... : ... .. . ... ... : ... .. . ... : ... .. . ...
ROW 08 : ... .. . ... ... ... : ... .. . ... ... : G#2 01 . 370 ... : ... .. . ... : ... .. . ...
ROW 09 : ... .. . ... ... ... : ... .. . ... ... : ... .. . ... ... : ... .. . ... : ... .. . ...
ROW 0A : ... .. . ... ... ... : ... .. . ... ... : ... .. . ... ... : ... .. . ... : ... .. . ...
ROW 0B : ... .. . ... ... ... : ... .. . ... ... : --- .. . ... ... : ... .. . ... : ... .. . ...
ROW 0C : ... .. . ... ... ... : ... .. . ... ... : G#4 17 . ... ... : ... .. . ... : ... .. . ...
ROW 0D : ... .. . ... ... ... : ... .. . ... ... : ... .. . ... ... : ... .. . ... : ... .. . ...
ROW 0E : ... .. . ... ... ... : ... .. . ... ... : ... .. . ... ... : ... .. . ... : ... .. . ...
ROW 0F : ... .. . ... ... ... : ... .. . ... ... : ... .. . ... ... : ... .. . ... : ... .. . ...
ROW 10 : ... .. . ... ... ... : ... .. . ... ... : B-4 17 . ... ... : ... .. . ... : ... .. . ...
ROW 11 : ... .. . ... ... ... : ... .. . ... ... : ... .. . ... ... : ... .. . ... : ... .. . ...
ROW 12 : ... .. . ... ... ... : ... .. . ... ... : ... .. . ... ... : ... .. . ... : ... .. . ...
ROW 13 : ... .. . ... ... ... : ... .. . ... ... : ... .. . ... ... : ... .. . ... : ... .. . ...
ROW 14 : ... .. . ... ... ... : ... .. . ... ... : D#5 17 . ... ... : ... .. . ... : ... .. . ...
ROW 15 : ... .. . ... ... ... : ... .. . ... ... : ... .. . ... ... : ... .. . ... : ... .. . ...
ROW 16 : ... .. . ... ... ... : ... .. . ... ... : ... .. . ... ... : ... .. . ... : ... .. . ...
ROW 17 : ... .. . ... ... ... : ... .. . ... ... : --- .. . ... ... : ... .. . ... : ... .. . ...
ROW 18 : ... .. . ... ... ... : ... .. . ... ... : C-4 0B . 260 ... : ... .. . ... : ... .. . ...
ROW 19 : ... .. . ... ... ... : ... .. . ... ... : B-1 01 . 200 ... : ... .. . ... : ... .. . ...
ROW 1A : ... .. . ... ... ... : ... .. . ... ... : ... .. . ... ... : ... .. . ... : ... .. . ...
ROW 1B : ... .. . ... ... ... : ... .. . ... ... : ... .. . ... ... : ... .. . ... : ... .. . ...
ROW 1C : ... .. . ... ... ... : ... .. . ... ... : ... .. . ... ... : ... .. . ... : ... .. . ...
ROW 1D : ... .. . ... ... ... : ... .. . ... ... : ... .. . ... ... : ... .. . ... : ... .. . ...
ROW 1E : ... .. . ... ... ... : ... .. . ... ... : ... .. . ... ... : ... .. . ... : ... .. . ...
ROW 1F : ... .. . ... ... ... : ... .. . ... ... : ... .. . ... ... : ... .. . ... : ... .. . ...
ROW 20 : ... .. . ... ... ... : ... .. . ... ... : G#2 01 . 370 ... : ... .. . ... : ... .. . ...
ROW 21 : ... .. . ... ... ... : ... .. . ... ... : ... .. . ... ... : ... .. . ... : ... .. . ...
ROW 22 : ... .. . ... ... ... : ... .. . ... ... : ... .. . ... ... : ... .. . ... : ... .. . ...
ROW 23 : ... .. . ... ... ... : ... .. . ... ... : --- .. . ... ... : ... .. . ... : ... .. . ...
ROW 24 : ... .. . ... ... ... : ... .. . ... ... : D#4 17 . ... ... : ... .. . ... : ... .. . ...
ROW 25 : ... .. . ... ... ... : ... .. . ... ... : ... .. . ... ... : ... .. . ... : ... .. . ...
ROW 26 : ... .. . ... ... ... : ... .. . ... ... : ... .. . ... ... : ... .. . ... : ... .. . ...
ROW 27 : ... .. . ... ... ... : ... .. . ... ... : ... .. . ... ... : ... .. . ... : ... .. . ...
ROW 28 : ... .. . ... ... ... : ... .. . ... ... : G#4 17 . ... ... : ... .. . ... : ... .. . ...
ROW 29 : ... .. . ... ... ... : ... .. . ... ... : ... .. . ... ... : ... .. . ... : ... .. . ...
ROW 2A : ... .. . ... ... ... : ... .. . ... ... : ... .. . ... ... : ... .. . ... : ... .. . ...
ROW 2B : ... .. . ... ... ... : ... .. . ... ... : ... .. . ... ... : ... .. . ... : ... .. . ...
ROW 2C : ... .. . ... ... ... : ... .. . ... ... : B-4 17 . ... ... : ... .. . ... : ... .. . ...
ROW 2D : ... .. . ... ... ... : ... .. . ... ... : ... .. . ... ... : ... .. . ... : ... .. . ...
ROW 2E : ... .. . ... ... ... : ... .. . ... ... : ... .. . ... ... : ... .. . ... : ... .. . ...
ROW 2F : ... .. . ... ... ... : ... .. . ... ... : ... .. . ... ... : ... .. . ... : ... .. . ...

PATTERN 15
ROW 00 : ... .. . ... ... ... : ... .. . ... ... : C-4 0B . 260 ... : ... .. . ... : ... .. . ...
ROW 01 : ... .. . ... ... ... : ... .. . ... ... : G-1 01 . 200 ... : ... .. . ... : ... .. . ...
ROW 02 : ... .. . ... ... ... : ... .. . ... ... : ... .. . ... ... : ... .. . ... : ... .. . ...
ROW 03 : ... .. . ... ... ... : ... .. . ... ... : ... .. . ... ... : ... .. . ... : ... .. . ...
ROW 04 : ... .. . ... ... ... : ... .. . ... ... : ... .. . ... ... : ... .. . ... : ... .. . ...
ROW 05 : ... .. . ... ... ... : ... .. . ... ... : ... .. . ... ... : ... .. . ... : ... .. . ...
ROW 06 : ... .. . ... ... ... : ... .. . ... ... : ... .. . ... ... : ... .. . ... : ... .. . ...
ROW 07 : ... .. . ... ... ... : ... .. . ... ... : ... .. . ... ... : ... .. . ... : ... .. . ...
ROW 08 : ... .. . ... ... ... : ... .. . ... ... : D#2 01 . 370 ... : ... .. . ... : ... .. . ...
ROW 09 : ... .. . ... ... ... : ... .. . ... ... : ... .. . ... ... : ... .. . ... : ... .. . ...
ROW 0A : ... .. . ... ... ... : ... .. . ... ... : ... .. . ... ... : ... .. . ... : ... .. . ...
ROW 0B : ... .. . ... ... ... : ... .. . ... ... : --- .. . ... ... : ... .. . ... : ... .. . ...
ROW 0C : ... .. . ... ... ... : ... .. . ... ... : D#4 17 . ... ... : ... .. . ... : ... .. . ...
ROW 0D : ... .. . ... ... ... : ... .. . ... ... : ... .. . ... ... : ... .. . ... : ... .. . ...
ROW 0E : ... .. . ... ... ... : ... .. . ... ... : ... .. . ... ... : ... .. . ... : ... .. . ...
ROW 0F : ... .. . ... ... ... : ... .. . ... ... : ... .. . ... ... : ... .. . ... : ... .. . ...
ROW 10 : ... .. . ... ... ... : ... .. . ... ... : G-4 17 . ... ... : ... .. . ... : ... .. . ...
ROW 11 : ... .. . ... ... ... : ... .. . ... ... : ... .. . ... ... : ... .. . ... : ... .. . ...
ROW 12 : ... .. . ... ... ... : ... .. . ... ... : ... .. . ... ... : ... .. . ... : ... .. . ...
ROW 13 : ... .. . ... ... ... : ... .. . ... ... : ... .. . ... ... : ... .. . ... : ... .. . ...
ROW 14 : ... .. . ... ... ... : ... .. . ... ... : A#4 17 . ... ... : ... .. . ... : ... .. . ...
ROW 15 : ... .. . ... ... ... : ... .. . ... ... : ... .. . ... ... : ... .. . ... : ... .. . ...
ROW 16 : ... .. . ... ... ... : ... .. . ... ... : ... .. . ... ... : ... .. . ... : ... .. . ...
ROW 17 : ... .. . ... ... ... : ... .. . ... ... : ... .. . ... ... : ... .. . ... : ... .. . ...
ROW 18 : ... .. . ... ... ... : ... .. . ... ... : C-4 0B . 260 ... : ... .. . ... : ... .. . ...
ROW 19 : ... .. . ... ... ... : ... .. . ... ... : D#2 01 . 200 ... : ... .. . ... : ... .. . ...
ROW 1A : ... .. . ... ... ... : ... .. . ... ... : ... .. . ... ... : ... .. . ... : ... .. . ...
ROW 1B : ... .. . ... ... ... : ... .. . ... ... : ... .. . ... ... : ... .. . ... : ... .. . ...
ROW 1C : ... .. . ... ... ... : ... .. . ... ... : ... .. . ... ... : ... .. . ... : ... .. . ...
ROW 1D : ... .. . ... ... ... : ... .. . ... ... : ... .. . ... ... : ... .. . ... : ... .. . ...
ROW 1E : ... .. . ... ... ... : ... .. . ... ... : ... .. . ... ... : ... .. . ... : ... .. . ...
ROW 1F : ... .. . ... ... ... : ... .. . ... ... : ... .. . ... ... : ... .. . ... : ... .. . ...
ROW 20 : ... .. . ... ... ... : ... .. . ... ... : ... .. . 203 ... : ... .. . ... : ... .. . ...
ROW 21 : ... .. . ... ... ... : ... .. . ... ... : ... .. . ... ... : ... .. . ... : ... .. . ...
ROW 22 : ... .. . ... ... ... : ... .. . ... ... : ... .. . ... ... : ... .. . ... : ... .. . ...
ROW 23 : ... .. . ... ... ... : ... .. . ... ... : ... .. . ... ... : ... .. . ... : ... .. . ...
ROW 24 : ... .. . ... ... ... : ... .. . ... ... : C-4 0B . 260 ... : ... .. . ... : ... .. . ...
ROW 25 : ... .. . ... ... ... : ... .. . ... ... : D#1 01 . 200 ... : ... .. . ... : ... .. . ...
ROW 26 : ... .. . ... ... ... : ... .. . ... ... : ... .. . ... ... : ... .. . ... : ... .. . ...
ROW 27 : ... .. . ... ... ... : ... .. . ... ... : ... .. . ... ... : ... .. . ... : ... .. . ...
ROW 28 : ... .. . ... ... ... : ... .. . ... ... : --- .. . ... ... : ... .. . ... : ... .. . ...
ROW 29 : ... .. . ... ... ... : ... .. . ... ... : ... .. . ... ... : ... .. . ... : ... .. . ...
ROW 2A : ... .. . ... ... ... : ... .. . ... ... : ... .. . ... ... : ... .. . ... : ... .. . ...
ROW 2B : ... .. . ... ... ... : ... .. . ... ... : ... .. . ... ... : ... .. . ... : ... .. . ...
ROW 2C : A#3 07 4 ... ... ... : ... .. . ... ... : C-4 0B . 260 ... : ... .. . ... : ... .. . ...
ROW 2D : ... .. . ... ... ... : A#3 07 2 ... ... : D#1 01 . 200 ... : ... .. . ... : ... .. . ...
ROW 2E : ... .. . ... ... ... : ... .. . ... ... : ... .. . ... ... : ... .. . ... : ... .. . ...
ROW 2F : ... .. . ... ... ... : ... .. . ... ... : ... .. . ... ... : ... .. . ... : ... .. . ...

PATTERN 16
ROW 00 : C-4 07 4 ... ... ... : ... .. . ... ... : C-4 0B . 260 ... : ... .. . ... : ... .. . ...
ROW 01 : ... .. . ... ... ... : ... .. . ... ... : E-2 0B . 200 ... : ... .. . ... : ... .. . ...
ROW 02 : ... .. . ... ... ... : C-4 07 2 ... ... : ... .. . ... ... : ... .. . ... : ... .. . ...
ROW 03 : ... .. . ... ... ... : ... .. . ... ... : ... .. . ... ... : ... .. . ... : ... .. . ...
ROW 04 : D#4 07 . ... ... ... : ... .. . ... ... : C-4 0B . 260 ... : ... .. . ... : ... .. . ...
ROW 05 : ... .. . ... ... ... : ... .. . ... ... : E-1 0B . 200 ... : ... .. . ... : ... .. . ...
ROW 06 : ... .. . ... ... ... : D#4 07 . ... ... : ... .. . ... ... : ... .. . ... : ... .. . ...
ROW 07 : ... .. . ... ... ... : ... .. . ... ... : ... .. . ... ... : ... .. . ... : ... .. . ...
ROW 08 : D-4 07 . ... ... ... : ... .. . ... ... : C-4 0B . 260 ... : ... .. . ... : ... .. . ...
ROW 09 : ... .. . ... ... ... : ... .. . ... ... : E-1 0B . 200 ... : ... .. . ... : ... .. . ...
ROW 0A : ... .. . ... ... ... : D-4 07 . ... ... : ... .. . ... ... : ... .. . ... : ... .. . ...
ROW 0B : ... .. . ... ... ... : ... .. . ... ... : ... .. . ... ... : ... .. . ... : ... .. . ...
ROW 0C : D#4 07 . ... ... ... : ... .. . ... ... : C-4 0B . 260 ... : ... .. . ... : ... .. . ...
ROW 0D : ... .. . ... ... ... : ... .. . ... ... : E-2 0B . 200 ... : ... .. . ... : ... .. . ...
ROW 0E : D-4 07 . ... ... ... : D#4 07 . ... ... : ... .. . ... ... : ... .. . ... : ... .. . ...
ROW 0F : ... .. . ... ... ... : ... .. . ... ... : ... .. . ... ... : ... .. . ... : ... .. . ...
ROW 10 : C-4 07 . ... ... ... : D-4 07 . ... ... : C-4 0B . 260 ... : ... .. . ... : ... .. . ...
ROW 11 : ... .. . ... ... ... : ... .. . ... ... : E-1 0B . 200 ... : ... .. . ... : ... .. . ...
ROW 12 : ... .. . ... ... ... : C-4 07 . ... ... : ... .. . ... ... : ... .. . ... : ... .. . ...
ROW 13 : ... .. . ... ... ... : ... .. . ... ... : ... .. . ... ... : ... .. . ... : ... .. . ...
ROW 14 : A#3 07 . ... ... ... : ... .. . ... ... : C-4 0B . 260 ... : ... .. . ... : ... .. . ...
ROW 15 : ... .. . ... ... ... : ... .. . ... ... : E-1 0B . 200 ... : ... .. . ... : ... .. . ...
ROW 16 : ... .. . ... ... ... : A#3 07 . ... ... : ... .. . ... ... : ... .. . ... : ... .. . ...
ROW 17 : ... .. . ... ... ... : ... .. . ... ... : ... .. . ... ... : ... .. . ... : ... .. . ...
ROW 18 : C-4 07 . ... ... ... : ... .. . ... ... : C-4 0B . 260 ... : ... .. . ... : ... .. . ...
ROW 19 : ... .. . ... ... ... : ... .. . ... ... : E-2 0B . 200 ... : ... .. . ... : ... .. . ...
ROW 1A : ... .. . ... ... ... : C-4 07 . ... ... : ... 01 . ... ... : ... .. . ... : ... .. . ...
ROW 1B : ... .. . ... ... ... : ... .. . ... ... : ... .. . ... ... : ... .. . ... : ... .. . ...
ROW 1C : G#3 07 . ... ... ... : ... .. . ... ... : ... .. . ... ... : ... .. . ... : ... .. . ...
ROW 1D : ... .. . ... ... ... : ... .. . ... ... : ... .. . ... ... : ... .. . ... : ... .. . ...
ROW 1E : ... .. . ... ... ... : G#3 07 . ... ... : ... .. . ... ... : ... .. . ... : ... .. . ...
ROW 1F : ... .. . ... ... ... : ... .. . ... ... : ... .. . ... ... : ... .. . ... : ... .. . ...
ROW 20 : ... .. . 466 ... ... : ... .. . ... ... : E-3 0B . 370 ... : ... .. . ... : ... .. . ...
ROW 21 : ... .. . ... ... ... : ... .. . ... ... : ... .. . ... ... : ... .. . ... : ... .. . ...
ROW 22 : ... .. . ... ... ... : ... .. . 466 ... : ... .. . ... ... : ... .. . ... : ... .. . ...
ROW 23 : ... .. . ... ... ... : ... .. . ... ... : ... .. . ... ... : ... .. . ... : ... .. . ...
ROW 24 : C-3 07 . 400 ... ... : ... .. . ... ... : G#4 17 . ... ... : ... .. . ... : ... .. . ...
ROW 25 : ... .. . ... ... ... : ... .. . ... ... : ... .. . ... ... : ... .. . ... : ... .. . ...
ROW 26 : ... .. . ... ... ... : C-3 07 . 400 ... : ... .. . ... ... : ... .. . ... : ... .. . ...
ROW 27 : ... .. . ... ... ... : ... .. . ... ... : ... .. . ... ... : ... .. . ... : ... .. . ...
ROW 28 : F-3 07 . ... ... ... : ... .. . ... ... : B-4 17 . ... ... : ... .. . ... : ... .. . ...
ROW 29 : ... .. . ... ... ... : ... .. . ... ... : ... .. . ... ... : ... .. . ... : ... .. . ...
ROW 2A : ... .. . ... ... ... : F-3 07 . ... ... : ... .. . ... ... : ... .. . ... : ... .. . ...
ROW 2B : ... .. . ... ... ... : ... .. . ... ... : ... .. . ... ... : ... .. . ... : ... .. . ...
ROW 2C : G#3 07 . ... ... ... : ... .. . ... ... : E-5 17 . ... ... : ... .. . ... : ... .. . ...
ROW 2D : ... .. . ... ... ... : ... .. . ... ... : ... .. . ... ... : ... .. . ... : ... .. . ...
ROW 2E : ... .. . ... ... ... : G#3 07 . ... ... : ... .. . ... ... : ... .. . ... : ... .. . ...
ROW 2F : ... .. . ... ... ... : ... .. . ... ... : ... .. . ... ... : ... .. . ... : ... .. . ...

PATTERN 17
ROW 00 : C-4 07 4 ... ... ... : ... .. . ... ... : C-4 0B . 260 ... : ... .. . ... : ... .. . ...
ROW 01 : ... .. . ... ... ... : ... .. . ... ... : D#2 01 . 200 ... : ... .. . ... : ... .. . ...
ROW 02 : ... .. . ... ... ... : C-4 07 2 ... ... : ... .. . ... ... : ... .. . ... : ... .. . ...
ROW 03 : ... .. . ... ... ... : ... .. . ... ... : ... .. . ... ... : ... .. . ... : ... .. . ...
ROW 04 : ... .. . ... ... ... : ... .. . ... ... : ... .. . ... ... : ... .. . ... : ... .. . ...
ROW 05 : ... .. . ... ... ... : ... .. . ... ... : ... .. . ... ... : ... .. . ... : ... .. . ...
ROW 06 : ... .. . ... ... ... : ... .. . ... ... : ... .. . ... ... : ... .. . ... : ... .. . ...
ROW 07 : ... .. . ... ... ... : ... .. . ... ... : ... .. . ... ... : ... .. . ... : ... .. . ...
ROW 08 : D-4 07 . ... ... ... : ... .. . ... ... : G-3 01 . 370 ... : ... .. . ... : ... .. . ...
ROW 09 : ... .. . ... ... ... : ... .. . ... ... : ... .. . ... ... : ... .. . ... : ... .. . ...
ROW 0A : ... .. . ... ... ... : D-4 07 . ... ... : ... .. . ... ... : ... .. . ... : ... .. . ...
ROW 0B : ... .. . ... ... ... : ... .. . ... ... : --- .. . ... ... : ... .. . ... : ... .. . ...
ROW 0C : A#3 07 . ... ... ... : ... .. . ... ... : D#4 17 . ... ... : ... .. . ... : ... .. . ...
ROW 0D : ... .. . ... ... ... : ... .. . ... ... : ... .. . ... ... : ... .. . ... : ... .. . ...
ROW 0E : ... .. . ... ... ... : A#3 07 . ... ... : ... .. . ... ... : ... .. . ... : ... .. . ...
ROW 0F : ... .. . ... ... ... : ... .. . ... ... : ... .. . ... ... : ... .. . ... : ... .. . ...
ROW 10 : ... .. . ... ... ... : ... .. . ... ... : G-4 17 . ... ... : ... .. . ... : ... .. . ...
ROW 11 : ... .. . ... ... ... : ... .. . ... ... : ... .. . ... ... : ... .. . ... : ... .. . ...
ROW 12 : ... .. . ... ... ... : ... .. . ... ... : ... .. . ... ... : ... .. . ... : ... .. . ...
ROW 13 : ... .. . ... ... ... : ... .. . ... ... : ... .. . ... ... : ... .. . ... : ... .. . ...
ROW 14 : F-3 07 . ... ... ... : ... .. . ... ... : A#4 17 . ... ... : ... .. . ... : ... .. . ...
ROW 15 : ... .. . ... ... ... : ... .. . ... ... : ... .. . ... ... : ... .. . ... : ... .. . ...
ROW 16 : ... .. . ... ... ... : F-3 07 . ... ... : ... .. . ... ... : ... .. . ... : ... .. . ...
ROW 17 : ... .. . ... ... ... : ... .. . ... ... : ... .. . ... ... : ... .. . ... : ... .. . ...
ROW 18 : D-4 07 . ... ... ... : ... .. . ... ... : C-4 0B . 260 ... : ... .. . ... : ... .. . ...
ROW 19 : ... .. . ... ... ... : ... .. . ... ... : D#3 01 . 200 ... : ... .. . ... : ... .. . ...
ROW 1A : D#4 07 . ... ... ... : D-4 07 . ... ... : ... .. . ... ... : ... .. . ... : ... .. . ...
ROW 1B : ... .. . ... ... ... : ... .. . ... ... : ... .. . ... ... : ... .. . ... : ... .. . ...
ROW 1C : D-4 07 . ... ... ... : D#4 07 . ... ... : ... .. . ... ... : ... .. . ... : ... .. . ...
ROW 1D : ... .. . ... ... ... : ... .. . ... ... : ... .. . ... ... : ... .. . ... : ... .. . ...
ROW 1E : ... .. . ... ... ... : D-4 07 . ... ... : ... .. . ... ... : ... .. . ... : ... .. . ...
ROW 1F : ... .. . ... ... ... : ... .. . ... ... : ... .. . ... ... : ... .. . ... : ... .. . ...
ROW 20 : ... .. . ... ... ... : ... .. . ... ... : ... .. . 203 ... : ... .. . ... : ... .. . ...
ROW 21 : ... .. . ... ... ... : ... .. . ... ... : ... .. . ... ... : ... .. . ... : ... .. . ...
ROW 22 : ... .. . ... ... ... : ... .. . ... ... : ... .. . ... ... : ... .. . ... : ... .. . ...
ROW 23 : ... .. . ... ... ... : ... .. . ... ... : ... .. . ... ... : ... .. . ... : ... .. . ...
ROW 24 : ... .. . ... ... ... : ... .. . ... ... : C-4 0B . 260 ... : ... .. . ... : ... .. . ...
ROW 25 : ... .. . ... ... ... : ... .. . ... ... : D#2 01 . 200 ... : ... .. . ... : ... .. . ...
ROW 26 : ... .. . ... ... ... : ... .. . ... ... : ... .. . ... ... : ... .. . ... : ... .. . ...
ROW 27 : ... .. . ... ... ... : ... .. . ... ... : ... .. . ... ... : ... .. . ... : ... .. . ...
ROW 28 : C-4 07 . ... ... ... : ... .. . ... ... : --- .. . ... ... : ... .. . ... : ... .. . ...
ROW 29 : ... .. . ... ... ... : ... .. . ... ... : ... .. . ... ... : ... .. . ... : ... .. . ...
ROW 2A : ... .. . ... ... ... : C-4 07 . ... ... : ... .. . ... ... : ... .. . ... : ... .. . ...
ROW 2B : ... .. . ... ... ... : ... .. . ... ... : ... .. . ... ... : ... .. . ... : ... .. . ...
ROW 2C : A#3 07 . ... ... ... : ... .. . ... ... : C-4 0B . 260 ... : ... .. . ... : ... .. . ...
ROW 2D : ... .. . ... ... ... : ... .. . ... ... : D#1 01 . 200 ... : ... .. . ... : ... .. . ...
ROW 2E : ... .. . ... ... ... : A#3 07 . ... ... : ... .. . ... ... : ... .. . ... : ... .. . ...
ROW 2F : ... .. . ... ... ... : ... .. . ... ... : ... .. . ... ... : ... .. . ... : ... .. . ...

PATTERN 18
ROW 00 : C-4 07 4 ... ... ... : ... .. . ... ... : C-4 0B . 260 ... : ... .. . ... : ... .. . ...
ROW 01 : ... .. . ... ... ... : ... .. . ... ... : C#2 01 . 200 ... : ... .. . ... : ... .. . ...
ROW 02 : ... .. . ... ... ... : C-4 07 2 ... ... : ... .. . ... ... : ... .. . ... : ... .. . ...
ROW 03 : ... .. . ... ... ... : ... .. . ... ... : ... .. . ... ... : ... .. . ... : ... .. . ...
ROW 04 : F-4 07 . ... ... ... : ... .. . ... ... : ... .. . ... ... : ... .. . ... : ... .. . ...
ROW 05 : ... .. . ... ... ... : ... .. . ... ... : ... .. . ... ... : ... .. . ... : ... .. . ...
ROW 06 : ... .. . ... ... ... : F-4 07 . ... ... : ... .. . ... ... : ... .. . ... : ... .. . ...
ROW 07 : --- .. . ... ... ... : ... .. . ... ... : ... .. . ... ... : ... .. . ... : ... .. . ...
ROW 08 : F-4 07 . ... ... ... : ... .. . ... ... : E-3 01 . 370 ... : ... .. . ... : ... .. . ...
ROW 09 : ... .. . ... ... ... : ... .. . ... ... : ... .. . ... ... : ... .. . ... : ... .. . ...
ROW 0A : ... .. . ... ... ... : F-4 07 . ... ... : ... .. . ... ... : ... .. . ... : ... .. . ...
ROW 0B : ... .. . ... ... ... : ... .. . ... ... : ... .. . ... ... : ... .. . ... : ... .. . ...
ROW 0C : ... .. . ... ... ... : ... .. . ... ... : C#5 17 . 300 ... : ... .. . ... : ... .. . ...
ROW 0D : ... .. . ... ... ... : ... .. . ... ... : ... .. . ... ... : ... .. . ... : ... .. . ...
ROW 0E : ... .. . ... ... ... : ... .. . ... ... : ... .. . ... ... : ... .. . ... : ... .. . ...
ROW 0F : ... .. . ... ... ... : ... .. . ... ... : ... .. . ... ... : ... .. . ... : ... .. . ...
ROW 10 : ... .. . 466 ... ... : ... .. . ... ... : E-5 17 . ... ... : ... .. . ... : ... .. . ...
ROW 11 : ... .. . ... ... ... : ... .. . ... ... : ... .. . ... ... : ... .. . ... : ... .. . ...
ROW 12 : ... .. . ... ... ... : ... .. . 466 ... : ... .. . ... ... : ... .. . ... : ... .. . ...
ROW 13 : ... .. . ... ... ... : ... .. . ... ... : ... .. . ... ... : ... .. . ... : ... .. . ...
ROW 14 : ... .. . ... ... ... : ... .. . ... ... : G#5 17 . ... ... : ... .. . ... : ... .. . ...
ROW 15 : ... .. . ... ... ... : ... .. . ... ... : ... .. . ... ... : ... .. . ... : ... .. . ...
ROW 16 : ... .. . ... ... ... : ... .. . ... ... : ... .. . ... ... : ... .. . ... : ... .. . ...
ROW 17 : --- .. . ... ... ... : ... .. . ... ... : ... .. . ... ... : ... .. . ... : ... .. . ...
ROW 18 : F-4 07 2 400 ... ... : ... .. . ... ... : C-4 0B . 260 ... : ... .. . ... : ... .. . ...
ROW 19 : ... .. . ... ... ... : ... .. . ... ... : E-2 0B . 200 ... : ... .. . ... : ... .. . ...
ROW 1A : ... .. . ... ... ... : --- .. . 400 ... : ... .. . ... ... : ... .. . ... : ... .. . ...
ROW 1B : ... .. . ... ... ... : ... .. . ... ... : ... .. . ... ... : ... .. . ... : ... .. . ...
ROW 1C : ... .. . ... ... ... : ... .. . ... ... : ... .. . ... ... : ... .. . ... : ... .. . ...
ROW 1D : ... .. . ... ... ... : ... .. . ... ... : ... .. . ... ... : ... .. . ... : ... .. . ...
ROW 1E : --- .. . ... ... ... : ... .. . ... ... : ... .. . ... ... : ... .. . ... : ... .. . ...
ROW 1F : ... .. . ... ... ... : ... .. . ... ... : ... .. . ... ... : ... .. . ... : ... .. . ...
ROW 20 : F-4 07 1 ... ... ... : ... .. . ... ... : ... .. . ... ... : ... .. . ... : ... .. . ...
ROW 21 : ... .. . ... ... ... : ... .. . ... ... : ... .. . ... ... : ... .. . ... : ... .. . ...
ROW 22 : ... .. . ... ... ... : ... .. . ... ... : ... .. . ... ... : ... .. . ... : ... .. . ...
ROW 23 : ... .. . ... ... ... : ... .. . ... ... : ... .. . ... ... : ... .. . ... : ... .. . ...
ROW 24 : ... .. . ... ... ... : ... .. . ... ... : ... .. . ... ... : ... .. . ... : ... .. . ...
ROW 25 : ... .. . ... ... ... : ... .. . ... ... : ... .. . ... ... : ... .. . ... : ... .. . ...
ROW 26 : --- .. . ... ... ... : ... .. . ... ... : ... .. . ... ... : ... .. . ... : ... .. . ...
ROW 27 : ... .. . ... ... ... : ... .. . ... ... : ... .. . ... ... : ... .. . ... : ... .. . ...
ROW 28 : ... .. . ... ... ... : ... .. . ... ... : ... .. . ... ... : ... .. . ... : ... .. . ...
ROW 29 : ... .. . ... ... ... : ... .. . ... ... : ... .. . ... ... : ... .. . ... : ... .. . ...
ROW 2A : ... .. . ... ... ... : ... .. . ... ... : ... .. . ... ... : ... .. . ... : ... .. . ...
ROW 2B : ... .. . ... ... ... : ... .. . ... ... : --- .. . ... ... : ... .. . ... : ... .. . ...
ROW 2C : ... .. . ... ... ... : ... .. . ... ... : C-4 0B . 260 ... : ... .. . ... : ... .. . ...
ROW 2D : ... .. . ... ... ... : ... .. . ... ... : G#1 0B . 200 ... : ... .. . ... : ... .. . ...
ROW 2E : ... .. . ... ... ... : ... .. . ... ... : ... .. . ... ... : ... .. . ... : ... .. . ...
ROW 2F : ... .. . ... ... ... : ... .. . ... ... : --- .. . ... ... : ... .. . ... : ... .. . ...

PATTERN 19
ROW 00 : A#1 0B 1 ... ... ... : ... .. . ... ... : C-4 0B . 260 ... : ... .. . ... : ... .. . ...
ROW 01 : ... .. . ... ... ... : ... .. . ... ... : C#2 0B . 200 ... : ... .. . ... : ... .. . ...
ROW 02 : ... .. . ... ... ... : ... .. . ... ... : ... .. . ... ... : ... .. . ... : ... .. . ...
ROW 03 : ... .. . ... ... ... : ... .. . ... ... : ... .. . ... ... : ... .. . ... : ... .. . ...
ROW 04 : B-1 0B 2 ... ... ... : ... .. . ... ... : ... .. . ... ... : ... .. . ... : ... .. . ...
ROW 05 : ... .. . ... ... ... : ... .. . ... ... : ... .. . ... ... : ... .. . ... : ... .. . ...
ROW 06 : A#1 0B . ... ... ... : ... .. . ... ... : ... .. . ... ... : ... .. . ... : ... .. . ...
ROW 07 : ... .. . ... ... ... : ... .. . ... ... : ... .. . ... ... : ... .. . ... : ... .. . ...
ROW 08 : G#1 0B 3 ... ... ... : ... .. . ... ... : ... .. . ... ... : ... .. . ... : ... .. . ...
ROW 09 : ... .. . ... ... ... : ... .. . ... ... : ... .. . ... ... : ... .. . ... : ... .. . ...
ROW 0A : ... .. . ... ... ... : ... .. . ... ... : ... .. . ... ... : ... .. . ... : ... .. . ...
ROW 0B : --- .. . ... ... ... : ... .. . ... ... : ... .. . ... ... : ... .. . ... : ... .. . ...
ROW 0C : F-1 0B 4 ... ... ... : ... .. . ... ... : ... .. . ... ... : ... .. . ... : ... .. . ...
ROW 0D : ... .. . ... ... ... : ... .. . ... ... : ... .. . ... ... : ... .. . ... : ... .. . ...
ROW 0E : ... .. . ... ... ... : ... .. . ... ... : ... .. . ... ... : ... .. . ... : ... .. . ...
ROW 0F : ... .. . ... ... ... : ... .. . ... ... : ... .. . ... ... : ... .. . ... : ... .. . ...
ROW 10 : D#1 0B 6 ... ... ... : ... .. . ... ... : ... .. . ... ... : ... .. . ... : ... .. . ...
ROW 11 : ... .. . ... ... ... : ... .. . ... ... : ... .. . ... ... : ... .. . ... : ... .. . ...
ROW 12 : ... .. . ... ... ... : ... .. . ... ... : ... .. . ... ... : ... .. . ... : ... .. . ...
ROW 13 : ... .. . ... ... ... : ... .. . ... ... : ... .. . ... ... : ... .. . ... : ... .. . ...
ROW 14 : F-1 0B 8 ... ... ... : ... .. . ... ... : ... .. . ... ... : ... .. . ... : ... .. . ...
ROW 15 : ... .. . ... ... ... : ... .. . ... ... : ... .. . ... ... : ... .. . ... : ... .. . ...
ROW 16 : ... .. . ... ... ... : ... .. . ... ... : ... .. . ... ... : ... .. . ... : ... .. . ...
ROW 17 : --- .. . ... ... ... : ... .. . ... ... : ... .. . ... ... : ... .. . ... : ... .. . ...
ROW 18 : B-0 0B A ... ... ... : ... .. . ... ... : C-4 0B . 260 ... : ... .. . ... : ... .. . ...
ROW 19 : ... .. . ... ... ... : ... .. . ... ... : C-2 0B . 200 ... : ... .. . ... : ... .. . ...
ROW 1A : ... .. . ... ... ... : ... .. . ... ... : ... .. . ... ... : ... .. . ... : ... .. . ...
ROW 1B : ... .. . ... ... ... : ... .. . ... ... : ... .. . ... ... : ... .. . ... : ... .. . ...
ROW 1C : C-1 0B B ... ... ... : ... .. . ... ... : ... .. . ... ... : ... .. . ... : ... .. . ...
ROW 1D : ... .. . ... ... ... : ... .. . ... ... : ... .. . ... ... : ... .. . ... : ... .. . ...
ROW 1E : ... .. . ... ... ... : ... .. . ... ... : ... .. . ... ... : ... .. . ... : ... .. . ...
ROW 1F : ... .. . ... ... ... : ... .. . ... ... : ... .. . ... ... : ... .. . ... : ... .. . ...
ROW 20 : F-1 0B C ... ... ... : ... .. . ... ... : C-4 0B . 260 ... : ... .. . ... : ... .. . ...
ROW 21 : ... .. . ... ... ... : ... .. . ... ... : C-2 0B . 200 ... : ... .. . ... : ... .. . ...
ROW 22 : ... .. . ... ... ... : ... .. . ... ... : ... .. . ... ... : ... .. . ... : ... .. . ...
ROW 23 : --- .. . ... ... ... : ... .. . ... ... : ... .. . ... ... : ... .. . ... : ... .. . ...
ROW 24 : F-1 0B D ... ... ... : ... .. . ... ... : ... .. . ... ... : ... .. . ... : ... .. . ...
ROW 25 : ... .. . ... ... ... : ... .. . ... ... : ... .. . ... ... : ... .. . ... : ... .. . ...
ROW 26 : ... .. . ... ... ... : ... .. . ... ... : ... .. . ... ... : ... .. . ... : ... .. . ...
ROW 27 : ... .. . ... ... ... : ... .. . ... ... : ... .. . ... ... : ... .. . ... : ... .. . ...
ROW 28 : G#1 0B E ... ... ... : ... .. . ... ... : C-4 0B . 260 ... : ... .. . ... : ... .. . ...
ROW 29 : ... .. . ... ... ... : ... .. . ... ... : C-2 01 . 200 ... : ... .. . ... : ... .. . ...
ROW 2A : ... .. . ... ... ... : ... .. . ... ... : ... .. . ... ... : ... .. . ... : ... .. . ...
ROW 2B : ... .. . ... ... ... : ... .. . ... ... : ... .. . ... ... : ... .. . ... : ... .. . ...
ROW 2C : A-1 0B F ... ... ... : G-3 0C 4 ... ... : ... .. . ... ... : ... .. . ... : ... .. . ...
ROW 2D : ... .. . ... ... ... : ... .. . ... ... : ... .. . ... ... : ... .. . ... : ... .. . ...
ROW 2E : ... .. . ... ... ... : ... .. . ... ... : ... .. . ... ... : ... .. . ... : ... .. . ...
ROW 2F : ... .. . ... ... ... : ... .. . ... ... : ... .. . ... ... : ... .. . ... : ... .. . ...

PATTERN 1A
ROW 00 : F-4 0F 6 100 400 ... : G#3 0C 4 ... ... : ... .. . ... ... : ... .. . ... : ... .. . ...
ROW 01 : ... .. . ... ... ... : ... .. . ... ... : ... .. . ... ... : ... .. . ... : ... .. . ...
ROW 02 : ... .. . ... ... ... : ... .. . ... ... : ... .. . ... ... : ... .. . ... : ... .. . ...
ROW 03 : ... .. . ... ... ... : ... .. . ... ... : ... .. . ... ... : ... .. . ... : ... .. . ...
ROW 04 : D#4 0F . ... ... ... : ... .. . ... ... : ... .. . ... ... : ... .. . ... : ... .. . ...
ROW 05 : ... .. . ... ... ... : ... .. . ... ... : ... .. . ... ... : ... .. . ... : ... .. . ...
ROW 06 : ... .. . ... ... ... : ... .. . ... ... : ... .. . ... ... : ... .. . ... : ... .. . ...
ROW 07 : ... .. . ... ... ... : ... .. . ... ... : ... .. . ... ... : ... .. . ... : ... .. . ...
ROW 08 : F-4 0F . ... ... ... : A#3 0C . ... ... : ... .. . ... ... : ... .. . ... : ... .. . ...
ROW 09 : ... .. . ... ... ... : ... .. . ... ... : ... .. . ... ... : ... .. . ... : ... .. . ...
ROW 0A : ... .. . ... ... ... : ... .. . ... ... : ... .. . ... ... : ... .. . ... : ... .. . ...
ROW 0B : ... .. . ... ... ... : ... .. . ... ... : ... .. . ... ... : ... .. . ... : ... .. . ...
ROW 0C : C#4 0F . ... ... ... : G-3 0C . ... ... : ... .. . ... ... : ... .. . ... : ... .. . ...
ROW 0D : ... .. . ... ... ... : ... .. . ... ... : ... .. . ... ... : ... .. . ... : ... .. . ...
ROW 0E : ... .. . ... ... ... : ... .. . ... ... : ... .. . ... ... : ... .. . ... : ... .. . ...
ROW 0F : ... .. . ... ... ... : ... .. . ... ... : ... .. . ... ... : ... .. . ... : ... .. . ...
ROW 10 : A#3 0F . ... ... ... : ... .. . 466 ... : ... .. . ... ... : ... .. . ... : ... .. . ...
ROW 11 : ... .. . ... ... ... : ... .. . ... ... : ... .. . ... ... : ... .. . ... : ... .. . ...
ROW 12 : ... .. . ... ... ... : ... .. . ... ... : ... .. . ... ... : ... .. . ... : ... .. . ...
ROW 13 : ... .. . ... ... ... : ... .. . ... ... : ... .. . ... ... : ... .. . ... : ... .. . ...
ROW 14 : C#4 0F 1 ... ... ... : D#3 0C . 400 ... : ... .. . ... ... : ... .. . ... : ... .. . ...
ROW 15 : ... .. . ... ... ... : ... .. . ... ... : ... .. . ... ... : ... .. . ... : ... .. . ...
ROW 16 : ... .. . ... ... ... : ... .. . ... ... : ... .. . ... ... : ... .. . ... : ... .. . ...
ROW 17 : ... .. . ... ... ... : ... .. . ... ... : ... .. . ... ... : ... .. . ... : ... .. . ...
ROW 18 : F-4 0F 6 ... ... ... : F-3 0C . ... ... : ... .. . ... ... : ... .. . ... : ... .. . ...
ROW 19 : ... .. . ... ... ... : ... .. . ... ... : ... .. . ... ... : ... .. . ... : ... .. . ...
ROW 1A : ... .. . ... ... ... : ... .. . ... ... : ... .. . ... ... : ... .. . ... : ... .. . ...
ROW 1B : ... .. . ... ... ... : ... .. . ... ... : ... .. . ... ... : ... .. . ... : ... .. . ...
ROW 1C : D#4 0F . ... ... ... : C-3 0C . ... ... : ... .. . ... ... : ... .. . ... : ... .. . ...
ROW 1D : ... .. . ... ... ... : ... .. . ... ... : ... .. . ... ... : ... .. . ... : ... .. . ...
ROW 1E : ... .. . ... ... ... : ... .. . ... ... : ... .. . ... ... : ... .. . ... : ... .. . ...
ROW 1F : ... .. . ... ... ... : ... .. . ... ... : ... .. . ... ... : ... .. . ... : ... .. . ...
ROW 20 : F-4 0F . ... ... ... : D-3 0C . ... ... : ... .. . ... ... : ... .. . ... : ... .. . ...
ROW 21 : ... .. . ... ... ... : ... .. . ... ... : ... .. . ... ... : ... .. . ... : ... .. . ...
ROW 22 : ... .. . ... ... ... : ... .. . ... ... : ... .. . ... ... : ... .. . ... : ... .. . ...
ROW 23 : ... .. . ... ... ... : ... .. . ... ... : ... .. . ... ... : ... .. . ... : ... .. . ...
ROW 24 : A#3 0F . ... ... ... : D#3 0C . ... ... : ... .. . ... ... : ... .. . ... : ... .. . ...
ROW 25 : ... .. . ... ... ... : ... .. . ... ... : ... .. . ... ... : ... .. . ... : ... .. . ...
ROW 26 : ... .. . ... ... ... : ... .. . ... ... : ... .. . ... ... : ... .. . ... : ... .. . ...
ROW 27 : ... .. . ... ... ... : ... .. . ... ... : ... .. . ... ... : ... .. . ... : ... .. . ...
ROW 28 : C#4 0F . ... ... ... : D-3 0C . ... ... : ... .. . ... ... : ... .. . ... : ... .. . ...
ROW 29 : ... .. . ... ... ... : ... .. . ... ... : ... .. . ... ... : ... .. . ... : ... .. . ...
ROW 2A : ... .. . ... ... ... : ... .. . ... ... : ... .. . ... ... : ... .. . ... : ... .. . ...
ROW 2B : ... .. . ... ... ... : ... .. . ... ... : ... .. . ... ... : ... .. . ... : ... .. . ...
ROW 2C : E-4 0F . ... ... ... : C-3 0C . ... ... : ... .. . ... ... : ... .. . ... : ... .. . ...
ROW 2D : ... .. . ... ... ... : ... .. . ... ... : ... .. . ... ... : ... .. . ... : ... .. . ...
ROW 2E : ... .. . ... ... ... : ... .. . ... ... : ... .. . ... ... : ... .. . ... : ... .. . ...
ROW 2F : ... .. . ... ... ... : ... .. . ... ... : ... .. . ... ... : ... .. . ... : ... .. . ...

PATTERN 1B
ROW 00 : A-3 0F 8 ... ... ... : C-3 12 2 ... ... : ... .. . ... ... : ... .. . ... : ... .. . ...
ROW 01 : ... .. . ... ... ... : ... .. . ... ... : ... .. . ... ... : ... .. . ... : ... .. . ...
ROW 02 : A#3 0F . ... ... ... : ... .. . ... ... : ... .. . ... ... : ... .. . ... : ... .. . ...
ROW 03 : ... .. . ... ... ... : ... .. . ... ... : ... .. . ... ... : ... .. . ... : ... .. . ...
ROW 04 : C-4 0F . ... ... ... : A-2 12 . ... ... : ... .. . ... ... : ... .. . ... : ... .. . ...
ROW 05 : ... .. . ... ... ... : ... .. . ... ... : ... .. . ... ... : ... .. . ... : ... .. . ...
ROW 06 : ... .. . ... ... ... : ... .. . ... ... : ... .. . ... ... : ... .. . ... : ... .. . ...
ROW 07 : ... .. . ... ... ... : ... .. . ... ... : ... .. . ... ... : ... .. . ... : ... .. . ...
ROW 08 : A-3 0F 4 ... ... ... : G-2 12 . ... ... : ... .. . ... ... : ... .. . ... : ... .. . ...
ROW 09 : ... .. . ... ... ... : ... .. . ... ... : ... .. . ... ... : ... .. . ... : ... .. . ...
ROW 0A : A#3 0F . ... ... ... : ... .. . ... ... : ... .. . ... ... : ... .. . ... : ... .. . ...
ROW 0B : ... .. . ... ... ... : ... .. . ... ... : ... .. . ... ... : ... .. . ... : ... .. . ...
ROW 0C : C-4 0F . ... ... ... : F-2 12 . ... ... : ... .. . ... ... : ... .. . ... : ... .. . ...
ROW 0D : ... .. . ... ... ... : ... .. . ... ... : ... .. . ... ... : ... .. . ... : ... .. . ...
ROW 0E : ... .. . ... ... ... : ... .. . ... ... : ... .. . ... ... : ... .. . ... : ... .. . ...
ROW 0F : ... .. . ... ... ... : ... .. . ... ... : ... .. . ... ... : ... .. . ... : ... .. . ...
ROW 10 : A-3 0F 1 ... ... ... : C-2 12 . ... ... : ... .. . ... ... : ... .. . ... : ... .. . ...
ROW 11 : ... .. . ... ... ... : ... .. . ... ... : ... .. . ... ... : ... .. . ... : ... .. . ...
ROW 12 : A#3 0F . ... ... ... : ... .. . ... ... : ... .. . ... ... : ... .. . ... : ... .. . ...
ROW 13 : ... .. . ... ... ... : ... .. . ... ... : ... .. . ... ... : ... .. . ... : ... .. . ...
ROW 14 : C-4 0F . ... ... ... : F-2 12 . ... ... : ... .. . ... ... : ... .. . ... : ... .. . ...
ROW 15 : ... .. . ... ... ... : ... .. . ... ... : ... .. . ... ... : ... .. . ... : ... .. . ...
ROW 16 : ... .. . ... ... ... : ... .. . ... ... : ... .. . ... ... : ... .. . ... : ... .. . ...
ROW 17 : ... .. . ... ... ... : ... .. . ... ... : ... .. . ... ... : ... .. . ... : ... .. . ...
ROW 18 : --- .. . ... ... ... : G-2 12 . ... ... : ... .. . ... ... : ... .. . ... : ... .. . ...
ROW 19 : ... .. . ... ... ... : ... .. . ... ... : ... .. . ... ... : ... .. . ... : ... .. . ...
ROW 1A : ... .. . ... ... ... : ... .. . ... ... : ... .. . ... ... : ... .. . ... : ... .. . ...
ROW 1B : ... .. . ... ... ... : ... .. . ... ... : ... .. . ... ... : ... .. . ... : ... .. . ...
ROW 1C : ... .. . ... ... ... : A-2 12 . ... ... : ... .. . ... ... : ... .. . ... : ... .. . ...
ROW 1D : ... .. . ... ... ... : ... .. . ... ... : ... .. . ... ... : ... .. . ... : ... .. . ...
ROW 1E : ... .. . ... ... ... : ... .. . ... ... : ... .. . ... ... : ... .. . ... : ... .. . ...
ROW 1F : ... .. . ... ... ... : ... .. . ... ... : ... .. . ... ... : ... .. . ... : ... .. . ...
ROW 20 : ... .. . ... ... ... : C-3 12 . ... ... : ... .. . ... ... : ... .. . ... : ... .. . ...
ROW 21 : ... .. . ... ... ... : ... .. . ... ... : ... .. . ... ... : ... .. . ... : ... .. . ...
ROW 22 : ... .. . ... ... ... : ... .. . ... ... : ... .. . ... ... : ... .. . ... : ... .. . ...
ROW 23 : ... .. . ... ... ... : ... .. . ... ... : ... .. . ... ... : ... .. . ... : ... .. . ...
ROW 24 : F-3 0F 8 ... ... ... : F-3 12 . ... ... : ... .. . ... ... : ... .. . ... : ... .. . ...
ROW 25 : ... .. . ... ... ... : ... .. . ... ... : ... .. . ... ... : ... .. . ... : ... .. . ...
ROW 26 : ... .. . ... ... ... : ... .. . ... ... : ... .. . ... ... : ... .. . ... : ... .. . ...
ROW 27 : ... .. . ... ... ... : ... .. . ... ... : ... .. . ... ... : ... .. . ... : ... .. . ...
ROW 28 : ... .. . ... ... ... : C-3 12 . ... ... : ... .. . ... ... : ... .. . ... : ... .. . ...
ROW 29 : ... .. . ... ... ... : ... .. . ... ... : ... .. . ... ... : ... .. . ... : ... .. . ...
ROW 2A : ... .. . ... ... ... : ... .. . ... ... : ... .. . ... ... : ... .. . ... : ... .. . ...
ROW 2B : ... .. . ... ... ... : ... .. . ... ... : ... .. . ... ... : ... .. . ... : ... .. . ...
ROW 2C : F-3 0F 4 ... ... ... : F-3 12 . ... ... : ... .. . ... ... : ... .. . ... : ... .. . ...
ROW 2D : ... .. . ... ... ... : ... .. . ... ... : ... .. . ... ... : ... .. . ... : ... .. . ...
ROW 2E : ... .. . ... ... ... : ... .. . ... ... : ... .. . ... ... : ... .. . ... : ... .. . ...
ROW 2F : ... .. . ... ... ... : ... .. . ... ... : ... .. . ... ... : ... .. . ... : ... .. . ...

PATTERN 1C
ROW 00 : F-4 0F 8 ... ... ... : A#3 12 2 ... ... : ... .. . ... ... : ... .. . ... : ... .. . ...
ROW 01 : ... .. . ... ... ... : ... .. . ... ... : ... .. . ... ... : ... .. . ... : ... .. . ...
ROW 02 : ... .. . ... ... ... : ... .. . ... ... : ... .. . ... ... : ... .. . ... : ... .. . ...
ROW 03 : ... .. . ... ... ... : ... .. . ... ... : ... .. . ... ... : ... .. . ... : ... .. . ...
ROW 04 : ... .. . ... ... ... : G#3 12 . ... ... : ... .. . ... ... : ... .. . ... : ... .. . ...
ROW 05 : ... .. . ... ... ... : ... .. . ... ... : ... .. . ... ... : ... .. . ... : ... .. . ...
ROW 06 : ... .. . ... ... ... : ... .. . ... ... : ... .. . ... ... : ... .. . ... : ... .. . ...
ROW 07 : ... .. . ... ... ... : ... .. . ... ... : ... .. . ... ... : ... .. . ... : ... .. . ...
ROW 08 : F-4 0F 3 ... ... ... : F-3 12 . ... ... : ... .. . ... ... : ... .. . ... : ... .. . ...
ROW 09 : ... .. . ... ... ... : ... .. . ... ... : ... .. . ... ... : ... .. . ... : ... .. . ...
ROW 0A : ... .. . ... ... ... : ... .. . ... ... : ... .. . ... ... : ... .. . ... : ... .. . ...
ROW 0B : ... .. . ... ... ... : ... .. . ... ... : ... .. . ... ... : ... .. . ... : ... .. . ...
ROW 0C : ... .. . ... ... ... : C#3 12 . ... ... : ... .. . ... ... : ... .. . ... : ... .. . ...
ROW 0D : ... .. . ... ... ... : ... .. . ... ... : ... .. . ... ... : ... .. . ... : ... .. . ...
ROW 0E : ... .. . ... ... ... : ... .. . ... ... : ... .. . ... ... : ... .. . ... : ... .. . ...
ROW 0F : ... .. . ... ... ... : ... .. . ... ... : ... .. . ... ... : ... .. . ... : ... .. . ...
ROW 10 : F-4 0F 1 ... ... ... : A#2 12 . ... ... : ... .. . ... ... : ... .. . ... : ... .. . ...
ROW 11 : ... .. . ... ... ... : ... .. . ... ... : ... .. . ... ... : ... .. . ... : ... .. . ...
ROW 12 : ... .. . ... ... ... : ... .. . ... ... : ... .. . ... ... : ... .. . ... : ... .. . ...
ROW 13 : ... .. . ... ... ... : ... .. . ... ... : ... .. . ... ... : ... .. . ... : ... .. . ...
ROW 14 : D#4 0F 8 ... ... ... : C#3 12 . ... ... : ... .. . ... ... : ... .. . ... : ... .. . ...
ROW 15 : ... .. . ... ... ... : ... .. . ... ... : ... .. . ... ... : ... .. . ... : ... .. . ...
ROW 16 : ... .. . ... ... ... : ... .. . ... ... : ... .. . ... ... : ... .. . ... : ... .. . ...
ROW 17 : ... .. . ... ... ... : ... .. . ... ... : ... .. . ... ... : ... .. . ... : ... .. . ...
ROW 18 : G#4 0F 8 ... ... ... : D#3 12 . ... ... : ... .. . ... ... : ... .. . ... : ... .. . ...
ROW 19 : ... .. . ... ... ... : ... .. . ... ... : ... .. . ... ... : ... .. . ... : ... .. . ...
ROW 1A : ... .. . ... ... ... : ... .. . ... ... : ... .. . ... ... : ... .. . ... : ... .. . ...
ROW 1B : ... .. . ... ... ... : ... .. . ... ... : ... .. . ... ... : ... .. . ... : ... .. . ...
ROW 1C : F#4 0F 8 ... ... ... : A#2 12 . ... ... : ... .. . ... ... : ... .. . ... : ... .. . ...
ROW 1D : ... .. . ... ... ... : ... .. . ... ... : ... .. . ... ... : ... .. . ... : ... .. . ...
ROW 1E : ... .. . ... ... ... : ... .. . ... ... : ... .. . ... ... : ... .. . ... : ... .. . ...
ROW 1F : ... .. . ... ... ... : ... .. . ... ... : ... .. . ... ... : ... .. . ... : ... .. . ...
ROW 20 : ... .. . ... ... ... : C#3 12 . ... ... : ... .. . ... ... : ... .. . ... : ... .. . ...
ROW 21 : ... .. . ... ... ... : ... .. . ... ... : ... .. . ... ... : ... .. . ... : ... .. . ...
ROW 22 : ... .. . ... ... ... : ... .. . ... ... : ... .. . ... ... : ... .. . ... : ... .. . ...
ROW 23 : ... .. . ... ... ... : ... .. . ... ... : ... .. . ... ... : ... .. . ... : ... .. . ...
ROW 24 : F#4 0F 1 ... ... ... : D#3 12 . ... ... : ... .. . ... ... : ... .. . ... : ... .. . ...
ROW 25 : ... .. . ... ... ... : ... .. . ... ... : ... .. . ... ... : ... .. . ... : ... .. . ...
ROW 26 : ... .. . ... ... ... : ... .. . ... ... : ... .. . ... ... : ... .. . ... : ... .. . ...
ROW 27 : ... .. . ... ... ... : ... .. . ... ... : ... .. . ... ... : ... .. . ... : ... .. . ...
ROW 28 : F-4 0F 8 ... ... ... : F#3 12 . ... ... : ... .. . ... ... : ... .. . ... : ... .. . ...
ROW 29 : ... .. . ... ... ... : ... .. . ... ... : ... .. . ... ... : ... .. . ... : ... .. . ...
ROW 2A : ... .. . ... ... ... : ... .. . ... ... : ... .. . ... ... : ... .. . ... : ... .. . ...
ROW 2B : ... .. . ... ... ... : ... .. . ... ... : ... .. . ... ... : ... .. . ... : ... .. . ...
ROW 2C : D#4 0F 8 ... ... ... : G#3 12 . ... ... : ... .. . ... ... : ... .. . ... : ... .. . ...
ROW 2D : ... .. . ... ... ... : ... .. . ... ... : ... .. . ... ... : ... .. . ... : ... .. . ...
ROW 2E : ... .. . ... ... ... : ... .. . ... ... : ... .. . ... ... : ... .. . ... : ... .. . ...
ROW 2F : ... .. . ... ... ... : ... .. . ... ... : ... .. . ... ... : ... .. . ... : ... .. . ...

PATTERN 1D
ROW 00 : F-4 0F 8 ... ... ... : A-3 12 2 ... ... : ... .. . ... ... : ... .. . ... : ... .. . ...
ROW 01 : ... .. . ... ... ... : ... .. . ... ... : ... .. . ... ... : ... .. . ... : ... .. . ...
ROW 02 : ... .. . ... ... ... : ... .. . ... ... : ... .. . ... ... : ... .. . ... : ... .. . ...
ROW 03 : ... .. . ... ... ... : ... .. . ... ... : ... .. . ... ... : ... .. . ... : ... .. . ...
ROW 04 : ... .. . ... ... ... : F#3 12 . ... ... : ... .. . ... ... : ... .. . ... : ... .. . ...
ROW 05 : ... .. . ... ... ... : ... .. . ... ... : ... .. . ... ... : ... .. . ... : ... .. . ...
ROW 06 : ... .. . ... ... ... : ... .. . ... ... : ... .. . ... ... : ... .. . ... : ... .. . ...
ROW 07 : ... .. . ... ... ... : ... .. . ... ... : ... .. . ... ... : ... .. . ... : ... .. . ...
ROW 08 : F-4 0F 4 ... ... ... : F-3 12 . ... ... : ... .. . ... ... : ... .. . ... : ... .. . ...
ROW 09 : ... .. . ... ... ... : ... .. . ... ... : ... .. . ... ... : ... .. . ... : ... .. . ...
ROW 0A : ... .. . ... ... ... : ... .. . ... ... : ... .. . ... ... : ... .. . ... : ... .. . ...
ROW 0B : ... .. . ... ... ... : ... .. . ... ... : ... .. . ... ... : ... .. . ... : ... .. . ...
ROW 0C : ... .. . ... ... ... : C-3 12 . ... ... : ... .. . ... ... : ... .. . ... : ... .. . ...
ROW 0D : ... .. . ... ... ... : ... .. . ... ... : ... .. . ... ... : ... .. . ... : ... .. . ...
ROW 0E : ... .. . ... ... ... : ... .. . ... ... : ... .. . ... ... : ... .. . ... : ... .. . ...
ROW 0F : ... .. . ... ... ... : ... .. . ... ... : ... .. . ... ... : ... .. . ... : ... .. . ...
ROW 10 : F-4 0F 1 ... ... ... : A#2 12 . ... ... : ... .. . ... ... : ... .. . ... : ... .. . ...
ROW 11 : ... .. . ... ... ... : ... .. . ... ... : ... .. . ... ... : ... .. . ... : ... .. . ...
ROW 12 : ... .. . ... ... ... : ... .. . ... ... : ... .. . ... ... : ... .. . ... : ... .. . ...
ROW 13 : ... .. . ... ... ... : ... .. . ... ... : ... .. . ... ... : ... .. . ... : ... .. . ...
ROW 14 : ... .. . ... ... ... : C-3 12 . ... ... : ... .. . ... ... : ... .. . ... : ... .. . ...
ROW 15 : ... .. . ... ... ... : ... .. . ... ... : ... .. . ... ... : ... .. . ... : ... .. . ...
ROW 16 : ... .. . ... ... ... : ... .. . ... ... : ... .. . ... ... : ... .. . ... : ... .. . ...
ROW 17 : ... .. . ... ... ... : ... .. . ... ... : ... .. . ... ... : ... .. . ... : ... .. . ...
ROW 18 : ... .. . ... ... ... : A-2 12 . ... ... : ... .. . ... ... : ... .. . ... : ... .. . ...
ROW 19 : ... .. . ... ... ... : ... .. . ... ... : ... .. . ... ... : ... .. . ... : ... .. . ...
ROW 1A : ... .. . ... ... ... : ... .. . ... ... : ... .. . ... ... : ... .. . ... : ... .. . ...
ROW 1B : ... .. . ... ... ... : ... .. . ... ... : ... .. . ... ... : ... .. . ... : ... .. . ...
ROW 1C : ... .. . ... ... ... : A#2 12 . ... ... : ... .. . ... ... : ... .. . ... : ... .. . ...
ROW 1D : ... .. . ... ... ... : ... .. . ... ... : ... .. . ... ... : ... .. . ... : ... .. . ...
ROW 1E : ... .. . ... ... ... : ... .. . ... ... : ... .. . ... ... : ... .. . ... : ... .. . ...
ROW 1F : ... .. . ... ... ... : ... .. . ... ... : ... .. . ... ... : ... .. . ... : ... .. . ...
ROW 20 : ... .. . ... ... ... : C-3 12 . ... ... : ... .. . ... ... : ... .. . ... : ... .. . ...
ROW 21 : ... .. . ... ... ... : ... .. . ... ... : ... .. . ... ... : ... .. . ... : ... .. . ...
ROW 22 : ... .. . ... ... ... : ... .. . ... ... : ... .. . ... ... : ... .. . ... : ... .. . ...
ROW 23 : ... .. . ... ... ... : ... .. . ... ... : ... .. . ... ... : ... .. . ... : ... .. . ...
ROW 24 : A-3 0F 8 ... ... ... : D#3 12 . ... ... : ... .. . ... ... : ... .. . ... : ... .. . ...
ROW 25 : ... .. . ... ... ... : ... .. . ... ... : ... .. . ... ... : ... .. . ... : ... .. . ...
ROW 26 : ... .. . ... ... ... : ... .. . ... ... : ... .. . ... ... : ... .. . ... : ... .. . ...
ROW 27 : ... .. . ... ... ... : ... .. . ... ... : ... .. . ... ... : ... .. . ... : ... .. . ...
ROW 28 : ... .. . ... ... ... : F-3 12 . ... ... : ... .. . ... ... : ... .. . ... : ... .. . ...
ROW 29 : ... .. . ... ... ... : ... .. . ... ... : ... .. . ... ... : ... .. . ... : ... .. . ...
ROW 2A : ... .. . ... ... ... : ... .. . ... ... : ... .. . ... ... : ... .. . ... : ... .. . ...
ROW 2B : ... .. . ... ... ... : ... .. . ... ... : ... .. . ... ... : ... .. . ... : ... .. . ...
ROW 2C : A-3 0F 4 ... ... ... : F#3 12 . ... ... : ... .. . ... ... : ... .. . ... : ... .. . ...
ROW 2D : ... .. . ... ... ... : ... .. . ... ... : ... .. . ... ... : ... .. . ... : ... .. . ...
ROW 2E : ... .. . ... ... ... : ... .. . ... ... : ... .. . ... ... : ... .. . ... : ... .. . ...
ROW 2F : ... .. . ... ... ... : --- .. . ... ... : ... .. . ... ... : ... .. . ... : ... .. . ...

PATTERN 1E
ROW 00 : A#3 0F 8 ... ... ... : G#2 0C 4 ... ... : ... .. . ... ... : ... .. . ... : ... .. . ...
ROW 01 : ... .. . ... ... ... : ... .. . ... ... : ... .. . ... ... : ... .. . ... : ... .. . ...
ROW 02 : ... .. . ... ... ... : ... .. . ... ... : ... .. . ... ... : ... .. . ... : ... .. . ...
ROW 03 : ... .. . ... ... ... : ... .. . ... ... : ... .. . ... ... : ... .. . ... : ... .. . ...
ROW 04 : ... .. . ... ... ... : A#2 0C . ... ... : ... .. . ... ... : ... .. . ... : ... .. . ...
ROW 05 : ... .. . ... ... ... : ... .. . ... ... : ... .. . ... ... : ... .. . ... : ... .. . ...
ROW 06 : ... .. . ... ... ... : ... .. . ... ... : ... .. . ... ... : ... .. . ... : ... .. . ...
ROW 07 : ... .. . ... ... ... : ... .. . ... ... : ... .. . ... ... : ... .. . ... : ... .. . ...
ROW 08 : A#3 0F 4 ... ... ... : F-3 0C . 320 ... : ... .. . ... ... : ... .. . ... : ... .. . ...
ROW 09 : ... .. . ... ... ... : ... .. . ... ... : ... .. . ... ... : ... .. . ... : ... .. . ...
ROW 0A : ... .. . ... ... ... : ... .. . ... ... : ... .. . ... ... : ... .. . ... : ... .. . ...
ROW 0B : ... .. . ... ... ... : ... .. . ... ... : ... .. . ... ... : ... .. . ... : ... .. . ...
ROW 0C : ... .. . ... ... ... : D#3 0C . ... ... : ... .. . ... ... : ... .. . ... : ... .. . ...
ROW 0D : ... .. . ... ... ... : ... .. . ... ... : ... .. . ... ... : ... .. . ... : ... .. . ...
ROW 0E : ... .. . ... ... ... : ... .. . ... ... : ... .. . ... ... : ... .. . ... : ... .. . ...
ROW 0F : ... .. . ... ... ... : ... .. . ... ... : ... .. . ... ... : ... .. . ... : ... .. . ...
ROW 10 : A#3 0F 1 ... ... ... : ... .. . ... ... : ... .. . ... ... : ... .. . ... : ... .. . ...
ROW 11 : ... .. . ... ... ... : ... .. . ... ... : ... .. . ... ... : ... .. . ... : ... .. . ...
ROW 12 : ... .. . ... ... ... : ... .. . ... ... : ... .. . ... ... : ... .. . ... : ... .. . ...
ROW 13 : ... .. . ... ... ... : ... .. . ... ... : ... .. . ... ... : ... .. . ... : ... .. . ...
ROW 14 : ... .. . ... ... ... : D-3 0C . 300 ... : ... .. . ... ... : ... .. . ... : ... .. . ...
ROW 15 : ... .. . ... ... ... : ... .. . ... ... : ... .. . ... ... : ... .. . ... : ... .. . ...
ROW 16 : ... .. . ... ... ... : ... .. . ... ... : ... .. . ... ... : ... .. . ... : ... .. . ...
ROW 17 : ... .. . ... ... ... : --- .. . ... ... : ... .. . ... ... : ... .. . ... : ... .. . ...
ROW 18 : --- .. . ... ... ... : A#2 0C . ... ... : ... .. . ... ... : ... .. . ... : ... .. . ...
ROW 19 : ... .. . ... ... ... : ... .. . ... ... : ... .. . ... ... : ... .. . ... : ... .. . ...
ROW 1A : ... .. . ... ... ... : ... .. . ... ... : ... .. . ... ... : ... .. . ... : ... .. . ...
ROW 1B : ... .. . ... ... ... : ... .. . ... ... : ... .. . ... ... : ... .. . ... : ... .. . ...
ROW 1C : ... .. . ... ... ... : ... .. . ... ... : ... .. . ... ... : ... .. . ... : ... .. . ...
ROW 1D : ... .. . ... ... ... : ... .. . ... ... : ... .. . ... ... : ... .. . ... : ... .. . ...
ROW 1E : ... .. . ... ... ... : ... .. . ... ... : ... .. . ... ... : ... .. . ... : ... .. . ...
ROW 1F : ... .. . ... ... ... : ... .. . ... ... : ... .. . ... ... : ... .. . ... : ... .. . ...
ROW 20 : ... .. . ... ... ... : G-3 0C . 320 ... : ... .. . ... ... : ... .. . ... : ... .. . ...
ROW 21 : ... .. . ... ... ... : ... .. . ... ... : ... .. . ... ... : ... .. . ... : ... .. . ...
ROW 22 : ... .. . ... ... ... : ... .. . ... ... : ... .. . ... ... : ... .. . ... : ... .. . ...
ROW 23 : ... .. . ... ... ... : ... .. . ... ... : ... .. . ... ... : ... .. . ... : ... .. . ...
ROW 24 : ... .. . ... ... ... : F-3 0C . 300 ... : ... .. . ... ... : ... .. . ... : ... .. . ...
ROW 25 : ... .. . ... ... ... : ... .. . ... ... : ... .. . ... ... : ... .. . ... : ... .. . ...
ROW 26 : ... .. . ... ... ... : ... .. . ... ... : ... .. . ... ... : ... .. . ... : ... .. . ...
ROW 27 : ... .. . ... ... ... : ... .. . ... ... : ... .. . ... ... : ... .. . ... : ... .. . ...
ROW 28 : ... .. . ... ... ... : ... .. . ... ... : ... .. . ... ... : ... .. . ... : ... .. . ...
ROW 29 : ... .. . ... ... ... : ... .. . ... ... : ... .. . ... ... : ... .. . ... : ... .. . ...
ROW 2A : ... .. . ... ... ... : ... .. . ... ... : ... .. . ... ... : ... .. . ... : ... .. . ...
ROW 2B : ... .. . ... ... ... : ... .. . ... ... : ... .. . ... ... : ... .. . ... : ... .. . ...
ROW 2C : ... .. . ... ... ... : G-3 0C . ... ... : ... .. . ... ... : ... .. . ... : ... .. . ...
ROW 2D : ... .. . ... ... ... : ... .. . ... ... : ... .. . ... ... : ... .. . ... : ... .. . ...
ROW 2E : ... .. . ... ... ... : ... .. . ... ... : ... .. . ... ... : ... .. . ... : ... .. . ...
ROW 2F : ... .. . ... ... ... : ... .. . ... ... : ... .. . ... ... : ... .. . ... : ... .. . ...

PATTERN 1F
ROW 00 : A#3 0F 8 ... ... ... : F#3 12 2 ... ... : ... .. . ... ... : ... .. . ... : ... .. . ...
ROW 01 : ... .. . ... ... ... : ... .. . ... ... : ... .. . ... ... : ... .. . ... : ... .. . ...
ROW 02 : ... .. . ... ... ... : ... .. . ... ... : ... .. . ... ... : ... .. . ... : ... .. . ...
ROW 03 : ... .. . ... ... ... : ... .. . ... ... : ... .. . ... ... : ... .. . ... : ... .. . ...
ROW 04 : ... .. . ... ... ... : F-3 12 . ... ... : ... .. . ... ... : ... .. . ... : ... .. . ...
ROW 05 : ... .. . ... ... ... : ... .. . ... ... : ... .. . ... ... : ... .. . ... : ... .. . ...
ROW 06 : ... .. . ... ... ... : ... .. . ... ... : ... .. . ... ... : ... .. . ... : ... .. . ...
ROW 07 : ... .. . ... ... ... : ... .. . ... ... : ... .. . ... ... : ... .. . ... : ... .. . ...
ROW 08 : A#3 0F 4 ... ... ... : D#3 12 . ... ... : ... .. . ... ... : ... .. . ... : ... .. . ...
ROW 09 : ... .. . ... ... ... : ... .. . ... ... : ... .. . ... ... : ... .. . ... : ... .. . ...
ROW 0A : ... .. . ... ... ... : ... .. . ... ... : ... .. . ... ... : ... .. . ... : ... .. . ...
ROW 0B : ... .. . ... ... ... : ... .. . ... ... : ... .. . ... ... : ... .. . ... : ... .. . ...
ROW 0C : ... .. . ... ... ... : A#2 12 . ... ... : ... .. . ... ... : ... .. . ... : ... .. . ...
ROW 0D : ... .. . ... ... ... : ... .. . ... ... : ... .. . ... ... : ... .. . ... : ... .. . ...
ROW 0E : ... .. . ... ... ... : ... .. . ... ... : ... .. . ... ... : ... .. . ... : ... .. . ...
ROW 0F : ... .. . ... ... ... : ... .. . ... ... : ... .. . ... ... : ... .. . ... : ... .. . ...
ROW 10 : A#3 0F 1 ... ... ... : D#3 12 . ... ... : ... .. . ... ... : ... .. . ... : ... .. . ...
ROW 11 : ... .. . ... ... ... : ... .. . ... ... : ... .. . ... ... : ... .. . ... : ... .. . ...
ROW 12 : ... .. . ... ... ... : ... .. . ... ... : ... .. . ... ... : ... .. . ... : ... .. . ...
ROW 13 : ... .. . ... ... ... : ... .. . ... ... : ... .. . ... ... : ... .. . ... : ... .. . ...
ROW 14 : ... .. . ... ... ... : F-3 12 . ... ... : ... .. . ... ... : ... .. . ... : ... .. . ...
ROW 15 : ... .. . ... ... ... : ... .. . ... ... : ... .. . ... ... : ... .. . ... : ... .. . ...
ROW 16 : ... .. . ... ... ... : ... .. . ... ... : ... .. . ... ... : ... .. . ... : ... .. . ...
ROW 17 : ... .. . ... ... ... : ... .. . ... ... : ... .. . ... ... : ... .. . ... : ... .. . ...
ROW 18 : --- .. . ... ... ... : F#3 12 . ... ... : ... .. . ... ... : ... .. . ... : ... .. . ...
ROW 19 : ... .. . ... ... ... : ... .. . ... ... : ... .. . ... ... : ... .. . ... : ... .. . ...
ROW 1A : ... .. . ... ... ... : ... .. . ... ... : ... .. . ... ... : ... .. . ... : ... .. . ...
ROW 1B : ... .. . ... ... ... : ... .. . ... ... : ... .. . ... ... : ... .. . ... : ... .. . ...
ROW 1C : ... .. . ... ... ... : F-3 12 . ... ... : ... .. . ... ... : ... .. . ... : ... .. . ...
ROW 1D : ... .. . ... ... ... : ... .. . ... ... : ... .. . ... ... : ... .. . ... : ... .. . ...
ROW 1E : ... .. . ... ... ... : ... .. . ... ... : ... .. . ... ... : ... .. . ... : ... .. . ...
ROW 1F : ... .. . ... ... ... : ... .. . ... ... : ... .. . ... ... : ... .. . ... : ... .. . ...
ROW 20 : ... .. . ... ... ... : A#3 12 . ... ... : ... .. . ... ... : ... .. . ... : ... .. . ...
ROW 21 : ... .. . ... ... ... : ... .. . ... ... : ... .. . ... ... : ... .. . ... : ... .. . ...
ROW 22 : ... .. . ... ... ... : ... .. . ... ... : ... .. . ... ... : ... .. . ... : ... .. . ...
ROW 23 : ... .. . ... ... ... : ... .. . ... ... : ... .. . ... ... : ... .. . ... : ... .. . ...
ROW 24 : ... .. . ... ... ... : F#3 12 . ... ... : ... .. . ... ... : ... .. . ... : ... .. . ...
ROW 25 : ... .. . ... ... ... : ... .. . ... ... : ... .. . ... ... : ... .. . ... : ... .. . ...
ROW 26 : ... .. . ... ... ... : ... .. . ... ... : ... .. . ... ... : ... .. . ... : ... .. . ...
ROW 27 : ... .. . ... ... ... : ... .. . ... ... : ... .. . ... ... : ... .. . ... : ... .. . ...
ROW 28 : ... .. . ... ... ... : F-3 12 . ... ... : ... .. . ... ... : ... .. . ... : ... .. . ...
ROW 29 : ... .. . ... ... ... : ... .. . ... ... : ... .. . ... ... : ... .. . ... : ... .. . ...
ROW 2A : ... .. . ... ... ... : ... .. . ... ... : ... .. . ... ... : ... .. . ... : ... .. . ...
ROW 2B : ... .. . ... ... ... : ... .. . ... ... : ... .. . ... ... : ... .. . ... : ... .. . ...
ROW 2C : ... .. . ... ... ... : D#3 12 . ... ... : ... .. . ... ... : ... .. . ... : ... .. . ...
ROW 2D : ... .. . ... ... ... : ... .. . ... ... : ... .. . ... ... : ... .. . ... : ... .. . ...
ROW 2E : ... .. . ... ... ... : ... .. . ... ... : ... .. . ... ... : ... .. . ... : ... .. . ...
ROW 2F : ... .. . ... ... ... : ... .. . ... ... : ... .. . ... ... : ... .. . ... : ... .. . ...

PATTERN 20
ROW 00 : F-4 0F 6 ... ... ... : G#3 0C 4 ... ... : ... .. . ... ... : ... .. . ... : ... .. . ...
ROW 01 : ... .. . ... ... ... : ... .. . ... ... : ... .. . ... ... : ... .. . ... : ... .. . ...
ROW 02 : ... .. . ... ... ... : ... .. . ... ... : ... .. . ... ... : ... .. . ... : ... .. . ...
ROW 03 : ... .. . ... ... ... : ... .. . ... ... : ... .. . ... ... : ... .. . ... : ... .. . ...
ROW 04 : ... .. . ... ... ... : A#3 0C . ... ... : ... .. . ... ... : ... .. . ... : ... .. . ...
ROW 05 : ... .. . ... ... ... : ... .. . ... ... : ... .. . ... ... : ... .. . ... : ... .. . ...
ROW 06 : ... .. . ... ... ... : ... .. . ... ... : ... .. . ... ... : ... .. . ... : ... .. . ...
ROW 07 : ... .. . ... ... ... : --- .. . ... ... : ... .. . ... ... : ... .. . ... : ... .. . ...
ROW 08 : F-4 0F 3 ... ... ... : C-4 0C . ... ... : ... .. . ... ... : ... .. . ... : ... .. . ...
ROW 09 : ... .. . ... ... ... : ... .. . ... ... : ... .. . ... ... : ... .. . ... : ... .. . ...
ROW 0A : ... .. . ... ... ... : ... .. . ... ... : ... .. . ... ... : ... .. . ... : ... .. . ...
ROW 0B : ... .. . ... ... ... : ... .. . ... ... : ... .. . ... ... : ... .. . ... : ... .. . ...
ROW 0C : ... .. . ... ... ... : ... .. . ... ... : ... .. . ... ... : ... .. . ... : ... .. . ...
ROW 0D : ... .. . ... ... ... : ... .. . ... ... : ... .. . ... ... : ... .. . ... : ... .. . ...
ROW 0E : ... .. . ... ... ... : ... .. . ... ... : ... .. . ... ... : ... .. . ... : ... .. . ...
ROW 0F : ... .. . ... ... ... : ... .. . ... ... : ... .. . ... ... : ... .. . ... : ... .. . ...
ROW 10 : F-4 0F 1 ... ... ... : ... .. . 466 ... : ... .. . ... ... : ... .. . ... : ... .. . ...
ROW 11 : ... .. . ... ... ... : ... .. . ... ... : ... .. . ... ... : ... .. . ... : ... .. . ...
ROW 12 : ... .. . ... ... ... : ... .. . ... ... : ... .. . ... ... : ... .. . ... : ... .. . ...
ROW 13 : ... .. . ... ... ... : ... .. . ... ... : ... .. . ... ... : ... .. . ... : ... .. . ...
ROW 14 : ... .. . ... ... ... : ... .. . ... ... : ... .. . ... ... : ... .. . ... : ... .. . ...
ROW 15 : ... .. . ... ... ... : ... .. . ... ... : ... .. . ... ... : ... .. . ... : ... .. . ...
ROW 16 : ... .. . ... ... ... : ... .. . ... ... : ... .. . ... ... : ... .. . ... : ... .. . ...
ROW 17 : ... .. . ... ... ... : --- .. . ... ... : ... .. . ... ... : ... .. . ... : ... .. . ...
ROW 18 : C-4 0F 6 ... ... ... : C-4 0C 2 400 ... : ... .. . ... ... : ... .. . ... : ... .. . ...
ROW 19 : ... .. . ... ... ... : ... .. . ... ... : ... .. . ... ... : ... .. . ... : ... .. . ...
ROW 1A : ... .. . ... ... ... : ... .. . ... ... : ... .. . ... ... : ... .. . ... : ... .. . ...
ROW 1B : ... .. . ... ... ... : ... .. . ... ... : ... .. . ... ... : ... .. . ... : ... .. . ...
ROW 1C : ... .. . ... ... ... : ... .. . ... ... : ... .. . ... ... : ... .. . ... : ... .. . ...
ROW 1D : ... .. . ... ... ... : ... .. . ... ... : ... .. . ... ... : ... .. . ... : ... .. . ...
ROW 1E : ... .. . ... ... ... : --- .. . ... ... : ... .. . ... ... : ... .. . ... : ... .. . ...
ROW 1F : ... .. . ... ... ... : ... .. . ... ... : ... .. . ... ... : ... .. . ... : ... .. . ...
ROW 20 : C-4 0F 3 ... ... ... : C-4 0C 1 ... ... : ... .. . ... ... : ... .. . ... : ... .. . ...
ROW 21 : ... .. . ... ... ... : ... .. . ... ... : ... .. . ... ... : ... .. . ... : ... .. . ...
ROW 22 : ... .. . ... ... ... : ... .. . ... ... : ... .. . ... ... : ... .. . ... : ... .. . ...
ROW 23 : ... .. . ... ... ... : ... .. . ... ... : ... .. . ... ... : ... .. . ... : ... .. . ...
ROW 24 : ... .. . ... ... ... : ... .. . ... ... : ... .. . ... ... : ... .. . ... : ... .. . ...
ROW 25 : ... .. . ... ... ... : ... .. . ... ... : ... .. . ... ... : ... .. . ... : ... .. . ...
ROW 26 : ... .. . ... ... ... : --- .. . ... ... : ... .. . ... ... : ... .. . ... : ... .. . ...
ROW 27 : ... .. . ... ... ... : ... .. . ... ... : ... .. . ... ... : ... .. . ... : ... .. . ...
ROW 28 : C-4 0F 1 ... ... ... : ... .. . ... ... : ... .. . ... ... : ... .. . ... : ... .. . ...
ROW 29 : ... .. . ... ... ... : ... .. . ... ... : ... .. . ... ... : ... .. . ... : ... .. . ...
ROW 2A : ... .. . ... ... ... : ... .. . ... ... : ... .. . ... ... : ... .. . ... : ... .. . ...
ROW 2B : ... .. . ... ... ... : ... .. . ... ... : ... .. . ... ... : ... .. . ... : ... .. . ...
ROW 2C : ... .. . ... ... ... : ... .. . ... ... : ... .. . ... ... : ... .. . ... : ... .. . ...
ROW 2D : ... .. . ... ... ... : ... .. . ... ... : ... .. . ... ... : ... .. . ... : ... .. . ...
ROW 2E : ... .. . ... ... ... : ... .. . ... ... : ... .. . ... ... : ... .. . ... : ... .. . ...
ROW 2F : ... .. . ... ... ... : ... .. . ... ... : ... .. . ... ... : ... .. . ... : ... .. . ...

PATTERN 21
ROW 00 : D#4 0F 6 ... ... ... : ... .. . ... ... : ... .. . ... ... : ... .. . ... : ... .. . ...
ROW 01 : ... .. . ... ... ... : ... .. . ... ... : ... .. . ... ... : ... .. . ... : ... .. . ...
ROW 02 : ... .. . ... ... ... : ... .. . ... ... : ... .. . ... ... : ... .. . ... : ... .. . ...
ROW 03 : ... .. . ... ... ... : ... .. . ... ... : ... .. . ... ... : ... .. . ... : ... .. . ...
ROW 04 : C#4 0F . ... ... ... : ... .. . ... ... : ... .. . ... ... : ... .. . ... : ... .. . ...
ROW 05 : ... .. . ... ... ... : ... .. . ... ... : ... .. . ... ... : ... .. . ... : ... .. . ...
ROW 06 : ... .. . ... ... ... : ... .. . ... ... : ... .. . ... ... : ... .. . ... : ... .. . ...
ROW 07 : ... .. . ... ... ... : ... .. . ... ... : ... .. . ... ... : ... .. . ... : ... .. . ...
ROW 08 : D#4 0F . ... ... ... : ... .. . ... ... : ... .. . ... ... : ... .. . ... : ... .. . ...
ROW 09 : ... .. . ... ... ... : ... .. . ... ... : ... .. . ... ... : ... .. . ... : ... .. . ...
ROW 0A : ... .. . ... ... ... : ... .. . ... ... : ... .. . ... ... : ... .. . ... : ... .. . ...
ROW 0B : ... .. . ... ... ... : ... .. . ... ... : ... .. . ... ... : ... .. . ... : ... .. . ...
ROW 0C : B-3 0F . ... ... ... : ... .. . ... ... : ... .. . ... ... : ... .. . ... : ... .. . ...
ROW 0D : ... .. . ... ... ... : ... .. . ... ... : ... .. . ... ... : ... .. . ... : ... .. . ...
ROW 0E : ... .. . ... ... ... : ... .. . ... ... : ... .. . ... ... : ... .. . ... : ... .. . ...
ROW 0F : ... .. . ... ... ... : ... .. . ... ... : ... .. . ... ... : ... .. . ... : ... .. . ...
ROW 10 : G#3 0F . ... ... ... : ... .. . ... ... : ... .. . ... ... : ... .. . ... : ... .. . ...
ROW 11 : ... .. . ... ... ... : ... .. . ... ... : ... .. . ... ... : ... .. . ... : ... .. . ...
ROW 12 : ... .. . ... ... ... : ... .. . ... ... : ... .. . ... ... : ... .. . ... : ... .. . ...
ROW 13 : ... .. . ... ... ... : ... .. . ... ... : ... .. . ... ... : ... .. . ... : ... .. . ...
ROW 14 : B-3 0F 1 ... ... ... : ... .. . ... ... : ... .. . ... ... : ... .. . ... : ... .. . ...
ROW 15 : ... .. . ... ... ... : ... .. . ... ... : ... .. . ... ... : ... .. . ... : ... .. . ...
ROW 16 : ... .. . ... ... ... : ... .. . ... ... : ... .. . ... ... : ... .. . ... : ... .. . ...
ROW 17 : ... .. . ... ... ... : ... .. . ... ... : ... .. . ... ... : ... .. . ... : ... .. . ...
ROW 18 : D#4 0F 6 ... ... ... : ... .. . ... ... : ... .. . ... ... : ... .. . ... : ... .. . ...
ROW 19 : ... .. . ... ... ... : ... .. . ... ... : ... .. . ... ... : ... .. . ... : ... .. . ...
ROW 1A : ... .. . ... ... ... : ... .. . ... ... : ... .. . ... ... : ... .. . ... : ... .. . ...
ROW 1B : ... .. . ... ... ... : ... .. . ... ... : ... .. . ... ... : ... .. . ... : ... .. . ...
ROW 1C : C#4 0F . ... ... ... : ... .. . ... ... : ... .. . ... ... : ... .. . ... : ... .. . ...
ROW 1D : ... .. . ... ... ... : ... .. . ... ... : ... .. . ... ... : ... .. . ... : ... .. . ...
ROW 1E : ... .. . ... ... ... : ... .. . ... ... : ... .. . ... ... : ... .. . ... : ... .. . ...
ROW 1F : ... .. . ... ... ... : ... .. . ... ... : ... .. . ... ... : ... .. . ... : ... .. . ...
ROW 20 : D#4 0F . ... ... ... : F-4 07 1 101 ... : ... .. . ... ... : ... .. . ... : ... .. . ...
ROW 21 : ... .. . ... ... ... : ... .. . ... ... : ... .. . ... ... : ... .. . ... : ... .. . ...
ROW 22 : ... .. . ... ... ... : ... .. . ... ... : ... .. . ... ... : ... .. . ... : ... .. . ...
ROW 23 : ... .. . ... ... ... : ... .. . ... ... : ... .. . ... ... : ... .. . ... : ... .. . ...
ROW 24 : G#3 0F . ... ... ... : ... .. 1 ... 411 : ... .. . ... ... : ... .. . ... : ... .. . ...
ROW 25 : ... .. . ... ... ... : ... .. . ... ... : ... .. . ... ... : ... .. . ... : ... .. . ...
ROW 26 : ... .. . ... ... ... : ... .. . ... ... : ... .. . ... ... : ... .. . ... : ... .. . ...
ROW 27 : ... .. . ... ... ... : ... .. . ... ... : ... .. . ... ... : ... .. . ... : ... .. . ...
ROW 28 : B-3 0F . ... ... ... : ... .. 2 ... 444 : ... .. . ... ... : ... .. . ... : ... .. . ...
ROW 29 : ... .. . ... ... ... : ... .. . ... ... : ... .. . ... ... : ... .. . ... : ... .. . ...
ROW 2A : ... .. . ... ... ... : ... .. . ... ... : ... .. . ... ... : ... .. . ... : ... .. . ...
ROW 2B : ... .. . ... ... ... : ... .. . ... ... : ... .. . ... ... : ... .. . ... : ... .. . ...
ROW 2C : D-4 0F . ... ... ... : ... .. 4 ... 488 : ... .. . ... ... : ... .. . ... : ... .. . ...
ROW 2D : ... .. . ... ... ... : ... .. . ... ... : ... .. . ... ... : ... .. . ... : ... .. . ...
ROW 2E : ... .. . ... ... ... : ... .. . ... ... : ... .. . ... ... : ... .. . ... : ... .. . ...
ROW 2F : ... .. . ... ... ... : ... .. . ... ... : ... .. . ... ... : ... .. . ... : ... .. . ...

PATTERN 22
ROW 00 : D#4 0F 6 ... ... ... : F-2 0F 6 100 400 : ... .. . ... ... : ... .. . ... : ... .. . ...
ROW 01 : ... .. . ... ... ... : ... .. . ... ... : ... .. . ... ... : ... .. . ... : ... .. . ...
ROW 02 : ... .. . ... ... ... : ... .. . ... ... : ... .. . ... ... : ... .. . ... : ... .. . ...
ROW 03 : ... .. . ... ... ... : ... .. . ... ... : ... .. . ... ... : ... .. . ... : ... .. . ...
ROW 04 : ... .. . ... ... ... : D#2 0F . ... ... : ... .. . ... ... : ... .. . ... : ... .. . ...
ROW 05 : ... .. . ... ... ... : ... .. . ... ... : ... .. . ... ... : ... .. . ... : ... .. . ...
ROW 06 : ... .. . ... ... ... : ... .. . ... ... : ... .. . ... ... : ... .. . ... : ... .. . ...
ROW 07 : ... .. . ... ... ... : ... .. . ... ... : ... .. . ... ... : ... .. . ... : ... .. . ...
ROW 08 : D#4 0F 3 ... ... ... : F-2 0F . ... ... : ... .. . ... ... : ... .. . ... : ... .. . ...
ROW 09 : ... .. . ... ... ... : ... .. . ... ... : ... .. . ... ... : ... .. . ... : ... .. . ...
ROW 0A : ... .. . ... ... ... : ... .. . ... ... : ... .. . ... ... : ... .. . ... : ... .. . ...
ROW 0B : ... .. . ... ... ... : ... .. . ... ... : ... .. . ... ... : ... .. . ... : ... .. . ...
ROW 0C : ... .. . ... ... ... : C#2 0F . ... ... : ... .. . ... ... : ... .. . ... : ... .. . ...
ROW 0D : ... .. . ... ... ... : ... .. . ... ... : ... .. . ... ... : ... .. . ... : ... .. . ...
ROW 0E : ... .. . ... ... ... : ... .. . ... ... : ... .. . ... ... : ... .. . ... : ... .. . ...
ROW 0F : ... .. . ... ... ... : ... .. . ... ... : ... .. . ... ... : ... .. . ... : ... .. . ...
ROW 10 : D#4 0F 1 ... ... ... : A#1 0F . ... ... : ... .. . ... ... : ... .. . ... : ... .. . ...
ROW 11 : ... .. . ... ... ... : ... .. . ... ... : ... .. . ... ... : ... .. . ... : ... .. . ...
ROW 12 : ... .. . ... ... ... : ... .. . ... ... : ... .. . ... ... : ... .. . ... : ... .. . ...
ROW 13 : ... .. . ... ... ... : ... .. . ... ... : ... .. . ... ... : ... .. . ... : ... .. . ...
ROW 14 : ... .. . ... ... ... : C#2 0F 1 ... ... : ... .. . ... ... : ... .. . ... : ... .. . ...
ROW 15 : ... .. . ... ... ... : ... .. . ... ... : ... .. . ... ... : ... .. . ... : ... .. . ...
ROW 16 : ... .. . ... ... ... : ... .. . ... ... : ... .. . ... ... : ... .. . ... : ... .. . ...
ROW 17 : ... .. . ... ... ... : ... .. . ... ... : ... .. . ... ... : ... .. . ... : ... .. . ...
ROW 18 : A#3 0F 6 ... ... ... : F-2 0F 6 ... ... : ... .. . ... ... : ... .. . ... : ... .. . ...
ROW 19 : ... .. . ... ... ... : ... .. . ... ... : ... .. . ... ... : ... .. . ... : ... .. . ...
ROW 1A : ... .. . ... ... ... : ... .. . ... ... : ... .. . ... ... : ... .. . ... : ... .. . ...
ROW 1B : ... .. . ... ... ... : ... .. . ... ... : ... .. . ... ... : ... .. . ... : ... .. . ...
ROW 1C : ... .. . ... ... ... : D#2 0F . ... ... : ... .. . ... ... : ... .. . ... : ... .. . ...
ROW 1D : ... .. . ... ... ... : ... .. . ... ... : ... .. . ... ... : ... .. . ... : ... .. . ...
ROW 1E : ... .. . ... ... ... : ... .. . ... ... : ... .. . ... ... : ... .. . ... : ... .. . ...
ROW 1F : ... .. . ... ... ... : ... .. . ... ... : ... .. . ... ... : ... .. . ... : ... .. . ...
ROW 20 : A#3 0F 3 ... ... ... : F-2 0F . ... ... : ... .. . ... ... : ... .. . ... : ... .. . ...
ROW 21 : ... .. . ... ... ... : ... .. . ... ... : ... .. . ... ... : ... .. . ... : ... .. . ...
ROW 22 : ... .. . ... ... ... : ... .. . ... ... : ... .. . ... ... : ... .. . ... : ... .. . ...
ROW 23 : ... .. . ... ... ... : ... .. . ... ... : ... .. . ... ... : ... .. . ... : ... .. . ...
ROW 24 : ... .. . ... ... ... : A#1 0F . ... ... : ... .. . ... ... : ... .. . ... : ... .. . ...
ROW 25 : ... .. . ... ... ... : ... .. . ... ... : ... .. . ... ... : ... .. . ... : ... .. . ...
ROW 26 : ... .. . ... ... ... : ... .. . ... ... : ... .. . ... ... : ... .. . ... : ... .. . ...
ROW 27 : ... .. . ... ... ... : ... .. . ... ... : ... .. . ... ... : ... .. . ... : ... .. . ...
ROW 28 : A#3 0F 1 ... ... ... : C#2 0F . ... ... : ... .. . ... ... : ... .. . ... : ... .. . ...
ROW 29 : ... .. . ... ... ... : ... .. . ... ... : ... .. . ... ... : ... .. . ... : ... .. . ...
ROW 2A : ... .. . ... ... ... : ... .. . ... ... : ... .. . ... ... : ... .. . ... : ... .. . ...
ROW 2B : ... .. . ... ... ... : ... .. . ... ... : ... .. . ... ... : ... .. . ... : ... .. . ...
ROW 2C : ... .. . ... ... ... : E-2 0F . ... ... : ... .. . ... ... : ... .. . ... : ... .. . ...
ROW 2D : ... .. . ... ... ... : ... .. . ... ... : ... .. . ... ... : ... .. . ... : ... .. . ...
ROW 2E : ... .. . ... ... ... : ... .. . ... ... : ... .. . ... ... : ... .. . ... : ... .. . ...
ROW 2F : ... .. . ... ... ... : ... .. . ... ... : ... .. . ... ... : ... .. . ... : ... .. . ...

PATTERN 23
ROW 00 : E-3 06 1 ... ... ... : F-2 0F 6 ... ... : ... .. . ... ... : ... .. . ... : ... .. . ...
ROW 01 : ... .. . ... ... ... : ... .. . ... ... : ... .. . ... ... : ... .. . ... : ... .. . ...
ROW 02 : ... .. . ... ... ... : ... .. . ... ... : ... .. . ... ... : ... .. . ... : ... .. . ...
ROW 03 : ... .. 1 ... ... ... : ... .. . ... ... : ... .. . ... ... : ... .. . ... : ... .. . ...
ROW 04 : ... .. . ... ... ... : ... .. . ... ... : ... .. . ... ... : ... .. . ... : ... .. . ...
ROW 05 : ... .. . ... ... ... : ... .. . ... ... : ... .. . ... ... : ... .. . ... : ... .. . ...
ROW 06 : E-3 06 2 ... ... ... : ... .. . ... ... : ... .. . ... ... : ... .. . ... : ... .. . ...
ROW 07 : ... .. . ... ... ... : ... .. . ... ... : ... .. . ... ... : ... .. . ... : ... .. . ...
ROW 08 : ... .. . ... ... ... : F-2 0F 3 ... ... : ... .. . ... ... : ... .. . ... : ... .. . ...
ROW 09 : ... .. 2 ... ... ... : ... .. . ... ... : ... .. . ... ... : ... .. . ... : ... .. . ...
ROW 0A : ... .. . ... ... ... : ... .. . ... ... : ... .. . ... ... : ... .. . ... : ... .. . ...
ROW 0B : ... .. . ... ... ... : ... .. . ... ... : ... .. . ... ... : ... .. . ... : ... .. . ...
ROW 0C : E-3 06 1 ... ... ... : ... .. . ... ... : ... .. . ... ... : ... .. . ... : ... .. . ...
ROW 0D : ... .. . ... ... ... : ... .. . ... ... : ... .. . ... ... : ... .. . ... : ... .. . ...
ROW 0E : ... .. 1 ... ... ... : ... .. . ... ... : ... .. . ... ... : ... .. . ... : ... .. . ...
ROW 0F : ... .. . ... ... ... : ... .. . ... ... : ... .. . ... ... : ... .. . ... : ... .. . ...
ROW 10 : G#3 0F 6 ... ... ... : F-2 0F 1 ... ... : ... .. . ... ... : ... .. . ... : ... .. . ...
ROW 11 : ... .. . ... ... ... : ... .. . ... ... : ... .. . ... ... : ... .. . ... : ... .. . ...
ROW 12 : ... .. . ... ... ... : ... .. . ... ... : ... .. . ... ... : ... .. . ... : ... .. . ...
ROW 13 : ... .. . ... ... ... : ... .. . ... ... : ... .. . ... ... : ... .. . ... : ... .. . ...
ROW 14 : ... .. . ... ... ... : ... .. . ... ... : ... .. . ... ... : ... .. . ... : ... .. . ...
ROW 15 : ... .. . ... ... ... : ... .. . ... ... : ... .. . ... ... : ... .. . ... : ... .. . ...
ROW 16 : ... .. . ... ... ... : ... .. . ... ... : ... .. . ... ... : ... .. . ... : ... .. . ...
ROW 17 : ... .. . ... ... ... : ... .. . ... ... : ... .. . ... ... : ... .. . ... : ... .. . ...
ROW 18 : C#4 0F . ... ... ... : C-2 0F 6 ... ... : ... .. . ... ... : ... .. . ... : ... .. . ...
ROW 19 : ... .. . ... ... ... : ... .. . ... ... : ... .. . ... ... : ... .. . ... : ... .. . ...
ROW 1A : ... .. . ... ... ... : ... .. . ... ... : ... .. . ... ... : ... .. . ... : ... .. . ...
ROW 1B : ... .. . ... ... ... : ... .. . ... ... : ... .. . ... ... : ... .. . ... : ... .. . ...
ROW 1C : ... .. . ... ... ... : ... .. . ... ... : ... .. . ... ... : ... .. . ... : ... .. . ...
ROW 1D : ... .. . ... ... ... : ... .. . ... ... : ... .. . ... ... : ... .. . ... : ... .. . ...
ROW 1E : ... .. . ... ... ... : ... .. . ... ... : ... .. . ... ... : ... .. . ... : ... .. . ...
ROW 1F : ... .. . ... ... ... : ... .. . ... ... : ... .. . ... ... : ... .. . ... : ... .. . ...
ROW 20 : C#4 0F 3 ... ... ... : F-3 0C 3 ... ... : ... .. . ... ... : ... .. . ... : ... .. . ...
ROW 21 : ... .. . ... ... ... : ... .. . ... ... : ... .. . ... ... : ... .. . ... : ... .. . ...
ROW 22 : ... .. . ... ... ... : ... .. . ... ... : ... .. . ... ... : ... .. . ... : ... .. . ...
ROW 23 : ... .. . ... ... ... : ... .. . ... ... : ... .. . ... ... : ... .. . ... : ... .. . ...
ROW 24 : ... .. . ... ... ... : F#3 0C . 333 ... : ... .. . ... ... : ... .. . ... : ... .. . ...
ROW 25 : ... .. . ... ... ... : ... .. . ... ... : ... .. . ... ... : ... .. . ... : ... .. . ...
ROW 26 : ... .. . ... ... ... : ... .. . ... ... : ... .. . ... ... : ... .. . ... : ... .. . ...
ROW 27 : ... .. . ... ... ... : ... .. . ... ... : ... .. . ... ... : ... .. . ... : ... .. . ...
ROW 28 : C#4 0F 1 ... ... ... : F-3 0C . ... ... : ... .. . ... ... : ... .. . ... : ... .. . ...
ROW 29 : ... .. . ... ... ... : ... .. . ... ... : ... .. . ... ... : ... .. . ... : ... .. . ...
ROW 2A : ... .. . ... ... ... : F#3 0C . ... ... : ... .. . ... ... : ... .. . ... : ... .. . ...
ROW 2B : ... .. . ... ... ... : F-3 0C . ... ... : ... .. . ... ... : ... .. . ... : ... .. . ...
ROW 2C : B-3 0F 6 ... ... ... : C-3 0C . ... ... : ... .. . ... ... : ... .. . ... : ... .. . ...
ROW 2D : ... .. . ... ... ... : ... .. . ... ... : ... .. . ... ... : ... .. . ... : ... .. . ...
ROW 2E : ... .. . ... ... ... : ... .. . ... ... : ... .. . ... ... : ... .. . ... : ... .. . ...
ROW 2F : ... .. . ... ... ... : ... .. . ... ... : ... .. . ... ... : ... .. . ... : ... .. . ...

PATTERN 24
ROW 00 : A#3 0F 6 ... ... ... : D#3 0C 3 300 ... : ... .. . ... ... : ... .. . ... : ... .. . ...
ROW 01 : ... .. . ... ... ... : ... .. . ... ... : ... .. . ... ... : ... .. . ... : ... .. . ...
ROW 02 : C#4 0F . ... ... ... : ... .. . ... ... : ... .. . ... ... : ... .. . ... : ... .. . ...
ROW 03 : ... .. . ... ... ... : ... .. . ... ... : ... .. . ... ... : ... .. . ... : ... .. . ...
ROW 04 : A#3 0F . ... ... ... : ... .. 2 ... ... : ... .. . ... ... : ... .. . ... : ... .. . ...
ROW 05 : ... .. . ... ... ... : ... .. . ... ... : ... .. . ... ... : ... .. . ... : ... .. . ...
ROW 06 : ... .. . ... ... ... : ... .. 1 ... ... : ... .. . ... ... : ... .. . ... : ... .. . ...
ROW 07 : ... .. . ... ... ... : ... .. . ... ... : ... .. . ... ... : ... .. . ... : ... .. . ...
ROW 08 : A#3 0F 3 ... ... ... : D#2 0F 6 ... ... : ... .. . ... ... : ... .. . ... : ... .. . ...
ROW 09 : ... .. . ... ... ... : ... .. . ... ... : ... .. . ... ... : ... .. . ... : ... .. . ...
ROW 0A : C#4 0F . ... ... ... : ... .. . ... ... : ... .. . ... ... : ... .. . ... : ... .. . ...
ROW 0B : ... .. . ... ... ... : ... .. . ... ... : ... .. . ... ... : ... .. . ... : ... .. . ...
ROW 0C : A#3 0F . ... ... ... : B-1 0F . ... ... : ... .. . ... ... : ... .. . ... : ... .. . ...
ROW 0D : ... .. . ... ... ... : ... .. . ... ... : ... .. . ... ... : ... .. . ... : ... .. . ...
ROW 0E : ... .. . ... ... ... : ... .. . ... ... : ... .. . ... ... : ... .. . ... : ... .. . ...
ROW 0F : ... .. . ... ... ... : ... .. . ... ... : ... .. . ... ... : ... .. . ... : ... .. . ...
ROW 10 : A#3 0F 1 ... ... ... : G#1 0F . ... ... : ... .. . ... ... : ... .. . ... : ... .. . ...
ROW 11 : ... .. . ... ... ... : ... .. . ... ... : ... .. . ... ... : ... .. . ... : ... .. . ...
ROW 12 : C#4 0F . ... ... ... : ... .. . ... ... : ... .. . ... ... : ... .. . ... : ... .. . ...
ROW 13 : ... .. . ... ... ... : ... .. . ... ... : ... .. . ... ... : ... .. . ... : ... .. . ...
ROW 14 : A#3 0F . ... ... ... : B-1 0F 1 ... ... : ... .. . ... ... : ... .. . ... : ... .. . ...
ROW 15 : ... .. . ... ... ... : ... .. . ... ... : ... .. . ... ... : ... .. . ... : ... .. . ...
ROW 16 : ... .. . ... ... ... : ... .. . ... ... : ... .. . ... ... : ... .. . ... : ... .. . ...
ROW 17 : ... .. . ... ... ... : ... .. . ... ... : ... .. . ... ... : ... .. . ... : ... .. . ...
ROW 18 : --- .. . ... ... ... : D#2 0F 6 ... ... : ... .. . ... ... : ... .. . ... : ... .. . ...
ROW 19 : ... .. . ... ... ... : ... .. . ... ... : ... .. . ... ... : ... .. . ... : ... .. . ...
ROW 1A : ... .. . ... ... ... : ... .. . ... ... : ... .. . ... ... : ... .. . ... : ... .. . ...
ROW 1B : ... .. . ... ... ... : ... .. . ... ... : ... .. . ... ... : ... .. . ... : ... .. . ...
ROW 1C : ... .. . ... ... ... : C#2 0F . ... ... : ... .. . ... ... : ... .. . ... : ... .. . ...
ROW 1D : ... .. . ... ... ... : ... .. . ... ... : ... .. . ... ... : ... .. . ... : ... .. . ...
ROW 1E : ... .. . ... ... ... : ... .. . ... ... : ... .. . ... ... : ... .. . ... : ... .. . ...
ROW 1F : ... .. . ... ... ... : ... .. . ... ... : ... .. . ... ... : ... .. . ... : ... .. . ...
ROW 20 : ... .. . ... ... ... : D#2 0F . ... ... : ... .. . ... ... : ... .. . ... : ... .. . ...
ROW 21 : ... .. . ... ... ... : ... .. . ... ... : ... .. . ... ... : ... .. . ... : ... .. . ...
ROW 22 : ... .. . ... ... ... : ... .. . ... ... : ... .. . ... ... : ... .. . ... : ... .. . ...
ROW 23 : ... .. . ... ... ... : ... .. . ... ... : ... .. . ... ... : ... .. . ... : ... .. . ...
ROW 24 : G#3 0F 6 ... ... ... : G#1 0F . ... ... : ... .. . ... ... : ... .. . ... : ... .. . ...
ROW 25 : ... .. . ... ... ... : ... .. . ... ... : ... .. . ... ... : ... .. . ... : ... .. . ...
ROW 26 : ... .. . ... ... ... : ... .. . ... ... : ... .. . ... ... : ... .. . ... : ... .. . ...
ROW 27 : ... .. . ... ... ... : ... .. . ... ... : ... .. . ... ... : ... .. . ... : ... .. . ...
ROW 28 : ... .. . ... ... ... : B-1 0F . ... ... : ... .. . ... ... : ... .. . ... : ... .. . ...
ROW 29 : ... .. . ... ... ... : ... .. . ... ... : ... .. . ... ... : ... .. . ... : ... .. . ...
ROW 2A : ... .. . ... ... ... : ... .. . ... ... : ... .. . ... ... : ... .. . ... : ... .. . ...
ROW 2B : ... .. . ... ... ... : ... .. . ... ... : ... .. . ... ... : ... .. . ... : ... .. . ...
ROW 2C : G#3 0F 2 ... ... ... : D-2 0F . ... ... : ... .. . ... ... : ... .. . ... : ... .. . ...
ROW 2D : ... .. . ... ... ... : ... .. . ... ... : ... .. . ... ... : ... .. . ... : ... .. . ...
ROW 2E : ... .. . ... ... ... : ... .. . ... ... : ... .. . ... ... : ... .. . ... : ... .. . ...
ROW 2F : ... .. . ... ... ... : ... .. . ... ... : ... .. . ... ... : ... .. . ... : ... .. . ...

PATTERN 25
ROW 00 : G#3 0F 6 ... ... ... : D#2 0F 6 ... ... : ... .. . ... ... : ... .. . ... : ... .. . ...
ROW 01 : ... .. . ... ... ... : ... .. . ... ... : ... .. . ... ... : ... .. . ... : ... .. . ...
ROW 02 : ... .. . ... ... ... : ... .. . ... ... : ... .. . ... ... : ... .. . ... : ... .. . ...
ROW 03 : ... .. . ... ... ... : ... .. . ... ... : ... .. . ... ... : ... .. . ... : ... .. . ...
ROW 04 : ... .. . ... ... ... : ... .. . ... ... : ... .. . ... ... : ... .. . ... : ... .. . ...
ROW 05 : ... .. . ... ... ... : ... .. . ... ... : ... .. . ... ... : ... .. . ... : ... .. . ...
ROW 06 : ... .. . ... ... ... : ... .. . ... ... : ... .. . ... ... : ... .. . ... : ... .. . ...
ROW 07 : ... .. . ... ... ... : ... .. . ... ... : ... .. . ... ... : ... .. . ... : ... .. . ...
ROW 08 : G#3 0F 3 ... ... ... : D#2 0F 3 ... ... : ... .. . ... ... : ... .. . ... : ... .. . ...
ROW 09 : ... .. . ... ... ... : ... .. . ... ... : ... .. . ... ... : ... .. . ... : ... .. . ...
ROW 0A : ... .. . ... ... ... : ... .. . ... ... : ... .. . ... ... : ... .. . ... : ... .. . ...
ROW 0B : ... .. . ... ... ... : ... .. . ... ... : ... .. . ... ... : ... .. . ... : ... .. . ...
ROW 0C : ... .. . ... ... ... : ... .. . ... ... : ... .. . ... ... : ... .. . ... : ... .. . ...
ROW 0D : ... .. . ... ... ... : ... .. . ... ... : ... .. . ... ... : ... .. . ... : ... .. . ...
ROW 0E : ... .. . ... ... ... : ... .. . ... ... : ... .. . ... ... : ... .. . ... : ... .. . ...
ROW 0F : ... .. . ... ... ... : ... .. . ... ... : ... .. . ... ... : ... .. . ... : ... .. . ...
ROW 10 : G#3 0F 1 ... ... ... : D#2 0F 1 ... ... : ... .. . ... ... : ... .. . ... : ... .. . ...
ROW 11 : ... .. . ... ... ... : ... .. . ... ... : ... .. . ... ... : ... .. . ... : ... .. . ...
ROW 12 : ... .. . ... ... ... : ... .. . ... ... : ... .. . ... ... : ... .. . ... : ... .. . ...
ROW 13 : ... .. . ... ... ... : ... .. . ... ... : ... .. . ... ... : ... .. . ... : ... .. . ...
ROW 14 : ... .. . ... ... ... : ... .. . ... ... : ... .. . ... ... : ... .. . ... : ... .. . ...
ROW 15 : ... .. . ... ... ... : ... .. . ... ... : ... .. . ... ... : ... .. . ... : ... .. . ...
ROW 16 : ... .. . ... ... ... : ... .. . ... ... : ... .. . ... ... : ... .. . ... : ... .. . ...
ROW 17 : ... .. . ... ... ... : ... .. . ... ... : ... .. . ... ... : ... .. . ... : ... .. . ...
ROW 18 : C#3 11 1 ... ... ... : A#1 0F 6 ... ... : ... .. . ... ... : ... .. . ... : ... .. . ...
ROW 19 : ... .. . ... ... ... : ... .. . ... ... : ... .. . ... ... : ... .. . ... : ... .. . ...
ROW 1A : ... .. . ... ... ... : ... .. . ... ... : ... .. . ... ... : ... .. . ... : ... .. . ...
ROW 1B : ... .. . ... ... ... : ... .. . ... ... : ... .. . ... ... : ... .. . ... : ... .. . ...
ROW 1C : ... .. . ... ... ... : ... .. . ... ... : ... .. . ... ... : ... .. . ... : ... .. . ...
ROW 1D : ... .. . ... ... ... : ... .. . ... ... : ... .. . ... ... : ... .. . ... : ... .. . ...
ROW 1E : ... .. 2 ... ... ... : ... .. . ... ... : ... .. . ... ... : ... .. . ... : ... .. . ...
ROW 1F : ... .. . ... ... ... : ... .. . ... ... : ... .. . ... ... : ... .. . ... : ... .. . ...
ROW 20 : ... .. . ... ... ... : A#1 0F 3 ... ... : ... .. . ... ... : ... .. . ... : ... .. . ...
ROW 21 : ... .. . ... ... ... : ... .. . ... ... : ... .. . ... ... : ... .. . ... : ... .. . ...
ROW 22 : ... .. . ... ... ... : ... .. . ... ... : ... .. . ... ... : ... .. . ... : ... .. . ...
ROW 23 : ... .. . ... ... ... : ... .. . ... ... : ... .. . ... ... : ... .. . ... : ... .. . ...
ROW 24 : B-2 06 2 ... ... ... : D#3 0C 2 ... ... : ... .. . ... ... : ... .. . ... : ... .. . ...
ROW 25 : ... .. . ... ... ... : ... .. . ... ... : ... .. . ... ... : ... .. . ... : ... .. . ...
ROW 26 : ... .. . ... ... ... : ... .. . ... ... : ... .. . ... ... : ... .. . ... : ... .. . ...
ROW 27 : ... .. . ... ... ... : ... .. . ... ... : ... .. . ... ... : ... .. . ... : ... .. . ...
ROW 28 : ... .. . ... ... ... : C#3 0C . 333 ... : ... .. . ... ... : ... .. . ... : ... .. . ...
ROW 29 : ... .. . ... ... ... : ... .. . ... ... : ... .. . ... ... : ... .. . ... : ... .. . ...
ROW 2A : ... .. 1 ... ... ... : ... .. . ... ... : ... .. . ... ... : ... .. . ... : ... .. . ...
ROW 2B : ... .. . ... ... ... : ... .. . ... ... : ... .. . ... ... : ... .. . ... : ... .. . ...
ROW 2C : ... .. . ... ... ... : B-2 0C . ... ... : ... .. . ... ... : ... .. . ... : ... .. . ...
ROW 2D : ... .. . ... ... ... : ... .. . ... ... : ... .. . ... ... : ... .. . ... : ... .. . ...
ROW 2E : ... .. . ... ... ... : ... .. . ... ... : ... .. . ... ... : ... .. . ... : ... .. . ...
ROW 2F : ... .. . ... ... ... : ... .. . ... ... : ... .. . ... ... : ... .. . ... : ... .. . ...

PATTERN 26
ROW 00 : G#3 05 6 ... ... ... : D#3 0C 3 300 ... : ... .. . ... ... : ... .. . ... : ... .. . ...
ROW 01 : ... .. . ... ... ... : ... .. . ... ... : ... .. . ... ... : ... .. . ... : ... .. . ...
ROW 02 : G#3 05 2 ... ... ... : ... .. . ... ... : ... .. . ... ... : ... .. . ... : ... .. . ...
ROW 03 : ... .. . ... ... ... : ... .. 2 ... ... : ... .. . ... ... : ... .. . ... : ... .. . ...
ROW 04 : E-3 05 6 ... ... ... : ... .. . ... ... : ... .. . ... ... : ... .. . ... : ... .. . ...
ROW 05 : ... .. . ... ... ... : ... .. . ... ... : ... .. . ... ... : ... .. . ... : ... .. . ...
ROW 06 : E-3 05 2 ... ... ... : ... .. 1 ... ... : ... .. . ... ... : ... .. . ... : ... .. . ...
ROW 07 : ... .. . ... ... ... : ... .. . ... ... : ... .. . ... ... : ... .. . ... : ... .. . ...
ROW 08 : D#3 05 6 ... ... ... : G#3 11 2 ... ... : ... .. . ... ... : ... .. . ... : ... .. . ...
ROW 09 : ... .. . ... ... ... : ... .. . ... ... : ... .. . ... ... : ... .. . ... : ... .. . ...
ROW 0A : D#3 05 2 ... ... ... : ... .. . ... ... : ... .. . ... ... : ... .. . ... : ... .. . ...
ROW 0B : ... .. . ... ... ... : ... .. 2 ... ... : ... .. . ... ... : ... .. . ... : ... .. . ...
ROW 0C : E-3 05 6 ... ... ... : ... .. . ... ... : ... .. . ... ... : ... .. . ... : ... .. . ...
ROW 0D : ... .. . ... ... ... : ... .. . ... ... : ... .. . ... ... : ... .. . ... : ... .. . ...
ROW 0E : E-3 05 2 ... ... ... : G#3 11 1 ... ... : ... .. . ... ... : ... .. . ... : ... .. . ...
ROW 0F : ... .. . ... ... ... : ... .. . ... ... : ... .. . ... ... : ... .. . ... : ... .. . ...
ROW 10 : D#3 05 6 ... ... ... : G#1 0F 6 ... ... : ... .. . ... ... : ... .. . ... : ... .. . ...
ROW 11 : ... .. . ... ... ... : ... .. . ... ... : ... .. . ... ... : ... .. . ... : ... .. . ...
ROW 12 : D#3 05 2 ... ... ... : ... .. . ... ... : ... .. . ... ... : ... .. . ... : ... .. . ...
ROW 13 : ... .. . ... ... ... : ... .. . ... ... : ... .. . ... ... : ... .. . ... : ... .. . ...
ROW 14 : C#3 05 6 ... ... ... : ... .. . ... ... : ... .. . ... ... : ... .. . ... : ... .. . ...
ROW 15 : ... .. . ... ... ... : ... .. . ... ... : ... .. . ... ... : ... .. . ... : ... .. . ...
ROW 16 : C#3 05 2 ... ... ... : ... .. . ... ... : ... .. . ... ... : ... .. . ... : ... .. . ...
ROW 17 : ... .. . ... ... ... : ... .. . ... ... : ... .. . ... ... : ... .. . ... : ... .. . ...
ROW 18 : C-3 05 6 ... ... ... : C#2 0F . ... ... : ... .. . ... ... : ... .. . ... : ... .. . ...
ROW 19 : ... .. . ... ... ... : ... .. . ... ... : ... .. . ... ... : ... .. . ... : ... .. . ...
ROW 1A : C-3 05 2 ... ... ... : ... .. . ... ... : ... .. . ... ... : ... .. . ... : ... .. . ...
ROW 1B : ... .. . ... ... ... : ... .. . ... ... : ... .. . ... ... : ... .. . ... : ... .. . ...
ROW 1C : C#3 05 6 ... ... ... : ... .. . ... ... : ... .. . ... ... : ... .. . ... : ... .. . ...
ROW 1D : ... .. . ... ... ... : ... .. . ... ... : ... .. . ... ... : ... .. . ... : ... .. . ...
ROW 1E : C#3 05 2 ... ... ... : ... .. . ... ... : ... .. . ... ... : ... .. . ... : ... .. . ...
ROW 1F : ... .. . ... ... ... : ... .. . ... ... : ... .. . ... ... : ... .. . ... : ... .. . ...
ROW 20 : E-3 05 6 ... ... ... : C#2 0F 3 ... ... : ... .. . ... ... : ... .. . ... : ... .. . ...
ROW 21 : ... .. . ... ... ... : ... .. . ... ... : ... .. . ... ... : ... .. . ... : ... .. . ...
ROW 22 : E-3 05 2 ... ... ... : ... .. . ... ... : ... .. . ... ... : ... .. . ... : ... .. . ...
ROW 23 : ... .. . ... ... ... : ... .. . ... ... : ... .. . ... ... : ... .. . ... : ... .. . ...
ROW 24 : G-3 05 6 ... ... ... : ... .. . ... ... : ... .. . ... ... : ... .. . ... : ... .. . ...
ROW 25 : ... .. . ... ... ... : ... .. . ... ... : ... .. . ... ... : ... .. . ... : ... .. . ...
ROW 26 : G-3 05 2 ... ... ... : ... .. . ... ... : ... .. . ... ... : ... .. . ... : ... .. . ...
ROW 27 : ... .. . ... ... ... : ... .. . ... ... : ... .. . ... ... : ... .. . ... : ... .. . ...
ROW 28 : A#3 05 6 ... ... ... : C#2 0F 1 ... ... : ... .. . ... ... : ... .. . ... : ... .. . ...
ROW 29 : ... .. . ... ... ... : ... .. . ... ... : ... .. . ... ... : ... .. . ... : ... .. . ...
ROW 2A : A#3 05 2 ... ... ... : ... .. . ... ... : ... .. . ... ... : ... .. . ... : ... .. . ...
ROW 2B : ... .. . ... ... ... : ... .. . ... ... : ... .. . ... ... : ... .. . ... : ... .. . ...
ROW 2C : C-4 05 6 ... ... ... : B-1 0F 6 ... ... : ... .. . ... ... : ... .. . ... : ... .. . ...
ROW 2D : ... .. . ... ... ... : ... .. . ... ... : ... .. . ... ... : ... .. . ... : ... .. . ...
ROW 2E : C-4 05 3 ... ... ... : ... .. . ... ... : ... .. . ... ... : ... .. . ... : ... .. . ...
ROW 2F : ... .. . ... ... ... : ... .. . ... ... : ... .. . ... ... : ... .. . ... : ... .. . ...

PATTERN 27
ROW 00 : ... .. . ... ... ... : A#1 0F 6 ... ... : ... .. . ... ... : ... .. . ... : ... .. . ...
ROW 01 : ... .. . ... ... ... : ... .. . ... ... : ... .. . ... ... : ... .. . ... : ... .. . ...
ROW 02 : ... .. . ... ... ... : C#2 0F . ... ... : ... .. . ... ... : ... .. . ... : ... .. . ...
ROW 03 : ... .. . ... ... ... : ... .. . ... ... : ... .. . ... ... : ... .. . ... : ... .. . ...
ROW 04 : ... .. . ... ... ... : A#1 0F . ... ... : ... .. . ... ... : ... .. . ... : ... .. . ...
ROW 05 : ... .. . ... ... ... : ... .. . ... ... : ... .. . ... ... : ... .. . ... : ... .. . ...
ROW 06 : ... .. . ... ... ... : ... .. . ... ... : ... .. . ... ... : ... .. . ... : ... .. . ...
ROW 07 : ... .. . ... ... ... : ... .. . ... ... : ... .. . ... ... : ... .. . ... : ... .. . ...
ROW 08 : ... .. . ... ... ... : A#1 0F 3 ... ... : ... .. . ... ... : ... .. . ... : ... .. . ...
ROW 09 : ... .. . ... ... ... : ... .. . ... ... : ... .. . ... ... : ... .. . ... : ... .. . ...
ROW 0A : ... .. . ... ... ... : C#2 0F . ... ... : ... .. . ... ... : ... .. . ... : ... .. . ...
ROW 0B : ... .. . ... ... ... : ... .. . ... ... : ... .. . ... ... : ... .. . ... : ... .. . ...
ROW 0C : ... .. . ... ... ... : A#1 0F . ... ... : ... .. . ... ... : ... .. . ... : ... .. . ...
ROW 0D : ... .. . ... ... ... : ... .. . ... ... : ... .. . ... ... : ... .. . ... : ... .. . ...
ROW 0E : ... .. . ... ... ... : ... .. . ... ... : ... .. . ... ... : ... .. . ... : ... .. . ...
ROW 0F : ... .. . ... ... ... : ... .. . ... ... : ... .. . ... ... : ... .. . ... : ... .. . ...
ROW 10 : ... .. . ... ... ... : A#1 0F 1 ... ... : ... .. . ... ... : ... .. . ... : ... .. . ...
ROW 11 : ... .. . ... ... ... : ... .. . ... ... : ... .. . ... ... : ... .. . ... : ... .. . ...
ROW 12 : ... .. . ... ... ... : C#2 0F . ... ... : ... .. . ... ... : ... .. . ... : ... .. . ...
ROW 13 : ... .. . ... ... ... : ... .. . ... ... : ... .. . ... ... : ... .. . ... : ... .. . ...
ROW 14 : ... .. . ... ... ... : A#1 0F . ... ... : ... .. . ... ... : ... .. . ... : ... .. . ...
ROW 15 : ... .. . ... ... ... : ... .. . ... ... : ... .. . ... ... : ... .. . ... : ... .. . ...
ROW 16 : ... .. . ... ... ... : ... .. . ... ... : ... .. . ... ... : ... .. . ... : ... .. . ...
ROW 17 : ... .. . ... ... ... : ... .. . ... ... : ... .. . ... ... : ... .. . ... : ... .. . ...
ROW 18 : ... .. . ... ... ... : --- .. . ... ... : ... .. . ... ... : ... .. . ... : ... .. . ...
ROW 19 : ... .. . ... ... ... : ... .. . ... ... : ... .. . ... ... : ... .. . ... : ... .. . ...
ROW 1A : ... .. . ... ... ... : ... .. . ... ... : ... .. . ... ... : ... .. . ... : ... .. . ...
ROW 1B : ... .. . ... ... ... : ... .. . ... ... : ... .. . ... ... : ... .. . ... : ... .. . ...
ROW 1C : ... .. . ... ... ... : ... .. . ... ... : ... .. . ... ... : ... .. . ... : ... .. . ...
ROW 1D : ... .. . ... ... ... : ... .. . ... ... : ... .. . ... ... : ... .. . ... : ... .. . ...
ROW 1E : ... .. . ... ... ... : ... .. . ... ... : ... .. . ... ... : ... .. . ... : ... .. . ...
ROW 1F : ... .. . ... ... ... : ... .. . ... ... : ... .. . ... ... : ... .. . ... : ... .. . ...
ROW 20 : ... .. . ... ... ... : ... .. . ... ... : ... .. . ... ... : ... .. . ... : ... .. . ...
ROW 21 : ... .. . ... ... ... : ... .. . ... ... : ... .. . ... ... : ... .. . ... : ... .. . ...
ROW 22 : ... .. . ... ... ... : ... .. . ... ... : ... .. . ... ... : ... .. . ... : ... .. . ...
ROW 23 : ... .. . ... ... ... : ... .. . ... ... : ... .. . ... ... : ... .. . ... : ... .. . ...
ROW 24 : ... .. . ... ... ... : G#1 0F 6 ... ... : ... .. . ... ... : ... .. . ... : ... .. . ...
ROW 25 : ... .. . ... ... ... : ... .. . ... ... : ... .. . ... ... : ... .. . ... : ... .. . ...
ROW 26 : ... .. . ... ... ... : ... .. . ... ... : ... .. . ... ... : ... .. . ... : ... .. . ...
ROW 27 : ... .. . ... ... ... : ... .. . ... ... : ... .. . ... ... : ... .. . ... : ... .. . ...
ROW 28 : ... .. . ... ... ... : ... .. . ... ... : ... .. . ... ... : ... .. . ... : ... .. . ...
ROW 29 : ... .. . ... ... ... : ... .. . ... ... : ... .. . ... ... : ... .. . ... : ... .. . ...
ROW 2A : ... .. . ... ... ... : ... .. . ... ... : ... .. . ... ... : ... .. . ... : ... .. . ...
ROW 2B : ... .. . ... ... ... : ... .. . ... ... : ... .. . ... ... : ... .. . ... : ... .. . ...
ROW 2C : ... .. . ... ... ... : G#1 0F 2 ... ... : ... .. . ... ... : ... .. . ... : ... .. . ...
ROW 2D : ... .. . ... ... ... : ... .. . ... ... : ... .. . ... ... : ... .. . ... : ... .. . ...
ROW 2E : ... .. . ... ... ... : ... .. . ... ... : ... .. . ... ... : ... .. . ... : ... .. . ...
ROW 2F : ... .. . ... ... ... : ... .. . ... ... : ... .. . ... ... : ... .. . ... : ... .. . ...

PATTERN 28
ROW 00 : ... .. . ... ... ... : G#1 0F 6 ... ... : ... .. . ... ... : ... .. . ... : ... .. . ...
ROW 01 : ... .. . ... ... ... : ... .. . ... ... : ... .. . ... ... : ... .. . ... : ... .. . ...
ROW 02 : ... .. . ... ... ... : ... .. . ... ... : ... .. . ... ... : ... .. . ... : ... .. . ...
ROW 03 : ... .. . ... ... ... : ... .. . ... ... : ... .. . ... ... : ... .. . ... : ... .. . ...
ROW 04 : ... .. . ... ... ... : ... .. . ... ... : ... .. . ... ... : ... .. . ... : ... .. . ...
ROW 05 : ... .. . ... ... ... : ... .. . ... ... : ... .. . ... ... : ... .. . ... : ... .. . ...
ROW 06 : ... .. . ... ... ... : ... .. . ... ... : ... .. . ... ... : ... .. . ... : ... .. . ...
ROW 07 : ... .. . ... ... ... : ... .. . ... ... : ... .. . ... ... : ... .. . ... : ... .. . ...
ROW 08 : ... .. . ... ... ... : G#1 0F 3 ... ... : ... .. . ... ... : ... .. . ... : ... .. . ...
ROW 09 : ... .. . ... ... ... : ... .. . ... ... : ... .. . ... ... : ... .. . ... : ... .. . ...
ROW 0A : ... .. . ... ... ... : ... .. . ... ... : ... .. . ... ... : ... .. . ... : ... .. . ...
ROW 0B : ... .. . ... ... ... : ... .. . ... ... : ... .. . ... ... : ... .. . ... : ... .. . ...
ROW 0C : ... .. . ... ... ... : E-2 15 6 ... ... : ... .. . ... ... : ... .. . ... : ... .. . ...
ROW 0D : ... .. . ... ... ... : ... .. . ... ... : ... .. . ... ... : ... .. . ... : ... .. . ...
ROW 0E : ... .. . ... ... ... : ... .. . ... ... : ... .. . ... ... : ... .. . ... : ... .. . ...
ROW 0F : ... .. . ... ... ... : ... .. . ... ... : ... .. . ... ... : ... .. . ... : ... .. . ...
ROW 10 : ... .. . ... ... ... : G#2 15 . ... ... : ... .. . ... ... : ... .. . ... : ... .. . ...
ROW 11 : ... .. . ... ... ... : ... .. . ... ... : ... .. . ... ... : ... .. . ... : ... .. . ...
ROW 12 : ... .. . ... ... ... : ... .. . ... ... : ... .. . ... ... : ... .. . ... : ... .. . ...
ROW 13 : ... .. . ... ... ... : ... .. . ... ... : ... .. . ... ... : ... .. . ... : ... .. . ...
ROW 14 : ... .. . ... ... ... : C#3 15 . ... ... : ... .. . ... ... : ... .. . ... : ... .. . ...
ROW 15 : ... .. . ... ... ... : ... .. . ... ... : ... .. . ... ... : ... .. . ... : ... .. . ...
ROW 16 : ... .. . ... ... ... : ... .. . ... ... : ... .. . ... ... : ... .. . ... : ... .. . ...
ROW 17 : ... .. . ... ... ... : ... .. . ... ... : ... .. . ... ... : ... .. . ... : ... .. . ...
ROW 18 : ... .. . ... ... ... : --- .. . ... ... : ... .. . ... ... : ... .. . ... : ... .. . ...
ROW 19 : ... .. . ... ... ... : ... .. . ... ... : ... .. . ... ... : ... .. . ... : ... .. . ...
ROW 1A : ... .. . ... ... ... : ... .. . ... ... : ... .. . ... ... : ... .. . ... : ... .. . ...
ROW 1B : ... .. . ... ... ... : ... .. . ... ... : ... .. . ... ... : ... .. . ... : ... .. . ...
ROW 1C : ... .. . ... ... ... : C#3 11 1 ... ... : ... .. . ... ... : ... .. . ... : ... .. . ...
ROW 1D : ... .. . ... ... ... : ... .. . ... ... : ... .. . ... ... : ... .. . ... : ... .. . ...
ROW 1E : ... .. . ... ... ... : ... .. . ... ... : ... .. . ... ... : ... .. . ... : ... .. . ...
ROW 1F : ... .. . ... ... ... : ... .. . ... ... : ... .. . ... ... : ... .. . ... : ... .. . ...
ROW 20 : ... .. . ... ... ... : ... .. . ... ... : ... .. . ... ... : ... .. . ... : ... .. . ...
ROW 21 : ... .. . ... ... ... : ... .. . ... ... : ... .. . ... ... : ... .. . ... : ... .. . ...
ROW 22 : ... .. . ... ... ... : ... .. 2 ... ... : ... .. . ... ... : ... .. . ... : ... .. . ...
ROW 23 : ... .. . ... ... ... : ... .. . ... ... : ... .. . ... ... : ... .. . ... : ... .. . ...
ROW 24 : ... .. . ... ... ... : ... .. . ... ... : ... .. . ... ... : ... .. . ... : ... .. . ...
ROW 25 : ... .. . ... ... ... : ... .. . ... ... : ... .. . ... ... : ... .. . ... : ... .. . ...
ROW 26 : ... .. . ... ... ... : ... .. . ... ... : ... .. . ... ... : ... .. . ... : ... .. . ...
ROW 27 : ... .. . ... ... ... : ... .. . ... ... : ... .. . ... ... : ... .. . ... : ... .. . ...
ROW 28 : ... .. . ... ... ... : B-2 06 2 ... ... : ... .. . ... ... : ... .. . ... : ... .. . ...
ROW 29 : ... .. . ... ... ... : ... .. . ... ... : ... .. . ... ... : ... .. . ... : ... .. . ...
ROW 2A : ... .. . ... ... ... : ... .. . ... ... : ... .. . ... ... : ... .. . ... : ... .. . ...
ROW 2B : ... .. . ... ... ... : ... .. . ... ... : ... .. . ... ... : ... .. . ... : ... .. . ...
ROW 2C : ... .. . ... ... ... : ... .. . ... ... : ... .. . ... ... : ... .. . ... : ... .. . ...
ROW 2D : ... .. . ... ... ... : ... .. . ... ... : ... .. . ... ... : ... .. . ... : ... .. . ...
ROW 2E : ... .. . ... ... ... : D-4 05 . ... ... : ... .. . ... ... : ... .. . ... : ... .. . ...
ROW 2F : ... .. . ... ... ... : D#4 05 . ... ... : ... .. . ... ... : ... .. . ... : ... .. . ...

PATTERN 29
ROW 00 : ... .. . ... ... ... : E-4 05 6 ... ... : ... .. . ... ... : ... .. . ... : ... .. . ...
ROW 01 : ... .. . ... ... ... : ... .. . ... ... : ... .. . ... ... : ... .. . ... : ... .. . ...
ROW 02 : ... .. . ... ... ... : E-4 05 2 ... ... : ... .. . ... ... : ... .. . ... : ... .. . ...
ROW 03 : ... .. . ... ... ... : ... .. . ... ... : ... .. . ... ... : ... .. . ... : ... .. . ...
ROW 04 : ... .. . ... ... ... : C#4 05 6 ... ... : ... .. . ... ... : ... .. . ... : ... .. . ...
ROW 05 : ... .. . ... ... ... : ... .. . ... ... : ... .. . ... ... : ... .. . ... : ... .. . ...
ROW 06 : ... .. . ... ... ... : C#4 05 2 ... ... : ... .. . ... ... : ... .. . ... : ... .. . ...
ROW 07 : ... .. . ... ... ... : ... .. . ... ... : ... .. . ... ... : ... .. . ... : ... .. . ...
ROW 08 : ... .. . ... ... ... : A-3 05 6 ... ... : ... .. . ... ... : ... .. . ... : ... .. . ...
ROW 09 : ... .. . ... ... ... : ... .. . ... ... : ... .. . ... ... : ... .. . ... : ... .. . ...
ROW 0A : ... .. . ... ... ... : A-3 05 2 ... ... : ... .. . ... ... : ... .. . ... : ... .. . ...
ROW 0B : ... .. . ... ... ... : ... .. . ... ... : ... .. . ... ... : ... .. . ... : ... .. . ...
ROW 0C : ... .. . ... ... ... : C#4 05 6 ... ... : ... .. . ... ... : ... .. . ... : ... .. . ...
ROW 0D : ... .. . ... ... ... : ... .. . ... ... : ... .. . ... ... : ... .. . ... : ... .. . ...
ROW 0E : ... .. . ... ... ... : C#4 05 2 ... ... : ... .. . ... ... : ... .. . ... : ... .. . ...
ROW 0F : ... .. . ... ... ... : ... .. . ... ... : ... .. . ... ... : ... .. . ... : ... .. . ...
ROW 10 : ... .. . ... ... ... : A-3 05 6 ... ... : ... .. . ... ... : ... .. . ... : ... .. . ...
ROW 11 : ... .. . ... ... ... : ... .. . ... ... : ... .. . ... ... : ... .. . ... : ... .. . ...
ROW 12 : ... .. . ... ... ... : A-3 05 2 ... ... : ... .. . ... ... : ... .. . ... : ... .. . ...
ROW 13 : ... .. . ... ... ... : ... .. . ... ... : ... .. . ... ... : ... .. . ... : ... .. . ...
ROW 14 : ... .. . ... ... ... : G#3 05 6 ... ... : ... .. . ... ... : ... .. . ... : ... .. . ...
ROW 15 : ... .. . ... ... ... : ... .. . ... ... : ... .. . ... ... : ... .. . ... : ... .. . ...
ROW 16 : ... .. . ... ... ... : G#3 05 2 ... ... : ... .. . ... ... : ... .. . ... : ... .. . ...
ROW 17 : ... .. . ... ... ... : ... .. . ... ... : ... .. . ... ... : ... .. . ... : ... .. . ...
ROW 18 : ... .. . ... ... ... : G-3 05 6 ... ... : ... .. . ... ... : ... .. . ... : ... .. . ...
ROW 19 : ... .. . ... ... ... : ... .. . ... ... : ... .. . ... ... : ... .. . ... : ... .. . ...
ROW 1A : ... .. . ... ... ... : G-3 05 2 ... ... : ... .. . ... ... : ... .. . ... : ... .. . ...
ROW 1B : ... .. . ... ... ... : ... .. . ... ... : ... .. . ... ... : ... .. . ... : ... .. . ...
ROW 1C : ... .. . ... ... ... : A#3 05 6 ... ... : ... .. . ... ... : ... .. . ... : ... .. . ...
ROW 1D : ... .. . ... ... ... : ... .. . ... ... : ... .. . ... ... : ... .. . ... : ... .. . ...
ROW 1E : ... .. . ... ... ... : A#3 05 2 ... ... : ... .. . ... ... : ... .. . ... : ... .. . ...
ROW 1F : ... .. . ... ... ... : ... .. . ... ... : ... .. . ... ... : ... .. . ... : ... .. . ...
ROW 20 : ... .. . ... ... ... : C#4 05 6 ... ... : ... .. . ... ... : ... .. . ... : ... .. . ...
ROW 21 : ... .. . ... ... ... : ... .. . ... ... : ... .. . ... ... : ... .. . ... : ... .. . ...
ROW 22 : ... .. . ... ... ... : C#4 05 2 ... ... : ... .. . ... ... : ... .. . ... : ... .. . ...
ROW 23 : ... .. . ... ... ... : ... .. . ... ... : ... .. . ... ... : ... .. . ... : ... .. . ...
ROW 24 : ... .. . ... ... ... : C-4 05 6 ... ... : ... .. . ... ... : ... .. . ... : ... .. . ...
ROW 25 : ... .. . ... ... ... : ... .. . ... ... : ... .. . ... ... : ... .. . ... : ... .. . ...
ROW 26 : ... .. . ... ... ... : C-4 05 2 ... ... : ... .. . ... ... : ... .. . ... : ... .. . ...
ROW 27 : ... .. . ... ... ... : ... .. . ... ... : ... .. . ... ... : ... .. . ... : ... .. . ...
ROW 28 : ... .. . ... ... ... : E-4 05 6 ... ... : ... .. . ... ... : ... .. . ... : ... .. . ...
ROW 29 : ... .. . ... ... ... : ... .. . ... ... : ... .. . ... ... : ... .. . ... : ... .. . ...
ROW 2A : ... .. . ... ... ... : E-4 05 2 ... ... : ... .. . ... ... : ... .. . ... : ... .. . ...
ROW 2B : ... .. . ... ... ... : ... .. . ... ... : ... .. . ... ... : ... .. . ... : ... .. . ...
ROW 2C : ... .. . ... ... ... : G-4 05 6 ... ... : ... .. . ... ... : ... .. . ... : ... .. . ...
ROW 2D : ... .. . ... ... ... : ... .. . ... ... : ... .. . ... ... : ... .. . ... : ... .. . ...
ROW 2E : ... .. . ... ... ... : G-4 05 2 ... ... : ... .. . ... ... : ... .. . ... : ... .. . ...
ROW 2F : ... .. . ... ... ... : ... .. . ... ... : ... .. . ... ... : ... .. . ... : ... .. . ...

TRACK  48   2 150 "victory"
COLUMNS : 1 1 2 1 1

ORDER 00 : 00 00 00 00 00
ORDER 01 : 01 01 01 01 00
ORDER 02 : 02 02 02 02 00
ORDER 03 : 03 03 01 01 00
ORDER 04 : 04 04 02 02 00
ORDER 05 : 05 05 01 01 01
ORDER 06 : 06 06 02 02 02
ORDER 07 : 07 07 07 01 03
ORDER 08 : 08 08 08 02 04

PATTERN 00
ROW 00 : A-3 0B F ... : F-1 0B F ... : F-5 0B . ... ... : C-# 05 8 ... : ... .. . ...
ROW 01 : ... .. . ... : ... .. . ... : ... .. . ... ... : ... .. . ... : ... .. . ...
ROW 02 : ... .. . ... : ... .. . ... : --- .. . ... ... : ... .. . ... : ... .. . ...
ROW 03 : ... .. . ... : ... .. . ... : ... .. . ... ... : ... .. . ... : ... .. . ...
ROW 04 : G#3 0B . ... : ... .. . ... : ... .. . ... ... : C-# 05 4 ... : ... .. . ...
ROW 05 : ... .. . ... : ... .. . ... : ... .. . ... ... : ... .. . ... : ... .. . ...
ROW 06 : ... .. . ... : ... .. . ... : ... .. . ... ... : ... .. . ... : ... .. . ...
ROW 07 : ... .. . ... : ... .. . ... : ... .. . ... ... : ... .. . ... : ... .. . ...
ROW 08 : A-3 0B . ... : ... .. . ... : F-5 0B . ... ... : C-# 05 4 ... : ... .. . ...
ROW 09 : ... .. . ... : ... .. . ... : --- .. . ... ... : ... .. . ... : ... .. . ...
ROW 0A : ... .. . ... : ... .. . ... : F-5 0B . ... ... : ... .. . ... : ... .. . ...
ROW 0B : ... .. . ... : ... .. . ... : ... .. . ... ... : ... .. . ... : ... .. . ...
ROW 0C : F-3 0B . ... : A-1 0B . ... : A-5 0B . ... ... : C-# 05 8 ... : ... .. . ...
ROW 0D : ... .. . ... : ... .. . ... : ... .. . ... ... : ... .. . ... : ... .. . ...
ROW 0E : --- .. . ... : ... .. . ... : --- .. . ... ... : ... .. . ... : ... .. . ...
ROW 0F : ... .. . ... : ... .. . ... : ... .. . ... ... : ... .. . ... : ... .. . ...
ROW 10 : C-3 0B . ... : ... .. . ... : F-5 0B . ... ... : C-# 05 4 ... : ... .. . ...
ROW 11 : ... .. . ... : ... .. . ... : ... .. . ... ... : ... .. . ... : ... .. . ...
ROW 12 : --- .. . ... : ... .. . ... : --- .. . ... ... : ... .. . ... : ... .. . ...
ROW 13 : ... .. . ... : ... .. . ... : ... .. . ... ... : ... .. . ... : ... .. . ...
ROW 14 : F-3 0B . ... : ... .. . ... : A-5 0B . ... ... : C-# 05 4 ... : ... .. . ...
ROW 15 : ... .. . ... : ... .. . ... : ... .. . ... ... : ... .. . ... : ... .. . ...
ROW 16 : --- .. . ... : ... .. . ... : --- .. . ... ... : ... .. . ... : ... .. . ...
ROW 17 : ... .. . ... : ... .. . ... : ... .. . ... ... : ... .. . ... : ... .. . ...
ROW 18 : G-3 0B . ... : G-1 0B . ... : C-6 0B . ... ... : C-# 05 8 ... : ... .. . ...
ROW 19 : ... .. . ... : ... .. . ... : ... .. . ... ... : ... .. . ... : ... .. . ...
ROW 1A : ... .. . ... : ... .. . ... : D-6 0B . ... ... : ... .. . ... : ... .. . ...
ROW 1B : ... .. . ... : ... .. . ... : ... .. . ... ... : ... .. . ... : ... .. . ...
ROW 1C : E-3 0B . ... : ... .. . ... : C-6 0B . ... ... : C-# 05 4 ... : ... .. . ...
ROW 1D : ... .. . ... : ... .. . ... : ... .. . ... ... : ... .. . ... : ... .. . ...
ROW 1E : ... .. . ... : ... .. . ... : D-6 0B . ... ... : ... .. . ... : ... .. . ...
ROW 1F : ... .. . ... : ... .. . ... : ... .. . ... ... : ... .. . ... : ... .. . ...
ROW 20 : C-3 0B . ... : C-2 0B . ... : C-6 0B . ... ... : C-# 05 4 ... : ... .. . ...
ROW 21 : ... .. . ... : ... .. . ... : ... .. . ... ... : ... .. . ... : ... .. . ...
ROW 22 : ... .. . ... : ... .. . ... : D-6 0B . ... ... : ... .. . ... : ... .. . ...
ROW 23 : ... .. . ... : ... .. . ... : ... .. . ... ... : ... .. . ... : ... .. . ...
ROW 24 : A#3 0B . ... : C-1 0B . ... : C-6 0B . ... ... : 9-# 0B 8 ... : ... .. . ...
ROW 25 : ... .. . ... : ... .. . ... : ... .. . ... ... : ... .. . ... : ... .. . ...
ROW 26 : ... .. . ... : ... .. . ... : D-6 0B . ... ... : ... .. . ... : ... .. . ...
ROW 27 : ... .. . ... : ... .. . ... : ... .. . ... ... : 7-# 0B A ... : ... .. . ...
ROW 28 : A-3 0B . ... : D-1 0B . ... : C-6 0B . ... ... : ... .. . ... : ... .. . ...
ROW 29 : ... .. . ... : ... .. . ... : ... .. . ... ... : ... .. . ... : ... .. . ...
ROW 2A : ... .. . ... : ... .. . ... : D-6 0B . ... ... : 5-# 0B C ... : ... .. . ...
ROW 2B : ... .. . ... : ... .. . ... : ... .. . ... ... : ... .. . ... : ... .. . ...
ROW 2C : G-3 0B . ... : E-1 0B . ... : D#6 0B . ... ... : ... .. . ... : ... .. . ...
ROW 2D : ... .. . ... : ... .. . ... : ... .. . ... ... : 2-# 0B C ... : ... .. . ...
ROW 2E : ... .. . ... : ... .. . ... : E-6 0B . ... ... : ... .. . ... : ... .. . ...
ROW 2F : ... .. . ... : ... .. . ... : ... .. . ... ... : ... .. . ... : ... .. . ...

PATTERN 01
ROW 00 : F-5 07 A ... : F-1 0B . ... : C-4 01 . 245 ... : F-# 00 F ... : ... .. . ...
ROW 01 : ... .. . ... : ... .. . ... : F-2 01 . 200 ... : ... .. . ... : ... .. . ...
ROW 02 : ... .. . 210 : ... .. . ... : ... .. . ... ... : ... .. . ... : ... .. . ...
ROW 03 : ... .. . ... : ... .. . ... : ... .. . ... ... : ... .. . ... : ... .. . ...
ROW 04 : ... .. . ... : ... .. . ... : ... .. . ... ... : ... .. . ... : ... .. . ...
ROW 05 : --- .. . 200 : ... .. . ... : --- .. . ... ... : ... .. . ... : ... .. . ...
ROW 06 : ... .. . ... : ... .. . ... : F-3 01 . ... ... : A-# 05 8 ... : ... .. . ...
ROW 07 : ... .. . ... : ... .. . ... : ... .. . ... ... : ... .. . ... : ... .. . ...
ROW 08 : F-5 07 2 ... : ... .. . ... : --- .. . ... ... : E-# 05 A ... : ... .. . ...
ROW 09 : ... .. . ... : ... .. . ... : F-3 01 . ... ... : ... .. . ... : ... .. . ...
ROW 0A : ... .. . 210 : ... .. . ... : ... .. . ... ... : E-# 05 A ... : ... .. . ...
ROW 0B : ... .. . ... : ... .. . ... : --- .. . ... ... : ... .. . ... : ... .. . ...
ROW 0C : C-3 14 F 200 : A-2 14 8 200 : F-2 01 . ... ... : 9-# 0B B ... : ... .. . ...
ROW 0D : ... .. . ... : ... .. . ... : ... .. . ... ... : ... .. . ... : ... .. . ...
ROW 0E : ... .. . ... : ... .. . ... : ... .. . ... ... : ... .. . ... : ... .. . ...
ROW 0F : ... .. . ... : ... .. . ... : ... .. . ... ... : ... .. . ... : ... .. . ...
ROW 10 : ... .. . ... : ... .. . ... : ... .. . ... ... : ... .. . ... : ... .. . ...
ROW 11 : ... .. . ... : --- .. . ... : --- .. . ... ... : ... .. . ... : ... .. . ...
ROW 12 : ... .. . ... : F-1 0B F ... : F-3 01 . ... ... : A-# 05 8 ... : ... .. . ...
ROW 13 : ... .. . ... : ... .. . ... : ... .. . ... ... : ... .. . ... : ... .. . ...
ROW 14 : ... .. . ... : --- .. . ... : --- .. . ... ... : --- .. . ... : ... .. . ...
ROW 15 : ... .. . ... : F-1 0B . ... : F-4 01 . ... ... : E-# 05 A ... : ... .. . ...
ROW 16 : ... .. . ... : ... .. . ... : ... .. . ... ... : ... .. . ... : ... .. . ...
ROW 17 : ... .. . ... : --- .. . ... : --- .. . ... ... : --- .. . ... : ... .. . ...
ROW 18 : F-3 14 F ... : C-3 14 8 ... : C-4 01 . 245 ... : F-# 0B F ... : ... .. . ...
ROW 19 : ... .. . ... : ... .. . ... : F-2 01 . 200 ... : ... .. . ... : ... .. . ...
ROW 1A : ... .. . ... : ... .. . ... : ... .. . ... ... : ... .. . ... : ... .. . ...
ROW 1B : ... .. . ... : ... .. . ... : ... .. . ... ... : ... .. . ... : ... .. . ...
ROW 1C : ... .. . ... : ... .. . ... : ... .. . ... ... : ... .. . ... : ... .. . ...
ROW 1D : ... .. . ... : ... .. . ... : --- .. . ... ... : ... .. . ... : ... .. . ...
ROW 1E : C-4 14 . ... : F-3 14 . ... : F-3 01 . ... ... : A-# 05 8 ... : ... .. . ...
ROW 1F : ... .. . ... : ... .. . ... : ... .. . ... ... : ... .. . ... : ... .. . ...
ROW 20 : ... .. . ... : ... .. . ... : --- .. . ... ... : --- .. . ... : ... .. . ...
ROW 21 : ... .. . ... : ... .. . ... : F-3 01 . ... ... : E-# 05 A ... : ... .. . ...
ROW 22 : ... .. . ... : ... .. . ... : ... .. . ... ... : ... .. . ... : ... .. . ...
ROW 23 : ... .. . ... : ... .. . ... : --- .. . ... ... : --- .. . ... : ... .. . ...
ROW 24 : ... .. . ... : ... .. . ... : C-2 01 . ... ... : 9-# 0B F ... : ... .. . ...
ROW 25 : ... .. . ... : ... .. . ... : ... .. . ... ... : ... .. . ... : ... .. . ...
ROW 26 : ... .. . ... : ... .. . ... : ... .. . ... ... : ... .. . ... : ... .. . ...
ROW 27 : ... .. . ... : ... .. . ... : ... .. . ... ... : ... .. . ... : ... .. . ...
ROW 28 : ... .. . ... : ... .. . ... : ... .. . ... ... : ... .. . ... : ... .. . ...
ROW 29 : --- .. . ... : --- .. . ... : --- .. . ... ... : ... .. . ... : ... .. . ...
ROW 2A : C-4 14 F ... : G-3 14 8 ... : C-4 01 . 245 ... : F-# 00 F ... : ... .. . ...
ROW 2B : ... .. . ... : ... .. . ... : F-2 01 . 200 ... : ... .. . ... : ... .. . ...
ROW 2C : ... .. . ... : ... .. . ... : ... .. . ... ... : ... .. . ... : ... .. . ...
ROW 2D : ... .. . ... : ... .. . ... : ... .. . ... ... : ... .. . ... : ... .. . ...
ROW 2E : ... .. . ... : ... .. . ... : ... .. . ... ... : ... .. . ... : ... .. . ...
ROW 2F : ... .. . ... : ... .. . ... : ... .. . ... ... : ... .. . ... : ... .. . ...

PATTERN 02
ROW 00 : ... .. . ... : ... .. . ... : ... .. . ... ... : ... .. . ... : ... .. . ...
ROW 01 : ... .. . ... : ... .. . ... : ... .. . ... ... : ... .. . ... : ... .. . ...
ROW 02 : ... .. . ... : ... .. . ... : ... .. . ... ... : ... .. . ... : ... .. . ...
ROW 03 : ... .. . ... : ... .. . ... : ... .. . ... ... : ... .. . ... : ... .. . ...
ROW 04 : ... .. . ... : ... .. . ... : ... .. . ... ... : ... .. . ... : ... .. . ...
ROW 05 : ... .. . ... : ... .. . ... : --- .. . ... ... : ... .. . ... : ... .. . ...
ROW 06 : D-4 14 F ... : G-3 14 8 ... : F-3 01 . ... ... : A-# 05 8 ... : ... .. . ...
ROW 07 : ... .. . ... : ... .. . ... : ... .. . ... ... : ... .. . ... : ... .. . ...
ROW 08 : ... .. . ... : ... .. . ... : --- .. . ... ... : E-# 05 A ... : ... .. . ...
ROW 09 : ... .. . ... : ... .. . ... : F-3 01 . ... ... : ... .. . ... : ... .. . ...
ROW 0A : ... .. . ... : ... .. . ... : ... .. . ... ... : E-# 05 A ... : ... .. . ...
ROW 0B : ... .. . ... : ... .. . ... : --- .. . ... ... : ... .. . ... : ... .. . ...
ROW 0C : B-3 14 . ... : D-3 14 . ... : F-2 01 . ... ... : 9-# 0B F ... : ... .. . ...
ROW 0D : ... .. . ... : ... .. . ... : ... .. . ... ... : ... .. . ... : ... .. . ...
ROW 0E : ... .. . ... : ... .. . ... : ... .. . ... ... : ... .. . ... : ... .. . ...
ROW 0F : ... .. . ... : ... .. . ... : ... .. . ... ... : ... .. . ... : ... .. . ...
ROW 10 : ... .. . ... : ... .. . ... : ... .. . ... ... : ... .. . ... : ... .. . ...
ROW 11 : ... .. . ... : --- .. . ... : --- .. . ... ... : ... .. . ... : ... .. . ...
ROW 12 : ... .. . ... : F-1 0B F ... : F-3 01 . ... ... : A-# 05 8 ... : ... .. . ...
ROW 13 : ... .. . ... : ... .. . ... : ... .. . ... ... : ... .. . ... : ... .. . ...
ROW 14 : ... .. . ... : --- .. . ... : --- .. . ... ... : --- .. . ... : ... .. . ...
ROW 15 : ... .. . ... : F-1 0B F ... : F-4 01 . ... ... : E-# 05 A ... : ... .. . ...
ROW 16 : ... .. . ... : ... .. . ... : ... .. . ... ... : ... .. . ... : ... .. . ...
ROW 17 : --- .. . ... : --- .. . ... : --- .. . ... ... : --- .. . ... : ... .. . ...
ROW 18 : B-3 14 3 ... : D-3 14 1 ... : C-4 01 . 245 ... : F-# 0B F ... : ... .. . ...
ROW 19 : ... .. . ... : ... .. . ... : F-2 01 . 200 ... : ... .. . ... : ... .. . ...
ROW 1A : ... .. . ... : ... .. . ... : ... .. . ... ... : ... .. . ... : ... .. . ...
ROW 1B : ... .. . ... : ... .. . ... : ... .. . ... ... : ... .. . ... : ... .. . ...
ROW 1C : ... .. . ... : ... .. . ... : ... .. . ... ... : ... .. . ... : ... .. . ...
ROW 1D : --- .. . ... : ... .. . ... : --- .. . ... ... : ... .. . ... : ... .. . ...
ROW 1E : G-3 14 F ... : D-3 14 8 ... : F-3 01 . ... ... : A-# 0B 8 ... : ... .. . ...
ROW 1F : ... .. . ... : ... .. . ... : ... .. . ... ... : ... .. . ... : ... .. . ...
ROW 20 : ... .. . ... : ... .. . ... : --- .. . ... ... : --- .. . ... : ... .. . ...
ROW 21 : ... .. . ... : ... .. . ... : F-3 01 . ... ... : E-# 0B A ... : ... .. . ...
ROW 22 : ... .. . ... : ... .. . ... : ... .. . ... ... : ... .. . ... : ... .. . ...
ROW 23 : ... .. . ... : ... .. . ... : --- .. . ... ... : --- .. . ... : ... .. . ...
ROW 24 : A-3 14 . ... : C-3 14 . ... : C-5 01 . 245 ... : 9-# 0B F ... : ... .. . ...
ROW 25 : ... .. . ... : ... .. . ... : C-3 01 . 200 ... : ... .. . ... : ... .. . ...
ROW 26 : ... .. . ... : ... .. . ... : ... .. . ... ... : ... .. . ... : ... .. . ...
ROW 27 : ... .. . ... : ... .. . ... : ... .. . ... ... : ... .. . ... : ... .. . ...
ROW 28 : ... .. . ... : ... .. . ... : ... .. . ... ... : ... .. . ... : ... .. . ...
ROW 29 : --- .. . ... : --- .. . ... : --- .. . ... ... : ... .. . ... : ... .. . ...
ROW 2A : A#3 14 . ... : D-3 14 . ... : A#2 01 . 200 ... : A-# 0B 8 ... : ... .. . ...
ROW 2B : ... .. . ... : ... .. . ... : ... .. . ... ... : ... .. . ... : ... .. . ...
ROW 2C : ... .. . ... : ... .. . ... : ... .. . ... ... : --- .. . ... : ... .. . ...
ROW 2D : ... .. . ... : ... .. . ... : ... .. . ... ... : E-# 0B A ... : ... .. . ...
ROW 2E : ... .. . ... : ... .. . ... : ... .. . ... ... : ... .. . ... : ... .. . ...
ROW 2F : ... .. . ... : ... .. . ... : --- .. . ... ... : --- .. . ... : ... .. . ...

PATTERN 03
ROW 00 : ... .. . ... : ... .. . ... : C-4 01 . 245 ... : F-# 0B F ... : ... .. . ...
ROW 01 : ... .. . ... : ... .. . ... : F-2 01 . 200 ... : ... .. . ... : ... .. . ...
ROW 02 : ... .. . ... : ... .. . ... : ... .. . ... ... : ... .. . ... : ... .. . ...
ROW 03 : ... .. . ... : ... .. . ... : ... .. . ... ... : ... .. . ... : ... .. . ...
ROW 04 : ... .. . ... : ... .. . ... : ... .. . ... ... : ... .. . ... : ... .. . ...
ROW 05 : --- .. . ... : --- .. . ... : --- .. . ... ... : ... .. . ... : ... .. . ...
ROW 06 : A#3 14 3 ... : D-3 14 1 ... : F-3 01 . ... ... : A-# 05 8 ... : ... .. . ...
ROW 07 : ... .. . ... : ... .. . ... : ... .. . ... ... : ... .. . ... : ... .. . ...
ROW 08 : ... .. . ... : ... .. . ... : --- .. . ... ... : E-# 05 A ... : ... .. . ...
ROW 09 : ... .. . ... : ... .. . ... : F-3 01 . ... ... : ... .. . ... : ... .. . ...
ROW 0A : ... .. . ... : ... .. . ... : ... .. . ... ... : E-# 05 A ... : ... .. . ...
ROW 0B : ... .. . ... : ... .. . ... : --- .. . ... ... : ... .. . ... : ... .. . ...
ROW 0C : --- .. . ... : --- .. . ... : F-2 01 . ... ... : 9-# 0B F ... : ... .. . ...
ROW 0D : ... .. . ... : ... .. . ... : ... .. . ... ... : ... .. . ... : ... .. . ...
ROW 0E : ... .. . ... : ... .. . ... : ... .. . ... ... : ... .. . ... : ... .. . ...
ROW 0F : ... .. . ... : ... .. . ... : ... .. . ... ... : ... .. . ... : ... .. . ...
ROW 10 : ... .. . ... : ... .. . ... : ... .. . ... ... : ... .. . ... : ... .. . ...
ROW 11 : --- .. . ... : --- .. . ... : --- .. . ... ... : ... .. . ... : ... .. . ...
ROW 12 : A#3 14 1 ... : F-1 0B F ... : F-3 01 . ... ... : A-# 05 8 ... : ... .. . ...
ROW 13 : ... .. . ... : ... .. . ... : ... .. . ... ... : ... .. . ... : ... .. . ...
ROW 14 : ... .. . ... : --- .. . ... : --- .. . ... ... : --- .. . ... : ... .. . ...
ROW 15 : ... .. . ... : F-1 0B . ... : F-4 01 . ... ... : E-# 05 A ... : ... .. . ...
ROW 16 : ... .. . ... : ... .. . ... : ... .. . ... ... : ... .. . ... : ... .. . ...
ROW 17 : ... .. . ... : --- .. . ... : --- .. . ... ... : --- .. . ... : ... .. . ...
ROW 18 : F-3 14 F ... : C#3 14 8 ... : C-4 01 . 245 ... : F-# 0B F ... : ... .. . ...
ROW 19 : ... .. . ... : ... .. . ... : F-2 01 . 200 ... : ... .. . ... : ... .. . ...
ROW 1A : ... .. . ... : ... .. . ... : ... .. . ... ... : ... .. . ... : ... .. . ...
ROW 1B : ... .. . ... : ... .. . ... : ... .. . ... ... : ... .. . ... : ... .. . ...
ROW 1C : ... .. . ... : ... .. . ... : ... .. . ... ... : ... .. . ... : ... .. . ...
ROW 1D : ... .. . ... : ... .. . ... : --- .. . ... ... : ... .. . ... : ... .. . ...
ROW 1E : ... .. . ... : ... .. . ... : F-3 01 . ... ... : A-# 05 8 ... : ... .. . ...
ROW 1F : ... .. . ... : ... .. . ... : ... .. . ... ... : ... .. . ... : ... .. . ...
ROW 20 : ... .. . ... : ... .. . ... : --- .. . ... ... : --- .. . ... : ... .. . ...
ROW 21 : ... .. . ... : ... .. . ... : F-3 01 . ... ... : E-# 05 A ... : ... .. . ...
ROW 22 : ... .. . ... : ... .. . ... : ... .. . ... ... : ... .. . ... : ... .. . ...
ROW 23 : --- .. . ... : ... .. . ... : --- .. . ... ... : --- .. . ... : ... .. . ...
ROW 24 : G-3 14 F ... : ... .. . ... : F-2 01 . ... ... : 9-# 0B F ... : ... .. . ...
ROW 25 : ... .. . ... : ... .. . ... : ... .. . ... ... : ... .. . ... : ... .. . ...
ROW 26 : ... .. . ... : ... .. . ... : ... .. . ... ... : ... .. . ... : ... .. . ...
ROW 27 : ... .. . ... : ... .. . ... : ... .. . ... ... : ... .. . ... : ... .. . ...
ROW 28 : ... .. . ... : ... .. . ... : ... .. . ... ... : ... .. . ... : ... .. . ...
ROW 29 : ... .. . ... : ... .. . ... : --- .. . ... ... : ... .. . ... : ... .. . ...
ROW 2A : ... .. . ... : ... .. . ... : C-2 01 . ... ... : A-# 05 8 ... : ... .. . ...
ROW 2B : ... .. . ... : ... .. . ... : ... .. . ... ... : ... .. . ... : ... .. . ...
ROW 2C : ... .. . ... : ... .. . ... : ... .. . ... ... : --- .. . ... : ... .. . ...
ROW 2D : --- .. . ... : ... .. . ... : --- .. . ... ... : E-# 05 A ... : ... .. . ...
ROW 2E : ... .. . ... : ... .. . ... : ... .. . ... ... : ... .. . ... : ... .. . ...
ROW 2F : ... .. . ... : ... .. . ... : ... .. . ... ... : ... .. . ... : ... .. . ...

PATTERN 04
ROW 00 : A-3 14 F ... : C-3 14 8 ... : C-4 01 . 245 ... : F-# 0B F ... : ... .. . ...
ROW 01 : ... .. . ... : ... .. . ... : F-2 01 . 200 ... : ... .. . ... : ... .. . ...
ROW 02 : ... .. . ... : ... .. . ... : ... .. . ... ... : ... .. . ... : ... .. . ...
ROW 03 : G-3 14 . ... : ... .. . ... : ... .. . ... ... : ... .. . ... : ... .. . ...
ROW 04 : ... .. . ... : ... .. . ... : ... .. . ... ... : ... .. . ... : ... .. . ...
ROW 05 : ... .. . ... : ... .. . ... : --- .. . ... ... : ... .. . ... : ... .. . ...
ROW 06 : A-3 14 . ... : ... .. . ... : F-3 01 . ... ... : A-# 05 8 ... : ... .. . ...
ROW 07 : ... .. . ... : ... .. . ... : ... .. . ... ... : ... .. . ... : ... .. . ...
ROW 08 : ... .. . ... : ... .. . ... : --- .. . ... ... : E-# 05 A ... : ... .. . ...
ROW 09 : ... .. . ... : ... .. . ... : F-3 01 . ... ... : ... .. . ... : ... .. . ...
ROW 0A : ... .. . ... : ... .. . ... : ... .. . ... ... : E-# 05 A ... : ... .. . ...
ROW 0B : --- .. . ... : --- .. . ... : --- .. . ... ... : ... .. . ... : ... .. . ...
ROW 0C : A-3 14 3 ... : C-3 14 3 ... : F-2 01 . ... ... : 9-# 0B F ... : ... .. . ...
ROW 0D : ... .. . ... : ... .. . ... : ... .. . ... ... : ... .. . ... : ... .. . ...
ROW 0E : ... .. . ... : ... .. . ... : ... .. . ... ... : ... .. . ... : ... .. . ...
ROW 0F : G-3 14 . ... : ... .. . ... : ... .. . ... ... : ... .. . ... : ... .. . ...
ROW 10 : ... .. . ... : ... .. . ... : ... .. . ... ... : ... .. . ... : ... .. . ...
ROW 11 : ... .. . ... : --- .. . ... : --- .. . ... ... : ... .. . ... : ... .. . ...
ROW 12 : A-3 14 . ... : F-1 0B F ... : F-3 01 . ... ... : A-# 05 8 ... : ... .. . ...
ROW 13 : ... .. . ... : ... .. . ... : ... .. . ... ... : ... .. . ... : ... .. . ...
ROW 14 : ... .. . ... : --- .. . ... : --- .. . ... ... : --- .. . ... : ... .. . ...
ROW 15 : ... .. . ... : F-1 0B F ... : F-4 01 . ... ... : E-# 05 A ... : ... .. . ...
ROW 16 : ... .. . ... : ... .. . ... : ... .. . ... ... : ... .. . ... : ... .. . ...
ROW 17 : --- .. . ... : --- .. . ... : --- .. . ... ... : --- .. . ... : ... .. . ...
ROW 18 : A-3 14 1 ... : C-3 0C 1 ... : C-4 01 . 245 ... : F-# 0B F ... : ... .. . ...
ROW 19 : ... .. . ... : ... .. . ... : F-2 01 . 200 ... : ... .. . ... : ... .. . ...
ROW 1A : ... .. . ... : ... .. . ... : ... .. . ... ... : ... .. . ... : ... .. . ...
ROW 1B : G-3 14 . ... : ... .. . ... : ... .. . ... ... : ... .. . ... : ... .. . ...
ROW 1C : ... .. . ... : ... .. . ... : ... .. . ... ... : ... .. . ... : ... .. . ...
ROW 1D : ... .. . ... : --- .. . ... : --- .. . ... ... : ... .. . ... : ... .. . ...
ROW 1E : A-3 14 . ... : ... .. . ... : F-3 01 . ... ... : A-# 05 8 ... : ... .. . ...
ROW 1F : ... .. . ... : ... .. . ... : ... .. . ... ... : ... .. . ... : ... .. . ...
ROW 20 : ... .. . ... : ... .. . ... : --- .. . ... ... : --- .. . ... : ... .. . ...
ROW 21 : ... .. . ... : ... .. . ... : ... .. . ... ... : E-# 05 A ... : ... .. . ...
ROW 22 : ... .. . ... : ... .. . ... : ... .. . ... ... : ... .. . ... : ... .. . ...
ROW 23 : --- .. . ... : ... .. . ... : ... .. . ... ... : --- .. . ... : ... .. . ...
ROW 24 : ... .. . ... : ... .. . ... : C-5 01 . 245 ... : 9-# 0B F ... : ... .. . ...
ROW 25 : ... .. . ... : ... .. . ... : C-3 01 . 200 ... : ... .. . ... : ... .. . ...
ROW 26 : ... .. . ... : ... .. . ... : ... .. . ... ... : ... .. . ... : ... .. . ...
ROW 27 : ... .. . ... : ... .. . ... : ... .. . ... ... : ... .. . ... : ... .. . ...
ROW 28 : ... .. . ... : ... .. . ... : ... .. . ... ... : ... .. . ... : ... .. . ...
ROW 29 : ... .. . ... : ... .. . ... : ... .. . ... ... : ... .. . ... : ... .. . ...
ROW 2A : ... .. . ... : ... .. . ... : C-5 01 . 245 ... : 7-# 0B A ... : ... .. . ...
ROW 2B : ... .. . ... : ... .. . ... : C-3 01 . 200 ... : ... .. . ... : ... .. . ...
ROW 2C : ... .. . ... : ... .. . ... : --- .. . ... ... : ... .. . ... : ... .. . ...
ROW 2D : ... .. . ... : ... .. . ... : C-3 01 . 200 ... : 6-# 0B . ... : ... .. . ...
ROW 2E : ... .. . ... : ... .. . ... : ... .. . ... ... : ... .. . ... : ... .. . ...
ROW 2F : ... .. . ... : ... .. . ... : --- .. . ... ... : ... .. . ... : ... .. . ...

PATTERN 05
ROW 00 : ... .. . ... : ... .. . ... : C-4 01 . 245 ... : F-# 0B F ... : ... .. . ...
ROW 01 : ... .. . ... : ... .. . ... : F-2 01 . 200 ... : ... .. . ... : ... .. . ...
ROW 02 : ... .. . ... : ... .. . ... : ... .. . ... ... : ... .. . ... : ... .. . ...
ROW 03 : ... .. . ... : ... .. . ... : ... .. . ... ... : ... .. . ... : ... .. . ...
ROW 04 : ... .. . ... : ... .. . ... : ... .. . ... ... : ... .. . ... : ... .. . ...
ROW 05 : ... .. . ... : ... .. . ... : --- .. . ... ... : ... .. . ... : ... .. . ...
ROW 06 : ... .. . ... : ... .. . ... : F-3 01 . ... ... : A-# 05 8 ... : ... .. . ...
ROW 07 : ... .. . ... : ... .. . ... : ... .. . ... ... : ... .. . ... : ... .. . ...
ROW 08 : ... .. . ... : ... .. . ... : --- .. . ... ... : --- .. . ... : ... .. . ...
ROW 09 : ... .. . ... : ... .. . ... : F-3 01 . ... ... : E-# 05 A ... : ... .. . ...
ROW 0A : ... .. . ... : ... .. . ... : ... .. . ... ... : ... .. . ... : ... .. . ...
ROW 0B : ... .. . ... : ... .. . ... : --- .. . ... ... : --- .. . ... : ... .. . ...
ROW 0C : C-3 14 F ... : A-2 14 8 200 : F-2 01 . ... ... : 9-# 0B F ... : ... .. . ...
ROW 0D : ... .. . ... : ... .. . ... : ... .. . ... ... : ... .. . ... : ... .. . ...
ROW 0E : ... .. . ... : ... .. . ... : ... .. . ... ... : ... .. . ... : ... .. . ...
ROW 0F : ... .. . ... : ... .. . ... : ... .. . ... ... : ... .. . ... : ... .. . ...
ROW 10 : ... .. . ... : ... .. . ... : ... .. . ... ... : ... .. . ... : ... .. . ...
ROW 11 : ... .. . ... : --- .. . ... : --- .. . ... ... : ... .. . ... : ... .. . ...
ROW 12 : ... .. . ... : F-1 0B F ... : F-3 01 . ... ... : A-# 05 8 ... : ... .. . ...
ROW 13 : ... .. . ... : ... .. . ... : ... .. . ... ... : ... .. . ... : ... .. . ...
ROW 14 : ... .. . ... : --- .. . ... : --- .. . ... ... : --- .. . ... : ... .. . ...
ROW 15 : ... .. . ... : F-1 0B . ... : F-4 01 . ... ... : E-# 05 A ... : ... .. . ...
ROW 16 : ... .. . ... : ... .. . ... : ... .. . ... ... : ... .. . ... : ... .. . ...
ROW 17 : --- .. . ... : --- .. . ... : --- .. . ... ... : --- .. . ... : ... .. . ...
ROW 18 : F-3 14 F ... : C-3 14 8 ... : C-4 01 . 245 ... : F-# 0B F ... : ... .. . ...
ROW 19 : ... .. . ... : ... .. . ... : F-2 01 . 200 ... : ... .. . ... : ... .. . ...
ROW 1A : ... .. . ... : ... .. . ... : ... .. . ... ... : ... .. . ... : ... .. . ...
ROW 1B : ... .. . ... : ... .. . ... : ... .. . ... ... : ... .. . ... : ... .. . ...
ROW 1C : ... .. . ... : ... .. . ... : ... .. . ... ... : ... .. . ... : ... .. . ...
ROW 1D : ... .. . ... : ... .. . ... : --- .. . ... ... : ... .. . ... : ... .. . ...
ROW 1E : A-3 14 . ... : F-3 14 . ... : F-3 01 . ... ... : A-# 05 8 ... : ... .. . ...
ROW 1F : ... .. . ... : ... .. . ... : ... .. . ... ... : ... .. . ... : ... .. . ...
ROW 20 : ... .. . ... : ... .. . ... : --- .. . ... ... : --- .. . ... : ... .. . ...
ROW 21 : ... .. . ... : ... .. . ... : F-3 01 . ... ... : E-# 05 A ... : ... .. . ...
ROW 22 : ... .. . ... : ... .. . ... : ... .. . ... ... : ... .. . ... : ... .. . ...
ROW 23 : ... .. . ... : ... .. . ... : --- .. . ... ... : --- .. . ... : ... .. . ...
ROW 24 : ... .. . ... : ... .. . ... : C-2 01 . ... ... : 9-# 0B F ... : ... .. . ...
ROW 25 : ... .. . ... : ... .. . ... : ... .. . ... ... : ... .. . ... : ... .. . ...
ROW 26 : ... .. . ... : ... .. . ... : ... .. . ... ... : ... .. . ... : ... .. . ...
ROW 27 : ... .. . ... : ... .. . ... : ... .. . ... ... : ... .. . ... : ... .. . ...
ROW 28 : ... .. . ... : ... .. . ... : ... .. . ... ... : ... .. . ... : ... .. . ...
ROW 29 : --- .. . ... : --- .. . ... : --- .. . ... ... : ... .. . ... : ... .. . ...
ROW 2A : G-3 14 F ... : D-3 14 . ... : C-4 01 . 245 ... : F-# 00 F ... : ... .. . ...
ROW 2B : ... .. . ... : ... .. . ... : F-2 01 . 200 ... : ... .. . ... : ... .. . ...
ROW 2C : ... .. . ... : ... .. . ... : ... .. . ... ... : ... .. . ... : ... .. . ...
ROW 2D : ... .. . ... : ... .. . ... : ... .. . ... ... : ... .. . ... : ... .. . ...
ROW 2E : ... .. . ... : ... .. . ... : ... .. . ... ... : ... .. . ... : ... .. . ...
ROW 2F : ... .. . ... : ... .. . ... : ... .. . ... ... : ... .. . ... : ... .. . ...

PATTERN 06
ROW 00 : ... .. . ... : ... .. . ... : ... .. . ... ... : ... .. . ... : ... .. . ...
ROW 01 : ... .. . ... : ... .. . ... : ... .. . ... ... : ... .. . ... : ... .. . ...
ROW 02 : ... .. . ... : ... .. . ... : ... .. . ... ... : ... .. . ... : ... .. . ...
ROW 03 : ... .. . ... : ... .. . ... : ... .. . ... ... : ... .. . ... : ... .. . ...
ROW 04 : ... .. . ... : ... .. . ... : ... .. . ... ... : ... .. . ... : ... .. . ...
ROW 05 : --- .. . ... : ... .. . ... : --- .. . ... ... : ... .. . ... : ... .. . ...
ROW 06 : A-3 14 F ... : ... .. . ... : F-3 01 . ... ... : A-# 05 8 ... : ... .. . ...
ROW 07 : ... .. . ... : ... .. . ... : ... .. . ... ... : ... .. . ... : ... .. . ...
ROW 08 : ... .. . ... : ... .. . ... : --- .. . ... ... : --- .. . ... : ... .. . ...
ROW 09 : ... .. . ... : ... .. . ... : F-3 01 . ... ... : E-# 05 A ... : ... .. . ...
ROW 0A : ... .. . ... : ... .. . ... : ... .. . ... ... : ... .. . ... : ... .. . ...
ROW 0B : --- .. . ... : ... .. . ... : --- .. . ... ... : --- .. . ... : ... .. . ...
ROW 0C : D-3 14 . ... : B-2 14 8 ... : F-2 01 . ... ... : 9-# 0B F ... : ... .. . ...
ROW 0D : ... .. . ... : ... .. . ... : ... .. . ... ... : ... .. . ... : ... .. . ...
ROW 0E : ... .. . ... : ... .. . ... : ... .. . ... ... : ... .. . ... : ... .. . ...
ROW 0F : ... .. . ... : ... .. . ... : ... .. . ... ... : ... .. . ... : ... .. . ...
ROW 10 : ... .. . ... : ... .. . ... : ... .. . ... ... : ... .. . ... : ... .. . ...
ROW 11 : ... .. . ... : --- .. . ... : --- .. . ... ... : ... .. . ... : ... .. . ...
ROW 12 : ... .. . ... : F-1 0B F ... : F-3 01 . ... ... : A-# 05 8 ... : ... .. . ...
ROW 13 : ... .. . ... : ... .. . ... : ... .. . ... ... : ... .. . ... : ... .. . ...
ROW 14 : ... .. . ... : --- .. . ... : --- .. . ... ... : --- .. . ... : ... .. . ...
ROW 15 : ... .. . ... : F-1 0B F ... : F-4 01 . ... ... : E-# 05 A ... : ... .. . ...
ROW 16 : ... .. . ... : ... .. . ... : ... .. . ... ... : ... .. . ... : ... .. . ...
ROW 17 : --- .. . ... : --- .. . ... : --- .. . ... ... : --- .. . ... : ... .. . ...
ROW 18 : D-3 14 6 ... : ... .. . ... : C-4 01 . 245 ... : F-# 0B F ... : ... .. . ...
ROW 19 : ... .. . ... : ... .. . ... : F-2 01 . 200 ... : ... .. . ... : ... .. . ...
ROW 1A : ... .. . ... : ... .. . ... : ... .. . ... ... : ... .. . ... : ... .. . ...
ROW 1B : ... .. . ... : ... .. . ... : ... .. . ... ... : ... .. . ... : ... .. . ...
ROW 1C : ... .. . ... : ... .. . ... : ... .. . ... ... : ... .. . ... : ... .. . ...
ROW 1D : --- .. . ... : ... .. . ... : --- .. . ... ... : ... .. . ... : ... .. . ...
ROW 1E : D-3 14 F ... : B-2 14 8 ... : F-3 01 . ... ... : A-# 0B 8 ... : ... .. . ...
ROW 1F : ... .. . ... : ... .. . ... : ... .. . ... ... : ... .. . ... : ... .. . ...
ROW 20 : ... .. . ... : ... .. . ... : --- .. . ... ... : --- .. . ... : ... .. . ...
ROW 21 : ... .. . ... : ... .. . ... : F-3 01 . ... ... : E-# 0B A ... : ... .. . ...
ROW 22 : ... .. . ... : ... .. . ... : ... .. . ... ... : ... .. . ... : ... .. . ...
ROW 23 : ... .. . ... : ... .. . ... : --- .. . ... ... : --- .. . ... : ... .. . ...
ROW 24 : E-3 14 . ... : G-2 14 . ... : C-5 01 . 245 ... : 9-# 0B F ... : ... .. . ...
ROW 25 : ... .. . ... : ... .. . ... : C-3 01 . 200 ... : ... .. . ... : ... .. . ...
ROW 26 : ... .. . ... : ... .. . ... : ... .. . ... ... : ... .. . ... : ... .. . ...
ROW 27 : ... .. . ... : ... .. . ... : ... .. . ... ... : ... .. . ... : ... .. . ...
ROW 28 : ... .. . ... : ... .. . ... : ... .. . ... ... : ... .. . ... : ... .. . ...
ROW 29 : ... .. . ... : ... .. . ... : ... .. . ... ... : ... .. . ... : ... .. . ...
ROW 2A : F-3 14 . ... : A#2 14 . ... : ... .. . ... ... : A-# 0B 8 ... : ... .. . ...
ROW 2B : ... .. . ... : ... .. . ... : ... .. . ... ... : ... .. . ... : ... .. . ...
ROW 2C : ... .. . ... : ... .. . ... : ... .. . ... ... : --- .. . ... : ... .. . ...
ROW 2D : ... .. . ... : ... .. . ... : ... .. . ... ... : E-# 0B A ... : ... .. . ...
ROW 2E : ... .. . ... : ... .. . ... : ... .. . ... ... : ... .. . ... : ... .. . ...
ROW 2F : ... .. . ... : ... .. . ... : --- .. . ... ... : --- .. . ... : ... .. . ...

PATTERN 07
ROW 00 : ... .. . ... : ... .. . ... : C-4 01 . 245 ... : F-# 0B F ... : ... .. . ...
ROW 01 : ... .. . ... : ... .. . ... : A#1 01 . 200 ... : ... .. . ... : ... .. . ...
ROW 02 : ... .. . ... : ... .. . ... : ... .. . ... ... : ... .. . ... : ... .. . ...
ROW 03 : ... .. . ... : ... .. . ... : ... .. . ... ... : ... .. . ... : ... .. . ...
ROW 04 : ... .. . ... : ... .. . ... : ... .. . ... ... : ... .. . ... : ... .. . ...
ROW 05 : --- .. . ... : ... .. . ... : --- .. . ... ... : ... .. . ... : ... .. . ...
ROW 06 : F-3 14 6 ... : ... .. . ... : F-2 01 . ... ... : A-# 05 4 ... : ... .. . ...
ROW 07 : ... .. . ... : ... .. . ... : ... .. . ... ... : ... .. . ... : ... .. . ...
ROW 08 : ... .. . ... : ... .. . ... : --- .. . ... ... : A-# 05 8 ... : ... .. . ...
ROW 09 : ... .. . ... : ... .. . ... : ... .. . ... ... : ... .. . ... : ... .. . ...
ROW 0A : ... .. . ... : ... .. . ... : ... .. . ... ... : E-# 05 A ... : ... .. . ...
ROW 0B : ... .. . ... : ... .. . ... : ... .. . ... ... : ... .. . ... : ... .. . ...
ROW 0C : ... .. . ... : ... .. . ... : A#2 01 . ... ... : 9-# 0B F ... : ... .. . ...
ROW 0D : ... .. . ... : ... .. . ... : ... .. . ... ... : ... .. . ... : ... .. . ...
ROW 0E : ... .. . ... : ... .. . ... : ... .. . ... ... : ... .. . ... : ... .. . ...
ROW 0F : ... .. . ... : ... .. . ... : ... .. . ... ... : ... .. . ... : ... .. . ...
ROW 10 : ... .. . ... : ... .. . ... : ... .. . ... ... : ... .. . ... : ... .. . ...
ROW 11 : --- .. . ... : --- .. . ... : --- .. . ... ... : ... .. . ... : ... .. . ...
ROW 12 : F-3 14 1 ... : A#1 0B . ... : F-2 01 . ... ... : A-# 05 8 ... : ... .. . ...
ROW 13 : ... .. . ... : ... .. . ... : ... .. . ... ... : ... .. . ... : ... .. . ...
ROW 14 : ... .. . ... : --- .. . ... : --- .. . ... ... : --- .. . ... : ... .. . ...
ROW 15 : ... .. . ... : A#1 0B . ... : A#2 01 . ... ... : E-# 05 A ... : ... .. . ...
ROW 16 : ... .. . ... : ... .. . ... : ... .. . ... ... : ... .. . ... : ... .. . ...
ROW 17 : --- .. . ... : --- .. . ... : --- .. . ... ... : --- .. . ... : ... .. . ...
ROW 18 : F-3 14 F ... : D-3 0C . ... : C-4 01 . 245 ... : F-# 0B F ... : ... .. . ...
ROW 19 : ... .. . ... : ... .. . ... : A#1 01 . 200 ... : ... .. . ... : ... .. . ...
ROW 1A : ... .. . ... : ... .. . ... : ... .. . ... ... : ... .. . ... : ... .. . ...
ROW 1B : ... .. . ... : ... .. . ... : ... .. . ... ... : ... .. . ... : ... .. . ...
ROW 1C : ... .. . ... : ... .. . ... : ... .. . ... ... : ... .. . ... : ... .. . ...
ROW 1D : ... .. . ... : ... .. . ... : --- .. . ... ... : ... .. . ... : ... .. . ...
ROW 1E : D-3 14 . ... : A#2 14 . ... : A#2 01 . ... ... : A-# 05 8 ... : ... .. . ...
ROW 1F : ... .. . ... : ... .. . ... : ... .. . ... ... : ... .. . ... : ... .. . ...
ROW 20 : ... .. . ... : ... .. . ... : --- .. . ... ... : --- .. . ... : ... .. . ...
ROW 21 : ... .. . ... : ... .. . ... : A#2 01 . ... ... : E-# 05 A ... : ... .. . ...
ROW 22 : ... .. . ... : ... .. . ... : ... .. . ... ... : ... .. . ... : ... .. . ...
ROW 23 : ... .. . ... : ... .. . ... : --- .. . ... ... : --- .. . ... : ... .. . ...
ROW 24 : F-3 14 . ... : D-3 14 . ... : A#1 01 . ... ... : 9-# 0B F ... : ... .. . ...
ROW 25 : ... .. . ... : ... .. . ... : ... .. . ... ... : ... .. . ... : ... .. . ...
ROW 26 : ... .. . ... : ... .. . ... : ... .. . ... ... : ... .. . ... : ... .. . ...
ROW 27 : ... .. . ... : ... .. . ... : ... .. . ... ... : ... .. . ... : ... .. . ...
ROW 28 : ... .. . ... : ... .. . ... : ... .. . ... ... : ... .. . ... : ... .. . ...
ROW 29 : --- .. . ... : ... .. . ... : --- .. . ... ... : ... .. . ... : ... .. . ...
ROW 2A : A-3 14 . ... : F-3 14 . ... : A#2 01 . ... ... : F-# 0B F ... : ... .. . ...
ROW 2B : ... .. . ... : ... .. . ... : ... .. . ... ... : ... .. . ... : ... .. . ...
ROW 2C : ... .. . ... : ... .. . ... : --- .. . ... ... : ... .. . ... : ... .. . ...
ROW 2D : ... .. . ... : ... .. . ... : A#2 01 . ... ... : ... .. . ... : ... .. . ...
ROW 2E : ... .. . ... : ... .. . ... : ... .. . ... ... : ... .. . ... : ... .. . ...
ROW 2F : ... .. . ... : ... .. . ... : --- .. . ... ... : ... .. . ... : ... .. . ...

PATTERN 08
ROW 00 : ... .. . ... : ... .. . ... : C-4 01 . 245 ... : F-# 0B F ... : ... .. . ...
ROW 01 : ... .. . ... : ... .. . ... : C-2 01 . 200 ... : ... .. . ... : ... .. . ...
ROW 02 : ... .. . ... : ... .. . ... : ... .. . ... ... : ... .. . ... : ... .. . ...
ROW 03 : ... .. . ... : ... .. . ... : ... .. . ... ... : ... .. . ... : ... .. . ...
ROW 04 : ... .. . ... : ... .. . ... : ... .. . ... ... : ... .. . ... : ... .. . ...
ROW 05 : --- .. . ... : ... .. . ... : --- .. . ... ... : ... .. . ... : ... .. . ...
ROW 06 : A#3 14 F ... : G-3 14 . ... : C-3 01 . ... ... : A-# 05 8 ... : ... .. . ...
ROW 07 : ... .. . ... : ... .. . ... : ... .. . ... ... : ... .. . ... : ... .. . ...
ROW 08 : ... .. . ... : ... .. . ... : --- .. . ... ... : --- .. . ... : ... .. . ...
ROW 09 : ... .. . ... : ... .. . ... : C-3 01 . ... ... : E-# 05 A ... : ... .. . ...
ROW 0A : ... .. . ... : ... .. . ... : ... .. . ... ... : ... .. . ... : ... .. . ...
ROW 0B : ... .. . ... : ... .. . ... : --- .. . ... ... : --- .. . ... : ... .. . ...
ROW 0C : A-3 14 . ... : F-3 14 . ... : C-2 01 . ... ... : 9-# 0B F ... : ... .. . ...
ROW 0D : ... .. . ... : ... .. . ... : ... .. . ... ... : ... .. . ... : ... .. . ...
ROW 0E : ... .. . ... : ... .. . ... : ... .. . ... ... : ... .. . ... : ... .. . ...
ROW 0F : ... .. . ... : ... .. . ... : ... .. . ... ... : ... .. . ... : ... .. . ...
ROW 10 : ... .. . ... : ... .. . ... : ... .. . ... ... : ... .. . ... : ... .. . ...
ROW 11 : --- .. . ... : --- .. . ... : --- .. . ... ... : ... .. . ... : ... .. . ...
ROW 12 : G-3 14 . ... : E-3 14 . ... : C-3 01 . ... ... : A-# 05 8 ... : ... .. . ...
ROW 13 : ... .. . ... : ... .. . ... : ... .. . ... ... : ... .. . ... : ... .. . ...
ROW 14 : ... .. . ... : ... .. . ... : --- .. . ... ... : --- .. . ... : ... .. . ...
ROW 15 : ... .. . ... : ... .. . ... : C-4 01 . ... ... : E-# 05 A ... : ... .. . ...
ROW 16 : ... .. . ... : ... .. . ... : ... .. . ... ... : ... .. . ... : ... .. . ...
ROW 17 : ... .. . ... : ... .. . ... : --- .. . ... ... : --- .. . ... : ... .. . ...
ROW 18 : ... .. . ... : ... .. . ... : C-4 01 . 245 ... : F-# 0B F ... : ... .. . ...
ROW 19 : ... .. . ... : ... .. . ... : C-2 01 . 200 ... : ... .. . ... : ... .. . ...
ROW 1A : ... .. . ... : ... .. . ... : ... .. . ... ... : ... .. . ... : ... .. . ...
ROW 1B : ... .. . ... : ... .. . ... : ... .. . ... ... : ... .. . ... : ... .. . ...
ROW 1C : ... .. . ... : ... .. . ... : ... .. . ... ... : ... .. . ... : ... .. . ...
ROW 1D : --- .. . ... : --- .. . ... : --- .. . ... ... : ... .. . ... : ... .. . ...
ROW 1E : G-3 14 6 ... : E-3 14 1 ... : C-3 01 . ... ... : A-# 05 8 ... : ... .. . ...
ROW 1F : ... .. . ... : ... .. . ... : ... .. . ... ... : ... .. . ... : ... .. . ...
ROW 20 : ... .. . ... : ... .. . ... : --- .. . ... ... : A-# 05 8 ... : ... .. . ...
ROW 21 : ... .. . ... : ... .. . ... : C-3 01 . ... ... : ... .. . ... : ... .. . ...
ROW 22 : ... .. . ... : ... .. . ... : ... .. . ... ... : E-# 05 A ... : ... .. . ...
ROW 23 : ... .. . ... : ... .. . ... : --- .. . ... ... : --- .. . ... : ... .. . ...
ROW 24 : ... .. . ... : ... .. . ... : C-4 01 . 245 ... : 9-# 0B 8 ... : ... .. . ...
ROW 25 : ... .. . ... : ... .. . ... : C-2 01 . 200 ... : ... .. . ... : ... .. . ...
ROW 26 : ... .. . ... : ... .. . ... : ... .. . ... ... : ... .. . ... : ... .. . ...
ROW 27 : ... .. . ... : ... .. . ... : ... .. . ... ... : 7-# 0B A ... : ... .. . ...
ROW 28 : ... .. . ... : ... .. . ... : ... .. . ... ... : ... .. . ... : ... .. . ...
ROW 29 : --- .. . ... : --- .. . ... : --- .. . ... ... : ... .. . ... : ... .. . ...
ROW 2A : G-3 14 1 ... : ... .. . ... : C-4 01 . 245 ... : 5-# 0B C ... : ... .. . ...
ROW 2B : ... .. . ... : ... .. . ... : C-2 01 . 200 ... : ... .. . ... : ... .. . ...
ROW 2C : ... .. . ... : ... .. . ... : ... .. . ... ... : ... .. . ... : ... .. . ...
ROW 2D : ... .. . ... : ... .. . ... : ... .. . ... ... : 2-# 0B C ... : ... .. . ...
ROW 2E : ... .. . ... : ... .. . ... : ... .. . ... ... : ... .. . ... : ... .. . ...
ROW 2F : ... .. . B01 : ... .. . B01 : --- .. . ... B01 : ... .. . ... : ... .. . B01

TRACK  16   5 150 "mirror"
COLUMNS : 1 1 1 1 1

ORDER 00 : 00 00 00 00 00

PATTERN 00
ROW 00 : ... .. . ... : ... .. . ... : D-4 05 . 240 : ... .. . ... : ... .. . ...
ROW 01 : ... .. . ... : ... .. . ... : --- .. . ... : ... .. . ... : ... .. . ...
ROW 02 : ... .. . ... : ... .. . ... : ... .. . ... : ... .. . ... : ... .. . ...
ROW 03 : ... .. . ... : ... .. . ... : ... .. . ... : ... .. . ... : ... .. . ...
ROW 04 : ... .. . ... : ... .. . ... : D#4 05 . 240 : ... .. . ... : ... .. . ...
ROW 05 : ... .. . ... : ... .. . ... : --- .. . ... : ... .. . ... : ... .. . ...
ROW 06 : ... .. . ... : ... .. . ... : ... .. . ... : ... .. . ... : ... .. . ...
ROW 07 : ... .. . ... : ... .. . ... : ... .. . ... : ... .. . ... : ... .. . ...
ROW 08 : ... .. . ... : ... .. . ... : ... .. . ... : ... .. . ... : ... .. . ...
ROW 09 : ... .. . ... : ... .. . ... : ... .. . ... : ... .. . ... : ... .. . ...
ROW 0A : ... .. . ... : ... .. . ... : ... .. . ... : ... .. . ... : ... .. . ...
ROW 0B : ... .. . ... : ... .. . ... : ... .. . ... : ... .. . ... : ... .. . ...
ROW 0C : ... .. . ... : ... .. . ... : ... .. . ... : ... .. . ... : ... .. . ...
ROW 0D : ... .. . ... : ... .. . ... : ... .. . ... : ... .. . ... : ... .. . ...
ROW 0E : ... .. . ... : ... .. . ... : ... .. . ... : ... .. . ... : ... .. . ...
ROW 0F : ... .. . ... : ... .. . ... : ... .. . ... : ... .. . ... : ... .. . ...

# End of export
